<?xml version="1.0" encoding="UTF-8" standalone="no"?>
<!DOCTYPE svg PUBLIC "-//W3C//DTD SVG 1.1//EN"
 "http://www.w3.org/Graphics/SVG/1.1/DTD/svg11.dtd">
<!-- Generated by graphviz version 2.40.1 (20161225.0304)
 -->
<!-- Title: state transitions Pages: 1 -->
<svg width="530pt" height="270pt"
 viewBox="0.00 0.00 530.28 270.00" xmlns="http://www.w3.org/2000/svg" xmlns:xlink="http://www.w3.org/1999/xlink">
<g id="graph0" class="graph" transform="scale(1 1) rotate(0) translate(4 266)">
<title>state transitions</title>
<polygon fill="#ffffff" stroke="transparent" points="-4,4 -4,-266 526.278,-266 526.278,4 -4,4"/>
<g id="clust1" class="cluster state regular">
<title>cluster_state</title>
<path fill="none" stroke="#000000" stroke-width="2" d="M20,-8C20,-8 476,-8 476,-8 482,-8 488,-14 488,-20 488,-20 488,-242 488,-242 488,-248 482,-254 476,-254 476,-254 20,-254 20,-254 14,-254 8,-248 8,-242 8,-242 8,-20 8,-20 8,-14 14,-8 20,-8"/>
<text text-anchor="start" x="234.9944" y="-235.2" font-family="Helvetica,sans-Serif" font-size="12.00" fill="#000000">state</text>
</g>
<!-- state -->
<!-- idle -->
<g id="node2" class="node state regular">
<title>idle</title>
<polygon fill="#ffffff" fill-opacity="0.003922" stroke="transparent" stroke-width="2" points="299,-216 243,-216 243,-180 299,-180 299,-216"/>
<text text-anchor="start" x="261.6664" y="-194.2" font-family="Helvetica,sans-Serif" font-size="12.00" fill="#000000">idle</text>
<path fill="none" stroke="#000000" stroke-width="2" d="M255.3333,-181C255.3333,-181 286.6667,-181 286.6667,-181 292.3333,-181 298,-186.6667 298,-192.3333 298,-192.3333 298,-203.6667 298,-203.6667 298,-209.3333 292.3333,-215 286.6667,-215 286.6667,-215 255.3333,-215 255.3333,-215 249.6667,-215 244,-209.3333 244,-203.6667 244,-203.6667 244,-192.3333 244,-192.3333 244,-186.6667 249.6667,-181 255.3333,-181"/>
</g>
<!-- writing -->
<g id="node3" class="node state regular">
<title>writing</title>
<polygon fill="#ffffff" fill-opacity="0.003922" stroke="transparent" stroke-width="2" points="143,-134 87,-134 87,-98 143,-98 143,-134"/>
<text text-anchor="start" x="97.6702" y="-112.2" font-family="Helvetica,sans-Serif" font-size="12.00" fill="#000000">writing</text>
<path fill="none" stroke="#000000" stroke-width="2" d="M99.3333,-99C99.3333,-99 130.6667,-99 130.6667,-99 136.3333,-99 142,-104.6667 142,-110.3333 142,-110.3333 142,-121.6667 142,-121.6667 142,-127.3333 136.3333,-133 130.6667,-133 130.6667,-133 99.3333,-133 99.3333,-133 93.6667,-133 88,-127.3333 88,-121.6667 88,-121.6667 88,-110.3333 88,-110.3333 88,-104.6667 93.6667,-99 99.3333,-99"/>
</g>
<!-- idle&#45;&gt;writing -->
<g id="edge2" class="edge transition">
<title>idle&#45;&gt;writing</title>
<path fill="none" stroke="#000000" d="M242.6892,-197.2651C193.4266,-195.3241 95.1541,-188.2987 73.953,-163 67.2936,-155.0535 71.3499,-146.4799 79.0406,-138.8586"/>
<polygon fill="#000000" stroke="#000000" points="81.5607,-141.3106 86.9222,-132.1725 77.0323,-135.9726 81.5607,-141.3106"/>
<text text-anchor="start" x="73" y="-154" font-family="Helvetica,sans-Serif" font-size="10.00" fill="#000000">axils_m2s.aw.valid = &#39;1&#39; &#160;&#160;</text>
</g>
<!-- reading -->
<g id="node5" class="node state regular">
<title>reading</title>
<polygon fill="#ffffff" fill-opacity="0.003922" stroke="transparent" stroke-width="2" points="262,-134 200,-134 200,-98 262,-98 262,-134"/>
<text text-anchor="start" x="210.9942" y="-112.2" font-family="Helvetica,sans-Serif" font-size="12.00" fill="#000000">reading</text>
<path fill="none" stroke="#000000" stroke-width="2" d="M212.3333,-99C212.3333,-99 249.6667,-99 249.6667,-99 255.3333,-99 261,-104.6667 261,-110.3333 261,-110.3333 261,-121.6667 261,-121.6667 261,-127.3333 255.3333,-133 249.6667,-133 249.6667,-133 212.3333,-133 212.3333,-133 206.6667,-133 201,-127.3333 201,-121.6667 201,-121.6667 201,-110.3333 201,-110.3333 201,-104.6667 206.6667,-99 212.3333,-99"/>
</g>
<!-- idle&#45;&gt;reading -->
<g id="edge1" class="edge transition">
<title>idle&#45;&gt;reading</title>
<path fill="none" stroke="#000000" d="M298.439,-179.8475C307.7731,-171.3626 314.4093,-160.9536 308,-151 299.7968,-138.2603 285.6963,-130.1043 271.7856,-124.9066"/>
<polygon fill="#000000" stroke="#000000" points="272.8533,-121.5734 262.2602,-121.7609 270.6582,-128.2203 272.8533,-121.5734"/>
<text text-anchor="start" x="310" y="-154" font-family="Helvetica,sans-Serif" font-size="10.00" fill="#000000">axils_m2s.ar.valid = &#39;1&#39; &#160;&#160;</text>
</g>
<!-- write_response -->
<g id="node4" class="node state regular">
<title>write_response</title>
<polygon fill="#ffffff" fill-opacity="0.003922" stroke="transparent" stroke-width="2" points="276.5,-52 173.5,-52 173.5,-16 276.5,-16 276.5,-52"/>
<text text-anchor="start" x="184.8272" y="-30.2" font-family="Helvetica,sans-Serif" font-size="12.00" fill="#000000">write_response</text>
<path fill="none" stroke="#000000" stroke-width="2" d="M185.8333,-17C185.8333,-17 264.1667,-17 264.1667,-17 269.8333,-17 275.5,-22.6667 275.5,-28.3333 275.5,-28.3333 275.5,-39.6667 275.5,-39.6667 275.5,-45.3333 269.8333,-51 264.1667,-51 264.1667,-51 185.8333,-51 185.8333,-51 180.1667,-51 174.5,-45.3333 174.5,-39.6667 174.5,-39.6667 174.5,-28.3333 174.5,-28.3333 174.5,-22.6667 180.1667,-17 185.8333,-17"/>
</g>
<!-- writing&#45;&gt;write_response -->
<g id="edge3" class="edge transition">
<title>writing&#45;&gt;write_response</title>
<path fill="none" stroke="#000000" d="M139.4126,-97.8015C155.078,-86.1237 175.5977,-70.8272 192.618,-58.1393"/>
<polygon fill="#000000" stroke="#000000" points="194.73,-60.9304 200.6557,-52.1476 190.5464,-55.3182 194.73,-60.9304"/>
<text text-anchor="start" x="177" y="-72" font-family="Helvetica,sans-Serif" font-size="10.00" fill="#000000">axils_m2s.w.valid = &#39;1&#39; &#160;&#160;</text>
</g>
<!-- write_response&#45;&gt;idle -->
<g id="edge4" class="edge transition">
<title>write_response&#45;&gt;idle</title>
<path fill="none" stroke="#000000" d="M276.5097,-48.0477C324.4248,-64.1793 392.9508,-95.8124 424,-151 426.6151,-155.6482 427.3243,-158.8294 424,-163 423.5423,-163.5742 354.2671,-179.2584 309.1013,-189.434"/>
<polygon fill="#000000" stroke="#000000" points="308.2944,-186.028 299.3076,-191.6393 309.8322,-192.857 308.2944,-186.028"/>
<text text-anchor="start" x="412" y="-113" font-family="Helvetica,sans-Serif" font-size="10.00" fill="#000000">axils_m2s.b.ready = &#39;1&#39; &#160;&#160;</text>
</g>
<!-- reading&#45;&gt;idle -->
<g id="edge5" class="edge transition">
<title>reading&#45;&gt;idle</title>
<path fill="none" stroke="#000000" d="M204.1939,-134.2285C195.0853,-142.7287 188.6285,-153.1287 194.952,-163 203.4875,-176.3244 218.5179,-184.6458 232.9749,-189.8097"/>
<polygon fill="#000000" stroke="#000000" points="232.2157,-193.24 242.8052,-192.903 234.3168,-186.5627 232.2157,-193.24"/>
<text text-anchor="start" x="194" y="-154" font-family="Helvetica,sans-Serif" font-size="10.00" fill="#000000">axils_m2s.r.ready = &#39;1&#39; &#160;&#160;</text>
</g>
</g>
</svg>
