<?xml version="1.0" encoding="UTF-8" standalone="no"?>
<!DOCTYPE svg PUBLIC "-//W3C//DTD SVG 1.1//EN"
 "http://www.w3.org/Graphics/SVG/1.1/DTD/svg11.dtd">
<!-- Generated by graphviz version 2.40.1 (20161225.0304)
 -->
<!-- Title: state transitions Pages: 1 -->
<svg width="346pt" height="446pt"
 viewBox="0.00 0.00 345.50 446.00" xmlns="http://www.w3.org/2000/svg" xmlns:xlink="http://www.w3.org/1999/xlink">
<g id="graph0" class="graph" transform="scale(1 1) rotate(0) translate(4 442)">
<title>state transitions</title>
<polygon fill="#ffffff" stroke="transparent" points="-4,4 -4,-442 341.502,-442 341.502,4 -4,4"/>
<g id="clust1" class="cluster state regular">
<title>cluster_state</title>
<path fill="none" stroke="#000000" stroke-width="2" d="M20,-8C20,-8 311,-8 311,-8 317,-8 323,-14 323,-20 323,-20 323,-418 323,-418 323,-424 317,-430 311,-430 311,-430 20,-430 20,-430 14,-430 8,-424 8,-418 8,-418 8,-20 8,-20 8,-14 14,-8 20,-8"/>
<text text-anchor="start" x="152.4944" y="-411.2" font-family="Helvetica,sans-Serif" font-size="12.00" fill="#000000">state</text>
</g>
<!-- state -->
<!-- idle -->
<g id="node2" class="node state regular">
<title>idle</title>
<polygon fill="#ffffff" fill-opacity="0.003922" stroke="transparent" stroke-width="2" points="218,-392 162,-392 162,-356 218,-356 218,-392"/>
<text text-anchor="start" x="180.6664" y="-370.2" font-family="Helvetica,sans-Serif" font-size="12.00" fill="#000000">idle</text>
<path fill="none" stroke="#000000" stroke-width="2" d="M174.3333,-357C174.3333,-357 205.6667,-357 205.6667,-357 211.3333,-357 217,-362.6667 217,-368.3333 217,-368.3333 217,-379.6667 217,-379.6667 217,-385.3333 211.3333,-391 205.6667,-391 205.6667,-391 174.3333,-391 174.3333,-391 168.6667,-391 163,-385.3333 163,-379.6667 163,-379.6667 163,-368.3333 163,-368.3333 163,-362.6667 168.6667,-357 174.3333,-357"/>
</g>
<!-- compute_burst_length0 -->
<g id="node3" class="node state regular">
<title>compute_burst_length0</title>
<polygon fill="#ffffff" fill-opacity="0.003922" stroke="transparent" stroke-width="2" points="208.5,-310 61.5,-310 61.5,-274 208.5,-274 208.5,-310"/>
<text text-anchor="start" x="72.8114" y="-288.2" font-family="Helvetica,sans-Serif" font-size="12.00" fill="#000000">compute_burst_length0</text>
<path fill="none" stroke="#000000" stroke-width="2" d="M73.8333,-275C73.8333,-275 196.1667,-275 196.1667,-275 201.8333,-275 207.5,-280.6667 207.5,-286.3333 207.5,-286.3333 207.5,-297.6667 207.5,-297.6667 207.5,-303.3333 201.8333,-309 196.1667,-309 196.1667,-309 73.8333,-309 73.8333,-309 68.1667,-309 62.5,-303.3333 62.5,-297.6667 62.5,-297.6667 62.5,-286.3333 62.5,-286.3333 62.5,-280.6667 68.1667,-275 73.8333,-275"/>
</g>
<!-- idle&#45;&gt;compute_burst_length0 -->
<g id="edge1" class="edge transition">
<title>idle&#45;&gt;compute_burst_length0</title>
<path fill="none" stroke="#000000" d="M177.7937,-355.8015C170.4594,-344.8668 160.9971,-330.7593 152.8359,-318.5916"/>
<polygon fill="#000000" stroke="#000000" points="155.6493,-316.5029 147.1722,-310.1476 149.8358,-320.4021 155.6493,-316.5029"/>
<text text-anchor="start" x="166" y="-330" font-family="Helvetica,sans-Serif" font-size="10.00" fill="#000000">start = &#39;1&#39; &#160;&#160;</text>
</g>
<!-- compute_burst_length1 -->
<g id="node4" class="node state regular">
<title>compute_burst_length1</title>
<polygon fill="#ffffff" fill-opacity="0.003922" stroke="transparent" stroke-width="2" points="163.5,-228 16.5,-228 16.5,-192 163.5,-192 163.5,-228"/>
<text text-anchor="start" x="27.8114" y="-206.2" font-family="Helvetica,sans-Serif" font-size="12.00" fill="#000000">compute_burst_length1</text>
<path fill="none" stroke="#000000" stroke-width="2" d="M28.8333,-193C28.8333,-193 151.1667,-193 151.1667,-193 156.8333,-193 162.5,-198.6667 162.5,-204.3333 162.5,-204.3333 162.5,-215.6667 162.5,-215.6667 162.5,-221.3333 156.8333,-227 151.1667,-227 151.1667,-227 28.8333,-227 28.8333,-227 23.1667,-227 17.5,-221.3333 17.5,-215.6667 17.5,-215.6667 17.5,-204.3333 17.5,-204.3333 17.5,-198.6667 23.1667,-193 28.8333,-193"/>
</g>
<!-- compute_burst_length0&#45;&gt;compute_burst_length1 -->
<g id="edge2" class="edge transition">
<title>compute_burst_length0&#45;&gt;compute_burst_length1</title>
<path fill="none" stroke="#000000" d="M125.013,-273.8015C119.0705,-262.973 111.4205,-249.033 104.7878,-236.9466"/>
<polygon fill="#000000" stroke="#000000" points="107.8384,-235.2304 99.959,-228.1476 101.7017,-238.5981 107.8384,-235.2304"/>
<text text-anchor="middle" x="116.3895" y="-248" font-family="Helvetica,sans-Serif" font-size="10.00" fill="#000000"> </text>
</g>
<!-- compute_is_last -->
<g id="node5" class="node state regular">
<title>compute_is_last</title>
<polygon fill="#ffffff" fill-opacity="0.003922" stroke="transparent" stroke-width="2" points="144,-134 36,-134 36,-98 144,-98 144,-134"/>
<text text-anchor="start" x="46.6572" y="-112.2" font-family="Helvetica,sans-Serif" font-size="12.00" fill="#000000">compute_is_last</text>
<path fill="none" stroke="#000000" stroke-width="2" d="M48.3333,-99C48.3333,-99 131.6667,-99 131.6667,-99 137.3333,-99 143,-104.6667 143,-110.3333 143,-110.3333 143,-121.6667 143,-121.6667 143,-127.3333 137.3333,-133 131.6667,-133 131.6667,-133 48.3333,-133 48.3333,-133 42.6667,-133 37,-127.3333 37,-121.6667 37,-121.6667 37,-110.3333 37,-110.3333 37,-104.6667 42.6667,-99 48.3333,-99"/>
</g>
<!-- compute_burst_length1&#45;&gt;compute_is_last -->
<g id="edge3" class="edge transition">
<title>compute_burst_length1&#45;&gt;compute_is_last</title>
<path fill="none" stroke="#000000" d="M90,-191.8759C90,-178.3516 90,-159.6192 90,-144.1514"/>
<polygon fill="#000000" stroke="#000000" points="93.5001,-144.0685 90,-134.0685 86.5001,-144.0685 93.5001,-144.0685"/>
<text text-anchor="middle" x="91.3895" y="-160" font-family="Helvetica,sans-Serif" font-size="10.00" fill="#000000"> </text>
</g>
<!-- await_accept -->
<g id="node6" class="node state regular">
<title>await_accept</title>
<polygon fill="#ffffff" fill-opacity="0.003922" stroke="transparent" stroke-width="2" points="213,-52 121,-52 121,-16 213,-16 213,-52"/>
<text text-anchor="start" x="131.99" y="-30.2" font-family="Helvetica,sans-Serif" font-size="12.00" fill="#000000">await_accept</text>
<path fill="none" stroke="#000000" stroke-width="2" d="M133.3333,-17C133.3333,-17 200.6667,-17 200.6667,-17 206.3333,-17 212,-22.6667 212,-28.3333 212,-28.3333 212,-39.6667 212,-39.6667 212,-45.3333 206.3333,-51 200.6667,-51 200.6667,-51 133.3333,-51 133.3333,-51 127.6667,-51 122,-45.3333 122,-39.6667 122,-39.6667 122,-28.3333 122,-28.3333 122,-22.6667 127.6667,-17 133.3333,-17"/>
</g>
<!-- compute_is_last&#45;&gt;await_accept -->
<g id="edge4" class="edge transition">
<title>compute_is_last&#45;&gt;await_accept</title>
<path fill="none" stroke="#000000" d="M107.0888,-97.8015C117.6558,-86.5483 131.3783,-71.9348 143.0234,-59.5335"/>
<polygon fill="#000000" stroke="#000000" points="145.6651,-61.8333 149.959,-52.1476 140.5622,-57.0416 145.6651,-61.8333"/>
<text text-anchor="middle" x="134.3895" y="-72" font-family="Helvetica,sans-Serif" font-size="10.00" fill="#000000"> </text>
</g>
<!-- await_accept&#45;&gt;idle -->
<g id="edge5" class="edge transition">
<title>await_accept&#45;&gt;idle</title>
<path fill="none" stroke="#000000" d="M213.0085,-41.1672C246.4951,-47.7286 286,-58.8845 286,-75 286,-142.5 286,-142.5 286,-142.5 286,-190.6807 232,-188.3193 232,-236.5 232,-333 232,-333 232,-333 232,-339.5534 229.3493,-345.4017 225.3797,-350.4856"/>
<polygon fill="#000000" stroke="#000000" points="222.6989,-348.2223 218.2476,-357.8367 227.723,-353.0967 222.6989,-348.2223"/>
<text text-anchor="start" x="255" y="-213" font-family="Helvetica,sans-Serif" font-size="10.00" fill="#000000">burst_last = &#39;1&#39; &#160;&#160;</text>
<text text-anchor="start" x="255" y="-201" font-family="Helvetica,sans-Serif" font-size="10.00" fill="#000000">burst_ready = &#39;1&#39; &#160;&#160;</text>
</g>
<!-- await_accept&#45;&gt;compute_burst_length0 -->
<g id="edge6" class="edge transition">
<title>await_accept&#45;&gt;compute_burst_length0</title>
<path fill="none" stroke="#000000" d="M167,-52.3688C167,-59.4426 167,-67.5972 167,-75 167,-142.5 167,-142.5 167,-142.5 167,-180.666 185.5217,-191.313 175,-228 171.1807,-241.3172 163.6927,-254.5515 156.2181,-265.4996"/>
<polygon fill="#000000" stroke="#000000" points="153.2856,-263.5829 150.2969,-273.7475 158.972,-267.6652 153.2856,-263.5829"/>
<text text-anchor="start" x="171" y="-166" font-family="Helvetica,sans-Serif" font-size="10.00" fill="#000000">burst_ready = &#39;1&#39; &#160;&#160;</text>
<text text-anchor="start" x="171" y="-154" font-family="Helvetica,sans-Serif" font-size="10.00" fill="#000000">not (burst_last = &#39;1&#39;) &#160;&#160;</text>
</g>
</g>
</svg>
