<?xml version="1.0" encoding="UTF-8" standalone="no"?>
<!DOCTYPE svg PUBLIC "-//W3C//DTD SVG 1.1//EN"
 "http://www.w3.org/Graphics/SVG/1.1/DTD/svg11.dtd">
<!-- Generated by graphviz version 2.40.1 (20161225.0304)
 -->
<!-- Title: state transitions Pages: 1 -->
<svg width="226pt" height="294pt"
 viewBox="0.00 0.00 225.78 294.00" xmlns="http://www.w3.org/2000/svg" xmlns:xlink="http://www.w3.org/1999/xlink">
<g id="graph0" class="graph" transform="scale(1 1) rotate(0) translate(4 290)">
<title>state transitions</title>
<polygon fill="#ffffff" stroke="transparent" points="-4,4 -4,-290 221.779,-290 221.779,4 -4,4"/>
<g id="clust1" class="cluster state regular">
<title>cluster_state</title>
<path fill="none" stroke="#000000" stroke-width="2" d="M20,-8C20,-8 192,-8 192,-8 198,-8 204,-14 204,-20 204,-20 204,-266 204,-266 204,-272 198,-278 192,-278 192,-278 20,-278 20,-278 14,-278 8,-272 8,-266 8,-266 8,-20 8,-20 8,-14 14,-8 20,-8"/>
<text text-anchor="start" x="92.9944" y="-259.2" font-family="Helvetica,sans-Serif" font-size="12.00" fill="#000000">state</text>
</g>
<!-- state -->
<!-- idle -->
<g id="node2" class="node state regular">
<title>idle</title>
<polygon fill="#ffffff" fill-opacity="0.003922" stroke="transparent" stroke-width="2" points="98,-240 42,-240 42,-204 98,-204 98,-240"/>
<text text-anchor="start" x="60.6664" y="-218.2" font-family="Helvetica,sans-Serif" font-size="12.00" fill="#000000">idle</text>
<path fill="none" stroke="#000000" stroke-width="2" d="M54.3333,-205C54.3333,-205 85.6667,-205 85.6667,-205 91.3333,-205 97,-210.6667 97,-216.3333 97,-216.3333 97,-227.6667 97,-227.6667 97,-233.3333 91.3333,-239 85.6667,-239 85.6667,-239 54.3333,-239 54.3333,-239 48.6667,-239 43,-233.3333 43,-227.6667 43,-227.6667 43,-216.3333 43,-216.3333 43,-210.6667 48.6667,-205 54.3333,-205"/>
</g>
<!-- receiving -->
<g id="node3" class="node state regular">
<title>receiving</title>
<polygon fill="#ffffff" fill-opacity="0.003922" stroke="transparent" stroke-width="2" points="86,-146 16,-146 16,-110 86,-110 86,-146"/>
<text text-anchor="start" x="26.9982" y="-124.2" font-family="Helvetica,sans-Serif" font-size="12.00" fill="#000000">receiving</text>
<path fill="none" stroke="#000000" stroke-width="2" d="M28.3333,-111C28.3333,-111 73.6667,-111 73.6667,-111 79.3333,-111 85,-116.6667 85,-122.3333 85,-122.3333 85,-133.6667 85,-133.6667 85,-139.3333 79.3333,-145 73.6667,-145 73.6667,-145 28.3333,-145 28.3333,-145 22.6667,-145 17,-139.3333 17,-133.6667 17,-133.6667 17,-122.3333 17,-122.3333 17,-116.6667 22.6667,-111 28.3333,-111"/>
</g>
<!-- idle&#45;&gt;receiving -->
<g id="edge1" class="edge transition">
<title>idle&#45;&gt;receiving</title>
<path fill="none" stroke="#000000" d="M60.7247,-203.885C58.396,-198.573 56.1727,-192.6665 54.804,-187 52.4148,-177.1083 51.3056,-166.0295 50.8433,-156.1665"/>
<polygon fill="#000000" stroke="#000000" points="54.3389,-155.9552 50.5657,-146.0551 47.3416,-156.1474 54.3389,-155.9552"/>
<text text-anchor="start" x="54" y="-178" font-family="Helvetica,sans-Serif" font-size="10.00" fill="#000000">cycles = cycles_per_bit/2 &#45; 1 &#160;&#160;</text>
<text text-anchor="start" x="54" y="-166" font-family="Helvetica,sans-Serif" font-size="10.00" fill="#000000">rx = &#39;0&#39; &#160;&#160;</text>
</g>
<!-- done -->
<g id="node4" class="node state regular">
<title>done</title>
<polygon fill="#ffffff" fill-opacity="0.003922" stroke="transparent" stroke-width="2" points="134,-52 78,-52 78,-16 134,-16 134,-52"/>
<text text-anchor="start" x="92.6584" y="-30.2" font-family="Helvetica,sans-Serif" font-size="12.00" fill="#000000">done</text>
<path fill="none" stroke="#000000" stroke-width="2" d="M90.3333,-17C90.3333,-17 121.6667,-17 121.6667,-17 127.3333,-17 133,-22.6667 133,-28.3333 133,-28.3333 133,-39.6667 133,-39.6667 133,-45.3333 127.3333,-51 121.6667,-51 121.6667,-51 90.3333,-51 90.3333,-51 84.6667,-51 79,-45.3333 79,-39.6667 79,-39.6667 79,-28.3333 79,-28.3333 79,-22.6667 84.6667,-17 90.3333,-17"/>
</g>
<!-- receiving&#45;&gt;done -->
<g id="edge2" class="edge transition">
<title>receiving&#45;&gt;done</title>
<path fill="none" stroke="#000000" d="M50.7838,-109.7947C51.4056,-97.4908 53.7774,-81.3076 61.142,-69 63.6115,-64.8731 66.7641,-61.05 70.2508,-57.5644"/>
<polygon fill="#000000" stroke="#000000" points="72.6097,-60.1505 77.765,-50.8945 67.9628,-54.9154 72.6097,-60.1505"/>
<text text-anchor="start" x="61" y="-84" font-family="Helvetica,sans-Serif" font-size="10.00" fill="#000000">index = data&#39;length &#45; 1 &#160;&#160;</text>
<text text-anchor="start" x="61" y="-72" font-family="Helvetica,sans-Serif" font-size="10.00" fill="#000000">cycles = cycles_per_bit &#45; 1 &#160;&#160;</text>
</g>
<!-- done&#45;&gt;idle -->
<g id="edge3" class="edge transition">
<title>done&#45;&gt;idle</title>
<path fill="none" stroke="#000000" d="M134.1785,-38.0793C152.813,-42.3874 175.9525,-51.174 188,-69 241.0433,-147.4853 204.2785,-167.962 190,-187 180.0856,-200.2192 139.5031,-210.0964 108.2475,-215.9298"/>
<polygon fill="#000000" stroke="#000000" points="107.2903,-212.5454 98.0631,-217.7521 108.5232,-219.436 107.2903,-212.5454"/>
<text text-anchor="middle" x="216.3895" y="-125" font-family="Helvetica,sans-Serif" font-size="10.00" fill="#000000"> </text>
</g>
</g>
</svg>
