<?xml version="1.0" encoding="UTF-8" standalone="no"?>
<!DOCTYPE svg PUBLIC "-//W3C//DTD SVG 1.1//EN"
 "http://www.w3.org/Graphics/SVG/1.1/DTD/svg11.dtd">
<!-- Generated by graphviz version 2.40.1 (20161225.0304)
 -->
<!-- Title: state transitions Pages: 1 -->
<svg width="372pt" height="188pt"
 viewBox="0.00 0.00 372.00 188.00" xmlns="http://www.w3.org/2000/svg" xmlns:xlink="http://www.w3.org/1999/xlink">
<g id="graph0" class="graph" transform="scale(1 1) rotate(0) translate(4 184)">
<title>state transitions</title>
<polygon fill="#ffffff" stroke="transparent" points="-4,4 -4,-184 368,-184 368,4 -4,4"/>
<g id="clust1" class="cluster state regular">
<title>cluster_sfsm</title>
<path fill="none" stroke="#000000" stroke-width="2" d="M20,-8C20,-8 344,-8 344,-8 350,-8 356,-14 356,-20 356,-20 356,-160 356,-160 356,-166 350,-172 344,-172 344,-172 20,-172 20,-172 14,-172 8,-166 8,-160 8,-160 8,-20 8,-20 8,-14 14,-8 20,-8"/>
<text text-anchor="start" x="169.8352" y="-153.2" font-family="Helvetica,sans-Serif" font-size="12.00" fill="#000000">sfsm</text>
</g>
<!-- sfsm -->
<!-- FSM_IDLE -->
<g id="node2" class="node state regular">
<title>FSM_IDLE</title>
<polygon fill="#ffffff" fill-opacity="0.003922" stroke="transparent" stroke-width="2" points="149,-134 69,-134 69,-98 149,-98 149,-134"/>
<text text-anchor="start" x="79.6648" y="-112.2" font-family="Helvetica,sans-Serif" font-size="12.00" fill="#000000">FSM_IDLE</text>
<path fill="none" stroke="#000000" stroke-width="2" d="M81.3333,-99C81.3333,-99 136.6667,-99 136.6667,-99 142.3333,-99 148,-104.6667 148,-110.3333 148,-110.3333 148,-121.6667 148,-121.6667 148,-127.3333 142.3333,-133 136.6667,-133 136.6667,-133 81.3333,-133 81.3333,-133 75.6667,-133 70,-127.3333 70,-121.6667 70,-121.6667 70,-110.3333 70,-110.3333 70,-104.6667 75.6667,-99 81.3333,-99"/>
</g>
<!-- FSM_WAIT -->
<g id="node3" class="node state regular">
<title>FSM_WAIT</title>
<polygon fill="#ffffff" fill-opacity="0.003922" stroke="transparent" stroke-width="2" points="121.5,-52 38.5,-52 38.5,-16 121.5,-16 121.5,-52"/>
<text text-anchor="start" x="49.5028" y="-30.2" font-family="Helvetica,sans-Serif" font-size="12.00" fill="#000000">FSM_WAIT</text>
<path fill="none" stroke="#000000" stroke-width="2" d="M50.8333,-17C50.8333,-17 109.1667,-17 109.1667,-17 114.8333,-17 120.5,-22.6667 120.5,-28.3333 120.5,-28.3333 120.5,-39.6667 120.5,-39.6667 120.5,-45.3333 114.8333,-51 109.1667,-51 109.1667,-51 50.8333,-51 50.8333,-51 45.1667,-51 39.5,-45.3333 39.5,-39.6667 39.5,-39.6667 39.5,-28.3333 39.5,-28.3333 39.5,-22.6667 45.1667,-17 50.8333,-17"/>
</g>
<!-- FSM_IDLE&#45;&gt;FSM_WAIT -->
<g id="edge1" class="edge transition">
<title>FSM_IDLE&#45;&gt;FSM_WAIT</title>
<path fill="none" stroke="#000000" d="M70.344,-97.8844C64.2179,-93.2628 58.7176,-87.6678 55.097,-81 51.5828,-74.5282 52.6749,-67.5274 55.8443,-60.9553"/>
<polygon fill="#000000" stroke="#000000" points="58.8903,-62.6853 61.2165,-52.349 52.9522,-58.9787 58.8903,-62.6853"/>
<text text-anchor="start" x="55" y="-72" font-family="Helvetica,sans-Serif" font-size="10.00" fill="#000000">DEN_in == 1&#39;b1 &#160;&#160;</text>
</g>
<!-- FSM_WAIT&#45;&gt;FSM_IDLE -->
<g id="edge2" class="edge transition">
<title>FSM_WAIT&#45;&gt;FSM_IDLE</title>
<path fill="none" stroke="#000000" d="M119.7031,-52.1931C125.8446,-56.7873 131.3509,-62.3526 135,-69 138.5786,-75.5191 137.4044,-82.5377 134.0912,-89.1119"/>
<polygon fill="#000000" stroke="#000000" points="131.0149,-87.4223 128.493,-97.7127 136.8816,-91.241 131.0149,-87.4223"/>
<text text-anchor="start" x="137" y="-72" font-family="Helvetica,sans-Serif" font-size="10.00" fill="#000000">(DRDY === 1&#39;b1) &amp;&amp; (DEN_in === 1&#39;b0) &#160;&#160;</text>
</g>
<!-- FSM_WAIT&#45;&gt;FSM_WAIT -->
<g id="edge3" class="edge transition">
<title>FSM_WAIT&#45;&gt;FSM_WAIT</title>
<path fill="none" stroke="#000000" d="M121.5296,-38.8643C133.8856,-38.7191 143.5,-37.0977 143.5,-34 143.5,-31.822 138.7468,-30.3737 131.6294,-29.6554"/>
<polygon fill="#000000" stroke="#000000" points="131.6963,-26.1543 121.5296,-29.1357 131.3365,-33.145 131.6963,-26.1543"/>
<text text-anchor="start" x="143.5" y="-31" font-family="Helvetica,sans-Serif" font-size="10.00" fill="#000000">(DRDY === 1&#39;b1) &amp;&amp; (DEN_in === 1&#39;b1) &#160;&#160;</text>
</g>
</g>
</svg>
