<?xml version="1.0" encoding="UTF-8" standalone="no"?>
<!DOCTYPE svg PUBLIC "-//W3C//DTD SVG 1.1//EN"
 "http://www.w3.org/Graphics/SVG/1.1/DTD/svg11.dtd">
<!-- Generated by graphviz version 2.40.1 (20161225.0304)
 -->
<!-- Title: state transitions Pages: 1 -->
<svg width="546pt" height="844pt"
 viewBox="0.00 0.00 546.00 844.00" xmlns="http://www.w3.org/2000/svg" xmlns:xlink="http://www.w3.org/1999/xlink">
<g id="graph0" class="graph" transform="scale(1 1) rotate(0) translate(4 840)">
<title>state transitions</title>
<polygon fill="#ffffff" stroke="transparent" points="-4,4 -4,-840 542,-840 542,4 -4,4"/>
<g id="clust1" class="cluster state regular">
<title>cluster_CurrentState</title>
<path fill="none" stroke="#000000" stroke-width="2" d="M20,-8C20,-8 518,-8 518,-8 524,-8 530,-14 530,-20 530,-20 530,-816 530,-816 530,-822 524,-828 518,-828 518,-828 20,-828 20,-828 14,-828 8,-822 8,-816 8,-816 8,-20 8,-20 8,-14 14,-8 20,-8"/>
<text text-anchor="start" x="234.9932" y="-809.2" font-family="Helvetica,sans-Serif" font-size="12.00" fill="#000000">CurrentState</text>
</g>
<!-- CurrentState -->
<!-- TestLogicReset -->
<g id="node2" class="node state regular">
<title>TestLogicReset</title>
<polygon fill="#ffffff" fill-opacity="0.003922" stroke="transparent" stroke-width="2" points="413.5,-790 308.5,-790 308.5,-754 413.5,-754 413.5,-790"/>
<text text-anchor="start" x="319.8246" y="-768.2" font-family="Helvetica,sans-Serif" font-size="12.00" fill="#000000">TestLogicReset</text>
<path fill="none" stroke="#000000" stroke-width="2" d="M320.8333,-755C320.8333,-755 401.1667,-755 401.1667,-755 406.8333,-755 412.5,-760.6667 412.5,-766.3333 412.5,-766.3333 412.5,-777.6667 412.5,-777.6667 412.5,-783.3333 406.8333,-789 401.1667,-789 401.1667,-789 320.8333,-789 320.8333,-789 315.1667,-789 309.5,-783.3333 309.5,-777.6667 309.5,-777.6667 309.5,-766.3333 309.5,-766.3333 309.5,-760.6667 315.1667,-755 320.8333,-755"/>
</g>
<!-- RunTestIdle -->
<g id="node3" class="node state regular">
<title>RunTestIdle</title>
<polygon fill="#ffffff" fill-opacity="0.003922" stroke="transparent" stroke-width="2" points="331,-708 245,-708 245,-672 331,-672 331,-708"/>
<text text-anchor="start" x="255.66" y="-686.2" font-family="Helvetica,sans-Serif" font-size="12.00" fill="#000000">RunTestIdle</text>
<path fill="none" stroke="#000000" stroke-width="2" d="M257.3333,-673C257.3333,-673 318.6667,-673 318.6667,-673 324.3333,-673 330,-678.6667 330,-684.3333 330,-684.3333 330,-695.6667 330,-695.6667 330,-701.3333 324.3333,-707 318.6667,-707 318.6667,-707 257.3333,-707 257.3333,-707 251.6667,-707 246,-701.3333 246,-695.6667 246,-695.6667 246,-684.3333 246,-684.3333 246,-678.6667 251.6667,-673 257.3333,-673"/>
</g>
<!-- TestLogicReset&#45;&gt;RunTestIdle -->
<g id="edge1" class="edge transition">
<title>TestLogicReset&#45;&gt;RunTestIdle</title>
<path fill="none" stroke="#000000" d="M344.7989,-753.8015C334.8753,-742.6545 322.0165,-728.2103 311.044,-715.8851"/>
<polygon fill="#000000" stroke="#000000" points="313.4193,-713.2894 304.1558,-708.1476 308.1909,-717.9439 313.4193,-713.2894"/>
<text text-anchor="start" x="329" y="-728" font-family="Helvetica,sans-Serif" font-size="10.00" fill="#000000">TMS == 0 &#160;&#160;</text>
</g>
<!-- SelectDRScan -->
<g id="node4" class="node state regular">
<title>SelectDRScan</title>
<polygon fill="#ffffff" fill-opacity="0.003922" stroke="transparent" stroke-width="2" points="251,-626 151,-626 151,-590 251,-590 251,-626"/>
<text text-anchor="start" x="161.994" y="-604.2" font-family="Helvetica,sans-Serif" font-size="12.00" fill="#000000">SelectDRScan</text>
<path fill="none" stroke="#000000" stroke-width="2" d="M163.3333,-591C163.3333,-591 238.6667,-591 238.6667,-591 244.3333,-591 250,-596.6667 250,-602.3333 250,-602.3333 250,-613.6667 250,-613.6667 250,-619.3333 244.3333,-625 238.6667,-625 238.6667,-625 163.3333,-625 163.3333,-625 157.6667,-625 152,-619.3333 152,-613.6667 152,-613.6667 152,-602.3333 152,-602.3333 152,-596.6667 157.6667,-591 163.3333,-591"/>
</g>
<!-- RunTestIdle&#45;&gt;SelectDRScan -->
<g id="edge2" class="edge transition">
<title>RunTestIdle&#45;&gt;SelectDRScan</title>
<path fill="none" stroke="#000000" d="M268.6919,-671.8015C256.6398,-660.4422 240.9551,-645.6588 227.7187,-633.1831"/>
<polygon fill="#000000" stroke="#000000" points="229.9319,-630.4595 220.2541,-626.1476 225.1306,-635.5535 229.9319,-630.4595"/>
<text text-anchor="start" x="250" y="-646" font-family="Helvetica,sans-Serif" font-size="10.00" fill="#000000">TMS == 1 &#160;&#160;</text>
</g>
<!-- CaptureDR -->
<g id="node5" class="node state regular">
<title>CaptureDR</title>
<polygon fill="#ffffff" fill-opacity="0.003922" stroke="transparent" stroke-width="2" points="261,-544 179,-544 179,-508 261,-508 261,-544"/>
<text text-anchor="start" x="189.9994" y="-522.2" font-family="Helvetica,sans-Serif" font-size="12.00" fill="#000000">CaptureDR</text>
<path fill="none" stroke="#000000" stroke-width="2" d="M191.3333,-509C191.3333,-509 248.6667,-509 248.6667,-509 254.3333,-509 260,-514.6667 260,-520.3333 260,-520.3333 260,-531.6667 260,-531.6667 260,-537.3333 254.3333,-543 248.6667,-543 248.6667,-543 191.3333,-543 191.3333,-543 185.6667,-543 180,-537.3333 180,-531.6667 180,-531.6667 180,-520.3333 180,-520.3333 180,-514.6667 185.6667,-509 191.3333,-509"/>
</g>
<!-- SelectDRScan&#45;&gt;CaptureDR -->
<g id="edge3" class="edge transition">
<title>SelectDRScan&#45;&gt;CaptureDR</title>
<path fill="none" stroke="#000000" d="M205.2167,-589.8015C207.652,-579.2915 210.7664,-565.8503 213.5081,-554.0177"/>
<polygon fill="#000000" stroke="#000000" points="216.9474,-554.6796 215.7951,-544.1476 210.1281,-553.0994 216.9474,-554.6796"/>
<text text-anchor="start" x="211" y="-564" font-family="Helvetica,sans-Serif" font-size="10.00" fill="#000000">TMS == 0 &#160;&#160;</text>
</g>
<!-- SelectIRScan -->
<g id="node11" class="node state regular">
<title>SelectIRScan</title>
<polygon fill="#ffffff" fill-opacity="0.003922" stroke="transparent" stroke-width="2" points="479,-544 385,-544 385,-508 479,-508 479,-544"/>
<text text-anchor="start" x="395.658" y="-522.2" font-family="Helvetica,sans-Serif" font-size="12.00" fill="#000000">SelectIRScan</text>
<path fill="none" stroke="#000000" stroke-width="2" d="M397.3333,-509C397.3333,-509 466.6667,-509 466.6667,-509 472.3333,-509 478,-514.6667 478,-520.3333 478,-520.3333 478,-531.6667 478,-531.6667 478,-537.3333 472.3333,-543 466.6667,-543 466.6667,-543 397.3333,-543 397.3333,-543 391.6667,-543 386,-537.3333 386,-531.6667 386,-531.6667 386,-520.3333 386,-520.3333 386,-514.6667 391.6667,-509 397.3333,-509"/>
</g>
<!-- SelectDRScan&#45;&gt;SelectIRScan -->
<g id="edge4" class="edge transition">
<title>SelectDRScan&#45;&gt;SelectIRScan</title>
<path fill="none" stroke="#000000" d="M251.1236,-590.2072C287.5442,-577.2787 336.8966,-559.7596 374.8493,-546.2873"/>
<polygon fill="#000000" stroke="#000000" points="376.4804,-549.4223 384.7334,-542.7786 374.1386,-542.8256 376.4804,-549.4223"/>
<text text-anchor="start" x="331" y="-564" font-family="Helvetica,sans-Serif" font-size="10.00" fill="#000000">TMS == 1 &#160;&#160;</text>
</g>
<!-- ShiftDR -->
<g id="node6" class="node state regular">
<title>ShiftDR</title>
<polygon fill="#ffffff" fill-opacity="0.003922" stroke="transparent" stroke-width="2" points="242.5,-462 179.5,-462 179.5,-426 242.5,-426 242.5,-462"/>
<text text-anchor="start" x="190.8342" y="-440.2" font-family="Helvetica,sans-Serif" font-size="12.00" fill="#000000">ShiftDR</text>
<path fill="none" stroke="#000000" stroke-width="2" d="M191.8333,-427C191.8333,-427 230.1667,-427 230.1667,-427 235.8333,-427 241.5,-432.6667 241.5,-438.3333 241.5,-438.3333 241.5,-449.6667 241.5,-449.6667 241.5,-455.3333 235.8333,-461 230.1667,-461 230.1667,-461 191.8333,-461 191.8333,-461 186.1667,-461 180.5,-455.3333 180.5,-449.6667 180.5,-449.6667 180.5,-438.3333 180.5,-438.3333 180.5,-432.6667 186.1667,-427 191.8333,-427"/>
</g>
<!-- CaptureDR&#45;&gt;ShiftDR -->
<g id="edge5" class="edge transition">
<title>CaptureDR&#45;&gt;ShiftDR</title>
<path fill="none" stroke="#000000" d="M218.0026,-507.8015C216.8607,-497.3976 215.4036,-484.1215 214.1145,-472.3768"/>
<polygon fill="#000000" stroke="#000000" points="217.562,-471.706 212.9918,-462.1476 210.6038,-472.4698 217.562,-471.706"/>
<text text-anchor="start" x="216" y="-482" font-family="Helvetica,sans-Serif" font-size="10.00" fill="#000000">TMS == 0 &#160;&#160;</text>
</g>
<!-- Exit1DR -->
<g id="node7" class="node state regular">
<title>Exit1DR</title>
<polygon fill="#ffffff" fill-opacity="0.003922" stroke="transparent" stroke-width="2" points="321.5,-380 256.5,-380 256.5,-344 321.5,-344 321.5,-380"/>
<text text-anchor="start" x="267.5016" y="-358.2" font-family="Helvetica,sans-Serif" font-size="12.00" fill="#000000">Exit1DR</text>
<path fill="none" stroke="#000000" stroke-width="2" d="M268.8333,-345C268.8333,-345 309.1667,-345 309.1667,-345 314.8333,-345 320.5,-350.6667 320.5,-356.3333 320.5,-356.3333 320.5,-367.6667 320.5,-367.6667 320.5,-373.3333 314.8333,-379 309.1667,-379 309.1667,-379 268.8333,-379 268.8333,-379 263.1667,-379 257.5,-373.3333 257.5,-367.6667 257.5,-367.6667 257.5,-356.3333 257.5,-356.3333 257.5,-350.6667 263.1667,-345 268.8333,-345"/>
</g>
<!-- CaptureDR&#45;&gt;Exit1DR -->
<g id="edge6" class="edge transition">
<title>CaptureDR&#45;&gt;Exit1DR</title>
<path fill="none" stroke="#000000" d="M255.3125,-507.9247C261.9603,-503.1812 268.2926,-497.5295 273,-491 298.0921,-456.1952 298.6379,-439.7522 295,-397 294.8089,-394.754 294.55,-392.4357 294.2465,-390.1114"/>
<polygon fill="#000000" stroke="#000000" points="297.6846,-389.441 292.7033,-380.0902 290.7662,-390.5065 297.6846,-389.441"/>
<text text-anchor="start" x="296" y="-441" font-family="Helvetica,sans-Serif" font-size="10.00" fill="#000000">TMS == 1 &#160;&#160;</text>
</g>
<!-- ShiftDR&#45;&gt;Exit1DR -->
<g id="edge7" class="edge transition">
<title>ShiftDR&#45;&gt;Exit1DR</title>
<path fill="none" stroke="#000000" d="M220.7501,-425.9619C226.2274,-416.7336 233.5963,-405.6537 241.761,-397 245.2611,-393.2902 249.1946,-389.6952 253.259,-386.3115"/>
<polygon fill="#000000" stroke="#000000" points="255.467,-389.0277 261.1567,-380.0902 251.1354,-383.5289 255.467,-389.0277"/>
<text text-anchor="start" x="241" y="-400" font-family="Helvetica,sans-Serif" font-size="10.00" fill="#000000">TMS == 1 &#160;&#160;</text>
</g>
<!-- PauseDR -->
<g id="node8" class="node state regular">
<title>PauseDR</title>
<polygon fill="#ffffff" fill-opacity="0.003922" stroke="transparent" stroke-width="2" points="264.5,-298 191.5,-298 191.5,-262 264.5,-262 264.5,-298"/>
<text text-anchor="start" x="202.8296" y="-276.2" font-family="Helvetica,sans-Serif" font-size="12.00" fill="#000000">PauseDR</text>
<path fill="none" stroke="#000000" stroke-width="2" d="M203.8333,-263C203.8333,-263 252.1667,-263 252.1667,-263 257.8333,-263 263.5,-268.6667 263.5,-274.3333 263.5,-274.3333 263.5,-285.6667 263.5,-285.6667 263.5,-291.3333 257.8333,-297 252.1667,-297 252.1667,-297 203.8333,-297 203.8333,-297 198.1667,-297 192.5,-291.3333 192.5,-285.6667 192.5,-285.6667 192.5,-274.3333 192.5,-274.3333 192.5,-268.6667 198.1667,-263 203.8333,-263"/>
</g>
<!-- Exit1DR&#45;&gt;PauseDR -->
<g id="edge8" class="edge transition">
<title>Exit1DR&#45;&gt;PauseDR</title>
<path fill="none" stroke="#000000" d="M275.4621,-343.8015C267.2488,-332.7606 256.6292,-318.4851 247.5184,-306.2378"/>
<polygon fill="#000000" stroke="#000000" points="250.2769,-304.082 241.5,-298.1476 244.6605,-308.2601 250.2769,-304.082"/>
<text text-anchor="start" x="262" y="-318" font-family="Helvetica,sans-Serif" font-size="10.00" fill="#000000">TMS == 0 &#160;&#160;</text>
</g>
<!-- UpdateDR -->
<g id="node10" class="node state regular">
<title>UpdateDR</title>
<polygon fill="#ffffff" fill-opacity="0.003922" stroke="transparent" stroke-width="2" points="231,-134 153,-134 153,-98 231,-98 231,-134"/>
<text text-anchor="start" x="163.9968" y="-112.2" font-family="Helvetica,sans-Serif" font-size="12.00" fill="#000000">UpdateDR</text>
<path fill="none" stroke="#000000" stroke-width="2" d="M165.3333,-99C165.3333,-99 218.6667,-99 218.6667,-99 224.3333,-99 230,-104.6667 230,-110.3333 230,-110.3333 230,-121.6667 230,-121.6667 230,-127.3333 224.3333,-133 218.6667,-133 218.6667,-133 165.3333,-133 165.3333,-133 159.6667,-133 154,-127.3333 154,-121.6667 154,-121.6667 154,-110.3333 154,-110.3333 154,-104.6667 159.6667,-99 165.3333,-99"/>
</g>
<!-- Exit1DR&#45;&gt;UpdateDR -->
<g id="edge9" class="edge transition">
<title>Exit1DR&#45;&gt;UpdateDR</title>
<path fill="none" stroke="#000000" d="M310.2377,-343.8162C317.3346,-335.4917 322.6238,-325.2184 319,-315 308.8613,-286.4114 299.0446,-281.7242 276,-262 264.58,-252.2254 258.1995,-254.7529 246.761,-245 237.8056,-237.3642 230,-236.2688 230,-224.5 230,-224.5 230,-224.5 230,-157 230,-151.6773 228.256,-146.7535 225.5151,-142.3019"/>
<polygon fill="#000000" stroke="#000000" points="228.1644,-140.0095 219.2124,-134.3427 222.6766,-144.3552 228.1644,-140.0095"/>
<text text-anchor="start" x="246" y="-236" font-family="Helvetica,sans-Serif" font-size="10.00" fill="#000000">TMS == 1 &#160;&#160;</text>
</g>
<!-- Exit2DR -->
<g id="node9" class="node state regular">
<title>Exit2DR</title>
<polygon fill="#ffffff" fill-opacity="0.003922" stroke="transparent" stroke-width="2" points="166.5,-216 101.5,-216 101.5,-180 166.5,-180 166.5,-216"/>
<text text-anchor="start" x="112.5016" y="-194.2" font-family="Helvetica,sans-Serif" font-size="12.00" fill="#000000">Exit2DR</text>
<path fill="none" stroke="#000000" stroke-width="2" d="M113.8333,-181C113.8333,-181 154.1667,-181 154.1667,-181 159.8333,-181 165.5,-186.6667 165.5,-192.3333 165.5,-192.3333 165.5,-203.6667 165.5,-203.6667 165.5,-209.3333 159.8333,-215 154.1667,-215 154.1667,-215 113.8333,-215 113.8333,-215 108.1667,-215 102.5,-209.3333 102.5,-203.6667 102.5,-203.6667 102.5,-192.3333 102.5,-192.3333 102.5,-186.6667 108.1667,-181 113.8333,-181"/>
</g>
<!-- PauseDR&#45;&gt;Exit2DR -->
<g id="edge10" class="edge transition">
<title>PauseDR&#45;&gt;Exit2DR</title>
<path fill="none" stroke="#000000" d="M191.1989,-270.1623C176.9576,-264.7563 161.5283,-256.6991 150.761,-245 145.8734,-239.6894 142.3919,-232.8576 139.9189,-226.0571"/>
<polygon fill="#000000" stroke="#000000" points="143.2129,-224.8577 136.971,-216.2968 136.5118,-226.8817 143.2129,-224.8577"/>
<text text-anchor="start" x="150" y="-236" font-family="Helvetica,sans-Serif" font-size="10.00" fill="#000000">TMS == 1 &#160;&#160;</text>
</g>
<!-- Exit2DR&#45;&gt;ShiftDR -->
<g id="edge11" class="edge transition">
<title>Exit2DR&#45;&gt;ShiftDR</title>
<path fill="none" stroke="#000000" d="M132.4872,-216.0147C132.3838,-225.0282 133.2757,-235.9227 137,-245 154.1175,-286.7211 166.8506,-293.2506 196.761,-327 204.1108,-335.2932 210.5801,-333.8382 215,-344 224.9007,-366.7625 222.5053,-395.2624 218.4543,-416.0071"/>
<polygon fill="#000000" stroke="#000000" points="215.0318,-415.2751 216.3107,-425.7924 221.8696,-416.7731 215.0318,-415.2751"/>
<text text-anchor="start" x="196" y="-318" font-family="Helvetica,sans-Serif" font-size="10.00" fill="#000000">TMS == 0 &#160;&#160;</text>
</g>
<!-- Exit2DR&#45;&gt;UpdateDR -->
<g id="edge12" class="edge transition">
<title>Exit2DR&#45;&gt;UpdateDR</title>
<path fill="none" stroke="#000000" d="M146.8721,-179.8015C154.6064,-168.8668 164.5849,-154.7593 173.1913,-142.5916"/>
<polygon fill="#000000" stroke="#000000" points="176.2467,-144.3329 179.1639,-134.1476 170.5318,-140.2906 176.2467,-144.3329"/>
<text text-anchor="start" x="166" y="-154" font-family="Helvetica,sans-Serif" font-size="10.00" fill="#000000">TMS == 1 &#160;&#160;</text>
</g>
<!-- UpdateDR&#45;&gt;RunTestIdle -->
<g id="edge13" class="edge transition">
<title>UpdateDR&#45;&gt;RunTestIdle</title>
<path fill="none" stroke="#000000" d="M221.7673,-134.2992C225.0065,-136.7361 228.1554,-139.3232 231,-142 267.9636,-176.7835 276.9073,-187.8013 300,-233 340.4712,-312.2134 333.6404,-339.1789 353,-426 357.3915,-445.6945 362,-450.3218 362,-470.5 362,-526 362,-526 362,-526 362,-551.0639 372,-556.4361 372,-581.5 372,-649 372,-649 372,-649 372,-657.5576 357.7424,-666.023 340.9751,-673.0197"/>
<polygon fill="#000000" stroke="#000000" points="339.5068,-669.836 331.4763,-676.7469 342.0638,-676.3523 339.5068,-669.836"/>
<text text-anchor="start" x="349" y="-400" font-family="Helvetica,sans-Serif" font-size="10.00" fill="#000000">TMS == 0 &#160;&#160;</text>
</g>
<!-- UpdateDR&#45;&gt;SelectDRScan -->
<g id="edge14" class="edge transition">
<title>UpdateDR&#45;&gt;SelectDRScan</title>
<path fill="none" stroke="#000000" d="M152.8595,-120.9877C115.5439,-126.8701 65,-138.2909 65,-157 65,-224.5 65,-224.5 65,-224.5 65,-271.3383 98.9566,-272.6669 119,-315 139.7257,-358.7741 156,-369.0673 156,-417.5 156,-567 156,-567 156,-567 156,-572.6808 157.9838,-577.7835 161.1183,-582.3005"/>
<polygon fill="#000000" stroke="#000000" points="158.5477,-584.6766 167.8232,-589.7968 163.7652,-580.0099 158.5477,-584.6766"/>
<text text-anchor="start" x="151" y="-359" font-family="Helvetica,sans-Serif" font-size="10.00" fill="#000000">TMS == 1 &#160;&#160;</text>
</g>
<!-- SelectIRScan&#45;&gt;TestLogicReset -->
<g id="edge16" class="edge transition">
<title>SelectIRScan&#45;&gt;TestLogicReset</title>
<path fill="none" stroke="#000000" d="M426.8882,-544.2211C425.3203,-551.2768 424,-559.4576 424,-567 424,-731 424,-731 424,-731 424,-737.0355 421.9437,-742.2284 418.5741,-746.6862"/>
<polygon fill="#000000" stroke="#000000" points="415.8929,-744.4157 411.251,-753.9395 420.8189,-749.3891 415.8929,-744.4157"/>
<text text-anchor="start" x="424" y="-646" font-family="Helvetica,sans-Serif" font-size="10.00" fill="#000000">TMS == 1 &#160;&#160;</text>
</g>
<!-- CaptureIR -->
<g id="node12" class="node state regular">
<title>CaptureIR</title>
<polygon fill="#ffffff" fill-opacity="0.003922" stroke="transparent" stroke-width="2" points="470,-462 394,-462 394,-426 470,-426 470,-462"/>
<text text-anchor="start" x="404.6634" y="-440.2" font-family="Helvetica,sans-Serif" font-size="12.00" fill="#000000">CaptureIR</text>
<path fill="none" stroke="#000000" stroke-width="2" d="M406.3333,-427C406.3333,-427 457.6667,-427 457.6667,-427 463.3333,-427 469,-432.6667 469,-438.3333 469,-438.3333 469,-449.6667 469,-449.6667 469,-455.3333 463.3333,-461 457.6667,-461 457.6667,-461 406.3333,-461 406.3333,-461 400.6667,-461 395,-455.3333 395,-449.6667 395,-449.6667 395,-438.3333 395,-438.3333 395,-432.6667 400.6667,-427 406.3333,-427"/>
</g>
<!-- SelectIRScan&#45;&gt;CaptureIR -->
<g id="edge15" class="edge transition">
<title>SelectIRScan&#45;&gt;CaptureIR</title>
<path fill="none" stroke="#000000" d="M432,-507.8015C432,-497.3976 432,-484.1215 432,-472.3768"/>
<polygon fill="#000000" stroke="#000000" points="435.5001,-472.1476 432,-462.1476 428.5001,-472.1476 435.5001,-472.1476"/>
<text text-anchor="start" x="432" y="-482" font-family="Helvetica,sans-Serif" font-size="10.00" fill="#000000">TMS == 0 &#160;&#160;</text>
</g>
<!-- ShiftIR -->
<g id="node13" class="node state regular">
<title>ShiftIR</title>
<polygon fill="#ffffff" fill-opacity="0.003922" stroke="transparent" stroke-width="2" points="522,-380 464,-380 464,-344 522,-344 522,-380"/>
<text text-anchor="start" x="474.9982" y="-358.2" font-family="Helvetica,sans-Serif" font-size="12.00" fill="#000000">ShiftIR</text>
<path fill="none" stroke="#000000" stroke-width="2" d="M476.3333,-345C476.3333,-345 509.6667,-345 509.6667,-345 515.3333,-345 521,-350.6667 521,-356.3333 521,-356.3333 521,-367.6667 521,-367.6667 521,-373.3333 515.3333,-379 509.6667,-379 509.6667,-379 476.3333,-379 476.3333,-379 470.6667,-379 465,-373.3333 465,-367.6667 465,-367.6667 465,-356.3333 465,-356.3333 465,-350.6667 470.6667,-345 476.3333,-345"/>
</g>
<!-- CaptureIR&#45;&gt;ShiftIR -->
<g id="edge17" class="edge transition">
<title>CaptureIR&#45;&gt;ShiftIR</title>
<path fill="none" stroke="#000000" d="M445.5379,-425.8015C453.7512,-414.7606 464.3708,-400.4851 473.4816,-388.2378"/>
<polygon fill="#000000" stroke="#000000" points="476.3395,-390.2601 479.5,-380.1476 470.7231,-386.082 476.3395,-390.2601"/>
<text text-anchor="start" x="466" y="-400" font-family="Helvetica,sans-Serif" font-size="10.00" fill="#000000">TMS == 0 &#160;&#160;</text>
</g>
<!-- Exit1IR -->
<g id="node14" class="node state regular">
<title>Exit1IR</title>
<polygon fill="#ffffff" fill-opacity="0.003922" stroke="transparent" stroke-width="2" points="409,-298 349,-298 349,-262 409,-262 409,-298"/>
<text text-anchor="start" x="359.6656" y="-276.2" font-family="Helvetica,sans-Serif" font-size="12.00" fill="#000000">Exit1IR</text>
<path fill="none" stroke="#000000" stroke-width="2" d="M361.3333,-263C361.3333,-263 396.6667,-263 396.6667,-263 402.3333,-263 408,-268.6667 408,-274.3333 408,-274.3333 408,-285.6667 408,-285.6667 408,-291.3333 402.3333,-297 396.6667,-297 396.6667,-297 361.3333,-297 361.3333,-297 355.6667,-297 350,-291.3333 350,-285.6667 350,-285.6667 350,-274.3333 350,-274.3333 350,-268.6667 355.6667,-263 361.3333,-263"/>
</g>
<!-- CaptureIR&#45;&gt;Exit1IR -->
<g id="edge18" class="edge transition">
<title>CaptureIR&#45;&gt;Exit1IR</title>
<path fill="none" stroke="#000000" d="M421.6267,-425.7424C414.8728,-413.2057 406.3168,-396.0017 400.761,-380 392.5231,-356.2735 386.7478,-328.259 383.2273,-307.9265"/>
<polygon fill="#000000" stroke="#000000" points="386.6796,-307.3501 381.5907,-298.0575 379.7739,-308.4954 386.6796,-307.3501"/>
<text text-anchor="start" x="400" y="-359" font-family="Helvetica,sans-Serif" font-size="10.00" fill="#000000">TMS == 1 &#160;&#160;</text>
</g>
<!-- ShiftIR&#45;&gt;Exit1IR -->
<g id="edge19" class="edge transition">
<title>ShiftIR&#45;&gt;Exit1IR</title>
<path fill="none" stroke="#000000" d="M467.6997,-343.8015C451.4646,-332.1237 430.1987,-316.8272 412.5595,-304.1393"/>
<polygon fill="#000000" stroke="#000000" points="414.3914,-301.1456 404.2296,-298.1476 410.3039,-306.8282 414.3914,-301.1456"/>
<text text-anchor="start" x="443" y="-318" font-family="Helvetica,sans-Serif" font-size="10.00" fill="#000000">TMS == 1 &#160;&#160;</text>
</g>
<!-- PauseIR -->
<g id="node15" class="node state regular">
<title>PauseIR</title>
<polygon fill="#ffffff" fill-opacity="0.003922" stroke="transparent" stroke-width="2" points="441,-216 373,-216 373,-180 441,-180 441,-216"/>
<text text-anchor="start" x="383.9936" y="-194.2" font-family="Helvetica,sans-Serif" font-size="12.00" fill="#000000">PauseIR</text>
<path fill="none" stroke="#000000" stroke-width="2" d="M385.3333,-181C385.3333,-181 428.6667,-181 428.6667,-181 434.3333,-181 440,-186.6667 440,-192.3333 440,-192.3333 440,-203.6667 440,-203.6667 440,-209.3333 434.3333,-215 428.6667,-215 428.6667,-215 385.3333,-215 385.3333,-215 379.6667,-215 374,-209.3333 374,-203.6667 374,-203.6667 374,-192.3333 374,-192.3333 374,-186.6667 379.6667,-181 385.3333,-181"/>
</g>
<!-- Exit1IR&#45;&gt;PauseIR -->
<g id="edge20" class="edge transition">
<title>Exit1IR&#45;&gt;PauseIR</title>
<path fill="none" stroke="#000000" d="M382.6843,-261.9095C384.6956,-253.0747 387.4528,-242.3578 390.761,-233 391.6206,-230.5685 392.5889,-228.0768 393.6138,-225.5979"/>
<polygon fill="#000000" stroke="#000000" points="396.9012,-226.8175 397.7368,-216.2556 390.4971,-223.9911 396.9012,-226.8175"/>
<text text-anchor="start" x="390" y="-236" font-family="Helvetica,sans-Serif" font-size="10.00" fill="#000000">TMS == 0 &#160;&#160;</text>
</g>
<!-- UpdateIR -->
<g id="node17" class="node state regular">
<title>UpdateIR</title>
<polygon fill="#ffffff" fill-opacity="0.003922" stroke="transparent" stroke-width="2" points="225,-52 153,-52 153,-16 225,-16 225,-52"/>
<text text-anchor="start" x="163.6608" y="-30.2" font-family="Helvetica,sans-Serif" font-size="12.00" fill="#000000">UpdateIR</text>
<path fill="none" stroke="#000000" stroke-width="2" d="M165.3333,-17C165.3333,-17 212.6667,-17 212.6667,-17 218.3333,-17 224,-22.6667 224,-28.3333 224,-28.3333 224,-39.6667 224,-39.6667 224,-45.3333 218.3333,-51 212.6667,-51 212.6667,-51 165.3333,-51 165.3333,-51 159.6667,-51 154,-45.3333 154,-39.6667 154,-39.6667 154,-28.3333 154,-28.3333 154,-22.6667 159.6667,-17 165.3333,-17"/>
</g>
<!-- Exit1IR&#45;&gt;UpdateIR -->
<g id="edge21" class="edge transition">
<title>Exit1IR&#45;&gt;UpdateIR</title>
<path fill="none" stroke="#000000" d="M366.2927,-261.833C349.7704,-236.3885 323,-188.1225 323,-142.5 323,-142.5 323,-142.5 323,-75 323,-56.1846 274.0807,-45.1383 235.3571,-39.3416"/>
<polygon fill="#000000" stroke="#000000" points="235.6544,-35.8489 225.2623,-37.9116 234.6725,-42.7797 235.6544,-35.8489"/>
<text text-anchor="start" x="324" y="-154" font-family="Helvetica,sans-Serif" font-size="10.00" fill="#000000">TMS == 1 &#160;&#160;</text>
</g>
<!-- Exit2IR -->
<g id="node16" class="node state regular">
<title>Exit2IR</title>
<polygon fill="#ffffff" fill-opacity="0.003922" stroke="transparent" stroke-width="2" points="449,-134 389,-134 389,-98 449,-98 449,-134"/>
<text text-anchor="start" x="399.6656" y="-112.2" font-family="Helvetica,sans-Serif" font-size="12.00" fill="#000000">Exit2IR</text>
<path fill="none" stroke="#000000" stroke-width="2" d="M401.3333,-99C401.3333,-99 436.6667,-99 436.6667,-99 442.3333,-99 448,-104.6667 448,-110.3333 448,-110.3333 448,-121.6667 448,-121.6667 448,-127.3333 442.3333,-133 436.6667,-133 436.6667,-133 401.3333,-133 401.3333,-133 395.6667,-133 390,-127.3333 390,-121.6667 390,-121.6667 390,-110.3333 390,-110.3333 390,-104.6667 395.6667,-99 401.3333,-99"/>
</g>
<!-- PauseIR&#45;&gt;Exit2IR -->
<g id="edge22" class="edge transition">
<title>PauseIR&#45;&gt;Exit2IR</title>
<path fill="none" stroke="#000000" d="M409.6632,-179.8015C411.1857,-169.3976 413.1286,-156.1215 414.8473,-144.3768"/>
<polygon fill="#000000" stroke="#000000" points="418.3593,-144.549 416.3443,-134.1476 411.4331,-143.5354 418.3593,-144.549"/>
<text text-anchor="start" x="413" y="-154" font-family="Helvetica,sans-Serif" font-size="10.00" fill="#000000">TMS == 1 &#160;&#160;</text>
</g>
<!-- Exit2IR&#45;&gt;ShiftIR -->
<g id="edge23" class="edge transition">
<title>Exit2IR&#45;&gt;ShiftIR</title>
<path fill="none" stroke="#000000" d="M449.0391,-129.7513C457.3439,-135.1279 465.3469,-142.1633 470,-151 507.3745,-221.9783 389.3197,-257.8633 430,-327 431.6594,-329.8202 442.4823,-336.1798 454.7027,-342.7153"/>
<polygon fill="#000000" stroke="#000000" points="453.2558,-345.9087 463.7369,-347.4572 456.5091,-339.7106 453.2558,-345.9087"/>
<text text-anchor="start" x="453" y="-236" font-family="Helvetica,sans-Serif" font-size="10.00" fill="#000000">TMS == 0 &#160;&#160;</text>
</g>
<!-- Exit2IR&#45;&gt;UpdateIR -->
<g id="edge24" class="edge transition">
<title>Exit2IR&#45;&gt;UpdateIR</title>
<path fill="none" stroke="#000000" d="M395.4769,-97.9331C378.0364,-85.4208 353.1909,-69.3858 329,-60 298.9585,-48.3442 263.2138,-41.8173 235.3622,-38.2183"/>
<polygon fill="#000000" stroke="#000000" points="235.4505,-34.7035 225.1026,-36.9776 234.6101,-41.6529 235.4505,-34.7035"/>
<text text-anchor="start" x="369" y="-72" font-family="Helvetica,sans-Serif" font-size="10.00" fill="#000000">TMS == 1 &#160;&#160;</text>
</g>
<!-- UpdateIR&#45;&gt;RunTestIdle -->
<g id="edge25" class="edge transition">
<title>UpdateIR&#45;&gt;RunTestIdle</title>
<path fill="none" stroke="#000000" d="M152.9432,-35.3658C102.5072,-38.276 17,-47.2953 17,-75 17,-306.5 17,-306.5 17,-306.5 17,-344.1206 38,-350.8794 38,-388.5 38,-649 38,-649 38,-649 38,-668.7695 161.3127,-680.9933 234.7286,-686.5191"/>
<polygon fill="#000000" stroke="#000000" points="234.5092,-690.0123 244.7387,-687.2544 235.0221,-683.0311 234.5092,-690.0123"/>
<text text-anchor="start" x="37" y="-359" font-family="Helvetica,sans-Serif" font-size="10.00" fill="#000000">TMS == 0 &#160;&#160;</text>
</g>
<!-- UpdateIR&#45;&gt;SelectDRScan -->
<g id="edge26" class="edge transition">
<title>UpdateIR&#45;&gt;SelectDRScan</title>
<path fill="none" stroke="#000000" d="M152.7951,-36.8234C108.9799,-41.2601 41,-51.8706 41,-75 41,-224.5 41,-224.5 41,-224.5 41,-270.9806 33.6709,-289.9677 61.761,-327 71.7888,-340.22 83.7969,-331.7601 95,-344 109.4045,-359.7375 113,-367.1655 113,-388.5 113,-567 113,-567 113,-567 113,-575.1718 125.626,-583.0355 141.313,-589.652"/>
<polygon fill="#000000" stroke="#000000" points="140.2435,-592.9924 150.8306,-593.3965 142.8063,-586.4784 140.2435,-592.9924"/>
<text text-anchor="start" x="61" y="-318" font-family="Helvetica,sans-Serif" font-size="10.00" fill="#000000">TMS == 1 &#160;&#160;</text>
</g>
</g>
</svg>
