<?xml version="1.0" encoding="UTF-8" standalone="no"?>
<!DOCTYPE svg PUBLIC "-//W3C//DTD SVG 1.1//EN"
 "http://www.w3.org/Graphics/SVG/1.1/DTD/svg11.dtd">
<!-- Generated by graphviz version 2.40.1 (20161225.0304)
 -->
<!-- Title: state transitions Pages: 1 -->
<svg width="501pt" height="470pt"
 viewBox="0.00 0.00 501.00 470.00" xmlns="http://www.w3.org/2000/svg" xmlns:xlink="http://www.w3.org/1999/xlink">
<g id="graph0" class="graph" transform="scale(1 1) rotate(0) translate(4 466)">
<title>state transitions</title>
<polygon fill="#ffffff" stroke="transparent" points="-4,4 -4,-466 497,-466 497,4 -4,4"/>
<g id="clust1" class="cluster state regular">
<title>cluster_state</title>
<path fill="none" stroke="#000000" stroke-width="2" d="M20,-8C20,-8 473,-8 473,-8 479,-8 485,-14 485,-20 485,-20 485,-442 485,-442 485,-448 479,-454 473,-454 473,-454 20,-454 20,-454 14,-454 8,-448 8,-442 8,-442 8,-20 8,-20 8,-14 14,-8 20,-8"/>
<text text-anchor="start" x="233.4944" y="-435.2" font-family="Helvetica,sans-Serif" font-size="12.00" fill="#000000">state</text>
</g>
<!-- state -->
<!-- IDLE -->
<g id="node2" class="node state regular">
<title>IDLE</title>
<polygon fill="#ffffff" fill-opacity="0.003922" stroke="transparent" stroke-width="2" points="333,-416 277,-416 277,-380 333,-380 333,-416"/>
<text text-anchor="start" x="291.6644" y="-394.2" font-family="Helvetica,sans-Serif" font-size="12.00" fill="#000000">IDLE</text>
<path fill="none" stroke="#000000" stroke-width="2" d="M289.3333,-381C289.3333,-381 320.6667,-381 320.6667,-381 326.3333,-381 332,-386.6667 332,-392.3333 332,-392.3333 332,-403.6667 332,-403.6667 332,-409.3333 326.3333,-415 320.6667,-415 320.6667,-415 289.3333,-415 289.3333,-415 283.6667,-415 278,-409.3333 278,-403.6667 278,-403.6667 278,-392.3333 278,-392.3333 278,-386.6667 283.6667,-381 289.3333,-381"/>
</g>
<!-- DIV_PREPROCESS -->
<g id="node3" class="node state regular">
<title>DIV_PREPROCESS</title>
<polygon fill="#ffffff" fill-opacity="0.003922" stroke="transparent" stroke-width="2" points="414,-322 282,-322 282,-286 414,-286 414,-322"/>
<text text-anchor="start" x="292.9944" y="-300.2" font-family="Helvetica,sans-Serif" font-size="12.00" fill="#000000">DIV_PREPROCESS</text>
<path fill="none" stroke="#000000" stroke-width="2" d="M294.3333,-287C294.3333,-287 401.6667,-287 401.6667,-287 407.3333,-287 413,-292.6667 413,-298.3333 413,-298.3333 413,-309.6667 413,-309.6667 413,-315.3333 407.3333,-321 401.6667,-321 401.6667,-321 294.3333,-321 294.3333,-321 288.6667,-321 283,-315.3333 283,-309.6667 283,-309.6667 283,-298.3333 283,-298.3333 283,-292.6667 288.6667,-287 294.3333,-287"/>
</g>
<!-- IDLE&#45;&gt;DIV_PREPROCESS -->
<g id="edge1" class="edge transition">
<title>IDLE&#45;&gt;DIV_PREPROCESS</title>
<path fill="none" stroke="#000000" d="M276.9992,-395.6832C219.3788,-390.6319 91.8465,-377.8792 79.095,-363 72.1539,-354.9007 71.9041,-346.8784 79.095,-339 93.0783,-323.6797 244.498,-325.1484 265,-322 267.3364,-321.6412 269.7056,-321.2568 272.0944,-320.8513"/>
<polygon fill="#000000" stroke="#000000" points="272.7656,-324.2869 281.9914,-319.0778 271.5308,-317.3966 272.7656,-324.2869"/>
<text text-anchor="start" x="79" y="-354" font-family="Helvetica,sans-Serif" font-size="10.00" fill="#000000">(operation = &#39;1&#39;) and (DIVISION_EN = true) &#160;&#160;</text>
<text text-anchor="start" x="79" y="-342" font-family="Helvetica,sans-Serif" font-size="10.00" fill="#000000">start_i = &#39;1&#39; &#160;&#160;</text>
</g>
<!-- PROCESSING -->
<g id="node4" class="node state regular">
<title>PROCESSING</title>
<polygon fill="#ffffff" fill-opacity="0.003922" stroke="transparent" stroke-width="2" points="138,-216 36,-216 36,-180 138,-180 138,-216"/>
<text text-anchor="start" x="46.998" y="-194.2" font-family="Helvetica,sans-Serif" font-size="12.00" fill="#000000">PROCESSING</text>
<path fill="none" stroke="#000000" stroke-width="2" d="M48.3333,-181C48.3333,-181 125.6667,-181 125.6667,-181 131.3333,-181 137,-186.6667 137,-192.3333 137,-192.3333 137,-203.6667 137,-203.6667 137,-209.3333 131.3333,-215 125.6667,-215 125.6667,-215 48.3333,-215 48.3333,-215 42.6667,-215 37,-209.3333 37,-203.6667 37,-203.6667 37,-192.3333 37,-192.3333 37,-186.6667 42.6667,-181 48.3333,-181"/>
</g>
<!-- IDLE&#45;&gt;PROCESSING -->
<g id="edge3" class="edge transition">
<title>IDLE&#45;&gt;PROCESSING</title>
<path fill="none" stroke="#000000" d="M276.7064,-396.6826C235.5386,-394.2872 156.9518,-387.9029 92,-372 80.9348,-369.2908 76.3709,-370.7269 68,-363 42.0802,-339.0743 41.5817,-320.536 48.761,-286 53.1822,-264.7318 63.0216,-242.2967 71.612,-225.4024"/>
<polygon fill="#000000" stroke="#000000" points="74.9224,-226.6267 76.4751,-216.1462 68.7256,-223.3709 74.9224,-226.6267"/>
<text text-anchor="start" x="48" y="-313" font-family="Helvetica,sans-Serif" font-size="10.00" fill="#000000">start_i = &#39;1&#39; &#160;&#160;</text>
<text text-anchor="start" x="48" y="-301" font-family="Helvetica,sans-Serif" font-size="10.00" fill="#000000">not ((operation = &#39;1&#39;) and (DIVISION_EN = true)) &#160;&#160;</text>
<text text-anchor="start" x="48" y="-289" font-family="Helvetica,sans-Serif" font-size="10.00" fill="#000000">not (FAST_MUL_EN = true) &#160;&#160;</text>
</g>
<!-- FINALIZE -->
<g id="node5" class="node state regular">
<title>FINALIZE</title>
<polygon fill="#ffffff" fill-opacity="0.003922" stroke="transparent" stroke-width="2" points="268,-134 194,-134 194,-98 268,-98 268,-134"/>
<text text-anchor="start" x="204.6648" y="-112.2" font-family="Helvetica,sans-Serif" font-size="12.00" fill="#000000">FINALIZE</text>
<path fill="none" stroke="#000000" stroke-width="2" d="M206.3333,-99C206.3333,-99 255.6667,-99 255.6667,-99 261.3333,-99 267,-104.6667 267,-110.3333 267,-110.3333 267,-121.6667 267,-121.6667 267,-127.3333 261.3333,-133 255.6667,-133 255.6667,-133 206.3333,-133 206.3333,-133 200.6667,-133 195,-127.3333 195,-121.6667 195,-121.6667 195,-110.3333 195,-110.3333 195,-104.6667 200.6667,-99 206.3333,-99"/>
</g>
<!-- IDLE&#45;&gt;FINALIZE -->
<g id="edge2" class="edge transition">
<title>IDLE&#45;&gt;FINALIZE</title>
<path fill="none" stroke="#000000" d="M333.2514,-392.9555C372.6135,-385.6438 439.9535,-371.9942 447,-363 453.5783,-354.6034 449.0849,-349.4609 447,-339 442.015,-313.9876 445.5103,-301.159 425,-286 361.3609,-238.9647 310.6098,-317.0862 247.761,-269 230.9762,-256.1578 231,-245.6342 231,-224.5 231,-224.5 231,-224.5 231,-157 231,-152.9516 231,-148.6784 231,-144.48"/>
<polygon fill="#000000" stroke="#000000" points="234.5001,-144.3687 231,-134.3688 227.5001,-144.3688 234.5001,-144.3687"/>
<text text-anchor="start" x="247" y="-260" font-family="Helvetica,sans-Serif" font-size="10.00" fill="#000000">FAST_MUL_EN = true &#160;&#160;</text>
<text text-anchor="start" x="247" y="-248" font-family="Helvetica,sans-Serif" font-size="10.00" fill="#000000">start_i = &#39;1&#39; &#160;&#160;</text>
<text text-anchor="start" x="247" y="-236" font-family="Helvetica,sans-Serif" font-size="10.00" fill="#000000">not ((operation = &#39;1&#39;) and (DIVISION_EN = true)) &#160;&#160;</text>
</g>
<!-- DIV_PREPROCESS&#45;&gt;IDLE -->
<g id="edge5" class="edge transition">
<title>DIV_PREPROCESS&#45;&gt;IDLE</title>
<path fill="none" stroke="#000000" d="M332.8998,-322.1228C329.0727,-327.3386 325.2379,-333.1937 322.367,-339 317.59,-348.6612 313.8801,-359.8761 311.1385,-369.9176"/>
<polygon fill="#000000" stroke="#000000" points="307.6871,-369.2897 308.6278,-379.8427 314.4734,-371.0065 307.6871,-369.2897"/>
<text text-anchor="start" x="322" y="-348" font-family="Helvetica,sans-Serif" font-size="10.00" fill="#000000">not (DIVISION_EN = true) &#160;&#160;</text>
</g>
<!-- DIV_PREPROCESS&#45;&gt;PROCESSING -->
<g id="edge4" class="edge transition">
<title>DIV_PREPROCESS&#45;&gt;PROCESSING</title>
<path fill="none" stroke="#000000" d="M281.9783,-289.0054C276.2506,-287.9102 270.5321,-286.8887 265,-286 229.4135,-280.2832 130.7413,-292.8307 103.701,-269 91.7755,-258.49 87.5298,-241.2154 86.2996,-226.3375"/>
<polygon fill="#000000" stroke="#000000" points="89.7846,-225.9037 85.8701,-216.0585 82.7907,-226.196 89.7846,-225.9037"/>
<text text-anchor="start" x="103" y="-248" font-family="Helvetica,sans-Serif" font-size="10.00" fill="#000000">DIVISION_EN = true &#160;&#160;</text>
</g>
<!-- PROCESSING&#45;&gt;FINALIZE -->
<g id="edge6" class="edge transition">
<title>PROCESSING&#45;&gt;FINALIZE</title>
<path fill="none" stroke="#000000" d="M112.0338,-179.8742C125.1397,-170.7287 141.6283,-159.7502 157.035,-151 165.8365,-146.0012 175.4682,-141.0738 184.7862,-136.5652"/>
<polygon fill="#000000" stroke="#000000" points="186.4261,-139.6611 193.9573,-132.2091 183.4228,-133.3381 186.4261,-139.6611"/>
<text text-anchor="start" x="157" y="-154" font-family="Helvetica,sans-Serif" font-size="10.00" fill="#000000">cnt = &quot;00000&quot; &#160;&#160;</text>
</g>
<!-- COMPLETED -->
<g id="node6" class="node state regular">
<title>COMPLETED</title>
<polygon fill="#ffffff" fill-opacity="0.003922" stroke="transparent" stroke-width="2" points="378,-52 282,-52 282,-16 378,-16 378,-52"/>
<text text-anchor="start" x="292.6674" y="-30.2" font-family="Helvetica,sans-Serif" font-size="12.00" fill="#000000">COMPLETED</text>
<path fill="none" stroke="#000000" stroke-width="2" d="M294.3333,-17C294.3333,-17 365.6667,-17 365.6667,-17 371.3333,-17 377,-22.6667 377,-28.3333 377,-28.3333 377,-39.6667 377,-39.6667 377,-45.3333 371.3333,-51 365.6667,-51 365.6667,-51 294.3333,-51 294.3333,-51 288.6667,-51 283,-45.3333 283,-39.6667 283,-39.6667 283,-28.3333 283,-28.3333 283,-22.6667 288.6667,-17 294.3333,-17"/>
</g>
<!-- FINALIZE&#45;&gt;COMPLETED -->
<g id="edge7" class="edge transition">
<title>FINALIZE&#45;&gt;COMPLETED</title>
<path fill="none" stroke="#000000" d="M252.9713,-97.8015C266.8139,-86.336 284.8678,-71.3822 300.0176,-58.8339"/>
<polygon fill="#000000" stroke="#000000" points="302.6214,-61.2219 308.0901,-52.1476 298.1562,-55.831 302.6214,-61.2219"/>
<text text-anchor="middle" x="288.3895" y="-72" font-family="Helvetica,sans-Serif" font-size="10.00" fill="#000000"> </text>
</g>
<!-- COMPLETED&#45;&gt;IDLE -->
<g id="edge8" class="edge transition">
<title>COMPLETED&#45;&gt;IDLE</title>
<path fill="none" stroke="#000000" d="M378.3505,-38.5484C420.184,-43.8662 474,-54.66 474,-75 474,-171.5 474,-171.5 474,-171.5 474,-218.6195 476,-230.3805 476,-277.5 476,-351 476,-351 476,-351 476,-371.87 453.8696,-365.6161 434,-372 417.4152,-377.3285 374.8142,-385.5347 343.0772,-391.2994"/>
<polygon fill="#000000" stroke="#000000" points="342.4224,-387.8609 333.2014,-393.0785 343.6636,-394.75 342.4224,-387.8609"/>
<text text-anchor="middle" x="475.3895" y="-195" font-family="Helvetica,sans-Serif" font-size="10.00" fill="#000000"> </text>
</g>
</g>
</svg>
