<?xml version="1.0" encoding="UTF-8" standalone="no"?>
<!DOCTYPE svg PUBLIC "-//W3C//DTD SVG 1.1//EN"
 "http://www.w3.org/Graphics/SVG/1.1/DTD/svg11.dtd">
<!-- Generated by graphviz version 2.40.1 (20161225.0304)
 -->
<!-- Title: state transitions Pages: 1 -->
<svg width="460pt" height="188pt"
 viewBox="0.00 0.00 460.00 188.00" xmlns="http://www.w3.org/2000/svg" xmlns:xlink="http://www.w3.org/1999/xlink">
<g id="graph0" class="graph" transform="scale(1 1) rotate(0) translate(4 184)">
<title>state transitions</title>
<polygon fill="#ffffff" stroke="transparent" points="-4,4 -4,-184 456,-184 456,4 -4,4"/>
<g id="clust1" class="cluster state regular">
<title>cluster_fsm_tx</title>
<path fill="none" stroke="#000000" stroke-width="2" d="M20,-8C20,-8 432,-8 432,-8 438,-8 444,-14 444,-20 444,-20 444,-160 444,-160 444,-166 438,-172 432,-172 432,-172 20,-172 20,-172 14,-172 8,-166 8,-160 8,-160 8,-20 8,-20 8,-14 14,-8 20,-8"/>
<text text-anchor="start" x="208.8324" y="-153.2" font-family="Helvetica,sans-Serif" font-size="12.00" fill="#000000">fsm_tx</text>
</g>
<!-- fsm_tx -->
<!-- s_idle -->
<g id="node2" class="node state regular">
<title>s_idle</title>
<polygon fill="#ffffff" fill-opacity="0.003922" stroke="transparent" stroke-width="2" points="181,-134 125,-134 125,-98 181,-98 181,-134"/>
<text text-anchor="start" x="137.331" y="-112.2" font-family="Helvetica,sans-Serif" font-size="12.00" fill="#000000">s_idle</text>
<path fill="none" stroke="#000000" stroke-width="2" d="M137.3333,-99C137.3333,-99 168.6667,-99 168.6667,-99 174.3333,-99 180,-104.6667 180,-110.3333 180,-110.3333 180,-121.6667 180,-121.6667 180,-127.3333 174.3333,-133 168.6667,-133 168.6667,-133 137.3333,-133 137.3333,-133 131.6667,-133 126,-127.3333 126,-121.6667 126,-121.6667 126,-110.3333 126,-110.3333 126,-104.6667 131.6667,-99 137.3333,-99"/>
</g>
<!-- s_send_pkt -->
<g id="node3" class="node state regular">
<title>s_send_pkt</title>
<polygon fill="#ffffff" fill-opacity="0.003922" stroke="transparent" stroke-width="2" points="201.5,-52 118.5,-52 118.5,-16 201.5,-16 201.5,-52"/>
<text text-anchor="start" x="129.8202" y="-30.2" font-family="Helvetica,sans-Serif" font-size="12.00" fill="#000000">s_send_pkt</text>
<path fill="none" stroke="#000000" stroke-width="2" d="M130.8333,-17C130.8333,-17 189.1667,-17 189.1667,-17 194.8333,-17 200.5,-22.6667 200.5,-28.3333 200.5,-28.3333 200.5,-39.6667 200.5,-39.6667 200.5,-45.3333 194.8333,-51 189.1667,-51 189.1667,-51 130.8333,-51 130.8333,-51 125.1667,-51 119.5,-45.3333 119.5,-39.6667 119.5,-39.6667 119.5,-28.3333 119.5,-28.3333 119.5,-22.6667 125.1667,-17 130.8333,-17"/>
</g>
<!-- s_idle&#45;&gt;s_send_pkt -->
<g id="edge1" class="edge transition">
<title>s_idle&#45;&gt;s_send_pkt</title>
<path fill="none" stroke="#000000" d="M124.7532,-113.0597C89.1963,-108.177 34.9853,-96.1066 54.549,-69 61.3646,-59.5566 85.2116,-51.2349 108.5069,-45.0776"/>
<polygon fill="#000000" stroke="#000000" points="109.5688,-48.4193 118.4055,-42.5744 107.8526,-41.633 109.5688,-48.4193"/>
<text text-anchor="start" x="54" y="-72" font-family="Helvetica,sans-Serif" font-size="10.00" fill="#000000">frame_ready = &#39;1&#39; and frame_sent = &#39;0&#39; &#160;&#160;</text>
</g>
<!-- s_send_pkt&#45;&gt;s_idle -->
<g id="edge2" class="edge transition">
<title>s_send_pkt&#45;&gt;s_idle</title>
<path fill="none" stroke="#000000" d="M201.5808,-43.8049C224.6303,-51.3871 246.5171,-63.5618 235,-81 225.1807,-95.8675 207.613,-104.4411 191.2501,-109.375"/>
<polygon fill="#000000" stroke="#000000" points="190.0742,-106.0654 181.2977,-112.0004 191.8597,-112.8338 190.0742,-106.0654"/>
<text text-anchor="start" x="238" y="-72" font-family="Helvetica,sans-Serif" font-size="10.00" fill="#000000">v_byte_idx = 22+payload_len_int+4&#45;1 &#160;&#160;</text>
</g>
</g>
</svg>
