<?xml version="1.0" encoding="UTF-8" standalone="no"?>
<!DOCTYPE svg PUBLIC "-//W3C//DTD SVG 1.1//EN"
 "http://www.w3.org/Graphics/SVG/1.1/DTD/svg11.dtd">
<!-- Generated by graphviz version 2.40.1 (20161225.0304)
 -->
<!-- Title: state transitions Pages: 1 -->
<svg width="451pt" height="680pt"
 viewBox="0.00 0.00 451.00 680.00" xmlns="http://www.w3.org/2000/svg" xmlns:xlink="http://www.w3.org/1999/xlink">
<g id="graph0" class="graph" transform="scale(1 1) rotate(0) translate(4 676)">
<title>state transitions</title>
<polygon fill="#ffffff" stroke="transparent" points="-4,4 -4,-676 447,-676 447,4 -4,4"/>
<g id="clust1" class="cluster state regular">
<title>cluster_sync_state</title>
<path fill="none" stroke="#000000" stroke-width="2" d="M20,-8C20,-8 423,-8 423,-8 429,-8 435,-14 435,-20 435,-20 435,-652 435,-652 435,-658 429,-664 423,-664 423,-664 20,-664 20,-664 14,-664 8,-658 8,-652 8,-652 8,-20 8,-20 8,-14 14,-8 20,-8"/>
<text text-anchor="start" x="193.3236" y="-645.2" font-family="Helvetica,sans-Serif" font-size="12.00" fill="#000000">sync_state</text>
</g>
<!-- sync_state -->
<!-- none -->
<g id="node2" class="node state regular">
<title>none</title>
<polygon fill="#ffffff" fill-opacity="0.003922" stroke="transparent" stroke-width="2" points="386,-626 330,-626 330,-590 386,-590 386,-626"/>
<text text-anchor="start" x="344.6584" y="-604.2" font-family="Helvetica,sans-Serif" font-size="12.00" fill="#000000">none</text>
<path fill="none" stroke="#000000" stroke-width="2" d="M342.3333,-591C342.3333,-591 373.6667,-591 373.6667,-591 379.3333,-591 385,-596.6667 385,-602.3333 385,-602.3333 385,-613.6667 385,-613.6667 385,-619.3333 379.3333,-625 373.6667,-625 373.6667,-625 342.3333,-625 342.3333,-625 336.6667,-625 331,-619.3333 331,-613.6667 331,-613.6667 331,-602.3333 331,-602.3333 331,-596.6667 336.6667,-591 342.3333,-591"/>
</g>
<!-- dummy0 -->
<g id="node3" class="node state regular">
<title>dummy0</title>
<polygon fill="#ffffff" fill-opacity="0.003922" stroke="transparent" stroke-width="2" points="84,-544 16,-544 16,-508 84,-508 84,-544"/>
<text text-anchor="start" x="26.999" y="-522.2" font-family="Helvetica,sans-Serif" font-size="12.00" fill="#000000">dummy0</text>
<path fill="none" stroke="#000000" stroke-width="2" d="M28.3333,-509C28.3333,-509 71.6667,-509 71.6667,-509 77.3333,-509 83,-514.6667 83,-520.3333 83,-520.3333 83,-531.6667 83,-531.6667 83,-537.3333 77.3333,-543 71.6667,-543 71.6667,-543 28.3333,-543 28.3333,-543 22.6667,-543 17,-537.3333 17,-531.6667 17,-531.6667 17,-520.3333 17,-520.3333 17,-514.6667 22.6667,-509 28.3333,-509"/>
</g>
<!-- none&#45;&gt;dummy0 -->
<g id="edge1" class="edge transition">
<title>none&#45;&gt;dummy0</title>
<path fill="none" stroke="#000000" d="M329.7784,-606.7195C258.2584,-603.2014 74.196,-592.3417 55.02,-573 50.2427,-568.1814 48.0277,-561.5721 47.2183,-554.8318"/>
<polygon fill="#000000" stroke="#000000" points="50.7046,-554.2726 46.937,-544.3703 43.7072,-554.4608 50.7046,-554.2726"/>
<text text-anchor="start" x="55" y="-564" font-family="Helvetica,sans-Serif" font-size="10.00" fill="#000000">in_data = sync_s_dummy &#160;&#160;</text>
</g>
<!-- dummy0&#45;&gt;none -->
<g id="edge3" class="edge transition">
<title>dummy0&#45;&gt;none</title>
<path fill="none" stroke="#000000" d="M84.2365,-535.3237C110.0213,-542.355 146.2387,-552.2506 178,-561 197.2283,-566.2969 201.97,-567.8606 221.241,-573 254.5227,-581.8759 292.4807,-591.5552 319.9491,-598.4805"/>
<polygon fill="#000000" stroke="#000000" points="319.3796,-601.9462 329.9314,-600.9924 321.0879,-595.1578 319.3796,-601.9462"/>
<text text-anchor="start" x="221" y="-564" font-family="Helvetica,sans-Serif" font-size="10.00" fill="#000000">in_data /= sync_s_dummy &#160;&#160;</text>
</g>
<!-- bus_width0 -->
<g id="node4" class="node state regular">
<title>bus_width0</title>
<polygon fill="#ffffff" fill-opacity="0.003922" stroke="transparent" stroke-width="2" points="123,-462 41,-462 41,-426 123,-426 123,-462"/>
<text text-anchor="start" x="51.6574" y="-440.2" font-family="Helvetica,sans-Serif" font-size="12.00" fill="#000000">bus_width0</text>
<path fill="none" stroke="#000000" stroke-width="2" d="M53.3333,-427C53.3333,-427 110.6667,-427 110.6667,-427 116.3333,-427 122,-432.6667 122,-438.3333 122,-438.3333 122,-449.6667 122,-449.6667 122,-455.3333 116.3333,-461 110.6667,-461 110.6667,-461 53.3333,-461 53.3333,-461 47.6667,-461 42,-455.3333 42,-449.6667 42,-449.6667 42,-438.3333 42,-438.3333 42,-432.6667 47.6667,-427 53.3333,-427"/>
</g>
<!-- dummy0&#45;&gt;bus_width0 -->
<g id="edge2" class="edge transition">
<title>dummy0&#45;&gt;bus_width0</title>
<path fill="none" stroke="#000000" d="M49.8878,-507.5919C50.3884,-498.6819 51.827,-487.9935 55.442,-479 56.5995,-476.1204 58.0599,-473.272 59.6977,-470.5177"/>
<polygon fill="#000000" stroke="#000000" points="62.6762,-472.3611 65.3798,-462.1171 56.878,-468.4393 62.6762,-472.3611"/>
<text text-anchor="start" x="55" y="-482" font-family="Helvetica,sans-Serif" font-size="10.00" fill="#000000">in_data = sync_s_bus_p_0 &#160;&#160;</text>
</g>
<!-- bus_width0&#45;&gt;none -->
<g id="edge5" class="edge transition">
<title>bus_width0&#45;&gt;none</title>
<path fill="none" stroke="#000000" d="M123.2383,-450.5159C143.4663,-455.4754 167.0582,-464.1029 184,-479 208.1972,-500.2768 189.8945,-525.2634 216.108,-544 263.833,-578.1124 303.483,-521.6604 347,-561 352.3463,-565.833 355.3419,-572.723 356.9629,-579.7425"/>
<polygon fill="#000000" stroke="#000000" points="353.5393,-580.5164 358.4679,-589.895 360.4636,-579.4899 353.5393,-580.5164"/>
<text text-anchor="start" x="216" y="-523" font-family="Helvetica,sans-Serif" font-size="10.00" fill="#000000">not (in_data = sync_s_bus_p_1) &#160;&#160;</text>
</g>
<!-- bus_width1 -->
<g id="node5" class="node state regular">
<title>bus_width1</title>
<polygon fill="#ffffff" fill-opacity="0.003922" stroke="transparent" stroke-width="2" points="174,-380 92,-380 92,-344 174,-344 174,-380"/>
<text text-anchor="start" x="102.6574" y="-358.2" font-family="Helvetica,sans-Serif" font-size="12.00" fill="#000000">bus_width1</text>
<path fill="none" stroke="#000000" stroke-width="2" d="M104.3333,-345C104.3333,-345 161.6667,-345 161.6667,-345 167.3333,-345 173,-350.6667 173,-356.3333 173,-356.3333 173,-367.6667 173,-367.6667 173,-373.3333 167.3333,-379 161.6667,-379 161.6667,-379 104.3333,-379 104.3333,-379 98.6667,-379 93,-373.3333 93,-367.6667 93,-367.6667 93,-356.3333 93,-356.3333 93,-350.6667 98.6667,-345 104.3333,-345"/>
</g>
<!-- bus_width0&#45;&gt;bus_width1 -->
<g id="edge4" class="edge transition">
<title>bus_width0&#45;&gt;bus_width1</title>
<path fill="none" stroke="#000000" d="M86.8414,-425.7926C89.7163,-416.7299 93.8954,-405.8497 99.442,-397 101.437,-393.8169 103.7562,-390.6801 106.2259,-387.67"/>
<polygon fill="#000000" stroke="#000000" points="108.9681,-389.8533 112.9957,-380.0538 103.7362,-385.2027 108.9681,-389.8533"/>
<text text-anchor="start" x="99" y="-400" font-family="Helvetica,sans-Serif" font-size="10.00" fill="#000000">in_data = sync_s_bus_p_1 &#160;&#160;</text>
</g>
<!-- bus_width1&#45;&gt;none -->
<g id="edge7" class="edge transition">
<title>bus_width1&#45;&gt;none</title>
<path fill="none" stroke="#000000" d="M174.0338,-368.0408C192.949,-372.8609 214.2104,-381.5075 228,-397 256.5739,-429.1025 218.9181,-462.0544 250.686,-491 289.629,-526.4833 333.5213,-468.1649 368,-508 384.9324,-527.5629 378.8931,-558.0156 370.8136,-580.1781"/>
<polygon fill="#000000" stroke="#000000" points="367.467,-579.1226 367.033,-589.7086 373.9738,-581.7038 367.467,-579.1226"/>
<text text-anchor="start" x="250" y="-482" font-family="Helvetica,sans-Serif" font-size="10.00" fill="#000000">not (in_data = sync_s_dummy) &#160;&#160;</text>
</g>
<!-- dummy1 -->
<g id="node6" class="node state regular">
<title>dummy1</title>
<polygon fill="#ffffff" fill-opacity="0.003922" stroke="transparent" stroke-width="2" points="232,-298 164,-298 164,-262 232,-262 232,-298"/>
<text text-anchor="start" x="174.999" y="-276.2" font-family="Helvetica,sans-Serif" font-size="12.00" fill="#000000">dummy1</text>
<path fill="none" stroke="#000000" stroke-width="2" d="M176.3333,-263C176.3333,-263 219.6667,-263 219.6667,-263 225.3333,-263 231,-268.6667 231,-274.3333 231,-274.3333 231,-285.6667 231,-285.6667 231,-291.3333 225.3333,-297 219.6667,-297 219.6667,-297 176.3333,-297 176.3333,-297 170.6667,-297 165,-291.3333 165,-285.6667 165,-285.6667 165,-274.3333 165,-274.3333 165,-268.6667 170.6667,-263 176.3333,-263"/>
</g>
<!-- bus_width1&#45;&gt;dummy1 -->
<g id="edge6" class="edge transition">
<title>bus_width1&#45;&gt;dummy1</title>
<path fill="none" stroke="#000000" d="M136.8829,-343.8082C139.4999,-334.5379 143.6633,-323.4668 150.02,-315 152.74,-311.3772 155.9396,-307.9669 159.3742,-304.803"/>
<polygon fill="#000000" stroke="#000000" points="161.7458,-307.3823 167.1732,-298.2832 157.2561,-302.0117 161.7458,-307.3823"/>
<text text-anchor="start" x="150" y="-318" font-family="Helvetica,sans-Serif" font-size="10.00" fill="#000000">in_data = sync_s_dummy &#160;&#160;</text>
</g>
<!-- dummy1&#45;&gt;none -->
<g id="edge9" class="edge transition">
<title>dummy1&#45;&gt;none</title>
<path fill="none" stroke="#000000" d="M232.3915,-284.1672C254.0742,-288.9371 278,-299.1507 278,-321 278,-417.5 278,-417.5 278,-417.5 278,-438.7103 278.7932,-448.6079 295.241,-462 330.7983,-490.9513 363.4045,-447.7935 397,-479 403.8712,-485.3826 402,-490.1218 402,-499.5 402,-567 402,-567 402,-567 402,-574.4655 398.5677,-580.9591 393.6204,-586.4413"/>
<polygon fill="#000000" stroke="#000000" points="391.145,-583.9618 386.115,-593.2865 395.8621,-589.1338 391.145,-583.9618"/>
<text text-anchor="start" x="295" y="-441" font-family="Helvetica,sans-Serif" font-size="10.00" fill="#000000">in_data /= sync_s_dummy &#160;&#160;</text>
</g>
<!-- synced -->
<g id="node7" class="node state regular">
<title>synced</title>
<polygon fill="#ffffff" fill-opacity="0.003922" stroke="transparent" stroke-width="2" points="228,-216 168,-216 168,-180 228,-180 228,-216"/>
<text text-anchor="start" x="178.9938" y="-194.2" font-family="Helvetica,sans-Serif" font-size="12.00" fill="#000000">synced</text>
<path fill="none" stroke="#000000" stroke-width="2" d="M180.3333,-181C180.3333,-181 215.6667,-181 215.6667,-181 221.3333,-181 227,-186.6667 227,-192.3333 227,-192.3333 227,-203.6667 227,-203.6667 227,-209.3333 221.3333,-215 215.6667,-215 215.6667,-215 180.3333,-215 180.3333,-215 174.6667,-215 169,-209.3333 169,-203.6667 169,-203.6667 169,-192.3333 169,-192.3333 169,-186.6667 174.6667,-181 180.3333,-181"/>
</g>
<!-- dummy1&#45;&gt;synced -->
<g id="edge8" class="edge transition">
<title>dummy1&#45;&gt;synced</title>
<path fill="none" stroke="#000000" d="M198,-261.8015C198,-251.3976 198,-238.1215 198,-226.3768"/>
<polygon fill="#000000" stroke="#000000" points="201.5001,-226.1476 198,-216.1476 194.5001,-226.1476 201.5001,-226.1476"/>
<text text-anchor="start" x="198" y="-236" font-family="Helvetica,sans-Serif" font-size="10.00" fill="#000000">in_data = sync_s_sync &#160;&#160;</text>
</g>
<!-- cmdWrite -->
<g id="node8" class="node state regular">
<title>cmdWrite</title>
<polygon fill="#ffffff" fill-opacity="0.003922" stroke="transparent" stroke-width="2" points="298,-134 226,-134 226,-98 298,-98 298,-134"/>
<text text-anchor="start" x="236.6722" y="-112.2" font-family="Helvetica,sans-Serif" font-size="12.00" fill="#000000">cmdWrite</text>
<path fill="none" stroke="#000000" stroke-width="2" d="M238.3333,-99C238.3333,-99 285.6667,-99 285.6667,-99 291.3333,-99 297,-104.6667 297,-110.3333 297,-110.3333 297,-121.6667 297,-121.6667 297,-127.3333 291.3333,-133 285.6667,-133 285.6667,-133 238.3333,-133 238.3333,-133 232.6667,-133 227,-127.3333 227,-121.6667 227,-121.6667 227,-110.3333 227,-110.3333 227,-104.6667 232.6667,-99 238.3333,-99"/>
</g>
<!-- synced&#45;&gt;cmdWrite -->
<g id="edge10" class="edge transition">
<title>synced&#45;&gt;cmdWrite</title>
<path fill="none" stroke="#000000" d="M167.8723,-192.3658C151.2713,-187.5574 132.0295,-178.7935 121.91,-163 119.0327,-158.5094 118.6275,-155.2035 121.91,-151 133.5099,-136.1455 179.8125,-126.6662 216.0504,-121.3724"/>
<polygon fill="#000000" stroke="#000000" points="216.5466,-124.8372 225.9672,-119.9893 215.5796,-117.9043 216.5466,-124.8372"/>
<text text-anchor="start" x="121" y="-154" font-family="Helvetica,sans-Serif" font-size="10.00" fill="#000000">in_data = sync_s_regW &#160;&#160;</text>
</g>
<!-- cmdWrite&#45;&gt;synced -->
<g id="edge12" class="edge transition">
<title>cmdWrite&#45;&gt;synced</title>
<path fill="none" stroke="#000000" d="M253.6357,-134.2499C249.0576,-143.3233 242.9127,-154.2005 236,-163 233.382,-166.3326 230.4359,-169.6273 227.372,-172.7846"/>
<polygon fill="#000000" stroke="#000000" points="224.8325,-170.3722 220.1081,-179.8554 229.7151,-175.3882 224.8325,-170.3722"/>
<text text-anchor="start" x="243" y="-154" font-family="Helvetica,sans-Serif" font-size="10.00" fill="#000000">not (in_data = sync_s_dsync) &#160;&#160;</text>
</g>
<!-- dsynced -->
<g id="node9" class="node state regular">
<title>dsynced</title>
<polygon fill="#ffffff" fill-opacity="0.003922" stroke="transparent" stroke-width="2" points="361,-52 295,-52 295,-16 361,-16 361,-52"/>
<text text-anchor="start" x="305.6584" y="-30.2" font-family="Helvetica,sans-Serif" font-size="12.00" fill="#000000">dsynced</text>
<path fill="none" stroke="#000000" stroke-width="2" d="M307.3333,-17C307.3333,-17 348.6667,-17 348.6667,-17 354.3333,-17 360,-22.6667 360,-28.3333 360,-28.3333 360,-39.6667 360,-39.6667 360,-45.3333 354.3333,-51 348.6667,-51 348.6667,-51 307.3333,-51 307.3333,-51 301.6667,-51 296,-45.3333 296,-39.6667 296,-39.6667 296,-28.3333 296,-28.3333 296,-22.6667 301.6667,-17 307.3333,-17"/>
</g>
<!-- cmdWrite&#45;&gt;dsynced -->
<g id="edge11" class="edge transition">
<title>cmdWrite&#45;&gt;dsynced</title>
<path fill="none" stroke="#000000" d="M276.6475,-97.8015C285.5341,-86.7606 297.0242,-72.4851 306.8818,-60.2378"/>
<polygon fill="#000000" stroke="#000000" points="309.8498,-62.1323 313.3934,-52.1476 304.3967,-57.7432 309.8498,-62.1323"/>
<text text-anchor="start" x="299" y="-72" font-family="Helvetica,sans-Serif" font-size="10.00" fill="#000000">in_data = sync_s_dsync &#160;&#160;</text>
</g>
<!-- dsynced&#45;&gt;none -->
<g id="edge13" class="edge transition">
<title>dsynced&#45;&gt;none</title>
<path fill="none" stroke="#000000" d="M361.0378,-41.5512C388.8071,-48.887 424,-60.9546 424,-75 424,-362 424,-362 424,-362 424,-410.2304 426,-422.2696 426,-470.5 426,-567 426,-567 426,-567 426,-575.2395 411.1732,-584.7238 395.3662,-592.4939"/>
<polygon fill="#000000" stroke="#000000" points="393.6278,-589.443 386.0508,-596.8484 396.5921,-595.7844 393.6278,-589.443"/>
<text text-anchor="middle" x="425.3895" y="-318" font-family="Helvetica,sans-Serif" font-size="10.00" fill="#000000"> </text>
</g>
</g>
</svg>
