<?xml version="1.0" encoding="UTF-8" standalone="no"?>
<!DOCTYPE svg PUBLIC "-//W3C//DTD SVG 1.1//EN"
 "http://www.w3.org/Graphics/SVG/1.1/DTD/svg11.dtd">
<!-- Generated by graphviz version 2.40.1 (20161225.0304)
 -->
<!-- Title: state transitions Pages: 1 -->
<svg width="345pt" height="200pt"
 viewBox="0.00 0.00 345.00 200.00" xmlns="http://www.w3.org/2000/svg" xmlns:xlink="http://www.w3.org/1999/xlink">
<g id="graph0" class="graph" transform="scale(1 1) rotate(0) translate(4 196)">
<title>state transitions</title>
<polygon fill="#ffffff" stroke="transparent" points="-4,4 -4,-196 341,-196 341,4 -4,4"/>
<g id="clust1" class="cluster state regular">
<title>cluster_state</title>
<path fill="none" stroke="#000000" stroke-width="2" d="M20,-8C20,-8 317,-8 317,-8 323,-8 329,-14 329,-20 329,-20 329,-172 329,-172 329,-178 323,-184 317,-184 317,-184 20,-184 20,-184 14,-184 8,-178 8,-172 8,-172 8,-20 8,-20 8,-14 14,-8 20,-8"/>
<text text-anchor="start" x="155.4944" y="-165.2" font-family="Helvetica,sans-Serif" font-size="12.00" fill="#000000">state</text>
</g>
<!-- state -->
<!-- s_idle -->
<g id="node2" class="node state regular">
<title>s_idle</title>
<polygon fill="#ffffff" fill-opacity="0.003922" stroke="transparent" stroke-width="2" points="121,-146 65,-146 65,-110 121,-110 121,-146"/>
<text text-anchor="start" x="77.331" y="-124.2" font-family="Helvetica,sans-Serif" font-size="12.00" fill="#000000">s_idle</text>
<path fill="none" stroke="#000000" stroke-width="2" d="M77.3333,-111C77.3333,-111 108.6667,-111 108.6667,-111 114.3333,-111 120,-116.6667 120,-122.3333 120,-122.3333 120,-133.6667 120,-133.6667 120,-139.3333 114.3333,-145 108.6667,-145 108.6667,-145 77.3333,-145 77.3333,-145 71.6667,-145 66,-139.3333 66,-133.6667 66,-133.6667 66,-122.3333 66,-122.3333 66,-116.6667 71.6667,-111 77.3333,-111"/>
</g>
<!-- s_running -->
<g id="node3" class="node state regular">
<title>s_running</title>
<polygon fill="#ffffff" fill-opacity="0.003922" stroke="transparent" stroke-width="2" points="135,-52 61,-52 61,-16 135,-16 135,-52"/>
<text text-anchor="start" x="71.6588" y="-30.2" font-family="Helvetica,sans-Serif" font-size="12.00" fill="#000000">s_running</text>
<path fill="none" stroke="#000000" stroke-width="2" d="M73.3333,-17C73.3333,-17 122.6667,-17 122.6667,-17 128.3333,-17 134,-22.6667 134,-28.3333 134,-28.3333 134,-39.6667 134,-39.6667 134,-45.3333 128.3333,-51 122.6667,-51 122.6667,-51 73.3333,-51 73.3333,-51 67.6667,-51 62,-45.3333 62,-39.6667 62,-39.6667 62,-28.3333 62,-28.3333 62,-22.6667 67.6667,-17 73.3333,-17"/>
</g>
<!-- s_idle&#45;&gt;s_running -->
<g id="edge1" class="edge transition">
<title>s_idle&#45;&gt;s_running</title>
<path fill="none" stroke="#000000" d="M67.3089,-109.6518C62.4256,-104.8354 57.9987,-99.2227 55.284,-93 51.0188,-83.2232 50.7196,-78.6408 55.284,-69 56.8968,-65.5934 59.0216,-62.4078 61.4631,-59.4555"/>
<polygon fill="#000000" stroke="#000000" points="64.0642,-61.8012 68.5315,-52.1942 59.0483,-56.9185 64.0642,-61.8012"/>
<text text-anchor="start" x="55" y="-78" font-family="Helvetica,sans-Serif" font-size="10.00" fill="#000000">start_s = &#39;1&#39; &#160;&#160;</text>
</g>
<!-- s_running&#45;&gt;s_idle -->
<g id="edge2" class="edge transition">
<title>s_running&#45;&gt;s_idle</title>
<path fill="none" stroke="#000000" d="M109.4417,-52.2485C112.1324,-57.4648 114.6174,-63.2887 116,-69 118.5096,-79.3672 119.0572,-82.7808 116,-93 115.2068,-95.6514 114.141,-98.2881 112.9013,-100.8558"/>
<polygon fill="#000000" stroke="#000000" points="109.7391,-99.3356 107.8255,-109.7562 115.8198,-102.8034 109.7391,-99.3356"/>
<text text-anchor="start" x="118" y="-84" font-family="Helvetica,sans-Serif" font-size="10.00" fill="#000000">count = &quot;11000&quot;count = &quot;11000&quot; &#160;&#160;</text>
<text text-anchor="start" x="118" y="-72" font-family="Helvetica,sans-Serif" font-size="10.00" fill="#000000">prev_spi_clk = &#39;1&#39; and spi_clk_buf = &#39;0&#39; &#160;&#160;</text>
</g>
</g>
</svg>
