<?xml version="1.0" encoding="UTF-8" standalone="no"?>
<!DOCTYPE svg PUBLIC "-//W3C//DTD SVG 1.1//EN"
 "http://www.w3.org/Graphics/SVG/1.1/DTD/svg11.dtd">
<!-- Generated by graphviz version 2.40.1 (20161225.0304)
 -->
<!-- Title: state transitions Pages: 1 -->
<svg width="346pt" height="352pt"
 viewBox="0.00 0.00 346.00 352.00" xmlns="http://www.w3.org/2000/svg" xmlns:xlink="http://www.w3.org/1999/xlink">
<g id="graph0" class="graph" transform="scale(1 1) rotate(0) translate(4 348)">
<title>state transitions</title>
<polygon fill="#ffffff" stroke="transparent" points="-4,4 -4,-348 342,-348 342,4 -4,4"/>
<g id="clust1" class="cluster state regular">
<title>cluster_state</title>
<path fill="none" stroke="#000000" stroke-width="2" d="M20,-8C20,-8 318,-8 318,-8 324,-8 330,-14 330,-20 330,-20 330,-324 330,-324 330,-330 324,-336 318,-336 318,-336 20,-336 20,-336 14,-336 8,-330 8,-324 8,-324 8,-20 8,-20 8,-14 14,-8 20,-8"/>
<text text-anchor="start" x="155.9944" y="-317.2" font-family="Helvetica,sans-Serif" font-size="12.00" fill="#000000">state</text>
</g>
<!-- state -->
<!-- IDLE -->
<g id="node2" class="node state regular">
<title>IDLE</title>
<polygon fill="#ffffff" fill-opacity="0.003922" stroke="transparent" stroke-width="2" points="208,-216 152,-216 152,-180 208,-180 208,-216"/>
<text text-anchor="start" x="166.6644" y="-194.2" font-family="Helvetica,sans-Serif" font-size="12.00" fill="#000000">IDLE</text>
<path fill="none" stroke="#000000" stroke-width="2" d="M164.3333,-181C164.3333,-181 195.6667,-181 195.6667,-181 201.3333,-181 207,-186.6667 207,-192.3333 207,-192.3333 207,-203.6667 207,-203.6667 207,-209.3333 201.3333,-215 195.6667,-215 195.6667,-215 164.3333,-215 164.3333,-215 158.6667,-215 153,-209.3333 153,-203.6667 153,-203.6667 153,-192.3333 153,-192.3333 153,-186.6667 158.6667,-181 164.3333,-181"/>
</g>
<!-- REQUEST -->
<g id="node3" class="node state regular">
<title>REQUEST</title>
<polygon fill="#ffffff" fill-opacity="0.003922" stroke="transparent" stroke-width="2" points="94.5,-134 15.5,-134 15.5,-98 94.5,-98 94.5,-134"/>
<text text-anchor="start" x="26.5002" y="-112.2" font-family="Helvetica,sans-Serif" font-size="12.00" fill="#000000">REQUEST</text>
<path fill="none" stroke="#000000" stroke-width="2" d="M27.8333,-99C27.8333,-99 82.1667,-99 82.1667,-99 87.8333,-99 93.5,-104.6667 93.5,-110.3333 93.5,-110.3333 93.5,-121.6667 93.5,-121.6667 93.5,-127.3333 87.8333,-133 82.1667,-133 82.1667,-133 27.8333,-133 27.8333,-133 22.1667,-133 16.5,-127.3333 16.5,-121.6667 16.5,-121.6667 16.5,-110.3333 16.5,-110.3333 16.5,-104.6667 22.1667,-99 27.8333,-99"/>
</g>
<!-- IDLE&#45;&gt;REQUEST -->
<g id="edge1" class="edge transition">
<title>IDLE&#45;&gt;REQUEST</title>
<path fill="none" stroke="#000000" d="M151.9659,-194.106C118.8412,-188.864 66.7363,-178.3845 55.055,-163 51.0396,-157.7117 49.5714,-151.0364 49.4368,-144.3903"/>
<polygon fill="#000000" stroke="#000000" points="52.945,-144.3929 50.1485,-134.1738 45.9619,-143.9064 52.945,-144.3929"/>
<text text-anchor="start" x="55" y="-154" font-family="Helvetica,sans-Serif" font-size="10.00" fill="#000000">request_data and enable &#160;&#160;</text>
</g>
<!-- WAITING -->
<g id="node4" class="node state regular">
<title>WAITING</title>
<polygon fill="#ffffff" fill-opacity="0.003922" stroke="transparent" stroke-width="2" points="175.5,-52 102.5,-52 102.5,-16 175.5,-16 175.5,-52"/>
<text text-anchor="start" x="113.8362" y="-30.2" font-family="Helvetica,sans-Serif" font-size="12.00" fill="#000000">WAITING</text>
<path fill="none" stroke="#000000" stroke-width="2" d="M114.8333,-17C114.8333,-17 163.1667,-17 163.1667,-17 168.8333,-17 174.5,-22.6667 174.5,-28.3333 174.5,-28.3333 174.5,-39.6667 174.5,-39.6667 174.5,-45.3333 168.8333,-51 163.1667,-51 163.1667,-51 114.8333,-51 114.8333,-51 109.1667,-51 103.5,-45.3333 103.5,-39.6667 103.5,-39.6667 103.5,-28.3333 103.5,-28.3333 103.5,-22.6667 109.1667,-17 114.8333,-17"/>
</g>
<!-- REQUEST&#45;&gt;WAITING -->
<g id="edge2" class="edge transition">
<title>REQUEST&#45;&gt;WAITING</title>
<path fill="none" stroke="#000000" d="M57.0907,-97.8486C58.9788,-88.3662 62.5695,-77.0864 69.395,-69 75.8729,-61.3254 84.4484,-55.1584 93.3599,-50.2701"/>
<polygon fill="#000000" stroke="#000000" points="94.9334,-53.3966 102.3181,-45.7995 91.8076,-47.1332 94.9334,-53.3966"/>
<text text-anchor="start" x="69" y="-72" font-family="Helvetica,sans-Serif" font-size="10.00" fill="#000000">drready = &#39;1&#39; &#160;&#160;</text>
</g>
<!-- WAITING&#45;&gt;IDLE -->
<g id="edge3" class="edge transition">
<title>WAITING&#45;&gt;IDLE</title>
<path fill="none" stroke="#000000" d="M138.6318,-52.1355C138.9622,-73.1106 141.8958,-108.0756 156.168,-134 161.606,-143.8777 169.881,-140.9533 175,-151 177.8638,-156.6206 179.4585,-163.1039 180.2881,-169.4248"/>
<polygon fill="#000000" stroke="#000000" points="176.8221,-170.014 181.0509,-179.7283 183.803,-169.4971 176.8221,-170.014"/>
<text text-anchor="start" x="156" y="-113" font-family="Helvetica,sans-Serif" font-size="10.00" fill="#000000">fifo_reset = &#39;1&#39; &#160;&#160;</text>
</g>
<!-- WAITING&#45;&gt;IDLE -->
<g id="edge4" class="edge transition">
<title>WAITING&#45;&gt;IDLE</title>
<path fill="none" stroke="#000000" d="M175.7029,-39.8795C209.3584,-46.3403 254,-58.096 254,-75 254,-157 254,-157 254,-157 254,-175.4257 236.2289,-185.6385 218.1042,-191.2629"/>
<polygon fill="#000000" stroke="#000000" points="217.1473,-187.8958 208.3987,-193.8719 218.9645,-194.6559 217.1473,-187.8958"/>
<text text-anchor="start" x="254" y="-119" font-family="Helvetica,sans-Serif" font-size="10.00" fill="#000000">datype = &quot;00&quot; &#160;&#160;</text>
<text text-anchor="start" x="254" y="-107" font-family="Helvetica,sans-Serif" font-size="10.00" fill="#000000">davalid = &#39;1&#39; &#160;&#160;</text>
</g>
<!-- FLUSH -->
<g id="node5" class="node state regular">
<title>FLUSH</title>
<polygon fill="#ffffff" fill-opacity="0.003922" stroke="transparent" stroke-width="2" points="210.5,-298 149.5,-298 149.5,-262 210.5,-262 210.5,-298"/>
<text text-anchor="start" x="160.835" y="-276.2" font-family="Helvetica,sans-Serif" font-size="12.00" fill="#000000">FLUSH</text>
<path fill="none" stroke="#000000" stroke-width="2" d="M161.8333,-263C161.8333,-263 198.1667,-263 198.1667,-263 203.8333,-263 209.5,-268.6667 209.5,-274.3333 209.5,-274.3333 209.5,-285.6667 209.5,-285.6667 209.5,-291.3333 203.8333,-297 198.1667,-297 198.1667,-297 161.8333,-297 161.8333,-297 156.1667,-297 150.5,-291.3333 150.5,-285.6667 150.5,-285.6667 150.5,-274.3333 150.5,-274.3333 150.5,-268.6667 156.1667,-263 161.8333,-263"/>
</g>
<!-- FLUSH&#45;&gt;IDLE -->
<g id="edge5" class="edge transition">
<title>FLUSH&#45;&gt;IDLE</title>
<path fill="none" stroke="#000000" d="M180,-261.8015C180,-251.3976 180,-238.1215 180,-226.3768"/>
<polygon fill="#000000" stroke="#000000" points="183.5001,-226.1476 180,-216.1476 176.5001,-226.1476 183.5001,-226.1476"/>
<text text-anchor="start" x="180" y="-236" font-family="Helvetica,sans-Serif" font-size="10.00" fill="#000000">drready = &#39;1&#39; &#160;&#160;</text>
</g>
</g>
</svg>
