<?xml version="1.0" encoding="UTF-8" standalone="no"?>
<!DOCTYPE svg PUBLIC "-//W3C//DTD SVG 1.1//EN"
 "http://www.w3.org/Graphics/SVG/1.1/DTD/svg11.dtd">
<!-- Generated by graphviz version 2.40.1 (20161225.0304)
 -->
<!-- Title: state transitions Pages: 1 -->
<svg width="337pt" height="200pt"
 viewBox="0.00 0.00 337.00 200.00" xmlns="http://www.w3.org/2000/svg" xmlns:xlink="http://www.w3.org/1999/xlink">
<g id="graph0" class="graph" transform="scale(1 1) rotate(0) translate(4 196)">
<title>state transitions</title>
<polygon fill="#ffffff" stroke="transparent" points="-4,4 -4,-196 333,-196 333,4 -4,4"/>
<g id="clust1" class="cluster state regular">
<title>cluster_state_reg</title>
<path fill="none" stroke="#000000" stroke-width="2" d="M20,-8C20,-8 309,-8 309,-8 315,-8 321,-14 321,-20 321,-20 321,-172 321,-172 321,-178 315,-184 309,-184 309,-184 20,-184 20,-184 14,-184 8,-178 8,-172 8,-172 8,-20 8,-20 8,-14 14,-8 20,-8"/>
<text text-anchor="start" x="139.4908" y="-165.2" font-family="Helvetica,sans-Serif" font-size="12.00" fill="#000000">state_reg</text>
</g>
<!-- state_reg -->
<!-- state_idle -->
<g id="node2" class="node state regular">
<title>state_idle</title>
<polygon fill="#ffffff" fill-opacity="0.003922" stroke="transparent" stroke-width="2" points="142.5,-146 69.5,-146 69.5,-110 142.5,-110 142.5,-146"/>
<text text-anchor="start" x="80.8254" y="-124.2" font-family="Helvetica,sans-Serif" font-size="12.00" fill="#000000">state_idle</text>
<path fill="none" stroke="#000000" stroke-width="2" d="M81.8333,-111C81.8333,-111 130.1667,-111 130.1667,-111 135.8333,-111 141.5,-116.6667 141.5,-122.3333 141.5,-122.3333 141.5,-133.6667 141.5,-133.6667 141.5,-139.3333 135.8333,-145 130.1667,-145 130.1667,-145 81.8333,-145 81.8333,-145 76.1667,-145 70.5,-139.3333 70.5,-133.6667 70.5,-133.6667 70.5,-122.3333 70.5,-122.3333 70.5,-116.6667 76.1667,-111 81.8333,-111"/>
</g>
<!-- state_count -->
<g id="node3" class="node state regular">
<title>state_count</title>
<polygon fill="#ffffff" fill-opacity="0.003922" stroke="transparent" stroke-width="2" points="150,-52 66,-52 66,-16 150,-16 150,-52"/>
<text text-anchor="start" x="76.9854" y="-30.2" font-family="Helvetica,sans-Serif" font-size="12.00" fill="#000000">state_count</text>
<path fill="none" stroke="#000000" stroke-width="2" d="M78.3333,-17C78.3333,-17 137.6667,-17 137.6667,-17 143.3333,-17 149,-22.6667 149,-28.3333 149,-28.3333 149,-39.6667 149,-39.6667 149,-45.3333 143.3333,-51 137.6667,-51 137.6667,-51 78.3333,-51 78.3333,-51 72.6667,-51 67,-45.3333 67,-39.6667 67,-39.6667 67,-28.3333 67,-28.3333 67,-22.6667 72.6667,-17 78.3333,-17"/>
</g>
<!-- state_idle&#45;&gt;state_count -->
<g id="edge1" class="edge transition">
<title>state_idle&#45;&gt;state_count</title>
<path fill="none" stroke="#000000" d="M69.6223,-109.9993C63.5764,-105.3244 58.1323,-99.6805 54.599,-93 49.612,-83.5709 49.5291,-78.3848 54.599,-69 56.6143,-65.2696 59.2195,-61.8726 62.1933,-58.7926"/>
<polygon fill="#000000" stroke="#000000" points="64.513,-61.4135 69.6973,-52.1737 59.8825,-56.1639 64.513,-61.4135"/>
<text text-anchor="start" x="54" y="-78" font-family="Helvetica,sans-Serif" font-size="10.00" fill="#000000">data_eof_i = &#39;1&#39; &#160;&#160;</text>
</g>
<!-- state_count&#45;&gt;state_idle -->
<g id="edge2" class="edge transition">
<title>state_count&#45;&gt;state_idle</title>
<path fill="none" stroke="#000000" d="M123.4626,-52.1624C126.9541,-57.2881 130.1679,-63.0885 132,-69 135.1577,-79.1886 135.3499,-82.873 132,-93 131.0863,-95.7623 129.8608,-98.4842 128.4377,-101.1155"/>
<polygon fill="#000000" stroke="#000000" points="125.428,-99.3258 123.0045,-109.6397 131.3309,-103.0882 125.428,-99.3258"/>
<text text-anchor="start" x="134" y="-84" font-family="Helvetica,sans-Serif" font-size="10.00" fill="#000000">data_en_i = &#39;1&#39; &#160;&#160;</text>
<text text-anchor="start" x="134" y="-72" font-family="Helvetica,sans-Serif" font-size="10.00" fill="#000000">not (cpt_s &lt; point_pos_nat_s &#45; 1) &#160;&#160;</text>
</g>
</g>
</svg>
