<?xml version="1.0" encoding="UTF-8" standalone="no"?>
<!DOCTYPE svg PUBLIC "-//W3C//DTD SVG 1.1//EN"
 "http://www.w3.org/Graphics/SVG/1.1/DTD/svg11.dtd">
<!-- Generated by graphviz version 2.40.1 (20161225.0304)
 -->
<!-- Title: state transitions Pages: 1 -->
<svg width="190pt" height="188pt"
 viewBox="0.00 0.00 190.00 188.00" xmlns="http://www.w3.org/2000/svg" xmlns:xlink="http://www.w3.org/1999/xlink">
<g id="graph0" class="graph" transform="scale(1 1) rotate(0) translate(4 184)">
<title>state transitions</title>
<polygon fill="#ffffff" stroke="transparent" points="-4,4 -4,-184 186,-184 186,4 -4,4"/>
<g id="clust1" class="cluster state regular">
<title>cluster_state_s</title>
<path fill="none" stroke="#000000" stroke-width="2" d="M20,-8C20,-8 162,-8 162,-8 168,-8 174,-14 174,-20 174,-20 174,-160 174,-160 174,-166 168,-172 162,-172 162,-172 20,-172 20,-172 14,-172 8,-166 8,-160 8,-160 8,-20 8,-20 8,-14 14,-8 20,-8"/>
<text text-anchor="start" x="71.659" y="-153.2" font-family="Helvetica,sans-Serif" font-size="12.00" fill="#000000">state_s</text>
</g>
<!-- state_s -->
<!-- IDLE -->
<g id="node2" class="node state regular">
<title>IDLE</title>
<polygon fill="#ffffff" fill-opacity="0.003922" stroke="transparent" stroke-width="2" points="90,-134 34,-134 34,-98 90,-98 90,-134"/>
<text text-anchor="start" x="48.6644" y="-112.2" font-family="Helvetica,sans-Serif" font-size="12.00" fill="#000000">IDLE</text>
<path fill="none" stroke="#000000" stroke-width="2" d="M46.3333,-99C46.3333,-99 77.6667,-99 77.6667,-99 83.3333,-99 89,-104.6667 89,-110.3333 89,-110.3333 89,-121.6667 89,-121.6667 89,-127.3333 83.3333,-133 77.6667,-133 77.6667,-133 46.3333,-133 46.3333,-133 40.6667,-133 35,-127.3333 35,-121.6667 35,-121.6667 35,-110.3333 35,-110.3333 35,-104.6667 40.6667,-99 46.3333,-99"/>
</g>
<!-- READ_FIRST -->
<g id="node3" class="node state regular">
<title>READ_FIRST</title>
<polygon fill="#ffffff" fill-opacity="0.003922" stroke="transparent" stroke-width="2" points="139,-52 43,-52 43,-16 139,-16 139,-52"/>
<text text-anchor="start" x="53.668" y="-30.2" font-family="Helvetica,sans-Serif" font-size="12.00" fill="#000000">READ_FIRST</text>
<path fill="none" stroke="#000000" stroke-width="2" d="M55.3333,-17C55.3333,-17 126.6667,-17 126.6667,-17 132.3333,-17 138,-22.6667 138,-28.3333 138,-28.3333 138,-39.6667 138,-39.6667 138,-45.3333 132.3333,-51 126.6667,-51 126.6667,-51 55.3333,-51 55.3333,-51 49.6667,-51 44,-45.3333 44,-39.6667 44,-39.6667 44,-28.3333 44,-28.3333 44,-22.6667 49.6667,-17 55.3333,-17"/>
</g>
<!-- IDLE&#45;&gt;READ_FIRST -->
<g id="edge1" class="edge transition">
<title>IDLE&#45;&gt;READ_FIRST</title>
<path fill="none" stroke="#000000" d="M54.55,-97.5698C52.0714,-88.6545 50.8012,-77.9681 54.618,-69 55.9984,-65.7565 57.8431,-62.6683 59.972,-59.7666"/>
<polygon fill="#000000" stroke="#000000" points="62.6955,-61.9678 66.5753,-52.1089 57.3942,-57.3965 62.6955,-61.9678"/>
<text text-anchor="start" x="54" y="-72" font-family="Helvetica,sans-Serif" font-size="10.00" fill="#000000">cmp_start_i = &#39;1&#39; &#160;&#160;</text>
</g>
<!-- READ_FIRST&#45;&gt;IDLE -->
<g id="edge2" class="edge transition">
<title>READ_FIRST&#45;&gt;IDLE</title>
<path fill="none" stroke="#000000" d="M125.4026,-52.0877C136.2022,-60.2393 143.7465,-70.4067 137,-81 128.6591,-94.0969 113.996,-102.3733 99.8345,-107.5653"/>
<polygon fill="#000000" stroke="#000000" points="98.6289,-104.2767 90.1943,-110.6883 100.7862,-110.936 98.6289,-104.2767"/>
<text text-anchor="middle" x="140.3895" y="-72" font-family="Helvetica,sans-Serif" font-size="10.00" fill="#000000"> </text>
</g>
</g>
</svg>
