<?xml version="1.0" encoding="UTF-8" standalone="no"?>
<!DOCTYPE svg PUBLIC "-//W3C//DTD SVG 1.1//EN"
 "http://www.w3.org/Graphics/SVG/1.1/DTD/svg11.dtd">
<!-- Generated by graphviz version 2.40.1 (20161225.0304)
 -->
<!-- Title: state transitions Pages: 1 -->
<svg width="298pt" height="188pt"
 viewBox="0.00 0.00 298.00 188.00" xmlns="http://www.w3.org/2000/svg" xmlns:xlink="http://www.w3.org/1999/xlink">
<g id="graph0" class="graph" transform="scale(1 1) rotate(0) translate(4 184)">
<title>state transitions</title>
<polygon fill="#ffffff" stroke="transparent" points="-4,4 -4,-184 294,-184 294,4 -4,4"/>
<g id="clust1" class="cluster state regular">
<title>cluster_state</title>
<path fill="none" stroke="#000000" stroke-width="2" d="M20,-8C20,-8 270,-8 270,-8 276,-8 282,-14 282,-20 282,-20 282,-160 282,-160 282,-166 276,-172 270,-172 270,-172 20,-172 20,-172 14,-172 8,-166 8,-160 8,-160 8,-20 8,-20 8,-14 14,-8 20,-8"/>
<text text-anchor="start" x="131.9944" y="-153.2" font-family="Helvetica,sans-Serif" font-size="12.00" fill="#000000">state</text>
</g>
<!-- state -->
<!-- sINIT -->
<g id="node2" class="node state regular">
<title>sINIT</title>
<polygon fill="#ffffff" fill-opacity="0.003922" stroke="transparent" stroke-width="2" points="245,-134 189,-134 189,-98 245,-98 245,-134"/>
<text text-anchor="start" x="202.6684" y="-112.2" font-family="Helvetica,sans-Serif" font-size="12.00" fill="#000000">sINIT</text>
<path fill="none" stroke="#ff0000" stroke-width="2" d="M201.3333,-99C201.3333,-99 232.6667,-99 232.6667,-99 238.3333,-99 244,-104.6667 244,-110.3333 244,-110.3333 244,-121.6667 244,-121.6667 244,-127.3333 238.3333,-133 232.6667,-133 232.6667,-133 201.3333,-133 201.3333,-133 195.6667,-133 190,-127.3333 190,-121.6667 190,-121.6667 190,-110.3333 190,-110.3333 190,-104.6667 195.6667,-99 201.3333,-99"/>
</g>
<!-- sIDLE -->
<g id="node3" class="node state regular">
<title>sIDLE</title>
<polygon fill="#ffffff" fill-opacity="0.003922" stroke="transparent" stroke-width="2" points="161,-134 105,-134 105,-98 161,-98 161,-134"/>
<text text-anchor="start" x="116.6644" y="-112.2" font-family="Helvetica,sans-Serif" font-size="12.00" fill="#000000">sIDLE</text>
<path fill="none" stroke="#000000" stroke-width="2" d="M117.3333,-99C117.3333,-99 148.6667,-99 148.6667,-99 154.3333,-99 160,-104.6667 160,-110.3333 160,-110.3333 160,-121.6667 160,-121.6667 160,-127.3333 154.3333,-133 148.6667,-133 148.6667,-133 117.3333,-133 117.3333,-133 111.6667,-133 106,-127.3333 106,-121.6667 106,-121.6667 106,-110.3333 106,-110.3333 106,-104.6667 111.6667,-99 117.3333,-99"/>
</g>
<!-- sREAD -->
<g id="node4" class="node state regular">
<title>sREAD</title>
<polygon fill="#ffffff" fill-opacity="0.003922" stroke="transparent" stroke-width="2" points="77.5,-52 16.5,-52 16.5,-16 77.5,-16 77.5,-52"/>
<text text-anchor="start" x="27.8344" y="-30.2" font-family="Helvetica,sans-Serif" font-size="12.00" fill="#000000">sREAD</text>
<path fill="none" stroke="#000000" stroke-width="2" d="M28.8333,-17C28.8333,-17 65.1667,-17 65.1667,-17 70.8333,-17 76.5,-22.6667 76.5,-28.3333 76.5,-28.3333 76.5,-39.6667 76.5,-39.6667 76.5,-45.3333 70.8333,-51 65.1667,-51 65.1667,-51 28.8333,-51 28.8333,-51 23.1667,-51 17.5,-45.3333 17.5,-39.6667 17.5,-39.6667 17.5,-28.3333 17.5,-28.3333 17.5,-22.6667 23.1667,-17 28.8333,-17"/>
</g>
<!-- sIDLE&#45;&gt;sREAD -->
<g id="edge1" class="edge transition">
<title>sIDLE&#45;&gt;sREAD</title>
<path fill="none" stroke="#000000" d="M113.9138,-97.8015C102.0003,-86.4422 86.4958,-71.6588 73.4116,-59.1831"/>
<polygon fill="#000000" stroke="#000000" points="75.6855,-56.5153 66.0328,-52.1476 70.855,-61.5815 75.6855,-56.5153"/>
<text text-anchor="start" x="95" y="-72" font-family="Helvetica,sans-Serif" font-size="10.00" fill="#000000">rd &#160;&#160;</text>
</g>
<!-- sWRITE -->
<g id="node5" class="node state regular">
<title>sWRITE</title>
<polygon fill="#ffffff" fill-opacity="0.003922" stroke="transparent" stroke-width="2" points="166,-52 100,-52 100,-16 166,-16 166,-52"/>
<text text-anchor="start" x="110.671" y="-30.2" font-family="Helvetica,sans-Serif" font-size="12.00" fill="#000000">sWRITE</text>
<path fill="none" stroke="#000000" stroke-width="2" d="M112.3333,-17C112.3333,-17 153.6667,-17 153.6667,-17 159.3333,-17 165,-22.6667 165,-28.3333 165,-28.3333 165,-39.6667 165,-39.6667 165,-45.3333 159.3333,-51 153.6667,-51 153.6667,-51 112.3333,-51 112.3333,-51 106.6667,-51 101,-45.3333 101,-39.6667 101,-39.6667 101,-28.3333 101,-28.3333 101,-22.6667 106.6667,-17 112.3333,-17"/>
</g>
<!-- sIDLE&#45;&gt;sWRITE -->
<g id="edge2" class="edge transition">
<title>sIDLE&#45;&gt;sWRITE</title>
<path fill="none" stroke="#000000" d="M133,-97.8015C133,-87.3976 133,-74.1215 133,-62.3768"/>
<polygon fill="#000000" stroke="#000000" points="136.5001,-62.1476 133,-52.1476 129.5001,-62.1476 136.5001,-62.1476"/>
<text text-anchor="start" x="133" y="-72" font-family="Helvetica,sans-Serif" font-size="10.00" fill="#000000">wr &#160;&#160;</text>
</g>
<!-- sREFRESH -->
<g id="node6" class="node state regular">
<title>sREFRESH</title>
<polygon fill="#ffffff" fill-opacity="0.003922" stroke="transparent" stroke-width="2" points="273.5,-52 188.5,-52 188.5,-16 273.5,-16 273.5,-52"/>
<text text-anchor="start" x="199.8362" y="-30.2" font-family="Helvetica,sans-Serif" font-size="12.00" fill="#000000">sREFRESH</text>
<path fill="none" stroke="#000000" stroke-width="2" d="M200.8333,-17C200.8333,-17 261.1667,-17 261.1667,-17 266.8333,-17 272.5,-22.6667 272.5,-28.3333 272.5,-28.3333 272.5,-39.6667 272.5,-39.6667 272.5,-45.3333 266.8333,-51 261.1667,-51 261.1667,-51 200.8333,-51 200.8333,-51 195.1667,-51 189.5,-45.3333 189.5,-39.6667 189.5,-39.6667 189.5,-28.3333 189.5,-28.3333 189.5,-22.6667 195.1667,-17 200.8333,-17"/>
</g>
<!-- sIDLE&#45;&gt;sREFRESH -->
<g id="edge3" class="edge transition">
<title>sIDLE&#45;&gt;sREFRESH</title>
<path fill="none" stroke="#000000" d="M154.7494,-97.8015C168.4521,-86.336 186.3237,-71.3822 201.3204,-58.8339"/>
<polygon fill="#000000" stroke="#000000" points="203.8881,-61.2491 209.3114,-52.1476 199.396,-55.8806 203.8881,-61.2491"/>
<text text-anchor="start" x="188" y="-72" font-family="Helvetica,sans-Serif" font-size="10.00" fill="#000000">rf &#160;&#160;</text>
</g>
</g>
</svg>
