<?xml version="1.0" encoding="UTF-8" standalone="no"?>
<!DOCTYPE svg PUBLIC "-//W3C//DTD SVG 1.1//EN"
 "http://www.w3.org/Graphics/SVG/1.1/DTD/svg11.dtd">
<!-- Generated by graphviz version 2.40.1 (20161225.0304)
 -->
<!-- Title: state transitions Pages: 1 -->
<svg width="1738pt" height="834pt"
 viewBox="0.00 0.00 1737.93 834.00" xmlns="http://www.w3.org/2000/svg" xmlns:xlink="http://www.w3.org/1999/xlink">
<g id="graph0" class="graph" transform="scale(1 1) rotate(0) translate(4 830)">
<title>state transitions</title>
<polygon fill="#ffffff" stroke="transparent" points="-4,4 -4,-830 1733.933,-830 1733.933,4 -4,4"/>
<g id="clust1" class="cluster state regular">
<title>cluster_rx_state</title>
<path fill="none" stroke="#000000" stroke-width="2" d="M20,-8C20,-8 1697,-8 1697,-8 1703,-8 1709,-14 1709,-20 1709,-20 1709,-806 1709,-806 1709,-812 1703,-818 1697,-818 1697,-818 20,-818 20,-818 14,-818 8,-812 8,-806 8,-806 8,-20 8,-20 8,-14 14,-8 20,-8"/>
<text text-anchor="start" x="837.1616" y="-799.2" font-family="Helvetica,sans-Serif" font-size="12.00" fill="#000000">rx_state</text>
</g>
<!-- rx_state -->
<!-- INIT -->
<g id="node2" class="node state regular">
<title>INIT</title>
<polygon fill="#ffffff" fill-opacity="0.003922" stroke="transparent" stroke-width="2" points="1542,-780 1486,-780 1486,-744 1542,-744 1542,-780"/>
<text text-anchor="start" x="1502.6684" y="-758.2" font-family="Helvetica,sans-Serif" font-size="12.00" fill="#000000">INIT</text>
<path fill="none" stroke="#000000" stroke-width="2" d="M1498.3333,-745C1498.3333,-745 1529.6667,-745 1529.6667,-745 1535.3333,-745 1541,-750.6667 1541,-756.3333 1541,-756.3333 1541,-767.6667 1541,-767.6667 1541,-773.3333 1535.3333,-779 1529.6667,-779 1529.6667,-779 1498.3333,-779 1498.3333,-779 1492.6667,-779 1487,-773.3333 1487,-767.6667 1487,-767.6667 1487,-756.3333 1487,-756.3333 1487,-750.6667 1492.6667,-745 1498.3333,-745"/>
</g>
<!-- ASSERT_ALL_RESETS -->
<g id="node3" class="node state regular">
<title>ASSERT_ALL_RESETS</title>
<polygon fill="#ffffff" fill-opacity="0.003922" stroke="transparent" stroke-width="2" points="1590,-698 1438,-698 1438,-662 1590,-662 1590,-698"/>
<text text-anchor="start" x="1448.6522" y="-676.2" font-family="Helvetica,sans-Serif" font-size="12.00" fill="#000000">ASSERT_ALL_RESETS</text>
<path fill="none" stroke="#000000" stroke-width="2" d="M1450.3333,-663C1450.3333,-663 1577.6667,-663 1577.6667,-663 1583.3333,-663 1589,-668.6667 1589,-674.3333 1589,-674.3333 1589,-685.6667 1589,-685.6667 1589,-691.3333 1583.3333,-697 1577.6667,-697 1577.6667,-697 1450.3333,-697 1450.3333,-697 1444.6667,-697 1439,-691.3333 1439,-685.6667 1439,-685.6667 1439,-674.3333 1439,-674.3333 1439,-668.6667 1444.6667,-663 1450.3333,-663"/>
</g>
<!-- INIT&#45;&gt;ASSERT_ALL_RESETS -->
<g id="edge1" class="edge transition">
<title>INIT&#45;&gt;ASSERT_ALL_RESETS</title>
<path fill="none" stroke="#000000" d="M1514,-743.8015C1514,-733.3976 1514,-720.1215 1514,-708.3768"/>
<polygon fill="#000000" stroke="#000000" points="1517.5001,-708.1476 1514,-698.1476 1510.5001,-708.1476 1517.5001,-708.1476"/>
<text text-anchor="start" x="1514" y="-718" font-family="Helvetica,sans-Serif" font-size="10.00" fill="#000000">init_wait_done = &#39;1&#39; &#160;&#160;</text>
</g>
<!-- RELEASE_PLL_RESET -->
<g id="node4" class="node state regular">
<title>RELEASE_PLL_RESET</title>
<polygon fill="#ffffff" fill-opacity="0.003922" stroke="transparent" stroke-width="2" points="795,-568 643,-568 643,-532 795,-532 795,-568"/>
<text text-anchor="start" x="653.9822" y="-546.2" font-family="Helvetica,sans-Serif" font-size="12.00" fill="#000000">RELEASE_PLL_RESET</text>
<path fill="none" stroke="#000000" stroke-width="2" d="M655.3333,-533C655.3333,-533 782.6667,-533 782.6667,-533 788.3333,-533 794,-538.6667 794,-544.3333 794,-544.3333 794,-555.6667 794,-555.6667 794,-561.3333 788.3333,-567 782.6667,-567 782.6667,-567 655.3333,-567 655.3333,-567 649.6667,-567 644,-561.3333 644,-555.6667 644,-555.6667 644,-544.3333 644,-544.3333 644,-538.6667 649.6667,-533 655.3333,-533"/>
</g>
<!-- ASSERT_ALL_RESETS&#45;&gt;RELEASE_PLL_RESET -->
<g id="edge2" class="edge transition">
<title>ASSERT_ALL_RESETS&#45;&gt;RELEASE_PLL_RESET</title>
<path fill="none" stroke="#000000" d="M1437.9295,-679.4129C1159.3994,-677.085 210.2306,-667.5111 188.306,-645 169.7003,-625.8966 170.0808,-604.4667 188.306,-585 203.2312,-569.0581 485.9937,-557.5621 632.5246,-552.6487"/>
<polygon fill="#000000" stroke="#000000" points="632.9556,-556.1364 642.8338,-552.3063 632.7232,-549.1402 632.9556,-556.1364"/>
<text text-anchor="start" x="188" y="-630" font-family="Helvetica,sans-Serif" font-size="10.00" fill="#000000">((qPllRxSelect = &quot;00&quot;) &#160;and (qPllTxSelect /= &quot;00&quot;) and (PLL0REFCLKLOST = &#39;0&#39;) and pll_reset_asserted = &#39;1&#39;) or &#160;&#160;</text>
<text text-anchor="start" x="188" y="-618" font-family="Helvetica,sans-Serif" font-size="10.00" fill="#000000">((qPllRxSelect /= &quot;00&quot;) and (qPllTxSelect = &quot;00&quot;) &#160;and (PLL1REFCLKLOST = &#39;0&#39;) and pll_reset_asserted = &#39;1&#39;) or &#160;&#160;</text>
<text text-anchor="start" x="188" y="-606" font-family="Helvetica,sans-Serif" font-size="10.00" fill="#000000">((qPllRxSelect = &quot;00&quot;) &#160;and (qPllTxSelect = &quot;00&quot;) &#160;and (PLL0REFCLKLOST = &#39;0&#39;)) or &#160;&#160;</text>
<text text-anchor="start" x="188" y="-594" font-family="Helvetica,sans-Serif" font-size="10.00" fill="#000000">((qPllRxSelect /= &quot;00&quot;) and (qPllTxSelect /= &quot;00&quot;) and (PLL1REFCLKLOST = &#39;0&#39;)) &#160;&#160;</text>
</g>
<!-- ASSERT_ALL_RESETS&#45;&gt;RELEASE_PLL_RESET -->
<g id="edge3" class="edge transition">
<title>ASSERT_ALL_RESETS&#45;&gt;RELEASE_PLL_RESET</title>
<path fill="none" stroke="#000000" d="M1437.801,-679.1218C1246.9743,-676.5831 761.9089,-667.9001 735.814,-645 717.3979,-628.8386 714.5385,-600.1271 715.4701,-578.4856"/>
<polygon fill="#000000" stroke="#000000" points="718.9822,-578.4424 716.2102,-568.2167 712.0003,-577.9392 718.9822,-578.4424"/>
<text text-anchor="start" x="735" y="-636" font-family="Helvetica,sans-Serif" font-size="10.00" fill="#000000">(RX_PLL0_USED and not TX_PLL0_USED and (PLL0REFCLKLOST = &#39;0&#39;) and pll_reset_asserted = &#39;1&#39;) or &#160;&#160;</text>
<text text-anchor="start" x="735" y="-624" font-family="Helvetica,sans-Serif" font-size="10.00" fill="#000000">(not RX_PLL0_USED and TX_PLL0_USED and (PLL1REFCLKLOST = &#39;0&#39;) and pll_reset_asserted = &#39;1&#39;) or &#160;&#160;</text>
<text text-anchor="start" x="735" y="-612" font-family="Helvetica,sans-Serif" font-size="10.00" fill="#000000">(RX_PLL0_USED and TX_PLL0_USED and (PLL0REFCLKLOST = &#39;0&#39;)) or &#160;&#160;</text>
<text text-anchor="start" x="735" y="-600" font-family="Helvetica,sans-Serif" font-size="10.00" fill="#000000">(not RX_PLL0_USED and not TX_PLL0_USED and (PLL1REFCLKLOST = &#39;0&#39;)) &#160;&#160;</text>
<text text-anchor="start" x="735" y="-588" font-family="Helvetica,sans-Serif" font-size="10.00" fill="#000000">not () &#160;&#160;</text>
</g>
<!-- RELEASE_PLL_RESET&#45;&gt;ASSERT_ALL_RESETS -->
<g id="edge8" class="edge transition">
<title>RELEASE_PLL_RESET&#45;&gt;ASSERT_ALL_RESETS</title>
<path fill="none" stroke="#000000" d="M795.2394,-551.8159C925.8859,-555.4477 1182.028,-565.0316 1218,-585 1246.7982,-600.9861 1233.2595,-628.0483 1261.5,-645 1288.9071,-661.4515 1365.7848,-670.4809 1427.5745,-675.2262"/>
<polygon fill="#000000" stroke="#000000" points="1427.5114,-678.731 1437.7427,-675.9794 1428.0286,-671.7502 1427.5114,-678.731"/>
<text text-anchor="start" x="1261" y="-612" font-family="Helvetica,sans-Serif" font-size="10.00" fill="#000000">time_out_2ms = &#39;1&#39; &#160;&#160;</text>
</g>
<!-- VERIFY_RECCLK_STABLE -->
<g id="node5" class="node state regular">
<title>VERIFY_RECCLK_STABLE</title>
<polygon fill="#ffffff" fill-opacity="0.003922" stroke="transparent" stroke-width="2" points="832.5,-462 659.5,-462 659.5,-426 832.5,-426 832.5,-462"/>
<text text-anchor="start" x="670.822" y="-440.2" font-family="Helvetica,sans-Serif" font-size="12.00" fill="#000000">VERIFY_RECCLK_STABLE</text>
<path fill="none" stroke="#000000" stroke-width="2" d="M671.8333,-427C671.8333,-427 820.1667,-427 820.1667,-427 825.8333,-427 831.5,-432.6667 831.5,-438.3333 831.5,-438.3333 831.5,-449.6667 831.5,-449.6667 831.5,-455.3333 825.8333,-461 820.1667,-461 820.1667,-461 671.8333,-461 671.8333,-461 666.1667,-461 660.5,-455.3333 660.5,-449.6667 660.5,-449.6667 660.5,-438.3333 660.5,-438.3333 660.5,-432.6667 666.1667,-427 671.8333,-427"/>
</g>
<!-- RELEASE_PLL_RESET&#45;&gt;VERIFY_RECCLK_STABLE -->
<g id="edge4" class="edge transition">
<title>RELEASE_PLL_RESET&#45;&gt;VERIFY_RECCLK_STABLE</title>
<path fill="none" stroke="#000000" d="M642.7006,-548.7543C472.519,-545.6023 75.211,-536.0202 55.27,-515 44.2582,-503.3922 44.2463,-490.5964 55.27,-479 75.3879,-457.8369 463.8354,-448.6263 649.1746,-445.4238"/>
<polygon fill="#000000" stroke="#000000" points="649.256,-448.923 659.1949,-445.2531 649.1366,-441.924 649.256,-448.923"/>
<text text-anchor="start" x="55" y="-500" font-family="Helvetica,sans-Serif" font-size="10.00" fill="#000000">((qPllRxSelect = &quot;00&quot;) &#160;and (qPllTxSelect /= &quot;00&quot;) and (pll0lock_ris_edge = &#39;1&#39;)) or &#160;&#160;</text>
<text text-anchor="start" x="55" y="-488" font-family="Helvetica,sans-Serif" font-size="10.00" fill="#000000">((qPllRxSelect /= &quot;00&quot;) and (qPllTxSelect = &quot;00&quot;) &#160;and (pll1lock_ris_edge = &#39;1&#39;)) &#160;&#160;</text>
</g>
<!-- RELEASE_PLL_RESET&#45;&gt;VERIFY_RECCLK_STABLE -->
<g id="edge5" class="edge transition">
<title>RELEASE_PLL_RESET&#45;&gt;VERIFY_RECCLK_STABLE</title>
<path fill="none" stroke="#000000" d="M642.7776,-544.4917C572.4833,-538.6169 477.2898,-528.3265 465.678,-515 455.167,-502.9369 455.0883,-490.9941 465.678,-479 477.9296,-465.1236 573.2227,-455.4415 649.3517,-449.8326"/>
<polygon fill="#000000" stroke="#000000" points="649.7585,-453.3124 659.4807,-449.1017 649.2547,-446.3306 649.7585,-453.3124"/>
<text text-anchor="start" x="465" y="-500" font-family="Helvetica,sans-Serif" font-size="10.00" fill="#000000">((qPllRxSelect = &quot;00&quot;) and (pll0lock_sync = &#39;1&#39;)) or &#160;&#160;</text>
<text text-anchor="start" x="465" y="-488" font-family="Helvetica,sans-Serif" font-size="10.00" fill="#000000">((qPllRxSelect /= &quot;00&quot;) and (pll1lock_sync = &#39;1&#39;)) &#160;&#160;</text>
</g>
<!-- RELEASE_PLL_RESET&#45;&gt;VERIFY_RECCLK_STABLE -->
<g id="edge6" class="edge transition">
<title>RELEASE_PLL_RESET&#45;&gt;VERIFY_RECCLK_STABLE</title>
<path fill="none" stroke="#000000" d="M723.703,-531.5362C727.8844,-515.1206 734.06,-490.8757 738.8522,-472.0616"/>
<polygon fill="#000000" stroke="#000000" points="742.2741,-472.8067 741.3509,-462.2522 735.4907,-471.0788 742.2741,-472.8067"/>
<text text-anchor="start" x="736" y="-506" font-family="Helvetica,sans-Serif" font-size="10.00" fill="#000000">(RX_PLL0_USED and not TX_PLL0_USED and (pll0lock_ris_edge = &#39;1&#39;)) or &#160;&#160;</text>
<text text-anchor="start" x="736" y="-494" font-family="Helvetica,sans-Serif" font-size="10.00" fill="#000000">(not RX_PLL0_USED and TX_PLL0_USED and (pll1lock_ris_edge = &#39;1&#39;)) &#160;&#160;</text>
<text text-anchor="start" x="736" y="-482" font-family="Helvetica,sans-Serif" font-size="10.00" fill="#000000">not () &#160;&#160;</text>
</g>
<!-- RELEASE_PLL_RESET&#45;&gt;VERIFY_RECCLK_STABLE -->
<g id="edge7" class="edge transition">
<title>RELEASE_PLL_RESET&#45;&gt;VERIFY_RECCLK_STABLE</title>
<path fill="none" stroke="#000000" d="M795.1265,-548.057C896.4025,-544.6722 1064.9757,-535.9358 1084,-515 1094.7602,-503.1586 1094.7152,-490.8821 1084,-479 1068.0136,-461.2727 937.1352,-451.9708 843.0328,-447.5266"/>
<polygon fill="#000000" stroke="#000000" points="843.0505,-444.0238 832.9001,-447.06 842.7285,-451.0164 843.0505,-444.0238"/>
<text text-anchor="start" x="1092" y="-506" font-family="Helvetica,sans-Serif" font-size="10.00" fill="#000000">(RX_PLL0_USED and (pll0lock_sync = &#39;1&#39;)) or &#160;&#160;</text>
<text text-anchor="start" x="1092" y="-494" font-family="Helvetica,sans-Serif" font-size="10.00" fill="#000000">(not RX_PLL0_USED and (pll1lock_sync = &#39;1&#39;)) &#160;&#160;</text>
<text text-anchor="start" x="1092" y="-482" font-family="Helvetica,sans-Serif" font-size="10.00" fill="#000000">not () &#160;&#160;</text>
</g>
<!-- VERIFY_RECCLK_STABLE&#45;&gt;ASSERT_ALL_RESETS -->
<g id="edge10" class="edge transition">
<title>VERIFY_RECCLK_STABLE&#45;&gt;ASSERT_ALL_RESETS</title>
<path fill="none" stroke="#000000" d="M832.5501,-444.8975C981.6642,-447.0934 1274.9465,-454.5055 1315,-479 1354.2151,-502.9818 1337.17,-533.6238 1367.686,-568 1399.3274,-603.6439 1443.6983,-635.7355 1475.2639,-656.3361"/>
<polygon fill="#000000" stroke="#000000" points="1473.5033,-659.3652 1483.8062,-661.8352 1477.2924,-653.4794 1473.5033,-659.3652"/>
<text text-anchor="start" x="1367" y="-547" font-family="Helvetica,sans-Serif" font-size="10.00" fill="#000000">recclk_mon_restart_count = 2 &#160;&#160;</text>
</g>
<!-- RELEASE_MMCM_RESET -->
<g id="node6" class="node state regular">
<title>RELEASE_MMCM_RESET</title>
<polygon fill="#ffffff" fill-opacity="0.003922" stroke="transparent" stroke-width="2" points="899.5,-380 730.5,-380 730.5,-344 899.5,-344 899.5,-380"/>
<text text-anchor="start" x="741.8308" y="-358.2" font-family="Helvetica,sans-Serif" font-size="12.00" fill="#000000">RELEASE_MMCM_RESET</text>
<path fill="none" stroke="#000000" stroke-width="2" d="M742.8333,-345C742.8333,-345 887.1667,-345 887.1667,-345 892.8333,-345 898.5,-350.6667 898.5,-356.3333 898.5,-356.3333 898.5,-367.6667 898.5,-367.6667 898.5,-373.3333 892.8333,-379 887.1667,-379 887.1667,-379 742.8333,-379 742.8333,-379 737.1667,-379 731.5,-373.3333 731.5,-367.6667 731.5,-367.6667 731.5,-356.3333 731.5,-356.3333 731.5,-350.6667 737.1667,-345 742.8333,-345"/>
</g>
<!-- VERIFY_RECCLK_STABLE&#45;&gt;RELEASE_MMCM_RESET -->
<g id="edge9" class="edge transition">
<title>VERIFY_RECCLK_STABLE&#45;&gt;RELEASE_MMCM_RESET</title>
<path fill="none" stroke="#000000" d="M761.3133,-425.8015C770.6932,-414.6545 782.8475,-400.2103 793.2187,-387.8851"/>
<polygon fill="#000000" stroke="#000000" points="795.969,-390.0526 799.7295,-380.1476 790.6129,-385.5457 795.969,-390.0526"/>
<text text-anchor="start" x="785" y="-400" font-family="Helvetica,sans-Serif" font-size="10.00" fill="#000000">RECCLK_STABLE = &#39;1&#39; &#160;&#160;</text>
</g>
<!-- RELEASE_MMCM_RESET&#45;&gt;ASSERT_ALL_RESETS -->
<g id="edge12" class="edge transition">
<title>RELEASE_MMCM_RESET&#45;&gt;ASSERT_ALL_RESETS</title>
<path fill="none" stroke="#000000" d="M899.8031,-375.4181C1003.9936,-393.1873 1185.3496,-428.3076 1335,-479 1371.2022,-491.2631 1376.6301,-503.5702 1413.104,-515 1454.4084,-527.9435 1480.6361,-499.3033 1509,-532 1537.5789,-564.9446 1530.4773,-619.2164 1522.4337,-652.0836"/>
<polygon fill="#000000" stroke="#000000" points="1518.9979,-651.3866 1519.833,-661.9484 1525.7666,-653.171 1518.9979,-651.3866"/>
<text text-anchor="start" x="1413" y="-494" font-family="Helvetica,sans-Serif" font-size="10.00" fill="#000000">time_tlock_max = &#39;1&#39; and reset_time_out = &#39;0&#39; &#160;&#160;</text>
</g>
<!-- WAIT_RESET_DONE -->
<g id="node7" class="node state regular">
<title>WAIT_RESET_DONE</title>
<polygon fill="#ffffff" fill-opacity="0.003922" stroke="transparent" stroke-width="2" points="941,-298 801,-298 801,-262 941,-262 941,-298"/>
<text text-anchor="start" x="811.999" y="-276.2" font-family="Helvetica,sans-Serif" font-size="12.00" fill="#000000">WAIT_RESET_DONE</text>
<path fill="none" stroke="#000000" stroke-width="2" d="M813.3333,-263C813.3333,-263 928.6667,-263 928.6667,-263 934.3333,-263 940,-268.6667 940,-274.3333 940,-274.3333 940,-285.6667 940,-285.6667 940,-291.3333 934.3333,-297 928.6667,-297 928.6667,-297 813.3333,-297 813.3333,-297 807.6667,-297 802,-291.3333 802,-285.6667 802,-285.6667 802,-274.3333 802,-274.3333 802,-268.6667 807.6667,-263 813.3333,-263"/>
</g>
<!-- RELEASE_MMCM_RESET&#45;&gt;WAIT_RESET_DONE -->
<g id="edge11" class="edge transition">
<title>RELEASE_MMCM_RESET&#45;&gt;WAIT_RESET_DONE</title>
<path fill="none" stroke="#000000" d="M819.1817,-343.5966C821.8113,-334.484 825.8259,-323.6182 831.622,-315 833.8552,-311.6795 836.4752,-308.4717 839.2845,-305.4351"/>
<polygon fill="#000000" stroke="#000000" points="841.8841,-307.7871 846.5454,-298.2727 836.9683,-302.8036 841.8841,-307.7871"/>
<text text-anchor="start" x="831" y="-318" font-family="Helvetica,sans-Serif" font-size="10.00" fill="#000000">mmcm_lock_reclocked = &#39;1&#39; &#160;&#160;</text>
</g>
<!-- WAIT_RESET_DONE&#45;&gt;ASSERT_ALL_RESETS -->
<g id="edge14" class="edge transition">
<title>WAIT_RESET_DONE&#45;&gt;ASSERT_ALL_RESETS</title>
<path fill="none" stroke="#000000" d="M940.2128,-298.0765C948.9825,-302.546 957.2369,-308.1013 964,-315 985.4525,-336.8827 963.6445,-360.1611 987,-380 996.8247,-388.3454 1430.9925,-460.251 1443.764,-462 1483.403,-467.4283 1594.4654,-450.9555 1623,-479 1637.1944,-492.9506 1628,-503.5978 1628,-523.5 1628,-615 1628,-615 1628,-615 1628,-634.207 1615.6369,-647.8128 1599.0533,-657.4236"/>
<polygon fill="#000000" stroke="#000000" points="1597.3085,-654.3857 1590.0397,-662.0938 1600.5288,-660.601 1597.3085,-654.3857"/>
<text text-anchor="start" x="1443" y="-441" font-family="Helvetica,sans-Serif" font-size="10.00" fill="#000000">time_out_2ms = &#39;1&#39; and reset_time_out = &#39;0&#39; &#160;&#160;</text>
</g>
<!-- DO_PHASE_ALIGNMENT -->
<g id="node8" class="node state regular">
<title>DO_PHASE_ALIGNMENT</title>
<polygon fill="#ffffff" fill-opacity="0.003922" stroke="transparent" stroke-width="2" points="959,-216 795,-216 795,-180 959,-180 959,-216"/>
<text text-anchor="start" x="805.9948" y="-194.2" font-family="Helvetica,sans-Serif" font-size="12.00" fill="#000000">DO_PHASE_ALIGNMENT</text>
<path fill="none" stroke="#000000" stroke-width="2" d="M807.3333,-181C807.3333,-181 946.6667,-181 946.6667,-181 952.3333,-181 958,-186.6667 958,-192.3333 958,-192.3333 958,-203.6667 958,-203.6667 958,-209.3333 952.3333,-215 946.6667,-215 946.6667,-215 807.3333,-215 807.3333,-215 801.6667,-215 796,-209.3333 796,-203.6667 796,-203.6667 796,-192.3333 796,-192.3333 796,-186.6667 801.6667,-181 807.3333,-181"/>
</g>
<!-- WAIT_RESET_DONE&#45;&gt;DO_PHASE_ALIGNMENT -->
<g id="edge13" class="edge transition">
<title>WAIT_RESET_DONE&#45;&gt;DO_PHASE_ALIGNMENT</title>
<path fill="none" stroke="#000000" d="M872.3316,-261.8015C873.0929,-251.3976 874.0643,-238.1215 874.9237,-226.3768"/>
<polygon fill="#000000" stroke="#000000" points="878.4329,-226.3764 875.6721,-216.1476 871.4516,-225.8655 878.4329,-226.3764"/>
<text text-anchor="start" x="874" y="-236" font-family="Helvetica,sans-Serif" font-size="10.00" fill="#000000">rxresetdone_s3 = &#39;1&#39; &#160;&#160;</text>
</g>
<!-- DO_PHASE_ALIGNMENT&#45;&gt;ASSERT_ALL_RESETS -->
<g id="edge16" class="edge transition">
<title>DO_PHASE_ALIGNMENT&#45;&gt;ASSERT_ALL_RESETS</title>
<path fill="none" stroke="#000000" d="M959.1362,-214.926C978.181,-221.2035 993,-229.2279 993,-239 993,-335.5 993,-335.5 993,-335.5 993,-356.8345 993.7525,-367.4428 1011,-380 1039.6392,-400.8511 1621.4582,-401.4523 1647,-426 1661.3495,-439.791 1652,-450.5978 1652,-470.5 1652,-615 1652,-615 1652,-615 1652,-632.075 1641.2786,-634.2653 1628,-645 1619.5561,-651.8262 1609.7874,-657.3244 1599.5911,-661.7523"/>
<polygon fill="#000000" stroke="#000000" points="1598.1242,-658.5692 1590.1327,-665.5252 1600.7178,-665.071 1598.1242,-658.5692"/>
<text text-anchor="start" x="1497" y="-400" font-family="Helvetica,sans-Serif" font-size="10.00" fill="#000000">time_out_wait_bypass_s3 = &#39;1&#39; &#160;&#160;</text>
</g>
<!-- MONITOR_DATA_VALID -->
<g id="node9" class="node state regular">
<title>MONITOR_DATA_VALID</title>
<polygon fill="#ffffff" fill-opacity="0.003922" stroke="transparent" stroke-width="2" points="1117,-134 959,-134 959,-98 1117,-98 1117,-134"/>
<text text-anchor="start" x="969.6648" y="-112.2" font-family="Helvetica,sans-Serif" font-size="12.00" fill="#000000">MONITOR_DATA_VALID</text>
<path fill="none" stroke="#000000" stroke-width="2" d="M971.3333,-99C971.3333,-99 1104.6667,-99 1104.6667,-99 1110.3333,-99 1116,-104.6667 1116,-110.3333 1116,-110.3333 1116,-121.6667 1116,-121.6667 1116,-127.3333 1110.3333,-133 1104.6667,-133 1104.6667,-133 971.3333,-133 971.3333,-133 965.6667,-133 960,-127.3333 960,-121.6667 960,-121.6667 960,-110.3333 960,-110.3333 960,-104.6667 965.6667,-99 971.3333,-99"/>
</g>
<!-- DO_PHASE_ALIGNMENT&#45;&gt;MONITOR_DATA_VALID -->
<g id="edge15" class="edge transition">
<title>DO_PHASE_ALIGNMENT&#45;&gt;MONITOR_DATA_VALID</title>
<path fill="none" stroke="#000000" d="M879.3677,-179.5978C881.5625,-169.8013 885.7876,-158.3015 893.917,-151 902.9222,-142.9119 924.7552,-136.0429 948.776,-130.5889"/>
<polygon fill="#000000" stroke="#000000" points="949.7698,-133.9548 958.8013,-128.4157 948.2868,-127.1137 949.7698,-133.9548"/>
<text text-anchor="start" x="893" y="-154" font-family="Helvetica,sans-Serif" font-size="10.00" fill="#000000">phalignment_done_sync = &#39;1&#39; &#160;&#160;</text>
</g>
<!-- MONITOR_DATA_VALID&#45;&gt;ASSERT_ALL_RESETS -->
<g id="edge17" class="edge transition">
<title>MONITOR_DATA_VALID&#45;&gt;ASSERT_ALL_RESETS</title>
<path fill="none" stroke="#000000" d="M1038,-134.3688C1038,-141.4426 1038,-149.5972 1038,-157 1038,-335.5 1038,-335.5 1038,-335.5 1038,-356.647 1037.6176,-367.7329 1054.843,-380 1108.459,-418.1826 1593.1185,-359.193 1647,-397 1675.7468,-417.1707 1676,-435.3826 1676,-470.5 1676,-615 1676,-615 1676,-615 1676,-633.8562 1661.8538,-634.7915 1646,-645 1632.1337,-653.9287 1616.0568,-660.5893 1599.9944,-665.5551"/>
<polygon fill="#000000" stroke="#000000" points="1598.6535,-662.2991 1590.015,-668.4332 1600.5933,-669.025 1598.6535,-662.2991"/>
<text text-anchor="start" x="1054" y="-359" font-family="Helvetica,sans-Serif" font-size="10.00" fill="#000000">time_out_100us = &#39;1&#39; and data_valid_sync = &#39;0&#39; and DONT_RESET_ON_DATA_ERROR = &#39;0&#39; and reset_time_out = &#39;0&#39; &#160;&#160;</text>
</g>
<!-- MONITOR_DATA_VALID&#45;&gt;ASSERT_ALL_RESETS -->
<g id="edge18" class="edge transition">
<title>MONITOR_DATA_VALID&#45;&gt;ASSERT_ALL_RESETS</title>
<path fill="none" stroke="#000000" d="M1117.0464,-117.6384C1274.6546,-121.4309 1613,-132.4335 1613,-157 1613,-335.5 1613,-335.5 1613,-335.5 1613,-369.6334 1638.9882,-369.3483 1659,-397 1662.1486,-401.3507 1675.8685,-420.4598 1679,-426 1689.7612,-445.0386 1700,-448.6306 1700,-470.5 1700,-615 1700,-615 1700,-615 1700,-637.9614 1648.8474,-654.716 1600.1928,-665.459"/>
<polygon fill="#000000" stroke="#000000" points="1599.2392,-662.0836 1590.19,-667.5938 1600.7003,-668.9294 1599.2392,-662.0836"/>
<text text-anchor="start" x="1642" y="-359" font-family="Helvetica,sans-Serif" font-size="10.00" fill="#000000">fsmCnt = x&quot;FFFF&quot; &#160;&#160;</text>
</g>
<!-- FSM_DONE -->
<g id="node10" class="node state regular">
<title>FSM_DONE</title>
<polygon fill="#ffffff" fill-opacity="0.003922" stroke="transparent" stroke-width="2" points="1082,-52 994,-52 994,-16 1082,-16 1082,-52"/>
<text text-anchor="start" x="1004.6688" y="-30.2" font-family="Helvetica,sans-Serif" font-size="12.00" fill="#000000">FSM_DONE</text>
<path fill="none" stroke="#000000" stroke-width="2" d="M1006.3333,-17C1006.3333,-17 1069.6667,-17 1069.6667,-17 1075.3333,-17 1081,-22.6667 1081,-28.3333 1081,-28.3333 1081,-39.6667 1081,-39.6667 1081,-45.3333 1075.3333,-51 1069.6667,-51 1069.6667,-51 1006.3333,-51 1006.3333,-51 1000.6667,-51 995,-45.3333 995,-39.6667 995,-39.6667 995,-28.3333 995,-28.3333 995,-22.6667 1000.6667,-17 1006.3333,-17"/>
</g>
<!-- MONITOR_DATA_VALID&#45;&gt;FSM_DONE -->
<g id="edge19" class="edge transition">
<title>MONITOR_DATA_VALID&#45;&gt;FSM_DONE</title>
<path fill="none" stroke="#000000" d="M994.804,-97.9963C983.101,-90.3214 975.2175,-80.4724 981.6,-69 983.7114,-65.2047 986.4235,-61.7684 989.5137,-58.6675"/>
<polygon fill="#000000" stroke="#000000" points="991.9627,-61.1791 997.3054,-52.03 987.4234,-55.8505 991.9627,-61.1791"/>
<text text-anchor="start" x="981" y="-72" font-family="Helvetica,sans-Serif" font-size="10.00" fill="#000000">data_valid_sync = &#39;1&#39; &#160;&#160;</text>
</g>
<!-- FSM_DONE&#45;&gt;MONITOR_DATA_VALID -->
<g id="edge20" class="edge transition">
<title>FSM_DONE&#45;&gt;MONITOR_DATA_VALID</title>
<path fill="none" stroke="#000000" d="M1072.1233,-52.1073C1082.2797,-60.0476 1089.4256,-70.0542 1084,-81 1082.2953,-84.4391 1080.0731,-87.6318 1077.5261,-90.575"/>
<polygon fill="#000000" stroke="#000000" points="1074.86,-88.2869 1070.1577,-97.7811 1079.7543,-93.2915 1074.86,-88.2869"/>
<text text-anchor="start" x="1085" y="-72" font-family="Helvetica,sans-Serif" font-size="10.00" fill="#000000">data_valid_sync = &#39;0&#39; &#160;&#160;</text>
</g>
</g>
</svg>
