<?xml version="1.0" encoding="UTF-8" standalone="no"?>
<!DOCTYPE svg PUBLIC "-//W3C//DTD SVG 1.1//EN"
 "http://www.w3.org/Graphics/SVG/1.1/DTD/svg11.dtd">
<!-- Generated by graphviz version 2.40.1 (20161225.0304)
 -->
<!-- Title: state transitions Pages: 1 -->
<svg width="765pt" height="762pt"
 viewBox="0.00 0.00 765.00 762.00" xmlns="http://www.w3.org/2000/svg" xmlns:xlink="http://www.w3.org/1999/xlink">
<g id="graph0" class="graph" transform="scale(1 1) rotate(0) translate(4 758)">
<title>state transitions</title>
<polygon fill="#ffffff" stroke="transparent" points="-4,4 -4,-758 761,-758 761,4 -4,4"/>
<g id="clust1" class="cluster state regular">
<title>cluster_rx_state</title>
<path fill="none" stroke="#000000" stroke-width="2" d="M20,-8C20,-8 737,-8 737,-8 743,-8 749,-14 749,-20 749,-20 749,-734 749,-734 749,-740 743,-746 737,-746 737,-746 20,-746 20,-746 14,-746 8,-740 8,-734 8,-734 8,-20 8,-20 8,-14 14,-8 20,-8"/>
<text text-anchor="start" x="357.1616" y="-727.2" font-family="Helvetica,sans-Serif" font-size="12.00" fill="#000000">rx_state</text>
</g>
<!-- rx_state -->
<!-- INIT -->
<g id="node2" class="node state regular">
<title>INIT</title>
<polygon fill="#ffffff" fill-opacity="0.003922" stroke="transparent" stroke-width="2" points="500,-708 444,-708 444,-672 500,-672 500,-708"/>
<text text-anchor="start" x="460.6684" y="-686.2" font-family="Helvetica,sans-Serif" font-size="12.00" fill="#000000">INIT</text>
<path fill="none" stroke="#000000" stroke-width="2" d="M456.3333,-673C456.3333,-673 487.6667,-673 487.6667,-673 493.3333,-673 499,-678.6667 499,-684.3333 499,-684.3333 499,-695.6667 499,-695.6667 499,-701.3333 493.3333,-707 487.6667,-707 487.6667,-707 456.3333,-707 456.3333,-707 450.6667,-707 445,-701.3333 445,-695.6667 445,-695.6667 445,-684.3333 445,-684.3333 445,-678.6667 450.6667,-673 456.3333,-673"/>
</g>
<!-- ASSERT_ALL_RESETS -->
<g id="node3" class="node state regular">
<title>ASSERT_ALL_RESETS</title>
<polygon fill="#ffffff" fill-opacity="0.003922" stroke="transparent" stroke-width="2" points="548,-626 396,-626 396,-590 548,-590 548,-626"/>
<text text-anchor="start" x="406.6522" y="-604.2" font-family="Helvetica,sans-Serif" font-size="12.00" fill="#000000">ASSERT_ALL_RESETS</text>
<path fill="none" stroke="#000000" stroke-width="2" d="M408.3333,-591C408.3333,-591 535.6667,-591 535.6667,-591 541.3333,-591 547,-596.6667 547,-602.3333 547,-602.3333 547,-613.6667 547,-613.6667 547,-619.3333 541.3333,-625 535.6667,-625 535.6667,-625 408.3333,-625 408.3333,-625 402.6667,-625 397,-619.3333 397,-613.6667 397,-613.6667 397,-602.3333 397,-602.3333 397,-596.6667 402.6667,-591 408.3333,-591"/>
</g>
<!-- INIT&#45;&gt;ASSERT_ALL_RESETS -->
<g id="edge1" class="edge transition">
<title>INIT&#45;&gt;ASSERT_ALL_RESETS</title>
<path fill="none" stroke="#000000" d="M472,-671.8015C472,-661.3976 472,-648.1215 472,-636.3768"/>
<polygon fill="#000000" stroke="#000000" points="475.5001,-636.1476 472,-626.1476 468.5001,-636.1476 475.5001,-636.1476"/>
<text text-anchor="start" x="472" y="-646" font-family="Helvetica,sans-Serif" font-size="10.00" fill="#000000">init_wait_done = &#39;1&#39; &#160;&#160;</text>
</g>
<!-- RELEASE_PLL_RESET -->
<g id="node4" class="node state regular">
<title>RELEASE_PLL_RESET</title>
<polygon fill="#ffffff" fill-opacity="0.003922" stroke="transparent" stroke-width="2" points="176,-544 24,-544 24,-508 176,-508 176,-544"/>
<text text-anchor="start" x="34.9822" y="-522.2" font-family="Helvetica,sans-Serif" font-size="12.00" fill="#000000">RELEASE_PLL_RESET</text>
<path fill="none" stroke="#000000" stroke-width="2" d="M36.3333,-509C36.3333,-509 163.6667,-509 163.6667,-509 169.3333,-509 175,-514.6667 175,-520.3333 175,-520.3333 175,-531.6667 175,-531.6667 175,-537.3333 169.3333,-543 163.6667,-543 163.6667,-543 36.3333,-543 36.3333,-543 30.6667,-543 25,-537.3333 25,-531.6667 25,-531.6667 25,-520.3333 25,-520.3333 25,-514.6667 30.6667,-509 36.3333,-509"/>
</g>
<!-- ASSERT_ALL_RESETS&#45;&gt;RELEASE_PLL_RESET -->
<g id="edge2" class="edge transition">
<title>ASSERT_ALL_RESETS&#45;&gt;RELEASE_PLL_RESET</title>
<path fill="none" stroke="#000000" d="M395.9725,-607.0761C281.8716,-604.8895 77.2274,-597.5522 54.648,-573 47.9702,-565.7388 51.0691,-557.9847 58.0708,-550.9114"/>
<polygon fill="#000000" stroke="#000000" points="60.7576,-553.2249 66.156,-544.1085 56.2508,-547.8686 60.7576,-553.2249"/>
<text text-anchor="start" x="54" y="-564" font-family="Helvetica,sans-Serif" font-size="10.00" fill="#000000">PLLREFCLKLOST = &#39;0&#39; and pll_reset_asserted = &#39;1&#39; &#160;&#160;</text>
</g>
<!-- RELEASE_PLL_RESET&#45;&gt;ASSERT_ALL_RESETS -->
<g id="edge4" class="edge transition">
<title>RELEASE_PLL_RESET&#45;&gt;ASSERT_ALL_RESETS</title>
<path fill="none" stroke="#000000" d="M176.3349,-538.1267C212.2032,-544.2446 255.457,-552.2259 294,-561 313.5552,-565.4516 318.1283,-567.8078 337.5,-573 355.0995,-577.7171 374.0194,-582.6969 391.9493,-587.3738"/>
<polygon fill="#000000" stroke="#000000" points="391.2345,-590.8043 401.7938,-589.9373 392.9985,-584.0302 391.2345,-590.8043"/>
<text text-anchor="start" x="337" y="-564" font-family="Helvetica,sans-Serif" font-size="10.00" fill="#000000">time_out_2ms = &#39;1&#39; &#160;&#160;</text>
</g>
<!-- VERIFY_RECCLK_STABLE -->
<g id="node5" class="node state regular">
<title>VERIFY_RECCLK_STABLE</title>
<polygon fill="#ffffff" fill-opacity="0.003922" stroke="transparent" stroke-width="2" points="189.5,-462 16.5,-462 16.5,-426 189.5,-426 189.5,-462"/>
<text text-anchor="start" x="27.822" y="-440.2" font-family="Helvetica,sans-Serif" font-size="12.00" fill="#000000">VERIFY_RECCLK_STABLE</text>
<path fill="none" stroke="#000000" stroke-width="2" d="M28.8333,-427C28.8333,-427 177.1667,-427 177.1667,-427 182.8333,-427 188.5,-432.6667 188.5,-438.3333 188.5,-438.3333 188.5,-449.6667 188.5,-449.6667 188.5,-455.3333 182.8333,-461 177.1667,-461 177.1667,-461 28.8333,-461 28.8333,-461 23.1667,-461 17.5,-455.3333 17.5,-449.6667 17.5,-449.6667 17.5,-438.3333 17.5,-438.3333 17.5,-432.6667 23.1667,-427 28.8333,-427"/>
</g>
<!-- RELEASE_PLL_RESET&#45;&gt;VERIFY_RECCLK_STABLE -->
<g id="edge3" class="edge transition">
<title>RELEASE_PLL_RESET&#45;&gt;VERIFY_RECCLK_STABLE</title>
<path fill="none" stroke="#000000" d="M100.6658,-507.8015C101.0464,-497.3976 101.5321,-484.1215 101.9618,-472.3768"/>
<polygon fill="#000000" stroke="#000000" points="105.468,-472.2689 102.3361,-462.1476 98.4727,-472.0129 105.468,-472.2689"/>
<text text-anchor="start" x="101" y="-482" font-family="Helvetica,sans-Serif" font-size="10.00" fill="#000000">plllock_sync = &#39;1&#39; &#160;&#160;</text>
</g>
<!-- VERIFY_RECCLK_STABLE&#45;&gt;ASSERT_ALL_RESETS -->
<g id="edge6" class="edge transition">
<title>VERIFY_RECCLK_STABLE&#45;&gt;ASSERT_ALL_RESETS</title>
<path fill="none" stroke="#000000" d="M152.4359,-462.1634C164.8861,-467.2052 178.0918,-472.965 190,-479 238.8509,-503.7573 243.0523,-525.7434 294.686,-544 352.2471,-564.3524 377.0954,-532.3328 431,-561 436.2283,-563.7805 444.4731,-572.7644 452.2026,-582.1434"/>
<polygon fill="#000000" stroke="#000000" points="449.5082,-584.3782 458.4965,-589.9872 454.9679,-579.9972 449.5082,-584.3782"/>
<text text-anchor="start" x="294" y="-523" font-family="Helvetica,sans-Serif" font-size="10.00" fill="#000000">recclk_mon_restart_count = 2 &#160;&#160;</text>
</g>
<!-- RELEASE_MMCM_RESET -->
<g id="node6" class="node state regular">
<title>RELEASE_MMCM_RESET</title>
<polygon fill="#ffffff" fill-opacity="0.003922" stroke="transparent" stroke-width="2" points="184.5,-380 15.5,-380 15.5,-344 184.5,-344 184.5,-380"/>
<text text-anchor="start" x="26.8308" y="-358.2" font-family="Helvetica,sans-Serif" font-size="12.00" fill="#000000">RELEASE_MMCM_RESET</text>
<path fill="none" stroke="#000000" stroke-width="2" d="M27.8333,-345C27.8333,-345 172.1667,-345 172.1667,-345 177.8333,-345 183.5,-350.6667 183.5,-356.3333 183.5,-356.3333 183.5,-367.6667 183.5,-367.6667 183.5,-373.3333 177.8333,-379 172.1667,-379 172.1667,-379 27.8333,-379 27.8333,-379 22.1667,-379 16.5,-373.3333 16.5,-367.6667 16.5,-367.6667 16.5,-356.3333 16.5,-356.3333 16.5,-350.6667 22.1667,-345 27.8333,-345"/>
</g>
<!-- VERIFY_RECCLK_STABLE&#45;&gt;RELEASE_MMCM_RESET -->
<g id="edge5" class="edge transition">
<title>VERIFY_RECCLK_STABLE&#45;&gt;RELEASE_MMCM_RESET</title>
<path fill="none" stroke="#000000" d="M102.3342,-425.8015C101.9536,-415.3976 101.4679,-402.1215 101.0382,-390.3768"/>
<polygon fill="#000000" stroke="#000000" points="104.5273,-390.0129 100.6639,-380.1476 97.532,-390.2689 104.5273,-390.0129"/>
<text text-anchor="start" x="101" y="-400" font-family="Helvetica,sans-Serif" font-size="10.00" fill="#000000">RECCLK_STABLE = &#39;1&#39; &#160;&#160;</text>
</g>
<!-- RELEASE_MMCM_RESET&#45;&gt;ASSERT_ALL_RESETS -->
<g id="edge8" class="edge transition">
<title>RELEASE_MMCM_RESET&#45;&gt;ASSERT_ALL_RESETS</title>
<path fill="none" stroke="#000000" d="M179.2365,-380.0695C197.057,-385.2622 212.8248,-391.119 220,-397 256.4542,-426.8791 230.0816,-464.5628 269.104,-491 330.8315,-532.8196 377.253,-462.0876 436,-508 457.9373,-525.1446 466.521,-556.8198 469.8715,-579.9401"/>
<polygon fill="#000000" stroke="#000000" points="466.3979,-580.37 471.0719,-589.8781 473.3474,-579.5305 466.3979,-580.37"/>
<text text-anchor="start" x="269" y="-482" font-family="Helvetica,sans-Serif" font-size="10.00" fill="#000000">time_tlock_max = &#39;1&#39; and reset_time_out = &#39;0&#39; &#160;&#160;</text>
</g>
<!-- WAIT_RESET_DONE -->
<g id="node7" class="node state regular">
<title>WAIT_RESET_DONE</title>
<polygon fill="#ffffff" fill-opacity="0.003922" stroke="transparent" stroke-width="2" points="179,-298 39,-298 39,-262 179,-262 179,-298"/>
<text text-anchor="start" x="49.999" y="-276.2" font-family="Helvetica,sans-Serif" font-size="12.00" fill="#000000">WAIT_RESET_DONE</text>
<path fill="none" stroke="#000000" stroke-width="2" d="M51.3333,-263C51.3333,-263 166.6667,-263 166.6667,-263 172.3333,-263 178,-268.6667 178,-274.3333 178,-274.3333 178,-285.6667 178,-285.6667 178,-291.3333 172.3333,-297 166.6667,-297 166.6667,-297 51.3333,-297 51.3333,-297 45.6667,-297 40,-291.3333 40,-285.6667 40,-285.6667 40,-274.3333 40,-274.3333 40,-268.6667 45.6667,-263 51.3333,-263"/>
</g>
<!-- RELEASE_MMCM_RESET&#45;&gt;WAIT_RESET_DONE -->
<g id="edge7" class="edge transition">
<title>RELEASE_MMCM_RESET&#45;&gt;WAIT_RESET_DONE</title>
<path fill="none" stroke="#000000" d="M68.435,-343.7969C58.6715,-335.7005 51.7838,-325.6056 57.405,-315 59.3177,-311.3912 61.7876,-308.0858 64.6087,-305.0728"/>
<polygon fill="#000000" stroke="#000000" points="67.1607,-307.4839 72.2279,-298.1794 62.4643,-302.2931 67.1607,-307.4839"/>
<text text-anchor="start" x="57" y="-318" font-family="Helvetica,sans-Serif" font-size="10.00" fill="#000000">mmcm_lock_reclocked(0) = &#39;1&#39; &#160;&#160;</text>
</g>
<!-- WAIT_RESET_DONE&#45;&gt;ASSERT_ALL_RESETS -->
<g id="edge10" class="edge transition">
<title>WAIT_RESET_DONE&#45;&gt;ASSERT_ALL_RESETS</title>
<path fill="none" stroke="#000000" d="M178.2128,-298.0765C186.9825,-302.546 195.2369,-308.1013 202,-315 223.4525,-336.8827 209.253,-353.7113 225,-380 250.3431,-422.309 255.6388,-439.9707 299.764,-462 335.5599,-479.871 448.7388,-452.8279 479,-479 486.0933,-485.1348 484,-490.1218 484,-499.5 484,-567 484,-567 484,-567 484,-571.3388 483.3734,-575.8356 482.4065,-580.1916"/>
<polygon fill="#000000" stroke="#000000" points="478.9974,-579.3861 479.6677,-589.9597 485.7375,-581.2759 478.9974,-579.3861"/>
<text text-anchor="start" x="299" y="-441" font-family="Helvetica,sans-Serif" font-size="10.00" fill="#000000">time_out_2ms = &#39;1&#39; and reset_time_out = &#39;0&#39; &#160;&#160;</text>
</g>
<!-- DO_PHASE_ALIGNMENT -->
<g id="node8" class="node state regular">
<title>DO_PHASE_ALIGNMENT</title>
<polygon fill="#ffffff" fill-opacity="0.003922" stroke="transparent" stroke-width="2" points="197,-216 33,-216 33,-180 197,-180 197,-216"/>
<text text-anchor="start" x="43.9948" y="-194.2" font-family="Helvetica,sans-Serif" font-size="12.00" fill="#000000">DO_PHASE_ALIGNMENT</text>
<path fill="none" stroke="#000000" stroke-width="2" d="M45.3333,-181C45.3333,-181 184.6667,-181 184.6667,-181 190.3333,-181 196,-186.6667 196,-192.3333 196,-192.3333 196,-203.6667 196,-203.6667 196,-209.3333 190.3333,-215 184.6667,-215 184.6667,-215 45.3333,-215 45.3333,-215 39.6667,-215 34,-209.3333 34,-203.6667 34,-203.6667 34,-192.3333 34,-192.3333 34,-186.6667 39.6667,-181 45.3333,-181"/>
</g>
<!-- WAIT_RESET_DONE&#45;&gt;DO_PHASE_ALIGNMENT -->
<g id="edge9" class="edge transition">
<title>WAIT_RESET_DONE&#45;&gt;DO_PHASE_ALIGNMENT</title>
<path fill="none" stroke="#000000" d="M110.3316,-261.8015C111.0929,-251.3976 112.0643,-238.1215 112.9237,-226.3768"/>
<polygon fill="#000000" stroke="#000000" points="116.4329,-226.3764 113.6721,-216.1476 109.4516,-225.8655 116.4329,-226.3764"/>
<text text-anchor="start" x="112" y="-236" font-family="Helvetica,sans-Serif" font-size="10.00" fill="#000000">rxresetdone_s3 = &#39;1&#39; &#160;&#160;</text>
</g>
<!-- DO_PHASE_ALIGNMENT&#45;&gt;ASSERT_ALL_RESETS -->
<g id="edge12" class="edge transition">
<title>DO_PHASE_ALIGNMENT&#45;&gt;ASSERT_ALL_RESETS</title>
<path fill="none" stroke="#000000" d="M197.1362,-214.926C216.181,-221.2035 231,-229.2279 231,-239 231,-335.5 231,-335.5 231,-335.5 231,-356.8345 232.9861,-365.9034 249,-380 287.0337,-413.48 309.4755,-399.557 359.258,-409 390.8598,-414.9944 480.3221,-403.1895 503,-426 517.0319,-440.114 508,-450.5978 508,-470.5 508,-567 508,-567 508,-567 508,-572.3105 506.2735,-577.2614 503.5767,-581.7555"/>
<polygon fill="#000000" stroke="#000000" points="500.7071,-579.7458 497.3935,-589.8092 506.2594,-584.0086 500.7071,-579.7458"/>
<text text-anchor="start" x="359" y="-400" font-family="Helvetica,sans-Serif" font-size="10.00" fill="#000000">time_out_wait_bypass_s3 = &#39;1&#39; &#160;&#160;</text>
</g>
<!-- MONITOR_DATA_VALID -->
<g id="node9" class="node state regular">
<title>MONITOR_DATA_VALID</title>
<polygon fill="#ffffff" fill-opacity="0.003922" stroke="transparent" stroke-width="2" points="355,-134 197,-134 197,-98 355,-98 355,-134"/>
<text text-anchor="start" x="207.6648" y="-112.2" font-family="Helvetica,sans-Serif" font-size="12.00" fill="#000000">MONITOR_DATA_VALID</text>
<path fill="none" stroke="#000000" stroke-width="2" d="M209.3333,-99C209.3333,-99 342.6667,-99 342.6667,-99 348.3333,-99 354,-104.6667 354,-110.3333 354,-110.3333 354,-121.6667 354,-121.6667 354,-127.3333 348.3333,-133 342.6667,-133 342.6667,-133 209.3333,-133 209.3333,-133 203.6667,-133 198,-127.3333 198,-121.6667 198,-121.6667 198,-110.3333 198,-110.3333 198,-104.6667 203.6667,-99 209.3333,-99"/>
</g>
<!-- DO_PHASE_ALIGNMENT&#45;&gt;MONITOR_DATA_VALID -->
<g id="edge11" class="edge transition">
<title>DO_PHASE_ALIGNMENT&#45;&gt;MONITOR_DATA_VALID</title>
<path fill="none" stroke="#000000" d="M117.3677,-179.5978C119.5625,-169.8013 123.7876,-158.3015 131.917,-151 140.9222,-142.9119 162.7552,-136.0429 186.776,-130.5889"/>
<polygon fill="#000000" stroke="#000000" points="187.7698,-133.9548 196.8013,-128.4157 186.2868,-127.1137 187.7698,-133.9548"/>
<text text-anchor="start" x="131" y="-154" font-family="Helvetica,sans-Serif" font-size="10.00" fill="#000000">phalignment_done_sync = &#39;1&#39; &#160;&#160;</text>
</g>
<!-- MONITOR_DATA_VALID&#45;&gt;ASSERT_ALL_RESETS -->
<g id="edge13" class="edge transition">
<title>MONITOR_DATA_VALID&#45;&gt;ASSERT_ALL_RESETS</title>
<path fill="none" stroke="#000000" d="M276,-134.3688C276,-141.4426 276,-149.5972 276,-157 276,-335.5 276,-335.5 276,-335.5 276,-356.7457 276.4005,-367.337 293.46,-380 331.3282,-408.1088 467.4413,-368.479 505,-397 532.7157,-418.0465 532,-435.699 532,-470.5 532,-567 532,-567 532,-567 532,-572.9928 529.9343,-578.1732 526.5696,-582.6365"/>
<polygon fill="#000000" stroke="#000000" points="523.8811,-580.3747 519.2755,-589.9162 528.826,-585.3294 523.8811,-580.3747"/>
<text text-anchor="start" x="293" y="-359" font-family="Helvetica,sans-Serif" font-size="10.00" fill="#000000">time_out_100us = &#39;1&#39; and (data_valid_sync = &#39;0&#39;) and reset_time_out = &#39;0&#39; &#160;&#160;</text>
</g>
<!-- MONITOR_DATA_VALID&#45;&gt;ASSERT_ALL_RESETS -->
<g id="edge14" class="edge transition">
<title>MONITOR_DATA_VALID&#45;&gt;ASSERT_ALL_RESETS</title>
<path fill="none" stroke="#000000" d="M355.0316,-120.7188C465.58,-127.8556 653,-142.1455 653,-157 653,-567 653,-567 653,-567 653,-577.6408 604.8022,-588.2175 558.1495,-595.9626"/>
<polygon fill="#000000" stroke="#000000" points="557.5459,-592.5147 548.2357,-597.5714 558.6672,-599.4243 557.5459,-592.5147"/>
<text text-anchor="start" x="653" y="-359" font-family="Helvetica,sans-Serif" font-size="10.00" fill="#000000">fsmCnt = x&quot;FFFF&quot; &#160;&#160;</text>
</g>
<!-- FSM_DONE -->
<g id="node10" class="node state regular">
<title>FSM_DONE</title>
<polygon fill="#ffffff" fill-opacity="0.003922" stroke="transparent" stroke-width="2" points="320,-52 232,-52 232,-16 320,-16 320,-52"/>
<text text-anchor="start" x="242.6688" y="-30.2" font-family="Helvetica,sans-Serif" font-size="12.00" fill="#000000">FSM_DONE</text>
<path fill="none" stroke="#000000" stroke-width="2" d="M244.3333,-17C244.3333,-17 307.6667,-17 307.6667,-17 313.3333,-17 319,-22.6667 319,-28.3333 319,-28.3333 319,-39.6667 319,-39.6667 319,-45.3333 313.3333,-51 307.6667,-51 307.6667,-51 244.3333,-51 244.3333,-51 238.6667,-51 233,-45.3333 233,-39.6667 233,-39.6667 233,-28.3333 233,-28.3333 233,-22.6667 238.6667,-17 244.3333,-17"/>
</g>
<!-- MONITOR_DATA_VALID&#45;&gt;FSM_DONE -->
<g id="edge15" class="edge transition">
<title>MONITOR_DATA_VALID&#45;&gt;FSM_DONE</title>
<path fill="none" stroke="#000000" d="M235.3054,-97.97C229.0057,-93.3599 223.3537,-87.7471 219.6,-81 214.8131,-72.3957 218.0509,-64.7046 224.9061,-58.1589"/>
<polygon fill="#000000" stroke="#000000" points="227.068,-60.9115 232.804,-52.0037 222.7649,-55.3902 227.068,-60.9115"/>
<text text-anchor="start" x="219" y="-72" font-family="Helvetica,sans-Serif" font-size="10.00" fill="#000000">data_valid_sync = &#39;1&#39; &#160;&#160;</text>
</g>
<!-- FSM_DONE&#45;&gt;MONITOR_DATA_VALID -->
<g id="edge16" class="edge transition">
<title>FSM_DONE&#45;&gt;MONITOR_DATA_VALID</title>
<path fill="none" stroke="#000000" d="M310.1233,-52.1073C320.2797,-60.0476 327.4256,-70.0542 322,-81 320.2953,-84.4391 318.0731,-87.6318 315.5261,-90.575"/>
<polygon fill="#000000" stroke="#000000" points="312.86,-88.2869 308.1577,-97.7811 317.7543,-93.2915 312.86,-88.2869"/>
<text text-anchor="start" x="323" y="-72" font-family="Helvetica,sans-Serif" font-size="10.00" fill="#000000">data_valid_sync = &#39;0&#39; &#160;&#160;</text>
</g>
</g>
</svg>
