<?xml version="1.0" encoding="UTF-8" standalone="no"?>
<!DOCTYPE svg PUBLIC "-//W3C//DTD SVG 1.1//EN"
 "http://www.w3.org/Graphics/SVG/1.1/DTD/svg11.dtd">
<!-- Generated by graphviz version 2.40.1 (20161225.0304)
 -->
<!-- Title: state transitions Pages: 1 -->
<svg width="636pt" height="598pt"
 viewBox="0.00 0.00 635.74 598.00" xmlns="http://www.w3.org/2000/svg" xmlns:xlink="http://www.w3.org/1999/xlink">
<g id="graph0" class="graph" transform="scale(1 1) rotate(0) translate(4 594)">
<title>state transitions</title>
<polygon fill="#ffffff" stroke="transparent" points="-4,4 -4,-594 631.742,-594 631.742,4 -4,4"/>
<g id="clust1" class="cluster state regular">
<title>cluster_tx_state</title>
<path fill="none" stroke="#000000" stroke-width="2" d="M20,-8C20,-8 513,-8 513,-8 519,-8 525,-14 525,-20 525,-20 525,-570 525,-570 525,-576 519,-582 513,-582 513,-582 20,-582 20,-582 14,-582 8,-576 8,-570 8,-570 8,-20 8,-20 8,-14 14,-8 20,-8"/>
<text text-anchor="start" x="245.4916" y="-563.2" font-family="Helvetica,sans-Serif" font-size="12.00" fill="#000000">tx_state</text>
</g>
<!-- tx_state -->
<!-- INIT -->
<g id="node2" class="node state regular">
<title>INIT</title>
<polygon fill="#ffffff" fill-opacity="0.003922" stroke="transparent" stroke-width="2" points="451,-544 395,-544 395,-508 451,-508 451,-544"/>
<text text-anchor="start" x="411.6684" y="-522.2" font-family="Helvetica,sans-Serif" font-size="12.00" fill="#000000">INIT</text>
<path fill="none" stroke="#000000" stroke-width="2" d="M407.3333,-509C407.3333,-509 438.6667,-509 438.6667,-509 444.3333,-509 450,-514.6667 450,-520.3333 450,-520.3333 450,-531.6667 450,-531.6667 450,-537.3333 444.3333,-543 438.6667,-543 438.6667,-543 407.3333,-543 407.3333,-543 401.6667,-543 396,-537.3333 396,-531.6667 396,-531.6667 396,-520.3333 396,-520.3333 396,-514.6667 401.6667,-509 407.3333,-509"/>
</g>
<!-- ASSERT_ALL_RESETS -->
<g id="node3" class="node state regular">
<title>ASSERT_ALL_RESETS</title>
<polygon fill="#ffffff" fill-opacity="0.003922" stroke="transparent" stroke-width="2" points="505,-462 353,-462 353,-426 505,-426 505,-462"/>
<text text-anchor="start" x="363.6522" y="-440.2" font-family="Helvetica,sans-Serif" font-size="12.00" fill="#000000">ASSERT_ALL_RESETS</text>
<path fill="none" stroke="#000000" stroke-width="2" d="M365.3333,-427C365.3333,-427 492.6667,-427 492.6667,-427 498.3333,-427 504,-432.6667 504,-438.3333 504,-438.3333 504,-449.6667 504,-449.6667 504,-455.3333 498.3333,-461 492.6667,-461 492.6667,-461 365.3333,-461 365.3333,-461 359.6667,-461 354,-455.3333 354,-449.6667 354,-449.6667 354,-438.3333 354,-438.3333 354,-432.6667 359.6667,-427 365.3333,-427"/>
</g>
<!-- INIT&#45;&gt;ASSERT_ALL_RESETS -->
<g id="edge1" class="edge transition">
<title>INIT&#45;&gt;ASSERT_ALL_RESETS</title>
<path fill="none" stroke="#000000" d="M424.3316,-507.8015C425.0929,-497.3976 426.0643,-484.1215 426.9237,-472.3768"/>
<polygon fill="#000000" stroke="#000000" points="430.4329,-472.3764 427.6721,-462.1476 423.4516,-471.8655 430.4329,-472.3764"/>
<text text-anchor="start" x="426" y="-482" font-family="Helvetica,sans-Serif" font-size="10.00" fill="#000000">init_wait_done = &#39;1&#39; &#160;&#160;</text>
</g>
<!-- RELEASE_PLL_RESET -->
<g id="node4" class="node state regular">
<title>RELEASE_PLL_RESET</title>
<polygon fill="#ffffff" fill-opacity="0.003922" stroke="transparent" stroke-width="2" points="168,-380 16,-380 16,-344 168,-344 168,-380"/>
<text text-anchor="start" x="26.9822" y="-358.2" font-family="Helvetica,sans-Serif" font-size="12.00" fill="#000000">RELEASE_PLL_RESET</text>
<path fill="none" stroke="#000000" stroke-width="2" d="M28.3333,-345C28.3333,-345 155.6667,-345 155.6667,-345 161.3333,-345 167,-350.6667 167,-356.3333 167,-356.3333 167,-367.6667 167,-367.6667 167,-373.3333 161.3333,-379 155.6667,-379 155.6667,-379 28.3333,-379 28.3333,-379 22.6667,-379 17,-373.3333 17,-367.6667 17,-367.6667 17,-356.3333 17,-356.3333 17,-350.6667 22.6667,-345 28.3333,-345"/>
</g>
<!-- ASSERT_ALL_RESETS&#45;&gt;RELEASE_PLL_RESET -->
<g id="edge2" class="edge transition">
<title>ASSERT_ALL_RESETS&#45;&gt;RELEASE_PLL_RESET</title>
<path fill="none" stroke="#000000" d="M352.6753,-442.2533C249.0151,-439.0787 74.2907,-430.5648 54.648,-409 48.5144,-402.2662 50.9213,-394.6528 56.7524,-387.545"/>
<polygon fill="#000000" stroke="#000000" points="59.5979,-389.6483 64.1816,-380.0963 54.6416,-384.705 59.5979,-389.6483"/>
<text text-anchor="start" x="54" y="-400" font-family="Helvetica,sans-Serif" font-size="10.00" fill="#000000">PLLREFCLKLOST = &#39;0&#39; and pll_reset_asserted = &#39;1&#39; &#160;&#160;</text>
</g>
<!-- RELEASE_PLL_RESET&#45;&gt;ASSERT_ALL_RESETS -->
<g id="edge4" class="edge transition">
<title>RELEASE_PLL_RESET&#45;&gt;ASSERT_ALL_RESETS</title>
<path fill="none" stroke="#000000" d="M168.088,-376.961C173.8065,-378.0136 179.492,-379.0378 185,-380 233.2986,-388.4376 246.4325,-385.1136 294,-397 320.8881,-403.7189 350.0077,-413.5199 374.2951,-422.4353"/>
<polygon fill="#000000" stroke="#000000" points="373.1022,-425.7258 383.6951,-425.9296 375.5413,-419.1645 373.1022,-425.7258"/>
<text text-anchor="start" x="333" y="-400" font-family="Helvetica,sans-Serif" font-size="10.00" fill="#000000">time_out_2ms = &#39;1&#39; &#160;&#160;</text>
</g>
<!-- RELEASE_MMCM_RESET -->
<g id="node5" class="node state regular">
<title>RELEASE_MMCM_RESET</title>
<polygon fill="#ffffff" fill-opacity="0.003922" stroke="transparent" stroke-width="2" points="244.5,-298 75.5,-298 75.5,-262 244.5,-262 244.5,-298"/>
<text text-anchor="start" x="86.8308" y="-276.2" font-family="Helvetica,sans-Serif" font-size="12.00" fill="#000000">RELEASE_MMCM_RESET</text>
<path fill="none" stroke="#000000" stroke-width="2" d="M87.8333,-263C87.8333,-263 232.1667,-263 232.1667,-263 237.8333,-263 243.5,-268.6667 243.5,-274.3333 243.5,-274.3333 243.5,-285.6667 243.5,-285.6667 243.5,-291.3333 237.8333,-297 232.1667,-297 232.1667,-297 87.8333,-297 87.8333,-297 82.1667,-297 76.5,-291.3333 76.5,-285.6667 76.5,-285.6667 76.5,-274.3333 76.5,-274.3333 76.5,-268.6667 82.1667,-263 87.8333,-263"/>
</g>
<!-- RELEASE_PLL_RESET&#45;&gt;RELEASE_MMCM_RESET -->
<g id="edge3" class="edge transition">
<title>RELEASE_PLL_RESET&#45;&gt;RELEASE_MMCM_RESET</title>
<path fill="none" stroke="#000000" d="M102.2782,-343.866C107.7577,-334.822 114.9047,-323.9363 122.396,-315 125.1677,-311.6936 128.2346,-308.3871 131.3863,-305.1985"/>
<polygon fill="#000000" stroke="#000000" points="134.0433,-307.4977 138.7947,-298.028 129.175,-302.4678 134.0433,-307.4977"/>
<text text-anchor="start" x="122" y="-318" font-family="Helvetica,sans-Serif" font-size="10.00" fill="#000000">plllock_sync = &#39;1&#39; &#160;&#160;</text>
</g>
<!-- RELEASE_MMCM_RESET&#45;&gt;ASSERT_ALL_RESETS -->
<g id="edge6" class="edge transition">
<title>RELEASE_MMCM_RESET&#45;&gt;ASSERT_ALL_RESETS</title>
<path fill="none" stroke="#000000" d="M190.2678,-298.3174C196.4437,-303.1354 202.439,-308.7566 207,-315 225.0203,-339.6674 205.2492,-361.2248 229.347,-380 247.0843,-393.8195 415.7829,-380.4461 431,-397 435.6791,-402.0901 437.0448,-408.9534 436.7769,-415.8606"/>
<polygon fill="#000000" stroke="#000000" points="433.3036,-415.4271 435.4111,-425.8102 440.2386,-416.3791 433.3036,-415.4271"/>
<text text-anchor="start" x="229" y="-359" font-family="Helvetica,sans-Serif" font-size="10.00" fill="#000000">time_tlock_max = &#39;1&#39; and mmcm_lock_reclocked(0) = &#39;0&#39; &#160;&#160;</text>
</g>
<!-- WAIT_RESET_DONE -->
<g id="node6" class="node state regular">
<title>WAIT_RESET_DONE</title>
<polygon fill="#ffffff" fill-opacity="0.003922" stroke="transparent" stroke-width="2" points="321,-216 181,-216 181,-180 321,-180 321,-216"/>
<text text-anchor="start" x="191.999" y="-194.2" font-family="Helvetica,sans-Serif" font-size="12.00" fill="#000000">WAIT_RESET_DONE</text>
<path fill="none" stroke="#000000" stroke-width="2" d="M193.3333,-181C193.3333,-181 308.6667,-181 308.6667,-181 314.3333,-181 320,-186.6667 320,-192.3333 320,-192.3333 320,-203.6667 320,-203.6667 320,-209.3333 314.3333,-215 308.6667,-215 308.6667,-215 193.3333,-215 193.3333,-215 187.6667,-215 182,-209.3333 182,-203.6667 182,-203.6667 182,-192.3333 182,-192.3333 182,-186.6667 187.6667,-181 193.3333,-181"/>
</g>
<!-- RELEASE_MMCM_RESET&#45;&gt;WAIT_RESET_DONE -->
<g id="edge5" class="edge transition">
<title>RELEASE_MMCM_RESET&#45;&gt;WAIT_RESET_DONE</title>
<path fill="none" stroke="#000000" d="M163.3026,-261.7495C165.8125,-252.2381 170.1236,-240.9621 177.405,-233 181.3808,-228.6524 186.0105,-224.7932 190.9759,-221.3784"/>
<polygon fill="#000000" stroke="#000000" points="192.9332,-224.2832 199.5935,-216.0435 189.2486,-218.3314 192.9332,-224.2832"/>
<text text-anchor="start" x="177" y="-236" font-family="Helvetica,sans-Serif" font-size="10.00" fill="#000000">mmcm_lock_reclocked(0) = &#39;1&#39; &#160;&#160;</text>
</g>
<!-- WAIT_RESET_DONE&#45;&gt;ASSERT_ALL_RESETS -->
<g id="edge8" class="edge transition">
<title>WAIT_RESET_DONE&#45;&gt;ASSERT_ALL_RESETS</title>
<path fill="none" stroke="#000000" d="M300.32,-216.0158C308.3381,-220.6091 315.9754,-226.2197 322,-233 342.3544,-255.9077 324.9462,-274.8288 345,-298 363.1233,-318.9406 374.0313,-317.7985 400.152,-327 437.2492,-340.0682 462.0019,-313.6343 487,-344 506.2534,-367.3875 482.6408,-397.9593 460.0167,-419.1134"/>
<polygon fill="#000000" stroke="#000000" points="457.5541,-416.6206 452.4455,-425.9025 462.2273,-421.8323 457.5541,-416.6206"/>
<text text-anchor="start" x="400" y="-318" font-family="Helvetica,sans-Serif" font-size="10.00" fill="#000000">time_out_500us = &#39;1&#39; &#160;&#160;</text>
</g>
<!-- DO_PHASE_ALIGNMENT -->
<g id="node7" class="node state regular">
<title>DO_PHASE_ALIGNMENT</title>
<polygon fill="#ffffff" fill-opacity="0.003922" stroke="transparent" stroke-width="2" points="393,-134 229,-134 229,-98 393,-98 393,-134"/>
<text text-anchor="start" x="239.9948" y="-112.2" font-family="Helvetica,sans-Serif" font-size="12.00" fill="#000000">DO_PHASE_ALIGNMENT</text>
<path fill="none" stroke="#000000" stroke-width="2" d="M241.3333,-99C241.3333,-99 380.6667,-99 380.6667,-99 386.3333,-99 392,-104.6667 392,-110.3333 392,-110.3333 392,-121.6667 392,-121.6667 392,-127.3333 386.3333,-133 380.6667,-133 380.6667,-133 241.3333,-133 241.3333,-133 235.6667,-133 230,-127.3333 230,-121.6667 230,-121.6667 230,-110.3333 230,-110.3333 230,-104.6667 235.6667,-99 241.3333,-99"/>
</g>
<!-- WAIT_RESET_DONE&#45;&gt;DO_PHASE_ALIGNMENT -->
<g id="edge7" class="edge transition">
<title>WAIT_RESET_DONE&#45;&gt;DO_PHASE_ALIGNMENT</title>
<path fill="none" stroke="#000000" d="M255.0271,-179.9421C257.6753,-170.7084 261.8073,-159.6296 267.93,-151 270.3762,-147.5522 273.249,-144.2582 276.3303,-141.1665"/>
<polygon fill="#000000" stroke="#000000" points="278.7762,-143.6727 283.796,-134.3425 274.0534,-138.5059 278.7762,-143.6727"/>
<text text-anchor="start" x="267" y="-154" font-family="Helvetica,sans-Serif" font-size="10.00" fill="#000000">txresetdone_s3 = &#39;1&#39; &#160;&#160;</text>
</g>
<!-- DO_PHASE_ALIGNMENT&#45;&gt;ASSERT_ALL_RESETS -->
<g id="edge10" class="edge transition">
<title>DO_PHASE_ALIGNMENT&#45;&gt;ASSERT_ALL_RESETS</title>
<path fill="none" stroke="#000000" d="M359.3608,-134.1527C366.7643,-139.9482 372,-147.4299 372,-157 372,-253.5 372,-253.5 372,-253.5 372,-317.417 467.807,-260.9979 502,-315 524.9003,-351.1672 509.4787,-377.0397 481,-409 477.5589,-412.8618 473.603,-416.4961 469.4421,-419.8543"/>
<polygon fill="#000000" stroke="#000000" points="467.1864,-417.1705 461.2693,-425.9591 471.3756,-422.7787 467.1864,-417.1705"/>
<text text-anchor="start" x="483" y="-277" font-family="Helvetica,sans-Serif" font-size="10.00" fill="#000000">time_out_wait_bypass_s3 = &#39;1&#39; &#160;&#160;</text>
</g>
<!-- RESET_FSM_DONE -->
<g id="node8" class="node state regular">
<title>RESET_FSM_DONE</title>
<polygon fill="#ffffff" fill-opacity="0.003922" stroke="transparent" stroke-width="2" points="378.5,-52 243.5,-52 243.5,-16 378.5,-16 378.5,-52"/>
<text text-anchor="start" x="254.8324" y="-30.2" font-family="Helvetica,sans-Serif" font-size="12.00" fill="#000000">RESET_FSM_DONE</text>
<path fill="none" stroke="#000000" stroke-width="2" d="M255.8333,-17C255.8333,-17 366.1667,-17 366.1667,-17 371.8333,-17 377.5,-22.6667 377.5,-28.3333 377.5,-28.3333 377.5,-39.6667 377.5,-39.6667 377.5,-45.3333 371.8333,-51 366.1667,-51 366.1667,-51 255.8333,-51 255.8333,-51 250.1667,-51 244.5,-45.3333 244.5,-39.6667 244.5,-39.6667 244.5,-28.3333 244.5,-28.3333 244.5,-22.6667 250.1667,-17 255.8333,-17"/>
</g>
<!-- DO_PHASE_ALIGNMENT&#45;&gt;RESET_FSM_DONE -->
<g id="edge9" class="edge transition">
<title>DO_PHASE_ALIGNMENT&#45;&gt;RESET_FSM_DONE</title>
<path fill="none" stroke="#000000" d="M311,-97.8015C311,-87.3976 311,-74.1215 311,-62.3768"/>
<polygon fill="#000000" stroke="#000000" points="314.5001,-62.1476 311,-52.1476 307.5001,-62.1476 314.5001,-62.1476"/>
<text text-anchor="start" x="311" y="-72" font-family="Helvetica,sans-Serif" font-size="10.00" fill="#000000">PHALIGNMENT_DONE = &#39;1&#39; &#160;&#160;</text>
</g>
</g>
</svg>
