<?xml version="1.0" encoding="UTF-8" standalone="no"?>
<!DOCTYPE svg PUBLIC "-//W3C//DTD SVG 1.1//EN"
 "http://www.w3.org/Graphics/SVG/1.1/DTD/svg11.dtd">
<!-- Generated by graphviz version 2.40.1 (20161225.0304)
 -->
<!-- Title: state transitions Pages: 1 -->
<svg width="681pt" height="352pt"
 viewBox="0.00 0.00 680.81 352.00" xmlns="http://www.w3.org/2000/svg" xmlns:xlink="http://www.w3.org/1999/xlink">
<g id="graph0" class="graph" transform="scale(1 1) rotate(0) translate(4 348)">
<title>state transitions</title>
<polygon fill="#ffffff" stroke="transparent" points="-4,4 -4,-348 676.812,-348 676.812,4 -4,4"/>
<g id="clust1" class="cluster state regular">
<title>cluster_phalign_state</title>
<path fill="none" stroke="#000000" stroke-width="2" d="M20,-8C20,-8 622,-8 622,-8 628,-8 634,-14 634,-20 634,-20 634,-324 634,-324 634,-330 628,-336 622,-336 622,-336 20,-336 20,-336 14,-336 8,-330 8,-324 8,-324 8,-20 8,-20 8,-14 14,-8 20,-8"/>
<text text-anchor="start" x="285.8192" y="-317.2" font-family="Helvetica,sans-Serif" font-size="12.00" fill="#000000">phalign_state</text>
</g>
<!-- phalign_state -->
<!-- INIT -->
<g id="node2" class="node state regular">
<title>INIT</title>
<polygon fill="#ffffff" fill-opacity="0.003922" stroke="transparent" stroke-width="2" points="127,-298 71,-298 71,-262 127,-262 127,-298"/>
<text text-anchor="start" x="87.6684" y="-276.2" font-family="Helvetica,sans-Serif" font-size="12.00" fill="#000000">INIT</text>
<path fill="none" stroke="#000000" stroke-width="2" d="M83.3333,-263C83.3333,-263 114.6667,-263 114.6667,-263 120.3333,-263 126,-268.6667 126,-274.3333 126,-274.3333 126,-285.6667 126,-285.6667 126,-291.3333 120.3333,-297 114.6667,-297 114.6667,-297 83.3333,-297 83.3333,-297 77.6667,-297 72,-291.3333 72,-285.6667 72,-285.6667 72,-274.3333 72,-274.3333 72,-268.6667 77.6667,-263 83.3333,-263"/>
</g>
<!-- WAIT_PHRST_DONE -->
<g id="node3" class="node state regular">
<title>WAIT_PHRST_DONE</title>
<polygon fill="#ffffff" fill-opacity="0.003922" stroke="transparent" stroke-width="2" points="169,-216 29,-216 29,-180 169,-180 169,-216"/>
<text text-anchor="start" x="39.669" y="-194.2" font-family="Helvetica,sans-Serif" font-size="12.00" fill="#000000">WAIT_PHRST_DONE</text>
<path fill="none" stroke="#000000" stroke-width="2" d="M41.3333,-181C41.3333,-181 156.6667,-181 156.6667,-181 162.3333,-181 168,-186.6667 168,-192.3333 168,-192.3333 168,-203.6667 168,-203.6667 168,-209.3333 162.3333,-215 156.6667,-215 156.6667,-215 41.3333,-215 41.3333,-215 35.6667,-215 30,-209.3333 30,-203.6667 30,-203.6667 30,-192.3333 30,-192.3333 30,-186.6667 35.6667,-181 41.3333,-181"/>
</g>
<!-- INIT&#45;&gt;WAIT_PHRST_DONE -->
<g id="edge1" class="edge transition">
<title>INIT&#45;&gt;WAIT_PHRST_DONE</title>
<path fill="none" stroke="#000000" d="M99,-261.8015C99,-251.3976 99,-238.1215 99,-226.3768"/>
<polygon fill="#000000" stroke="#000000" points="102.5001,-226.1476 99,-216.1476 95.5001,-226.1476 102.5001,-226.1476"/>
<text text-anchor="start" x="99" y="-236" font-family="Helvetica,sans-Serif" font-size="10.00" fill="#000000">RUN_PHALIGNMENT = &#39;1&#39; and RECCLKSTABLE = &#39;1&#39; &#160;&#160;</text>
</g>
<!-- COUNT_PHALIGN_DONE -->
<g id="node4" class="node state regular">
<title>COUNT_PHALIGN_DONE</title>
<polygon fill="#ffffff" fill-opacity="0.003922" stroke="transparent" stroke-width="2" points="181.5,-134 16.5,-134 16.5,-98 181.5,-98 181.5,-134"/>
<text text-anchor="start" x="27.8348" y="-112.2" font-family="Helvetica,sans-Serif" font-size="12.00" fill="#000000">COUNT_PHALIGN_DONE</text>
<path fill="none" stroke="#000000" stroke-width="2" d="M28.8333,-99C28.8333,-99 169.1667,-99 169.1667,-99 174.8333,-99 180.5,-104.6667 180.5,-110.3333 180.5,-110.3333 180.5,-121.6667 180.5,-121.6667 180.5,-127.3333 174.8333,-133 169.1667,-133 169.1667,-133 28.8333,-133 28.8333,-133 23.1667,-133 17.5,-127.3333 17.5,-121.6667 17.5,-121.6667 17.5,-110.3333 17.5,-110.3333 17.5,-104.6667 23.1667,-99 28.8333,-99"/>
</g>
<!-- WAIT_PHRST_DONE&#45;&gt;COUNT_PHALIGN_DONE -->
<g id="edge2" class="edge transition">
<title>WAIT_PHRST_DONE&#45;&gt;COUNT_PHALIGN_DONE</title>
<path fill="none" stroke="#000000" d="M99,-179.8015C99,-169.3976 99,-156.1215 99,-144.3768"/>
<polygon fill="#000000" stroke="#000000" points="102.5001,-144.1476 99,-134.1476 95.5001,-144.1476 102.5001,-144.1476"/>
<text text-anchor="start" x="99" y="-154" font-family="Helvetica,sans-Serif" font-size="10.00" fill="#000000">dlysresetdone_sync = &#39;1&#39; &#160;&#160;</text>
</g>
<!-- PHALIGN_DONE -->
<g id="node5" class="node state regular">
<title>PHALIGN_DONE</title>
<polygon fill="#ffffff" fill-opacity="0.003922" stroke="transparent" stroke-width="2" points="132,-52 16,-52 16,-16 132,-16 132,-52"/>
<text text-anchor="start" x="26.9972" y="-30.2" font-family="Helvetica,sans-Serif" font-size="12.00" fill="#000000">PHALIGN_DONE</text>
<path fill="none" stroke="#000000" stroke-width="2" d="M28.3333,-17C28.3333,-17 119.6667,-17 119.6667,-17 125.3333,-17 131,-22.6667 131,-28.3333 131,-28.3333 131,-39.6667 131,-39.6667 131,-45.3333 125.3333,-51 119.6667,-51 119.6667,-51 28.3333,-51 28.3333,-51 22.6667,-51 17,-45.3333 17,-39.6667 17,-39.6667 17,-28.3333 17,-28.3333 17,-22.6667 22.6667,-17 28.3333,-17"/>
</g>
<!-- COUNT_PHALIGN_DONE&#45;&gt;PHALIGN_DONE -->
<g id="edge3" class="edge transition">
<title>COUNT_PHALIGN_DONE&#45;&gt;PHALIGN_DONE</title>
<path fill="none" stroke="#000000" d="M91.1909,-97.6487C89.0842,-92.333 86.913,-86.4836 85.188,-81 83.2853,-74.9516 81.5307,-68.3771 80.0028,-62.1146"/>
<polygon fill="#000000" stroke="#000000" points="83.3296,-60.9672 77.659,-52.0177 76.5109,-62.5501 83.3296,-60.9672"/>
<text text-anchor="start" x="85" y="-72" font-family="Helvetica,sans-Serif" font-size="10.00" fill="#000000">(GT_TYPE = &quot;GTX&quot; and count_phalign_edges = 2) or ((GT_TYPE = &quot;GTH&quot; or GT_TYPE = &quot;GTP&quot;) and phaligndone_ris_edge = &#39;1&#39;) &#160;&#160;</text>
</g>
</g>
</svg>
