<?xml version="1.0" encoding="UTF-8" standalone="no"?>
<!DOCTYPE svg PUBLIC "-//W3C//DTD SVG 1.1//EN"
 "http://www.w3.org/Graphics/SVG/1.1/DTD/svg11.dtd">
<!-- Generated by graphviz version 2.40.1 (20161225.0304)
 -->
<!-- Title: state transitions Pages: 1 -->
<svg width="1171pt" height="646pt"
 viewBox="0.00 0.00 1170.74 646.00" xmlns="http://www.w3.org/2000/svg" xmlns:xlink="http://www.w3.org/1999/xlink">
<g id="graph0" class="graph" transform="scale(1 1) rotate(0) translate(4 642)">
<title>state transitions</title>
<polygon fill="#ffffff" stroke="transparent" points="-4,4 -4,-642 1166.742,-642 1166.742,4 -4,4"/>
<g id="clust1" class="cluster state regular">
<title>cluster_tx_state</title>
<path fill="none" stroke="#000000" stroke-width="2" d="M20,-8C20,-8 1041,-8 1041,-8 1047,-8 1053,-14 1053,-20 1053,-20 1053,-618 1053,-618 1053,-624 1047,-630 1041,-630 1041,-630 20,-630 20,-630 14,-630 8,-624 8,-618 8,-618 8,-20 8,-20 8,-14 14,-8 20,-8"/>
<text text-anchor="start" x="509.4916" y="-611.2" font-family="Helvetica,sans-Serif" font-size="12.00" fill="#000000">tx_state</text>
</g>
<!-- tx_state -->
<!-- INIT -->
<g id="node2" class="node state regular">
<title>INIT</title>
<polygon fill="#ffffff" fill-opacity="0.003922" stroke="transparent" stroke-width="2" points="944,-592 888,-592 888,-556 944,-556 944,-592"/>
<text text-anchor="start" x="904.6684" y="-570.2" font-family="Helvetica,sans-Serif" font-size="12.00" fill="#000000">INIT</text>
<path fill="none" stroke="#000000" stroke-width="2" d="M900.3333,-557C900.3333,-557 931.6667,-557 931.6667,-557 937.3333,-557 943,-562.6667 943,-568.3333 943,-568.3333 943,-579.6667 943,-579.6667 943,-585.3333 937.3333,-591 931.6667,-591 931.6667,-591 900.3333,-591 900.3333,-591 894.6667,-591 889,-585.3333 889,-579.6667 889,-579.6667 889,-568.3333 889,-568.3333 889,-562.6667 894.6667,-557 900.3333,-557"/>
</g>
<!-- ASSERT_ALL_RESETS -->
<g id="node3" class="node state regular">
<title>ASSERT_ALL_RESETS</title>
<polygon fill="#ffffff" fill-opacity="0.003922" stroke="transparent" stroke-width="2" points="992,-510 840,-510 840,-474 992,-474 992,-510"/>
<text text-anchor="start" x="850.6522" y="-488.2" font-family="Helvetica,sans-Serif" font-size="12.00" fill="#000000">ASSERT_ALL_RESETS</text>
<path fill="none" stroke="#000000" stroke-width="2" d="M852.3333,-475C852.3333,-475 979.6667,-475 979.6667,-475 985.3333,-475 991,-480.6667 991,-486.3333 991,-486.3333 991,-497.6667 991,-497.6667 991,-503.3333 985.3333,-509 979.6667,-509 979.6667,-509 852.3333,-509 852.3333,-509 846.6667,-509 841,-503.3333 841,-497.6667 841,-497.6667 841,-486.3333 841,-486.3333 841,-480.6667 846.6667,-475 852.3333,-475"/>
</g>
<!-- INIT&#45;&gt;ASSERT_ALL_RESETS -->
<g id="edge1" class="edge transition">
<title>INIT&#45;&gt;ASSERT_ALL_RESETS</title>
<path fill="none" stroke="#000000" d="M916,-555.8015C916,-545.3976 916,-532.1215 916,-520.3768"/>
<polygon fill="#000000" stroke="#000000" points="919.5001,-520.1476 916,-510.1476 912.5001,-520.1476 919.5001,-520.1476"/>
<text text-anchor="start" x="916" y="-530" font-family="Helvetica,sans-Serif" font-size="10.00" fill="#000000">init_wait_done = &#39;1&#39; &#160;&#160;</text>
</g>
<!-- RELEASE_PLL_RESET -->
<g id="node4" class="node state regular">
<title>RELEASE_PLL_RESET</title>
<polygon fill="#ffffff" fill-opacity="0.003922" stroke="transparent" stroke-width="2" points="462,-404 310,-404 310,-368 462,-368 462,-404"/>
<text text-anchor="start" x="320.9822" y="-382.2" font-family="Helvetica,sans-Serif" font-size="12.00" fill="#000000">RELEASE_PLL_RESET</text>
<path fill="none" stroke="#000000" stroke-width="2" d="M322.3333,-369C322.3333,-369 449.6667,-369 449.6667,-369 455.3333,-369 461,-374.6667 461,-380.3333 461,-380.3333 461,-391.6667 461,-391.6667 461,-397.3333 455.3333,-403 449.6667,-403 449.6667,-403 322.3333,-403 322.3333,-403 316.6667,-403 311,-397.3333 311,-391.6667 311,-391.6667 311,-380.3333 311,-380.3333 311,-374.6667 316.6667,-369 322.3333,-369"/>
</g>
<!-- ASSERT_ALL_RESETS&#45;&gt;RELEASE_PLL_RESET -->
<g id="edge2" class="edge transition">
<title>ASSERT_ALL_RESETS&#45;&gt;RELEASE_PLL_RESET</title>
<path fill="none" stroke="#000000" d="M839.7581,-491.731C634.1731,-490.6331 81.9947,-485.0727 55.04,-457 43.9584,-445.4588 44.3377,-432.8938 55.04,-421 71.1745,-403.0693 207.0837,-393.6386 299.6432,-389.2483"/>
<polygon fill="#000000" stroke="#000000" points="300.0337,-392.734 309.8612,-388.7756 299.7102,-385.7415 300.0337,-392.734"/>
<text text-anchor="start" x="55" y="-442" font-family="Helvetica,sans-Serif" font-size="10.00" fill="#000000">((qPllTxSelect = &quot;00&quot;) and (PLL0REFCLKLOST = &#39;0&#39;) and pll_reset_asserted = &#39;1&#39;) or &#160;&#160;</text>
<text text-anchor="start" x="55" y="-430" font-family="Helvetica,sans-Serif" font-size="10.00" fill="#000000">((qPllTxSelect /= &quot;00&quot;) and (PLL1REFCLKLOST = &#39;0&#39;) and pll_reset_asserted = &#39;1&#39;) &#160;&#160;</text>
</g>
<!-- ASSERT_ALL_RESETS&#45;&gt;RELEASE_PLL_RESET -->
<g id="edge3" class="edge transition">
<title>ASSERT_ALL_RESETS&#45;&gt;RELEASE_PLL_RESET</title>
<path fill="none" stroke="#000000" d="M839.9262,-488.3871C724.2296,-482.5132 514.0216,-470.2127 481.844,-457 458.8366,-447.5528 458.9311,-435.8775 439,-421 433.955,-417.2341 428.5241,-413.4072 423.1304,-409.7336"/>
<polygon fill="#000000" stroke="#000000" points="425.0023,-406.7749 414.746,-404.1181 421.1069,-412.5909 425.0023,-406.7749"/>
<text text-anchor="start" x="481" y="-448" font-family="Helvetica,sans-Serif" font-size="10.00" fill="#000000">(TX_PLL0_USED and (PLL0REFCLKLOST = &#39;0&#39;) and pll_reset_asserted = &#39;1&#39;) or &#160;&#160;</text>
<text text-anchor="start" x="481" y="-436" font-family="Helvetica,sans-Serif" font-size="10.00" fill="#000000">(not TX_PLL0_USED and (PLL1REFCLKLOST = &#39;0&#39;) and pll_reset_asserted = &#39;1&#39;) &#160;&#160;</text>
<text text-anchor="start" x="481" y="-424" font-family="Helvetica,sans-Serif" font-size="10.00" fill="#000000">not () &#160;&#160;</text>
</g>
<!-- RELEASE_PLL_RESET&#45;&gt;ASSERT_ALL_RESETS -->
<g id="edge6" class="edge transition">
<title>RELEASE_PLL_RESET&#45;&gt;ASSERT_ALL_RESETS</title>
<path fill="none" stroke="#000000" d="M462.1332,-392.0888C506.9263,-395.6385 564.6759,-400.1587 616,-404 668.8758,-407.9574 806.5384,-397.3588 854,-421 873.5276,-430.7269 889.5305,-449.5772 900.3841,-465.411"/>
<polygon fill="#000000" stroke="#000000" points="897.4765,-467.3598 905.8738,-473.8202 903.338,-463.5333 897.4765,-467.3598"/>
<text text-anchor="start" x="893" y="-436" font-family="Helvetica,sans-Serif" font-size="10.00" fill="#000000">time_out_2ms = &#39;1&#39; &#160;&#160;</text>
</g>
<!-- RELEASE_MMCM_RESET -->
<g id="node5" class="node state regular">
<title>RELEASE_MMCM_RESET</title>
<polygon fill="#ffffff" fill-opacity="0.003922" stroke="transparent" stroke-width="2" points="537.5,-298 368.5,-298 368.5,-262 537.5,-262 537.5,-298"/>
<text text-anchor="start" x="379.8308" y="-276.2" font-family="Helvetica,sans-Serif" font-size="12.00" fill="#000000">RELEASE_MMCM_RESET</text>
<path fill="none" stroke="#000000" stroke-width="2" d="M380.8333,-263C380.8333,-263 525.1667,-263 525.1667,-263 530.8333,-263 536.5,-268.6667 536.5,-274.3333 536.5,-274.3333 536.5,-285.6667 536.5,-285.6667 536.5,-291.3333 530.8333,-297 525.1667,-297 525.1667,-297 380.8333,-297 380.8333,-297 375.1667,-297 369.5,-291.3333 369.5,-285.6667 369.5,-285.6667 369.5,-274.3333 369.5,-274.3333 369.5,-268.6667 375.1667,-263 380.8333,-263"/>
</g>
<!-- RELEASE_PLL_RESET&#45;&gt;RELEASE_MMCM_RESET -->
<g id="edge4" class="edge transition">
<title>RELEASE_PLL_RESET&#45;&gt;RELEASE_MMCM_RESET</title>
<path fill="none" stroke="#000000" d="M309.885,-381.3366C233.6838,-375.8726 125.9068,-365.6626 113.004,-351 102.4341,-338.9885 102.2852,-326.8789 113.004,-315 129.233,-297.0146 263.1029,-287.733 357.9262,-283.3694"/>
<polygon fill="#000000" stroke="#000000" points="358.2953,-286.8564 368.1284,-282.9118 357.9816,-279.8634 358.2953,-286.8564"/>
<text text-anchor="start" x="113" y="-336" font-family="Helvetica,sans-Serif" font-size="10.00" fill="#000000">((qPllTxSelect = &quot;00&quot;) and (pll0lock_ris_edge = &#39;1&#39;)) or &#160;&#160;</text>
<text text-anchor="start" x="113" y="-324" font-family="Helvetica,sans-Serif" font-size="10.00" fill="#000000">((qPllTxSelect /= &quot;00&quot;) and (pll1lock_ris_edge = &#39;1&#39;)) &#160;&#160;</text>
</g>
<!-- RELEASE_PLL_RESET&#45;&gt;RELEASE_MMCM_RESET -->
<g id="edge5" class="edge transition">
<title>RELEASE_PLL_RESET&#45;&gt;RELEASE_MMCM_RESET</title>
<path fill="none" stroke="#000000" d="M386.7352,-367.948C388.1376,-352.6769 392.0528,-330.817 402.808,-315 405.3635,-311.2418 408.4666,-307.7622 411.8629,-304.5731"/>
<polygon fill="#000000" stroke="#000000" points="414.2322,-307.1545 419.6677,-298.0602 409.7473,-301.78 414.2322,-307.1545"/>
<text text-anchor="start" x="402" y="-342" font-family="Helvetica,sans-Serif" font-size="10.00" fill="#000000">(TX_PLL0_USED and (pll0lock_ris_edge = &#39;1&#39;)) or &#160;&#160;</text>
<text text-anchor="start" x="402" y="-330" font-family="Helvetica,sans-Serif" font-size="10.00" fill="#000000">(not TX_PLL0_USED and (pll1lock_ris_edge = &#39;1&#39;)) &#160;&#160;</text>
<text text-anchor="start" x="402" y="-318" font-family="Helvetica,sans-Serif" font-size="10.00" fill="#000000">not () &#160;&#160;</text>
</g>
<!-- RELEASE_MMCM_RESET&#45;&gt;ASSERT_ALL_RESETS -->
<g id="edge8" class="edge transition">
<title>RELEASE_MMCM_RESET&#45;&gt;ASSERT_ALL_RESETS</title>
<path fill="none" stroke="#000000" d="M537.6028,-287.137C579.0727,-292.3411 623.2318,-301.0019 638,-315 667.5594,-343.0179 628.3708,-378.131 659.828,-404 674.0572,-415.7015 978.349,-407.6079 991,-421 1001.9873,-432.631 999.5948,-443.5045 991,-457 988.4565,-460.9938 985.3251,-464.5394 981.7992,-467.6859"/>
<polygon fill="#000000" stroke="#000000" points="979.3816,-465.1265 973.5256,-473.956 983.6096,-470.7055 979.3816,-465.1265"/>
<text text-anchor="start" x="659" y="-383" font-family="Helvetica,sans-Serif" font-size="10.00" fill="#000000">time_tlock_max = &#39;1&#39; and mmcm_lock_reclocked = &#39;0&#39; and reset_time_out = &#39;0&#39; &#160;&#160;</text>
</g>
<!-- WAIT_RESET_DONE -->
<g id="node6" class="node state regular">
<title>WAIT_RESET_DONE</title>
<polygon fill="#ffffff" fill-opacity="0.003922" stroke="transparent" stroke-width="2" points="849,-216 709,-216 709,-180 849,-180 849,-216"/>
<text text-anchor="start" x="719.999" y="-194.2" font-family="Helvetica,sans-Serif" font-size="12.00" fill="#000000">WAIT_RESET_DONE</text>
<path fill="none" stroke="#000000" stroke-width="2" d="M721.3333,-181C721.3333,-181 836.6667,-181 836.6667,-181 842.3333,-181 848,-186.6667 848,-192.3333 848,-192.3333 848,-203.6667 848,-203.6667 848,-209.3333 842.3333,-215 836.6667,-215 836.6667,-215 721.3333,-215 721.3333,-215 715.6667,-215 710,-209.3333 710,-203.6667 710,-203.6667 710,-192.3333 710,-192.3333 710,-186.6667 715.6667,-181 721.3333,-181"/>
</g>
<!-- RELEASE_MMCM_RESET&#45;&gt;WAIT_RESET_DONE -->
<g id="edge7" class="edge transition">
<title>RELEASE_MMCM_RESET&#45;&gt;WAIT_RESET_DONE</title>
<path fill="none" stroke="#000000" d="M524.9457,-261.9032C576.4895,-248.9382 645.919,-231.4744 699.1708,-218.0797"/>
<polygon fill="#000000" stroke="#000000" points="700.0737,-221.4617 708.9178,-215.628 698.3661,-214.6732 700.0737,-221.4617"/>
<text text-anchor="start" x="637" y="-236" font-family="Helvetica,sans-Serif" font-size="10.00" fill="#000000">mmcm_lock_reclocked = &#39;1&#39; &#160;&#160;</text>
</g>
<!-- WAIT_RESET_DONE&#45;&gt;ASSERT_ALL_RESETS -->
<g id="edge10" class="edge transition">
<title>WAIT_RESET_DONE&#45;&gt;ASSERT_ALL_RESETS</title>
<path fill="none" stroke="#000000" d="M800.5305,-216.3986C805.8204,-222.8557 810,-230.6117 810,-239 810,-306.5 810,-306.5 810,-306.5 810,-327.7385 810.4324,-338.2473 827.416,-351 860.8868,-376.1326 986.7704,-337.0964 1015,-368 1042.0542,-397.6169 1021.202,-422.9477 1000,-457 997.5379,-460.9543 994.5288,-464.462 991.1311,-467.5735"/>
<polygon fill="#000000" stroke="#000000" points="988.8938,-464.8794 983.1342,-473.772 993.1822,-470.412 988.8938,-464.8794"/>
<text text-anchor="start" x="827" y="-330" font-family="Helvetica,sans-Serif" font-size="10.00" fill="#000000">time_out_500us = &#39;1&#39; and reset_time_out = &#39;0&#39; &#160;&#160;</text>
</g>
<!-- DO_PHASE_ALIGNMENT -->
<g id="node7" class="node state regular">
<title>DO_PHASE_ALIGNMENT</title>
<polygon fill="#ffffff" fill-opacity="0.003922" stroke="transparent" stroke-width="2" points="921,-134 757,-134 757,-98 921,-98 921,-134"/>
<text text-anchor="start" x="767.9948" y="-112.2" font-family="Helvetica,sans-Serif" font-size="12.00" fill="#000000">DO_PHASE_ALIGNMENT</text>
<path fill="none" stroke="#000000" stroke-width="2" d="M769.3333,-99C769.3333,-99 908.6667,-99 908.6667,-99 914.3333,-99 920,-104.6667 920,-110.3333 920,-110.3333 920,-121.6667 920,-121.6667 920,-127.3333 914.3333,-133 908.6667,-133 908.6667,-133 769.3333,-133 769.3333,-133 763.6667,-133 758,-127.3333 758,-121.6667 758,-121.6667 758,-110.3333 758,-110.3333 758,-104.6667 763.6667,-99 769.3333,-99"/>
</g>
<!-- WAIT_RESET_DONE&#45;&gt;DO_PHASE_ALIGNMENT -->
<g id="edge9" class="edge transition">
<title>WAIT_RESET_DONE&#45;&gt;DO_PHASE_ALIGNMENT</title>
<path fill="none" stroke="#000000" d="M783.0271,-179.9421C785.6753,-170.7084 789.8073,-159.6296 795.93,-151 798.3762,-147.5522 801.249,-144.2582 804.3303,-141.1665"/>
<polygon fill="#000000" stroke="#000000" points="806.7762,-143.6727 811.796,-134.3425 802.0534,-138.5059 806.7762,-143.6727"/>
<text text-anchor="start" x="795" y="-154" font-family="Helvetica,sans-Serif" font-size="10.00" fill="#000000">txresetdone_s3 = &#39;1&#39; &#160;&#160;</text>
</g>
<!-- DO_PHASE_ALIGNMENT&#45;&gt;ASSERT_ALL_RESETS -->
<g id="edge12" class="edge transition">
<title>DO_PHASE_ALIGNMENT&#45;&gt;ASSERT_ALL_RESETS</title>
<path fill="none" stroke="#000000" d="M887.3608,-134.1527C894.7643,-139.9482 900,-147.4299 900,-157 900,-253.5 900,-253.5 900,-253.5 900,-321.0545 999.0335,-260.5364 1039,-315 1050.7745,-331.0455 1044,-339.5978 1044,-359.5 1044,-439 1044,-439 1044,-439 1044,-451.2099 1023.8668,-462.0713 999.57,-470.7334"/>
<polygon fill="#000000" stroke="#000000" points="998.437,-467.4217 990.0875,-473.9437 1000.6817,-474.0521 998.437,-467.4217"/>
<text text-anchor="start" x="1018" y="-277" font-family="Helvetica,sans-Serif" font-size="10.00" fill="#000000">time_out_wait_bypass_s3 = &#39;1&#39; &#160;&#160;</text>
</g>
<!-- RESET_FSM_DONE -->
<g id="node8" class="node state regular">
<title>RESET_FSM_DONE</title>
<polygon fill="#ffffff" fill-opacity="0.003922" stroke="transparent" stroke-width="2" points="906.5,-52 771.5,-52 771.5,-16 906.5,-16 906.5,-52"/>
<text text-anchor="start" x="782.8324" y="-30.2" font-family="Helvetica,sans-Serif" font-size="12.00" fill="#000000">RESET_FSM_DONE</text>
<path fill="none" stroke="#000000" stroke-width="2" d="M783.8333,-17C783.8333,-17 894.1667,-17 894.1667,-17 899.8333,-17 905.5,-22.6667 905.5,-28.3333 905.5,-28.3333 905.5,-39.6667 905.5,-39.6667 905.5,-45.3333 899.8333,-51 894.1667,-51 894.1667,-51 783.8333,-51 783.8333,-51 778.1667,-51 772.5,-45.3333 772.5,-39.6667 772.5,-39.6667 772.5,-28.3333 772.5,-28.3333 772.5,-22.6667 778.1667,-17 783.8333,-17"/>
</g>
<!-- DO_PHASE_ALIGNMENT&#45;&gt;RESET_FSM_DONE -->
<g id="edge11" class="edge transition">
<title>DO_PHASE_ALIGNMENT&#45;&gt;RESET_FSM_DONE</title>
<path fill="none" stroke="#000000" d="M839,-97.8015C839,-87.3976 839,-74.1215 839,-62.3768"/>
<polygon fill="#000000" stroke="#000000" points="842.5001,-62.1476 839,-52.1476 835.5001,-62.1476 842.5001,-62.1476"/>
<text text-anchor="start" x="839" y="-72" font-family="Helvetica,sans-Serif" font-size="10.00" fill="#000000">PHALIGNMENT_DONE = &#39;1&#39; &#160;&#160;</text>
</g>
</g>
</svg>
