<?xml version="1.0" encoding="UTF-8" standalone="no"?>
<!DOCTYPE svg PUBLIC "-//W3C//DTD SVG 1.1//EN"
 "http://www.w3.org/Graphics/SVG/1.1/DTD/svg11.dtd">
<!-- Generated by graphviz version 2.40.1 (20161225.0304)
 -->
<!-- Title: state transitions Pages: 1 -->
<svg width="231pt" height="188pt"
 viewBox="0.00 0.00 231.00 188.00" xmlns="http://www.w3.org/2000/svg" xmlns:xlink="http://www.w3.org/1999/xlink">
<g id="graph0" class="graph" transform="scale(1 1) rotate(0) translate(4 184)">
<title>state transitions</title>
<polygon fill="#ffffff" stroke="transparent" points="-4,4 -4,-184 227,-184 227,4 -4,4"/>
<g id="clust1" class="cluster state regular">
<title>cluster_break_st_q</title>
<path fill="none" stroke="#000000" stroke-width="2" d="M20,-8C20,-8 203,-8 203,-8 209,-8 215,-14 215,-20 215,-20 215,-160 215,-160 215,-166 209,-172 203,-172 203,-172 20,-172 20,-172 14,-172 8,-166 8,-160 8,-160 8,-20 8,-20 8,-14 14,-8 20,-8"/>
<text text-anchor="start" x="82.3228" y="-153.2" font-family="Helvetica,sans-Serif" font-size="12.00" fill="#000000">break_st_q</text>
</g>
<!-- break_st_q -->
<!-- BRK_CHK -->
<g id="node2" class="node state regular">
<title>BRK_CHK</title>
<polygon fill="#ffffff" fill-opacity="0.003922" stroke="transparent" stroke-width="2" points="117,-134 39,-134 39,-98 117,-98 117,-134"/>
<text text-anchor="start" x="49.6662" y="-112.2" font-family="Helvetica,sans-Serif" font-size="12.00" fill="#000000">BRK_CHK</text>
<path fill="none" stroke="#000000" stroke-width="2" d="M51.3333,-99C51.3333,-99 104.6667,-99 104.6667,-99 110.3333,-99 116,-104.6667 116,-110.3333 116,-110.3333 116,-121.6667 116,-121.6667 116,-127.3333 110.3333,-133 104.6667,-133 104.6667,-133 51.3333,-133 51.3333,-133 45.6667,-133 40,-127.3333 40,-121.6667 40,-121.6667 40,-110.3333 40,-110.3333 40,-104.6667 45.6667,-99 51.3333,-99"/>
</g>
<!-- BRK_WAIT -->
<g id="node3" class="node state regular">
<title>BRK_WAIT</title>
<polygon fill="#ffffff" fill-opacity="0.003922" stroke="transparent" stroke-width="2" points="153.5,-52 70.5,-52 70.5,-16 153.5,-16 153.5,-52"/>
<text text-anchor="start" x="81.8328" y="-30.2" font-family="Helvetica,sans-Serif" font-size="12.00" fill="#000000">BRK_WAIT</text>
<path fill="none" stroke="#000000" stroke-width="2" d="M82.8333,-17C82.8333,-17 141.1667,-17 141.1667,-17 146.8333,-17 152.5,-22.6667 152.5,-28.3333 152.5,-28.3333 152.5,-39.6667 152.5,-39.6667 152.5,-45.3333 146.8333,-51 141.1667,-51 141.1667,-51 82.8333,-51 82.8333,-51 77.1667,-51 71.5,-45.3333 71.5,-39.6667 71.5,-39.6667 71.5,-28.3333 71.5,-28.3333 71.5,-22.6667 77.1667,-17 82.8333,-17"/>
</g>
<!-- BRK_CHK&#45;&gt;BRK_WAIT -->
<g id="edge1" class="edge transition">
<title>BRK_CHK&#45;&gt;BRK_WAIT</title>
<path fill="none" stroke="#000000" d="M60.5788,-97.9083C54.2249,-89.0731 49.7426,-78.3564 54.978,-69 57.0837,-65.2367 59.7779,-61.8289 62.8456,-58.7525"/>
<polygon fill="#000000" stroke="#000000" points="65.2369,-61.3133 70.5803,-52.1646 60.698,-55.9843 65.2369,-61.3133"/>
<text text-anchor="start" x="54" y="-72" font-family="Helvetica,sans-Serif" font-size="10.00" fill="#000000">event_rx_break_err &#160;&#160;</text>
</g>
<!-- BRK_WAIT&#45;&gt;BRK_CHK -->
<g id="edge2" class="edge transition">
<title>BRK_WAIT&#45;&gt;BRK_CHK</title>
<path fill="none" stroke="#000000" d="M140.8873,-52.1206C150.5326,-60.5148 157.3833,-70.8605 151,-81 145.1524,-90.2887 136.0792,-97.1673 126.2926,-102.2418"/>
<polygon fill="#000000" stroke="#000000" points="124.8139,-99.0694 117.1764,-106.4123 127.726,-105.4349 124.8139,-99.0694"/>
<text text-anchor="start" x="153" y="-72" font-family="Helvetica,sans-Serif" font-size="10.00" fill="#000000">rx_in &#160;&#160;</text>
</g>
</g>
</svg>
