<?xml version="1.0" encoding="UTF-8" standalone="no"?>
<!DOCTYPE svg PUBLIC "-//W3C//DTD SVG 1.1//EN"
 "http://www.w3.org/Graphics/SVG/1.1/DTD/svg11.dtd">
<!-- Generated by graphviz version 2.40.1 (20161225.0304)
 -->
<!-- Title: state transitions Pages: 1 -->
<svg width="571pt" height="376pt"
 viewBox="0.00 0.00 570.93 376.00" xmlns="http://www.w3.org/2000/svg" xmlns:xlink="http://www.w3.org/1999/xlink">
<g id="graph0" class="graph" transform="scale(1 1) rotate(0) translate(4 372)">
<title>state transitions</title>
<polygon fill="#ffffff" stroke="transparent" points="-4,4 -4,-372 566.93,-372 566.93,4 -4,4"/>
<g id="clust1" class="cluster state regular">
<title>cluster_rx_state</title>
<path fill="none" stroke="#000000" stroke-width="2" d="M20,-8C20,-8 453,-8 453,-8 459,-8 465,-14 465,-20 465,-20 465,-348 465,-348 465,-354 459,-360 453,-360 453,-360 20,-360 20,-360 14,-360 8,-354 8,-348 8,-348 8,-20 8,-20 8,-14 14,-8 20,-8"/>
<text text-anchor="start" x="215.1616" y="-341.2" font-family="Helvetica,sans-Serif" font-size="12.00" fill="#000000">rx_state</text>
</g>
<!-- rx_state -->
<!-- IDLE -->
<g id="node2" class="node state regular">
<title>IDLE</title>
<polygon fill="#ffffff" fill-opacity="0.003922" stroke="transparent" stroke-width="2" points="152,-322 96,-322 96,-286 152,-286 152,-322"/>
<text text-anchor="start" x="110.6644" y="-300.2" font-family="Helvetica,sans-Serif" font-size="12.00" fill="#000000">IDLE</text>
<path fill="none" stroke="#000000" stroke-width="2" d="M108.3333,-287C108.3333,-287 139.6667,-287 139.6667,-287 145.3333,-287 151,-292.6667 151,-298.3333 151,-298.3333 151,-309.6667 151,-309.6667 151,-315.3333 145.3333,-321 139.6667,-321 139.6667,-321 108.3333,-321 108.3333,-321 102.6667,-321 97,-315.3333 97,-309.6667 97,-309.6667 97,-298.3333 97,-298.3333 97,-292.6667 102.6667,-287 108.3333,-287"/>
</g>
<!-- STARTBIT -->
<g id="node3" class="node state regular">
<title>STARTBIT</title>
<polygon fill="#ffffff" fill-opacity="0.003922" stroke="transparent" stroke-width="2" points="94.5,-240 15.5,-240 15.5,-204 94.5,-204 94.5,-240"/>
<text text-anchor="start" x="26.5008" y="-218.2" font-family="Helvetica,sans-Serif" font-size="12.00" fill="#000000">STARTBIT</text>
<path fill="none" stroke="#000000" stroke-width="2" d="M27.8333,-205C27.8333,-205 82.1667,-205 82.1667,-205 87.8333,-205 93.5,-210.6667 93.5,-216.3333 93.5,-216.3333 93.5,-227.6667 93.5,-227.6667 93.5,-233.3333 87.8333,-239 82.1667,-239 82.1667,-239 27.8333,-239 27.8333,-239 22.1667,-239 16.5,-233.3333 16.5,-227.6667 16.5,-227.6667 16.5,-216.3333 16.5,-216.3333 16.5,-210.6667 22.1667,-205 27.8333,-205"/>
</g>
<!-- IDLE&#45;&gt;STARTBIT -->
<g id="edge1" class="edge transition">
<title>IDLE&#45;&gt;STARTBIT</title>
<path fill="none" stroke="#000000" d="M95.662,-297.2057C80.886,-292.0718 64.0881,-283.3686 55.23,-269 51.8016,-263.4389 50.4952,-256.7592 50.3187,-250.2045"/>
<polygon fill="#000000" stroke="#000000" points="53.8157,-250.3509 50.829,-240.1858 46.8248,-249.9948 53.8157,-250.3509"/>
<text text-anchor="start" x="55" y="-260" font-family="Helvetica,sans-Serif" font-size="10.00" fill="#000000">sample_clk = &#39;1&#39; and rxd3 = &#39;0&#39; &#160;&#160;</text>
</g>
<!-- RECEIVE -->
<g id="node4" class="node state regular">
<title>RECEIVE</title>
<polygon fill="#ffffff" fill-opacity="0.003922" stroke="transparent" stroke-width="2" points="90,-146 16,-146 16,-110 90,-110 90,-146"/>
<text text-anchor="start" x="26.6642" y="-124.2" font-family="Helvetica,sans-Serif" font-size="12.00" fill="#000000">RECEIVE</text>
<path fill="none" stroke="#000000" stroke-width="2" d="M28.3333,-111C28.3333,-111 77.6667,-111 77.6667,-111 83.3333,-111 89,-116.6667 89,-122.3333 89,-122.3333 89,-133.6667 89,-133.6667 89,-139.3333 83.3333,-145 77.6667,-145 77.6667,-145 28.3333,-145 28.3333,-145 22.6667,-145 17,-139.3333 17,-133.6667 17,-133.6667 17,-122.3333 17,-122.3333 17,-116.6667 22.6667,-111 28.3333,-111"/>
</g>
<!-- STARTBIT&#45;&gt;RECEIVE -->
<g id="edge2" class="edge transition">
<title>STARTBIT&#45;&gt;RECEIVE</title>
<path fill="none" stroke="#000000" d="M54.6144,-203.8759C54.3266,-190.3516 53.9281,-171.6192 53.599,-156.1514"/>
<polygon fill="#000000" stroke="#000000" points="57.0965,-155.9918 53.3844,-146.0685 50.098,-156.1407 57.0965,-155.9918"/>
<text text-anchor="start" x="54" y="-178" font-family="Helvetica,sans-Serif" font-size="10.00" fill="#000000">rx_sample_delay = 7 &#160;&#160;</text>
<text text-anchor="start" x="54" y="-166" font-family="Helvetica,sans-Serif" font-size="10.00" fill="#000000">sample_clk = &#39;1&#39; &#160;&#160;</text>
</g>
<!-- STOPBIT -->
<g id="node5" class="node state regular">
<title>STOPBIT</title>
<polygon fill="#ffffff" fill-opacity="0.003922" stroke="transparent" stroke-width="2" points="230.5,-52 157.5,-52 157.5,-16 230.5,-16 230.5,-52"/>
<text text-anchor="start" x="168.8302" y="-30.2" font-family="Helvetica,sans-Serif" font-size="12.00" fill="#000000">STOPBIT</text>
<path fill="none" stroke="#000000" stroke-width="2" d="M169.8333,-17C169.8333,-17 218.1667,-17 218.1667,-17 223.8333,-17 229.5,-22.6667 229.5,-28.3333 229.5,-28.3333 229.5,-39.6667 229.5,-39.6667 229.5,-45.3333 223.8333,-51 218.1667,-51 218.1667,-51 169.8333,-51 169.8333,-51 164.1667,-51 158.5,-45.3333 158.5,-39.6667 158.5,-39.6667 158.5,-28.3333 158.5,-28.3333 158.5,-22.6667 164.1667,-17 169.8333,-17"/>
</g>
<!-- RECEIVE&#45;&gt;STOPBIT -->
<g id="edge3" class="edge transition">
<title>RECEIVE&#45;&gt;STOPBIT</title>
<path fill="none" stroke="#000000" d="M48.3798,-109.7841C46.2825,-96.9979 45.9881,-80.2414 55.07,-69 66.6649,-54.648 111.4787,-45.1761 147.1158,-39.7481"/>
<polygon fill="#000000" stroke="#000000" points="147.9682,-43.161 157.3602,-38.258 146.9606,-36.2339 147.9682,-43.161"/>
<text text-anchor="start" x="55" y="-84" font-family="Helvetica,sans-Serif" font-size="10.00" fill="#000000">sample_clk = &#39;1&#39; and rx_sample_counter = rx_sample_value &#160;&#160;</text>
<text text-anchor="start" x="55" y="-72" font-family="Helvetica,sans-Serif" font-size="10.00" fill="#000000">not (rx_current_bit /= 7) &#160;&#160;</text>
</g>
<!-- STOPBIT&#45;&gt;IDLE -->
<g id="edge4" class="edge transition">
<title>STOPBIT&#45;&gt;IDLE</title>
<path fill="none" stroke="#000000" d="M230.6495,-38.3784C266.6531,-43.5224 317.9006,-53.3925 330,-69 336.5353,-77.4301 333.3546,-82.8746 330,-93 314.6664,-139.2819 236.795,-238.1994 199,-269 187.9937,-277.9695 174.31,-285.2292 161.6557,-290.7628"/>
<polygon fill="#000000" stroke="#000000" points="160.1434,-287.6007 152.2408,-294.6577 162.8193,-294.0691 160.1434,-287.6007"/>
<text text-anchor="start" x="289" y="-172" font-family="Helvetica,sans-Serif" font-size="10.00" fill="#000000">sample_clk = &#39;1&#39; and rx_sample_counter = rx_sample_value &#160;&#160;</text>
</g>
</g>
</svg>
