<?xml version="1.0" encoding="UTF-8" standalone="no"?>
<!DOCTYPE svg PUBLIC "-//W3C//DTD SVG 1.1//EN"
 "http://www.w3.org/Graphics/SVG/1.1/DTD/svg11.dtd">
<!-- Generated by graphviz version 2.40.1 (20161225.0304)
 -->
<!-- Title: state transitions Pages: 1 -->
<svg width="674pt" height="200pt"
 viewBox="0.00 0.00 674.00 200.00" xmlns="http://www.w3.org/2000/svg" xmlns:xlink="http://www.w3.org/1999/xlink">
<g id="graph0" class="graph" transform="scale(1 1) rotate(0) translate(4 196)">
<title>state transitions</title>
<polygon fill="#ffffff" stroke="transparent" points="-4,4 -4,-196 670,-196 670,4 -4,4"/>
<g id="clust1" class="cluster state regular">
<title>cluster_wb_state</title>
<path fill="none" stroke="#000000" stroke-width="2" d="M20,-8C20,-8 646,-8 646,-8 652,-8 658,-14 658,-20 658,-20 658,-172 658,-172 658,-178 652,-184 646,-184 646,-184 20,-184 20,-184 14,-184 8,-178 8,-172 8,-172 8,-20 8,-20 8,-14 14,-8 20,-8"/>
<text text-anchor="start" x="308.9922" y="-165.2" font-family="Helvetica,sans-Serif" font-size="12.00" fill="#000000">wb_state</text>
</g>
<!-- wb_state -->
<!-- IDLE -->
<g id="node2" class="node state regular">
<title>IDLE</title>
<polygon fill="#ffffff" fill-opacity="0.003922" stroke="transparent" stroke-width="2" points="290,-146 234,-146 234,-110 290,-110 290,-146"/>
<text text-anchor="start" x="248.6644" y="-124.2" font-family="Helvetica,sans-Serif" font-size="12.00" fill="#000000">IDLE</text>
<path fill="none" stroke="#000000" stroke-width="2" d="M246.3333,-111C246.3333,-111 277.6667,-111 277.6667,-111 283.3333,-111 289,-116.6667 289,-122.3333 289,-122.3333 289,-133.6667 289,-133.6667 289,-139.3333 283.3333,-145 277.6667,-145 277.6667,-145 246.3333,-145 246.3333,-145 240.6667,-145 235,-139.3333 235,-133.6667 235,-133.6667 235,-122.3333 235,-122.3333 235,-116.6667 240.6667,-111 246.3333,-111"/>
</g>
<!-- WRITE_ACK -->
<g id="node3" class="node state regular">
<title>WRITE_ACK</title>
<polygon fill="#ffffff" fill-opacity="0.003922" stroke="transparent" stroke-width="2" points="155.5,-52 64.5,-52 64.5,-16 155.5,-16 155.5,-52"/>
<text text-anchor="start" x="75.5014" y="-30.2" font-family="Helvetica,sans-Serif" font-size="12.00" fill="#000000">WRITE_ACK</text>
<path fill="none" stroke="#000000" stroke-width="2" d="M76.8333,-17C76.8333,-17 143.1667,-17 143.1667,-17 148.8333,-17 154.5,-22.6667 154.5,-28.3333 154.5,-28.3333 154.5,-39.6667 154.5,-39.6667 154.5,-45.3333 148.8333,-51 143.1667,-51 143.1667,-51 76.8333,-51 76.8333,-51 71.1667,-51 65.5,-45.3333 65.5,-39.6667 65.5,-39.6667 65.5,-28.3333 65.5,-28.3333 65.5,-22.6667 71.1667,-17 76.8333,-17"/>
</g>
<!-- IDLE&#45;&gt;WRITE_ACK -->
<g id="edge1" class="edge transition">
<title>IDLE&#45;&gt;WRITE_ACK</title>
<path fill="none" stroke="#000000" d="M233.7944,-119.725C215.8806,-113.7744 192.6423,-104.7349 173.994,-93 159.2008,-83.691 144.7117,-70.7499 133.2718,-59.359"/>
<polygon fill="#000000" stroke="#000000" points="135.7163,-56.8528 126.2218,-52.1512 130.7121,-61.7475 135.7163,-56.8528"/>
<text text-anchor="start" x="173" y="-84" font-family="Helvetica,sans-Serif" font-size="10.00" fill="#000000">wb_we_in = &#39;1&#39;wb_we_in = &#39;1&#39; &#160;&#160;</text>
<text text-anchor="start" x="173" y="-72" font-family="Helvetica,sans-Serif" font-size="10.00" fill="#000000">wb_cyc_in = &#39;1&#39; and wb_stb_in = &#39;1&#39; &#160;&#160;</text>
</g>
<!-- READ_ACK -->
<g id="node4" class="node state regular">
<title>READ_ACK</title>
<polygon fill="#ffffff" fill-opacity="0.003922" stroke="transparent" stroke-width="2" points="514,-52 428,-52 428,-16 514,-16 514,-52"/>
<text text-anchor="start" x="438.6648" y="-30.2" font-family="Helvetica,sans-Serif" font-size="12.00" fill="#000000">READ_ACK</text>
<path fill="none" stroke="#000000" stroke-width="2" d="M440.3333,-17C440.3333,-17 501.6667,-17 501.6667,-17 507.3333,-17 513,-22.6667 513,-28.3333 513,-28.3333 513,-39.6667 513,-39.6667 513,-45.3333 507.3333,-51 501.6667,-51 501.6667,-51 440.3333,-51 440.3333,-51 434.6667,-51 429,-45.3333 429,-39.6667 429,-39.6667 429,-28.3333 429,-28.3333 429,-22.6667 434.6667,-17 440.3333,-17"/>
</g>
<!-- IDLE&#45;&gt;READ_ACK -->
<g id="edge2" class="edge transition">
<title>IDLE&#45;&gt;READ_ACK</title>
<path fill="none" stroke="#000000" d="M290.0739,-116.1101C305.0423,-109.5938 323.6859,-101.194 340,-93 359.5559,-83.1777 363.2302,-78.397 382.994,-69 394.3598,-63.596 406.7962,-58.2947 418.6469,-53.5178"/>
<polygon fill="#000000" stroke="#000000" points="419.9907,-56.7501 427.9937,-49.8073 417.4079,-50.244 419.9907,-56.7501"/>
<text text-anchor="start" x="382" y="-84" font-family="Helvetica,sans-Serif" font-size="10.00" fill="#000000">wb_cyc_in = &#39;1&#39; and wb_stb_in = &#39;1&#39; &#160;&#160;</text>
<text text-anchor="start" x="382" y="-72" font-family="Helvetica,sans-Serif" font-size="10.00" fill="#000000">not (wb_we_in = &#39;1&#39;) &#160;&#160;</text>
</g>
<!-- WRITE_ACK&#45;&gt;IDLE -->
<g id="edge3" class="edge transition">
<title>WRITE_ACK&#45;&gt;IDLE</title>
<path fill="none" stroke="#000000" d="M77.3463,-52.1377C71.6668,-56.8504 66.5423,-62.474 63.277,-69 58.504,-78.5392 56.4198,-84.8295 63.277,-93 83.3452,-116.9116 171.7853,-124.4929 223.6728,-126.8925"/>
<polygon fill="#000000" stroke="#000000" points="223.7045,-130.3968 233.8422,-127.3183 223.9974,-123.4029 223.7045,-130.3968"/>
<text text-anchor="start" x="63" y="-78" font-family="Helvetica,sans-Serif" font-size="10.00" fill="#000000">wb_stb_in = &#39;0&#39; &#160;&#160;</text>
</g>
<!-- READ_ACK&#45;&gt;IDLE -->
<g id="edge4" class="edge transition">
<title>READ_ACK&#45;&gt;IDLE</title>
<path fill="none" stroke="#000000" d="M514.0173,-43.4273C527.5409,-48.6359 541.015,-56.6649 549,-69 554.7965,-77.9543 556.0712,-85.014 549,-93 547.9758,-94.1567 378.5987,-114.2564 300.5609,-123.462"/>
<polygon fill="#000000" stroke="#000000" points="299.704,-120.0386 290.1826,-124.6855 300.5237,-126.9905 299.704,-120.0386"/>
<text text-anchor="start" x="553" y="-78" font-family="Helvetica,sans-Serif" font-size="10.00" fill="#000000">wb_stb_in = &#39;0&#39; &#160;&#160;</text>
</g>
</g>
</svg>
