<?xml version="1.0" encoding="UTF-8" standalone="no"?>
<!DOCTYPE svg PUBLIC "-//W3C//DTD SVG 1.1//EN"
 "http://www.w3.org/Graphics/SVG/1.1/DTD/svg11.dtd">
<!-- Generated by graphviz version 2.40.1 (20161225.0304)
 -->
<!-- Title: state transitions Pages: 1 -->
<svg width="376pt" height="270pt"
 viewBox="0.00 0.00 376.05 270.00" xmlns="http://www.w3.org/2000/svg" xmlns:xlink="http://www.w3.org/1999/xlink">
<g id="graph0" class="graph" transform="scale(1 1) rotate(0) translate(4 266)">
<title>state transitions</title>
<polygon fill="#ffffff" stroke="transparent" points="-4,4 -4,-266 372.053,-266 372.053,4 -4,4"/>
<g id="clust1" class="cluster state regular">
<title>cluster_tx_state</title>
<path fill="none" stroke="#000000" stroke-width="2" d="M20,-8C20,-8 265,-8 265,-8 271,-8 277,-14 277,-20 277,-20 277,-242 277,-242 277,-248 271,-254 265,-254 265,-254 20,-254 20,-254 14,-254 8,-248 8,-242 8,-242 8,-20 8,-20 8,-14 14,-8 20,-8"/>
<text text-anchor="start" x="121.4916" y="-235.2" font-family="Helvetica,sans-Serif" font-size="12.00" fill="#000000">tx_state</text>
</g>
<!-- tx_state -->
<!-- IDLE -->
<g id="node2" class="node state regular">
<title>IDLE</title>
<polygon fill="#ffffff" fill-opacity="0.003922" stroke="transparent" stroke-width="2" points="116,-216 60,-216 60,-180 116,-180 116,-216"/>
<text text-anchor="start" x="74.6644" y="-194.2" font-family="Helvetica,sans-Serif" font-size="12.00" fill="#000000">IDLE</text>
<path fill="none" stroke="#000000" stroke-width="2" d="M72.3333,-181C72.3333,-181 103.6667,-181 103.6667,-181 109.3333,-181 115,-186.6667 115,-192.3333 115,-192.3333 115,-203.6667 115,-203.6667 115,-209.3333 109.3333,-215 103.6667,-215 103.6667,-215 72.3333,-215 72.3333,-215 66.6667,-215 61,-209.3333 61,-203.6667 61,-203.6667 61,-192.3333 61,-192.3333 61,-186.6667 66.6667,-181 72.3333,-181"/>
</g>
<!-- TRANSMIT -->
<g id="node3" class="node state regular">
<title>TRANSMIT</title>
<polygon fill="#ffffff" fill-opacity="0.003922" stroke="transparent" stroke-width="2" points="99.5,-134 16.5,-134 16.5,-98 99.5,-98 99.5,-134"/>
<text text-anchor="start" x="27.8388" y="-112.2" font-family="Helvetica,sans-Serif" font-size="12.00" fill="#000000">TRANSMIT</text>
<path fill="none" stroke="#000000" stroke-width="2" d="M28.8333,-99C28.8333,-99 87.1667,-99 87.1667,-99 92.8333,-99 98.5,-104.6667 98.5,-110.3333 98.5,-110.3333 98.5,-121.6667 98.5,-121.6667 98.5,-127.3333 92.8333,-133 87.1667,-133 87.1667,-133 28.8333,-133 28.8333,-133 23.1667,-133 17.5,-127.3333 17.5,-121.6667 17.5,-121.6667 17.5,-110.3333 17.5,-110.3333 17.5,-104.6667 23.1667,-99 28.8333,-99"/>
</g>
<!-- IDLE&#45;&gt;TRANSMIT -->
<g id="edge1" class="edge transition">
<title>IDLE&#45;&gt;TRANSMIT</title>
<path fill="none" stroke="#000000" d="M65.9892,-179.947C61.4181,-174.9798 57.239,-169.2268 54.753,-163 52.4604,-157.2578 51.8049,-150.8086 52.0196,-144.5707"/>
<polygon fill="#000000" stroke="#000000" points="55.5205,-144.7411 53.0669,-134.4343 48.5576,-144.0216 55.5205,-144.7411"/>
<text text-anchor="start" x="54" y="-154" font-family="Helvetica,sans-Serif" font-size="10.00" fill="#000000">send_buffer_empty = &#39;0&#39; and uart_tx_clk = &#39;1&#39; &#160;&#160;</text>
</g>
<!-- STOPBIT -->
<g id="node4" class="node state regular">
<title>STOPBIT</title>
<polygon fill="#ffffff" fill-opacity="0.003922" stroke="transparent" stroke-width="2" points="179.5,-52 106.5,-52 106.5,-16 179.5,-16 179.5,-52"/>
<text text-anchor="start" x="117.8302" y="-30.2" font-family="Helvetica,sans-Serif" font-size="12.00" fill="#000000">STOPBIT</text>
<path fill="none" stroke="#000000" stroke-width="2" d="M118.8333,-17C118.8333,-17 167.1667,-17 167.1667,-17 172.8333,-17 178.5,-22.6667 178.5,-28.3333 178.5,-28.3333 178.5,-39.6667 178.5,-39.6667 178.5,-45.3333 172.8333,-51 167.1667,-51 167.1667,-51 118.8333,-51 118.8333,-51 113.1667,-51 107.5,-45.3333 107.5,-39.6667 107.5,-39.6667 107.5,-28.3333 107.5,-28.3333 107.5,-22.6667 113.1667,-17 118.8333,-17"/>
</g>
<!-- TRANSMIT&#45;&gt;STOPBIT -->
<g id="edge2" class="edge transition">
<title>TRANSMIT&#45;&gt;STOPBIT</title>
<path fill="none" stroke="#000000" d="M51.8955,-97.6338C49.9683,-88.3158 49.592,-77.2546 55.188,-69 64.6446,-55.0508 80.6436,-46.6607 96.4148,-41.6145"/>
<polygon fill="#000000" stroke="#000000" points="97.4618,-44.956 106.1447,-38.8849 95.5709,-38.2162 97.4618,-44.956"/>
<text text-anchor="start" x="55" y="-72" font-family="Helvetica,sans-Serif" font-size="10.00" fill="#000000">uart_tx_clk = &#39;1&#39; and tx_current_bit = 7 &#160;&#160;</text>
</g>
<!-- STOPBIT&#45;&gt;IDLE -->
<g id="edge3" class="edge transition">
<title>STOPBIT&#45;&gt;IDLE</title>
<path fill="none" stroke="#000000" d="M179.859,-40.5647C198.2557,-45.5575 219.598,-54.2002 234,-69 337.4331,-175.2901 282.8505,-138.7863 263,-163 254.3578,-173.5418 174.8991,-186.1297 126.0709,-192.969"/>
<polygon fill="#000000" stroke="#000000" points="125.5802,-189.5034 116.1529,-194.3384 126.5376,-196.4377 125.5802,-189.5034"/>
<text text-anchor="start" x="290" y="-113" font-family="Helvetica,sans-Serif" font-size="10.00" fill="#000000">uart_tx_clk = &#39;1&#39; &#160;&#160;</text>
</g>
</g>
</svg>
