<?xml version="1.0" encoding="UTF-8" standalone="no"?>
<!DOCTYPE svg PUBLIC "-//W3C//DTD SVG 1.1//EN"
 "http://www.w3.org/Graphics/SVG/1.1/DTD/svg11.dtd">
<!-- Generated by graphviz version 2.40.1 (20161225.0304)
 -->
<!-- Title: state transitions Pages: 1 -->
<svg width="635pt" height="2004pt"
 viewBox="0.00 0.00 635.00 2004.00" xmlns="http://www.w3.org/2000/svg" xmlns:xlink="http://www.w3.org/1999/xlink">
<g id="graph0" class="graph" transform="scale(1 1) rotate(0) translate(4 2000)">
<title>state transitions</title>
<polygon fill="#ffffff" stroke="transparent" points="-4,4 -4,-2000 631,-2000 631,4 -4,4"/>
<g id="clust1" class="cluster state regular">
<title>cluster_up_fsm</title>
<path fill="none" stroke="#000000" stroke-width="2" d="M20,-8C20,-8 607,-8 607,-8 613,-8 619,-14 619,-20 619,-20 619,-1976 619,-1976 619,-1982 613,-1988 607,-1988 607,-1988 20,-1988 20,-1988 14,-1988 8,-1982 8,-1976 8,-1976 8,-20 8,-20 8,-14 14,-8 20,-8"/>
<text text-anchor="start" x="294.329" y="-1969.2" font-family="Helvetica,sans-Serif" font-size="12.00" fill="#000000">up_fsm</text>
</g>
<!-- up_fsm -->
<!-- ES_FSM_IDLE -->
<g id="node2" class="node state regular">
<title>ES_FSM_IDLE</title>
<polygon fill="#ffffff" fill-opacity="0.003922" stroke="transparent" stroke-width="2" points="379.5,-1950 276.5,-1950 276.5,-1914 379.5,-1914 379.5,-1950"/>
<text text-anchor="start" x="287.8266" y="-1928.2" font-family="Helvetica,sans-Serif" font-size="12.00" fill="#000000">ES_FSM_IDLE</text>
<path fill="none" stroke="#000000" stroke-width="2" d="M288.8333,-1915C288.8333,-1915 367.1667,-1915 367.1667,-1915 372.8333,-1915 378.5,-1920.6667 378.5,-1926.3333 378.5,-1926.3333 378.5,-1937.6667 378.5,-1937.6667 378.5,-1943.3333 372.8333,-1949 367.1667,-1949 367.1667,-1949 288.8333,-1949 288.8333,-1949 283.1667,-1949 277.5,-1943.3333 277.5,-1937.6667 277.5,-1937.6667 277.5,-1926.3333 277.5,-1926.3333 277.5,-1920.6667 283.1667,-1915 288.8333,-1915"/>
</g>
<!-- ES_FSM_IDLE&#45;&gt;ES_FSM_IDLE -->
<g id="edge2" class="edge transition">
<title>ES_FSM_IDLE&#45;&gt;ES_FSM_IDLE</title>
<path fill="none" stroke="#000000" d="M379.5182,-1936.7988C392.1211,-1936.4434 401.5,-1934.8438 401.5,-1932 401.5,-1930.0005 396.8632,-1928.6161 389.7292,-1927.8467"/>
<polygon fill="#000000" stroke="#000000" points="389.7191,-1924.3392 379.5182,-1927.2012 389.2774,-1931.3252 389.7191,-1924.3392"/>
<text text-anchor="start" x="401.5" y="-1929" font-family="Helvetica,sans-Serif" font-size="10.00" fill="#000000">not (up_start_s == 1&#39;b1) &#160;&#160;</text>
</g>
<!-- ES_FSM_HOFFSET_READ -->
<g id="node3" class="node state regular">
<title>ES_FSM_HOFFSET_READ</title>
<polygon fill="#ffffff" fill-opacity="0.003922" stroke="transparent" stroke-width="2" points="388,-1868 216,-1868 216,-1832 388,-1832 388,-1868"/>
<text text-anchor="start" x="226.6634" y="-1846.2" font-family="Helvetica,sans-Serif" font-size="12.00" fill="#000000">ES_FSM_HOFFSET_READ</text>
<path fill="none" stroke="#000000" stroke-width="2" d="M228.3333,-1833C228.3333,-1833 375.6667,-1833 375.6667,-1833 381.3333,-1833 387,-1838.6667 387,-1844.3333 387,-1844.3333 387,-1855.6667 387,-1855.6667 387,-1861.3333 381.3333,-1867 375.6667,-1867 375.6667,-1867 228.3333,-1867 228.3333,-1867 222.6667,-1867 217,-1861.3333 217,-1855.6667 217,-1855.6667 217,-1844.3333 217,-1844.3333 217,-1838.6667 222.6667,-1833 228.3333,-1833"/>
</g>
<!-- ES_FSM_IDLE&#45;&gt;ES_FSM_HOFFSET_READ -->
<g id="edge1" class="edge transition">
<title>ES_FSM_IDLE&#45;&gt;ES_FSM_HOFFSET_READ</title>
<path fill="none" stroke="#000000" d="M322.2298,-1913.8015C318.8973,-1903.2915 314.6355,-1889.8503 310.8837,-1878.0177"/>
<polygon fill="#000000" stroke="#000000" points="314.1129,-1876.622 307.7541,-1868.1476 307.4403,-1878.7378 314.1129,-1876.622"/>
<text text-anchor="start" x="316" y="-1888" font-family="Helvetica,sans-Serif" font-size="10.00" fill="#000000">up_start_s == 1&#39;b1 &#160;&#160;</text>
</g>
<!-- ES_FSM_HOFFSET_RRDY -->
<g id="node4" class="node state regular">
<title>ES_FSM_HOFFSET_RRDY</title>
<polygon fill="#ffffff" fill-opacity="0.003922" stroke="transparent" stroke-width="2" points="215.5,-1786 42.5,-1786 42.5,-1750 215.5,-1750 215.5,-1786"/>
<text text-anchor="start" x="53.8334" y="-1764.2" font-family="Helvetica,sans-Serif" font-size="12.00" fill="#000000">ES_FSM_HOFFSET_RRDY</text>
<path fill="none" stroke="#000000" stroke-width="2" d="M54.8333,-1751C54.8333,-1751 203.1667,-1751 203.1667,-1751 208.8333,-1751 214.5,-1756.6667 214.5,-1762.3333 214.5,-1762.3333 214.5,-1773.6667 214.5,-1773.6667 214.5,-1779.3333 208.8333,-1785 203.1667,-1785 203.1667,-1785 54.8333,-1785 54.8333,-1785 49.1667,-1785 43.5,-1779.3333 43.5,-1773.6667 43.5,-1773.6667 43.5,-1762.3333 43.5,-1762.3333 43.5,-1756.6667 49.1667,-1751 54.8333,-1751"/>
</g>
<!-- ES_FSM_HOFFSET_READ&#45;&gt;ES_FSM_HOFFSET_RRDY -->
<g id="edge3" class="edge transition">
<title>ES_FSM_HOFFSET_READ&#45;&gt;ES_FSM_HOFFSET_RRDY</title>
<path fill="none" stroke="#000000" d="M263.6057,-1831.8015C237.7589,-1819.5505 203.5098,-1803.3168 176.0277,-1790.2906"/>
<polygon fill="#000000" stroke="#000000" points="177.5244,-1787.1268 166.989,-1786.0063 174.5262,-1793.4522 177.5244,-1787.1268"/>
<text text-anchor="middle" x="228.3895" y="-1806" font-family="Helvetica,sans-Serif" font-size="10.00" fill="#000000"> </text>
</g>
<!-- ES_FSM_HOFFSET_RRDY&#45;&gt;ES_FSM_HOFFSET_RRDY -->
<g id="edge5" class="edge transition">
<title>ES_FSM_HOFFSET_RRDY&#45;&gt;ES_FSM_HOFFSET_RRDY</title>
<path fill="none" stroke="#000000" d="M215.8314,-1772.4224C228.7574,-1771.7339 237.5,-1770.2598 237.5,-1768 237.5,-1766.4111 233.1778,-1765.2106 226.1182,-1764.3985"/>
<polygon fill="#000000" stroke="#000000" points="226.0782,-1760.8843 215.8314,-1763.5776 225.5213,-1767.8621 226.0782,-1760.8843"/>
<text text-anchor="start" x="237.5" y="-1765" font-family="Helvetica,sans-Serif" font-size="10.00" fill="#000000">not (up_es_ready == 1&#39;b1) &#160;&#160;</text>
</g>
<!-- ES_FSM_HOFFSET_WRITE -->
<g id="node5" class="node state regular">
<title>ES_FSM_HOFFSET_WRITE</title>
<polygon fill="#ffffff" fill-opacity="0.003922" stroke="transparent" stroke-width="2" points="217.5,-1704 40.5,-1704 40.5,-1668 217.5,-1668 217.5,-1704"/>
<text text-anchor="start" x="51.5" y="-1682.2" font-family="Helvetica,sans-Serif" font-size="12.00" fill="#000000">ES_FSM_HOFFSET_WRITE</text>
<path fill="none" stroke="#000000" stroke-width="2" d="M52.8333,-1669C52.8333,-1669 205.1667,-1669 205.1667,-1669 210.8333,-1669 216.5,-1674.6667 216.5,-1680.3333 216.5,-1680.3333 216.5,-1691.6667 216.5,-1691.6667 216.5,-1697.3333 210.8333,-1703 205.1667,-1703 205.1667,-1703 52.8333,-1703 52.8333,-1703 47.1667,-1703 41.5,-1697.3333 41.5,-1691.6667 41.5,-1691.6667 41.5,-1680.3333 41.5,-1680.3333 41.5,-1674.6667 47.1667,-1669 52.8333,-1669"/>
</g>
<!-- ES_FSM_HOFFSET_RRDY&#45;&gt;ES_FSM_HOFFSET_WRITE -->
<g id="edge4" class="edge transition">
<title>ES_FSM_HOFFSET_RRDY&#45;&gt;ES_FSM_HOFFSET_WRITE</title>
<path fill="none" stroke="#000000" d="M129,-1749.8015C129,-1739.3976 129,-1726.1215 129,-1714.3768"/>
<polygon fill="#000000" stroke="#000000" points="132.5001,-1714.1476 129,-1704.1476 125.5001,-1714.1476 132.5001,-1714.1476"/>
<text text-anchor="start" x="129" y="-1724" font-family="Helvetica,sans-Serif" font-size="10.00" fill="#000000">up_es_ready == 1&#39;b1 &#160;&#160;</text>
</g>
<!-- ES_FSM_HOFFSET_WRDY -->
<g id="node6" class="node state regular">
<title>ES_FSM_HOFFSET_WRDY</title>
<polygon fill="#ffffff" fill-opacity="0.003922" stroke="transparent" stroke-width="2" points="215.5,-1622 40.5,-1622 40.5,-1586 215.5,-1586 215.5,-1622"/>
<text text-anchor="start" x="51.5014" y="-1600.2" font-family="Helvetica,sans-Serif" font-size="12.00" fill="#000000">ES_FSM_HOFFSET_WRDY</text>
<path fill="none" stroke="#000000" stroke-width="2" d="M52.8333,-1587C52.8333,-1587 203.1667,-1587 203.1667,-1587 208.8333,-1587 214.5,-1592.6667 214.5,-1598.3333 214.5,-1598.3333 214.5,-1609.6667 214.5,-1609.6667 214.5,-1615.3333 208.8333,-1621 203.1667,-1621 203.1667,-1621 52.8333,-1621 52.8333,-1621 47.1667,-1621 41.5,-1615.3333 41.5,-1609.6667 41.5,-1609.6667 41.5,-1598.3333 41.5,-1598.3333 41.5,-1592.6667 47.1667,-1587 52.8333,-1587"/>
</g>
<!-- ES_FSM_HOFFSET_WRITE&#45;&gt;ES_FSM_HOFFSET_WRDY -->
<g id="edge6" class="edge transition">
<title>ES_FSM_HOFFSET_WRITE&#45;&gt;ES_FSM_HOFFSET_WRDY</title>
<path fill="none" stroke="#000000" d="M128.7781,-1667.8015C128.6512,-1657.3976 128.4893,-1644.1215 128.3461,-1632.3768"/>
<polygon fill="#000000" stroke="#000000" points="131.8431,-1632.1041 128.2213,-1622.1476 124.8436,-1632.1896 131.8431,-1632.1041"/>
<text text-anchor="middle" x="129.3895" y="-1642" font-family="Helvetica,sans-Serif" font-size="10.00" fill="#000000"> </text>
</g>
<!-- ES_FSM_HOFFSET_WRDY&#45;&gt;ES_FSM_HOFFSET_WRDY -->
<g id="edge8" class="edge transition">
<title>ES_FSM_HOFFSET_WRDY&#45;&gt;ES_FSM_HOFFSET_WRDY</title>
<path fill="none" stroke="#000000" d="M215.6317,-1608.4224C228.6769,-1607.7339 237.5,-1606.2598 237.5,-1604 237.5,-1602.4111 233.138,-1601.2106 226.0133,-1600.3985"/>
<polygon fill="#000000" stroke="#000000" points="225.8765,-1596.8768 215.6317,-1599.5776 225.3247,-1603.8551 225.8765,-1596.8768"/>
<text text-anchor="start" x="237.5" y="-1601" font-family="Helvetica,sans-Serif" font-size="10.00" fill="#000000">not (up_es_ready == 1&#39;b1) &#160;&#160;</text>
</g>
<!-- ES_FSM_VOFFSET_READ -->
<g id="node7" class="node state regular">
<title>ES_FSM_VOFFSET_READ</title>
<polygon fill="#ffffff" fill-opacity="0.003922" stroke="transparent" stroke-width="2" points="214,-1540 42,-1540 42,-1504 214,-1504 214,-1540"/>
<text text-anchor="start" x="52.9934" y="-1518.2" font-family="Helvetica,sans-Serif" font-size="12.00" fill="#000000">ES_FSM_VOFFSET_READ</text>
<path fill="none" stroke="#000000" stroke-width="2" d="M54.3333,-1505C54.3333,-1505 201.6667,-1505 201.6667,-1505 207.3333,-1505 213,-1510.6667 213,-1516.3333 213,-1516.3333 213,-1527.6667 213,-1527.6667 213,-1533.3333 207.3333,-1539 201.6667,-1539 201.6667,-1539 54.3333,-1539 54.3333,-1539 48.6667,-1539 43,-1533.3333 43,-1527.6667 43,-1527.6667 43,-1516.3333 43,-1516.3333 43,-1510.6667 48.6667,-1505 54.3333,-1505"/>
</g>
<!-- ES_FSM_HOFFSET_WRDY&#45;&gt;ES_FSM_VOFFSET_READ -->
<g id="edge7" class="edge transition">
<title>ES_FSM_HOFFSET_WRDY&#45;&gt;ES_FSM_VOFFSET_READ</title>
<path fill="none" stroke="#000000" d="M128,-1585.8015C128,-1575.3976 128,-1562.1215 128,-1550.3768"/>
<polygon fill="#000000" stroke="#000000" points="131.5001,-1550.1476 128,-1540.1476 124.5001,-1550.1476 131.5001,-1550.1476"/>
<text text-anchor="start" x="128" y="-1560" font-family="Helvetica,sans-Serif" font-size="10.00" fill="#000000">up_es_ready == 1&#39;b1 &#160;&#160;</text>
</g>
<!-- ES_FSM_VOFFSET_RRDY -->
<g id="node8" class="node state regular">
<title>ES_FSM_VOFFSET_RRDY</title>
<polygon fill="#ffffff" fill-opacity="0.003922" stroke="transparent" stroke-width="2" points="191,-1458 19,-1458 19,-1422 191,-1422 191,-1458"/>
<text text-anchor="start" x="29.6634" y="-1436.2" font-family="Helvetica,sans-Serif" font-size="12.00" fill="#000000">ES_FSM_VOFFSET_RRDY</text>
<path fill="none" stroke="#000000" stroke-width="2" d="M31.3333,-1423C31.3333,-1423 178.6667,-1423 178.6667,-1423 184.3333,-1423 190,-1428.6667 190,-1434.3333 190,-1434.3333 190,-1445.6667 190,-1445.6667 190,-1451.3333 184.3333,-1457 178.6667,-1457 178.6667,-1457 31.3333,-1457 31.3333,-1457 25.6667,-1457 20,-1451.3333 20,-1445.6667 20,-1445.6667 20,-1434.3333 20,-1434.3333 20,-1428.6667 25.6667,-1423 31.3333,-1423"/>
</g>
<!-- ES_FSM_VOFFSET_READ&#45;&gt;ES_FSM_VOFFSET_RRDY -->
<g id="edge9" class="edge transition">
<title>ES_FSM_VOFFSET_READ&#45;&gt;ES_FSM_VOFFSET_RRDY</title>
<path fill="none" stroke="#000000" d="M122.8956,-1503.8015C119.9476,-1493.2915 116.1775,-1479.8503 112.8586,-1468.0177"/>
<polygon fill="#000000" stroke="#000000" points="116.1609,-1466.8308 110.0902,-1458.1476 109.421,-1468.7213 116.1609,-1466.8308"/>
<text text-anchor="middle" x="119.3895" y="-1478" font-family="Helvetica,sans-Serif" font-size="10.00" fill="#000000"> </text>
</g>
<!-- ES_FSM_VOFFSET_RRDY&#45;&gt;ES_FSM_VOFFSET_RRDY -->
<g id="edge11" class="edge transition">
<title>ES_FSM_VOFFSET_RRDY&#45;&gt;ES_FSM_VOFFSET_RRDY</title>
<path fill="none" stroke="#000000" d="M191.4313,-1444.4224C204.2977,-1443.7339 213,-1442.2598 213,-1440 213,-1438.4111 208.6977,-1437.2106 201.6707,-1436.3985"/>
<polygon fill="#000000" stroke="#000000" points="201.679,-1432.888 191.4313,-1435.5776 201.1196,-1439.8656 201.679,-1432.888"/>
<text text-anchor="start" x="213" y="-1437" font-family="Helvetica,sans-Serif" font-size="10.00" fill="#000000">not (up_es_ready == 1&#39;b1) &#160;&#160;</text>
</g>
<!-- ES_FSM_VOFFSET_WRITE -->
<g id="node9" class="node state regular">
<title>ES_FSM_VOFFSET_WRITE</title>
<polygon fill="#ffffff" fill-opacity="0.003922" stroke="transparent" stroke-width="2" points="193.5,-1376 16.5,-1376 16.5,-1340 193.5,-1340 193.5,-1376"/>
<text text-anchor="start" x="27.83" y="-1354.2" font-family="Helvetica,sans-Serif" font-size="12.00" fill="#000000">ES_FSM_VOFFSET_WRITE</text>
<path fill="none" stroke="#000000" stroke-width="2" d="M28.8333,-1341C28.8333,-1341 181.1667,-1341 181.1667,-1341 186.8333,-1341 192.5,-1346.6667 192.5,-1352.3333 192.5,-1352.3333 192.5,-1363.6667 192.5,-1363.6667 192.5,-1369.3333 186.8333,-1375 181.1667,-1375 181.1667,-1375 28.8333,-1375 28.8333,-1375 23.1667,-1375 17.5,-1369.3333 17.5,-1363.6667 17.5,-1363.6667 17.5,-1352.3333 17.5,-1352.3333 17.5,-1346.6667 23.1667,-1341 28.8333,-1341"/>
</g>
<!-- ES_FSM_VOFFSET_RRDY&#45;&gt;ES_FSM_VOFFSET_WRITE -->
<g id="edge10" class="edge transition">
<title>ES_FSM_VOFFSET_RRDY&#45;&gt;ES_FSM_VOFFSET_WRITE</title>
<path fill="none" stroke="#000000" d="M105,-1421.8015C105,-1411.3976 105,-1398.1215 105,-1386.3768"/>
<polygon fill="#000000" stroke="#000000" points="108.5001,-1386.1476 105,-1376.1476 101.5001,-1386.1476 108.5001,-1386.1476"/>
<text text-anchor="start" x="105" y="-1396" font-family="Helvetica,sans-Serif" font-size="10.00" fill="#000000">up_es_ready == 1&#39;b1 &#160;&#160;</text>
</g>
<!-- ES_FSM_VOFFSET_WRDY -->
<g id="node10" class="node state regular">
<title>ES_FSM_VOFFSET_WRDY</title>
<polygon fill="#ffffff" fill-opacity="0.003922" stroke="transparent" stroke-width="2" points="191.5,-1294 16.5,-1294 16.5,-1258 191.5,-1258 191.5,-1294"/>
<text text-anchor="start" x="27.8314" y="-1272.2" font-family="Helvetica,sans-Serif" font-size="12.00" fill="#000000">ES_FSM_VOFFSET_WRDY</text>
<path fill="none" stroke="#000000" stroke-width="2" d="M28.8333,-1259C28.8333,-1259 179.1667,-1259 179.1667,-1259 184.8333,-1259 190.5,-1264.6667 190.5,-1270.3333 190.5,-1270.3333 190.5,-1281.6667 190.5,-1281.6667 190.5,-1287.3333 184.8333,-1293 179.1667,-1293 179.1667,-1293 28.8333,-1293 28.8333,-1293 23.1667,-1293 17.5,-1287.3333 17.5,-1281.6667 17.5,-1281.6667 17.5,-1270.3333 17.5,-1270.3333 17.5,-1264.6667 23.1667,-1259 28.8333,-1259"/>
</g>
<!-- ES_FSM_VOFFSET_WRITE&#45;&gt;ES_FSM_VOFFSET_WRDY -->
<g id="edge12" class="edge transition">
<title>ES_FSM_VOFFSET_WRITE&#45;&gt;ES_FSM_VOFFSET_WRDY</title>
<path fill="none" stroke="#000000" d="M104.7781,-1339.8015C104.6512,-1329.3976 104.4893,-1316.1215 104.3461,-1304.3768"/>
<polygon fill="#000000" stroke="#000000" points="107.8431,-1304.1041 104.2213,-1294.1476 100.8436,-1304.1896 107.8431,-1304.1041"/>
<text text-anchor="middle" x="105.3895" y="-1314" font-family="Helvetica,sans-Serif" font-size="10.00" fill="#000000"> </text>
</g>
<!-- ES_FSM_VOFFSET_WRDY&#45;&gt;ES_FSM_VOFFSET_WRDY -->
<g id="edge14" class="edge transition">
<title>ES_FSM_VOFFSET_WRDY&#45;&gt;ES_FSM_VOFFSET_WRDY</title>
<path fill="none" stroke="#000000" d="M191.6317,-1280.4224C204.6769,-1279.7339 213.5,-1278.2598 213.5,-1276 213.5,-1274.4111 209.138,-1273.2106 202.0133,-1272.3985"/>
<polygon fill="#000000" stroke="#000000" points="201.8765,-1268.8768 191.6317,-1271.5776 201.3247,-1275.8551 201.8765,-1268.8768"/>
<text text-anchor="start" x="213.5" y="-1273" font-family="Helvetica,sans-Serif" font-size="10.00" fill="#000000">not (up_es_ready == 1&#39;b1) &#160;&#160;</text>
</g>
<!-- ES_FSM_CTRL_READ -->
<g id="node11" class="node state regular">
<title>ES_FSM_CTRL_READ</title>
<polygon fill="#ffffff" fill-opacity="0.003922" stroke="transparent" stroke-width="2" points="178,-1212 30,-1212 30,-1176 178,-1176 178,-1212"/>
<text text-anchor="start" x="40.9976" y="-1190.2" font-family="Helvetica,sans-Serif" font-size="12.00" fill="#000000">ES_FSM_CTRL_READ</text>
<path fill="none" stroke="#000000" stroke-width="2" d="M42.3333,-1177C42.3333,-1177 165.6667,-1177 165.6667,-1177 171.3333,-1177 177,-1182.6667 177,-1188.3333 177,-1188.3333 177,-1199.6667 177,-1199.6667 177,-1205.3333 171.3333,-1211 165.6667,-1211 165.6667,-1211 42.3333,-1211 42.3333,-1211 36.6667,-1211 31,-1205.3333 31,-1199.6667 31,-1199.6667 31,-1188.3333 31,-1188.3333 31,-1182.6667 36.6667,-1177 42.3333,-1177"/>
</g>
<!-- ES_FSM_VOFFSET_WRDY&#45;&gt;ES_FSM_CTRL_READ -->
<g id="edge13" class="edge transition">
<title>ES_FSM_VOFFSET_WRDY&#45;&gt;ES_FSM_CTRL_READ</title>
<path fill="none" stroke="#000000" d="M104,-1257.8015C104,-1247.3976 104,-1234.1215 104,-1222.3768"/>
<polygon fill="#000000" stroke="#000000" points="107.5001,-1222.1476 104,-1212.1476 100.5001,-1222.1476 107.5001,-1222.1476"/>
<text text-anchor="start" x="104" y="-1232" font-family="Helvetica,sans-Serif" font-size="10.00" fill="#000000">up_es_ready == 1&#39;b1 &#160;&#160;</text>
</g>
<!-- ES_FSM_CTRL_RRDY -->
<g id="node12" class="node state regular">
<title>ES_FSM_CTRL_RRDY</title>
<polygon fill="#ffffff" fill-opacity="0.003922" stroke="transparent" stroke-width="2" points="177,-1130 29,-1130 29,-1094 177,-1094 177,-1130"/>
<text text-anchor="start" x="39.6676" y="-1108.2" font-family="Helvetica,sans-Serif" font-size="12.00" fill="#000000">ES_FSM_CTRL_RRDY</text>
<path fill="none" stroke="#000000" stroke-width="2" d="M41.3333,-1095C41.3333,-1095 164.6667,-1095 164.6667,-1095 170.3333,-1095 176,-1100.6667 176,-1106.3333 176,-1106.3333 176,-1117.6667 176,-1117.6667 176,-1123.3333 170.3333,-1129 164.6667,-1129 164.6667,-1129 41.3333,-1129 41.3333,-1129 35.6667,-1129 30,-1123.3333 30,-1117.6667 30,-1117.6667 30,-1106.3333 30,-1106.3333 30,-1100.6667 35.6667,-1095 41.3333,-1095"/>
</g>
<!-- ES_FSM_CTRL_READ&#45;&gt;ES_FSM_CTRL_RRDY -->
<g id="edge15" class="edge transition">
<title>ES_FSM_CTRL_READ&#45;&gt;ES_FSM_CTRL_RRDY</title>
<path fill="none" stroke="#000000" d="M103.7781,-1175.8015C103.6512,-1165.3976 103.4893,-1152.1215 103.3461,-1140.3768"/>
<polygon fill="#000000" stroke="#000000" points="106.8431,-1140.1041 103.2213,-1130.1476 99.8436,-1140.1896 106.8431,-1140.1041"/>
<text text-anchor="middle" x="104.3895" y="-1150" font-family="Helvetica,sans-Serif" font-size="10.00" fill="#000000"> </text>
</g>
<!-- ES_FSM_CTRL_RRDY&#45;&gt;ES_FSM_CTRL_RRDY -->
<g id="edge17" class="edge transition">
<title>ES_FSM_CTRL_RRDY&#45;&gt;ES_FSM_CTRL_RRDY</title>
<path fill="none" stroke="#000000" d="M177.0625,-1116.5703C190,-1115.9609 199,-1114.4375 199,-1112 199,-1110.2861 194.5505,-1109.0242 187.4114,-1108.2141"/>
<polygon fill="#000000" stroke="#000000" points="187.2985,-1104.6956 177.0625,-1107.4297 186.7693,-1111.6756 187.2985,-1104.6956"/>
<text text-anchor="start" x="199" y="-1109" font-family="Helvetica,sans-Serif" font-size="10.00" fill="#000000">not (up_es_ready == 1&#39;b1) &#160;&#160;</text>
</g>
<!-- ES_FSM_START_WRITE -->
<g id="node13" class="node state regular">
<title>ES_FSM_START_WRITE</title>
<polygon fill="#ffffff" fill-opacity="0.003922" stroke="transparent" stroke-width="2" points="182.5,-1048 21.5,-1048 21.5,-1012 182.5,-1012 182.5,-1048"/>
<text text-anchor="start" x="32.8328" y="-1026.2" font-family="Helvetica,sans-Serif" font-size="12.00" fill="#000000">ES_FSM_START_WRITE</text>
<path fill="none" stroke="#000000" stroke-width="2" d="M33.8333,-1013C33.8333,-1013 170.1667,-1013 170.1667,-1013 175.8333,-1013 181.5,-1018.6667 181.5,-1024.3333 181.5,-1024.3333 181.5,-1035.6667 181.5,-1035.6667 181.5,-1041.3333 175.8333,-1047 170.1667,-1047 170.1667,-1047 33.8333,-1047 33.8333,-1047 28.1667,-1047 22.5,-1041.3333 22.5,-1035.6667 22.5,-1035.6667 22.5,-1024.3333 22.5,-1024.3333 22.5,-1018.6667 28.1667,-1013 33.8333,-1013"/>
</g>
<!-- ES_FSM_CTRL_RRDY&#45;&gt;ES_FSM_START_WRITE -->
<g id="edge16" class="edge transition">
<title>ES_FSM_CTRL_RRDY&#45;&gt;ES_FSM_START_WRITE</title>
<path fill="none" stroke="#000000" d="M102.7781,-1093.8015C102.6512,-1083.3976 102.4893,-1070.1215 102.3461,-1058.3768"/>
<polygon fill="#000000" stroke="#000000" points="105.8431,-1058.1041 102.2213,-1048.1476 98.8436,-1058.1896 105.8431,-1058.1041"/>
<text text-anchor="start" x="102" y="-1068" font-family="Helvetica,sans-Serif" font-size="10.00" fill="#000000">up_es_ready == 1&#39;b1 &#160;&#160;</text>
</g>
<!-- ES_FSM_START_WRDY -->
<g id="node14" class="node state regular">
<title>ES_FSM_START_WRDY</title>
<polygon fill="#ffffff" fill-opacity="0.003922" stroke="transparent" stroke-width="2" points="180.5,-966 21.5,-966 21.5,-930 180.5,-930 180.5,-966"/>
<text text-anchor="start" x="32.8342" y="-944.2" font-family="Helvetica,sans-Serif" font-size="12.00" fill="#000000">ES_FSM_START_WRDY</text>
<path fill="none" stroke="#000000" stroke-width="2" d="M33.8333,-931C33.8333,-931 168.1667,-931 168.1667,-931 173.8333,-931 179.5,-936.6667 179.5,-942.3333 179.5,-942.3333 179.5,-953.6667 179.5,-953.6667 179.5,-959.3333 173.8333,-965 168.1667,-965 168.1667,-965 33.8333,-965 33.8333,-965 28.1667,-965 22.5,-959.3333 22.5,-953.6667 22.5,-953.6667 22.5,-942.3333 22.5,-942.3333 22.5,-936.6667 28.1667,-931 33.8333,-931"/>
</g>
<!-- ES_FSM_START_WRITE&#45;&gt;ES_FSM_START_WRDY -->
<g id="edge18" class="edge transition">
<title>ES_FSM_START_WRITE&#45;&gt;ES_FSM_START_WRDY</title>
<path fill="none" stroke="#000000" d="M101.7781,-1011.8015C101.6512,-1001.3976 101.4893,-988.1215 101.3461,-976.3768"/>
<polygon fill="#000000" stroke="#000000" points="104.8431,-976.1041 101.2213,-966.1476 97.8436,-976.1896 104.8431,-976.1041"/>
<text text-anchor="middle" x="102.3895" y="-986" font-family="Helvetica,sans-Serif" font-size="10.00" fill="#000000"> </text>
</g>
<!-- ES_FSM_START_WRDY&#45;&gt;ES_FSM_START_WRDY -->
<g id="edge20" class="edge transition">
<title>ES_FSM_START_WRDY&#45;&gt;ES_FSM_START_WRDY</title>
<path fill="none" stroke="#000000" d="M180.5757,-952.5105C193.5698,-951.8648 202.5,-950.3613 202.5,-948 202.5,-946.3397 198.085,-945.1035 190.9467,-944.2914"/>
<polygon fill="#000000" stroke="#000000" points="190.8158,-940.7709 180.5757,-943.4895 190.2761,-947.75 190.8158,-940.7709"/>
<text text-anchor="start" x="202.5" y="-945" font-family="Helvetica,sans-Serif" font-size="10.00" fill="#000000">not (up_es_ready == 1&#39;b1) &#160;&#160;</text>
</g>
<!-- ES_FSM_STATUS_READ -->
<g id="node15" class="node state regular">
<title>ES_FSM_STATUS_READ</title>
<polygon fill="#ffffff" fill-opacity="0.003922" stroke="transparent" stroke-width="2" points="183,-884 19,-884 19,-848 183,-848 183,-884"/>
<text text-anchor="start" x="29.9948" y="-862.2" font-family="Helvetica,sans-Serif" font-size="12.00" fill="#000000">ES_FSM_STATUS_READ</text>
<path fill="none" stroke="#000000" stroke-width="2" d="M31.3333,-849C31.3333,-849 170.6667,-849 170.6667,-849 176.3333,-849 182,-854.6667 182,-860.3333 182,-860.3333 182,-871.6667 182,-871.6667 182,-877.3333 176.3333,-883 170.6667,-883 170.6667,-883 31.3333,-883 31.3333,-883 25.6667,-883 20,-877.3333 20,-871.6667 20,-871.6667 20,-860.3333 20,-860.3333 20,-854.6667 25.6667,-849 31.3333,-849"/>
</g>
<!-- ES_FSM_START_WRDY&#45;&gt;ES_FSM_STATUS_READ -->
<g id="edge19" class="edge transition">
<title>ES_FSM_START_WRDY&#45;&gt;ES_FSM_STATUS_READ</title>
<path fill="none" stroke="#000000" d="M101,-929.8015C101,-919.3976 101,-906.1215 101,-894.3768"/>
<polygon fill="#000000" stroke="#000000" points="104.5001,-894.1476 101,-884.1476 97.5001,-894.1476 104.5001,-894.1476"/>
<text text-anchor="start" x="101" y="-904" font-family="Helvetica,sans-Serif" font-size="10.00" fill="#000000">up_es_ready == 1&#39;b1 &#160;&#160;</text>
</g>
<!-- ES_FSM_STATUS_RRDY -->
<g id="node16" class="node state regular">
<title>ES_FSM_STATUS_RRDY</title>
<polygon fill="#ffffff" fill-opacity="0.003922" stroke="transparent" stroke-width="2" points="180,-790 16,-790 16,-754 180,-754 180,-790"/>
<text text-anchor="start" x="26.6648" y="-768.2" font-family="Helvetica,sans-Serif" font-size="12.00" fill="#000000">ES_FSM_STATUS_RRDY</text>
<path fill="none" stroke="#000000" stroke-width="2" d="M28.3333,-755C28.3333,-755 167.6667,-755 167.6667,-755 173.3333,-755 179,-760.6667 179,-766.3333 179,-766.3333 179,-777.6667 179,-777.6667 179,-783.3333 173.3333,-789 167.6667,-789 167.6667,-789 28.3333,-789 28.3333,-789 22.6667,-789 17,-783.3333 17,-777.6667 17,-777.6667 17,-766.3333 17,-766.3333 17,-760.6667 22.6667,-755 28.3333,-755"/>
</g>
<!-- ES_FSM_STATUS_READ&#45;&gt;ES_FSM_STATUS_RRDY -->
<g id="edge21" class="edge transition">
<title>ES_FSM_STATUS_READ&#45;&gt;ES_FSM_STATUS_RRDY</title>
<path fill="none" stroke="#000000" d="M96.2006,-847.9605C94.9753,-842.5478 93.8324,-836.5687 93.221,-831 92.1174,-820.9476 92.5683,-809.9054 93.5419,-800.1198"/>
<polygon fill="#000000" stroke="#000000" points="97.0275,-800.449 94.7545,-790.1009 90.0782,-799.6079 97.0275,-800.449"/>
<text text-anchor="middle" x="94.3895" y="-816" font-family="Helvetica,sans-Serif" font-size="10.00" fill="#000000"> </text>
</g>
<!-- ES_FSM_STATUS_RRDY&#45;&gt;ES_FSM_STATUS_READ -->
<g id="edge24" class="edge transition">
<title>ES_FSM_STATUS_RRDY&#45;&gt;ES_FSM_STATUS_READ</title>
<path fill="none" stroke="#000000" d="M98.7203,-790.1826C98.8181,-792.8056 98.9142,-795.4718 99,-798 99.443,-811.0553 99.8766,-825.5224 100.2261,-837.7447"/>
<polygon fill="#000000" stroke="#000000" points="96.7295,-837.9181 100.5098,-847.8156 103.7267,-837.721 96.7295,-837.9181"/>
<text text-anchor="start" x="100" y="-822" font-family="Helvetica,sans-Serif" font-size="10.00" fill="#000000">not (up_es_ready == 1&#39;b0) &#160;&#160;</text>
<text text-anchor="start" x="100" y="-810" font-family="Helvetica,sans-Serif" font-size="10.00" fill="#000000">not (up_es_rdata[3:0] == 4&#39;b0101) &#160;&#160;</text>
</g>
<!-- ES_FSM_STATUS_RRDY&#45;&gt;ES_FSM_STATUS_RRDY -->
<g id="edge22" class="edge transition">
<title>ES_FSM_STATUS_RRDY&#45;&gt;ES_FSM_STATUS_RRDY</title>
<path fill="none" stroke="#000000" d="M180.3888,-776.4677C193.2392,-775.7998 202,-774.3105 202,-772 202,-770.3754 197.6688,-769.1568 190.6302,-768.3443"/>
<polygon fill="#000000" stroke="#000000" points="190.6342,-764.8338 180.3888,-767.5323 190.0809,-771.8119 190.6342,-764.8338"/>
<text text-anchor="start" x="202" y="-769" font-family="Helvetica,sans-Serif" font-size="10.00" fill="#000000">up_es_ready == 1&#39;b0 &#160;&#160;</text>
</g>
<!-- ES_FSM_STOP_WRITE -->
<g id="node17" class="node state regular">
<title>ES_FSM_STOP_WRITE</title>
<polygon fill="#ffffff" fill-opacity="0.003922" stroke="transparent" stroke-width="2" points="178,-708 24,-708 24,-672 178,-672 178,-708"/>
<text text-anchor="start" x="34.6622" y="-686.2" font-family="Helvetica,sans-Serif" font-size="12.00" fill="#000000">ES_FSM_STOP_WRITE</text>
<path fill="none" stroke="#000000" stroke-width="2" d="M36.3333,-673C36.3333,-673 165.6667,-673 165.6667,-673 171.3333,-673 177,-678.6667 177,-684.3333 177,-684.3333 177,-695.6667 177,-695.6667 177,-701.3333 171.3333,-707 165.6667,-707 165.6667,-707 36.3333,-707 36.3333,-707 30.6667,-707 25,-701.3333 25,-695.6667 25,-695.6667 25,-684.3333 25,-684.3333 25,-678.6667 30.6667,-673 36.3333,-673"/>
</g>
<!-- ES_FSM_STATUS_RRDY&#45;&gt;ES_FSM_STOP_WRITE -->
<g id="edge23" class="edge transition">
<title>ES_FSM_STATUS_RRDY&#45;&gt;ES_FSM_STOP_WRITE</title>
<path fill="none" stroke="#000000" d="M98.6658,-753.8015C99.0464,-743.3976 99.5321,-730.1215 99.9618,-718.3768"/>
<polygon fill="#000000" stroke="#000000" points="103.468,-718.2689 100.3361,-708.1476 96.4727,-718.0129 103.468,-718.2689"/>
<text text-anchor="start" x="99" y="-728" font-family="Helvetica,sans-Serif" font-size="10.00" fill="#000000">up_es_rdata[3:0] == 4&#39;b0101 &#160;&#160;</text>
</g>
<!-- ES_FSM_STOP_WRDY -->
<g id="node18" class="node state regular">
<title>ES_FSM_STOP_WRDY</title>
<polygon fill="#ffffff" fill-opacity="0.003922" stroke="transparent" stroke-width="2" points="178,-626 26,-626 26,-590 178,-590 178,-626"/>
<text text-anchor="start" x="36.6636" y="-604.2" font-family="Helvetica,sans-Serif" font-size="12.00" fill="#000000">ES_FSM_STOP_WRDY</text>
<path fill="none" stroke="#000000" stroke-width="2" d="M38.3333,-591C38.3333,-591 165.6667,-591 165.6667,-591 171.3333,-591 177,-596.6667 177,-602.3333 177,-602.3333 177,-613.6667 177,-613.6667 177,-619.3333 171.3333,-625 165.6667,-625 165.6667,-625 38.3333,-625 38.3333,-625 32.6667,-625 27,-619.3333 27,-613.6667 27,-613.6667 27,-602.3333 27,-602.3333 27,-596.6667 32.6667,-591 38.3333,-591"/>
</g>
<!-- ES_FSM_STOP_WRITE&#45;&gt;ES_FSM_STOP_WRDY -->
<g id="edge25" class="edge transition">
<title>ES_FSM_STOP_WRITE&#45;&gt;ES_FSM_STOP_WRDY</title>
<path fill="none" stroke="#000000" d="M101.2219,-671.8015C101.3488,-661.3976 101.5107,-648.1215 101.6539,-636.3768"/>
<polygon fill="#000000" stroke="#000000" points="105.1564,-636.1896 101.7787,-626.1476 98.1569,-636.1041 105.1564,-636.1896"/>
<text text-anchor="middle" x="102.3895" y="-646" font-family="Helvetica,sans-Serif" font-size="10.00" fill="#000000"> </text>
</g>
<!-- ES_FSM_STOP_WRDY&#45;&gt;ES_FSM_STOP_WRDY -->
<g id="edge27" class="edge transition">
<title>ES_FSM_STOP_WRDY&#45;&gt;ES_FSM_STOP_WRDY</title>
<path fill="none" stroke="#000000" d="M178.0169,-612.551C191.0029,-611.9291 200,-610.4121 200,-608 200,-606.304 195.552,-605.0505 188.3968,-604.2396"/>
<polygon fill="#000000" stroke="#000000" points="188.2538,-600.7186 178.0169,-603.449 187.7222,-607.6984 188.2538,-600.7186"/>
<text text-anchor="start" x="200" y="-605" font-family="Helvetica,sans-Serif" font-size="10.00" fill="#000000">not (up_es_ready == 1&#39;b1) &#160;&#160;</text>
</g>
<!-- ES_FSM_SCNT_READ -->
<g id="node19" class="node state regular">
<title>ES_FSM_SCNT_READ</title>
<polygon fill="#ffffff" fill-opacity="0.003922" stroke="transparent" stroke-width="2" points="177.5,-544 28.5,-544 28.5,-508 177.5,-508 177.5,-544"/>
<text text-anchor="start" x="39.8316" y="-522.2" font-family="Helvetica,sans-Serif" font-size="12.00" fill="#000000">ES_FSM_SCNT_READ</text>
<path fill="none" stroke="#000000" stroke-width="2" d="M40.8333,-509C40.8333,-509 165.1667,-509 165.1667,-509 170.8333,-509 176.5,-514.6667 176.5,-520.3333 176.5,-520.3333 176.5,-531.6667 176.5,-531.6667 176.5,-537.3333 170.8333,-543 165.1667,-543 165.1667,-543 40.8333,-543 40.8333,-543 35.1667,-543 29.5,-537.3333 29.5,-531.6667 29.5,-531.6667 29.5,-520.3333 29.5,-520.3333 29.5,-514.6667 35.1667,-509 40.8333,-509"/>
</g>
<!-- ES_FSM_STOP_WRDY&#45;&gt;ES_FSM_SCNT_READ -->
<g id="edge26" class="edge transition">
<title>ES_FSM_STOP_WRDY&#45;&gt;ES_FSM_SCNT_READ</title>
<path fill="none" stroke="#000000" d="M102.2219,-589.8015C102.3488,-579.3976 102.5107,-566.1215 102.6539,-554.3768"/>
<polygon fill="#000000" stroke="#000000" points="106.1564,-554.1896 102.7787,-544.1476 99.1569,-554.1041 106.1564,-554.1896"/>
<text text-anchor="start" x="102" y="-564" font-family="Helvetica,sans-Serif" font-size="10.00" fill="#000000">up_es_ready == 1&#39;b1 &#160;&#160;</text>
</g>
<!-- ES_FSM_SCNT_RRDY -->
<g id="node20" class="node state regular">
<title>ES_FSM_SCNT_RRDY</title>
<polygon fill="#ffffff" fill-opacity="0.003922" stroke="transparent" stroke-width="2" points="177.5,-462 28.5,-462 28.5,-426 177.5,-426 177.5,-462"/>
<text text-anchor="start" x="39.5016" y="-440.2" font-family="Helvetica,sans-Serif" font-size="12.00" fill="#000000">ES_FSM_SCNT_RRDY</text>
<path fill="none" stroke="#000000" stroke-width="2" d="M40.8333,-427C40.8333,-427 165.1667,-427 165.1667,-427 170.8333,-427 176.5,-432.6667 176.5,-438.3333 176.5,-438.3333 176.5,-449.6667 176.5,-449.6667 176.5,-455.3333 170.8333,-461 165.1667,-461 165.1667,-461 40.8333,-461 40.8333,-461 35.1667,-461 29.5,-455.3333 29.5,-449.6667 29.5,-449.6667 29.5,-438.3333 29.5,-438.3333 29.5,-432.6667 35.1667,-427 40.8333,-427"/>
</g>
<!-- ES_FSM_SCNT_READ&#45;&gt;ES_FSM_SCNT_RRDY -->
<g id="edge28" class="edge transition">
<title>ES_FSM_SCNT_READ&#45;&gt;ES_FSM_SCNT_RRDY</title>
<path fill="none" stroke="#000000" d="M103,-507.8015C103,-497.3976 103,-484.1215 103,-472.3768"/>
<polygon fill="#000000" stroke="#000000" points="106.5001,-472.1476 103,-462.1476 99.5001,-472.1476 106.5001,-472.1476"/>
<text text-anchor="middle" x="104.3895" y="-482" font-family="Helvetica,sans-Serif" font-size="10.00" fill="#000000"> </text>
</g>
<!-- ES_FSM_SCNT_RRDY&#45;&gt;ES_FSM_SCNT_RRDY -->
<g id="edge30" class="edge transition">
<title>ES_FSM_SCNT_RRDY&#45;&gt;ES_FSM_SCNT_RRDY</title>
<path fill="none" stroke="#000000" d="M177.8534,-448.551C190.6406,-447.9291 199.5,-446.4121 199.5,-444 199.5,-442.304 195.1201,-441.0505 188.0744,-440.2396"/>
<polygon fill="#000000" stroke="#000000" points="188.0935,-436.7307 177.8534,-439.449 187.5536,-443.7098 188.0935,-436.7307"/>
<text text-anchor="start" x="199.5" y="-441" font-family="Helvetica,sans-Serif" font-size="10.00" fill="#000000">not (up_es_ready == 1&#39;b1) &#160;&#160;</text>
</g>
<!-- ES_FSM_ECNT_READ -->
<g id="node21" class="node state regular">
<title>ES_FSM_ECNT_READ</title>
<polygon fill="#ffffff" fill-opacity="0.003922" stroke="transparent" stroke-width="2" points="177.5,-380 28.5,-380 28.5,-344 177.5,-344 177.5,-380"/>
<text text-anchor="start" x="39.8316" y="-358.2" font-family="Helvetica,sans-Serif" font-size="12.00" fill="#000000">ES_FSM_ECNT_READ</text>
<path fill="none" stroke="#000000" stroke-width="2" d="M40.8333,-345C40.8333,-345 165.1667,-345 165.1667,-345 170.8333,-345 176.5,-350.6667 176.5,-356.3333 176.5,-356.3333 176.5,-367.6667 176.5,-367.6667 176.5,-373.3333 170.8333,-379 165.1667,-379 165.1667,-379 40.8333,-379 40.8333,-379 35.1667,-379 29.5,-373.3333 29.5,-367.6667 29.5,-367.6667 29.5,-356.3333 29.5,-356.3333 29.5,-350.6667 35.1667,-345 40.8333,-345"/>
</g>
<!-- ES_FSM_SCNT_RRDY&#45;&gt;ES_FSM_ECNT_READ -->
<g id="edge29" class="edge transition">
<title>ES_FSM_SCNT_RRDY&#45;&gt;ES_FSM_ECNT_READ</title>
<path fill="none" stroke="#000000" d="M103,-425.8015C103,-415.3976 103,-402.1215 103,-390.3768"/>
<polygon fill="#000000" stroke="#000000" points="106.5001,-390.1476 103,-380.1476 99.5001,-390.1476 106.5001,-390.1476"/>
<text text-anchor="start" x="103" y="-400" font-family="Helvetica,sans-Serif" font-size="10.00" fill="#000000">up_es_ready == 1&#39;b1 &#160;&#160;</text>
</g>
<!-- ES_FSM_ECNT_RRDY -->
<g id="node22" class="node state regular">
<title>ES_FSM_ECNT_RRDY</title>
<polygon fill="#ffffff" fill-opacity="0.003922" stroke="transparent" stroke-width="2" points="177.5,-298 28.5,-298 28.5,-262 177.5,-262 177.5,-298"/>
<text text-anchor="start" x="39.5016" y="-276.2" font-family="Helvetica,sans-Serif" font-size="12.00" fill="#000000">ES_FSM_ECNT_RRDY</text>
<path fill="none" stroke="#000000" stroke-width="2" d="M40.8333,-263C40.8333,-263 165.1667,-263 165.1667,-263 170.8333,-263 176.5,-268.6667 176.5,-274.3333 176.5,-274.3333 176.5,-285.6667 176.5,-285.6667 176.5,-291.3333 170.8333,-297 165.1667,-297 165.1667,-297 40.8333,-297 40.8333,-297 35.1667,-297 29.5,-291.3333 29.5,-285.6667 29.5,-285.6667 29.5,-274.3333 29.5,-274.3333 29.5,-268.6667 35.1667,-263 40.8333,-263"/>
</g>
<!-- ES_FSM_ECNT_READ&#45;&gt;ES_FSM_ECNT_RRDY -->
<g id="edge31" class="edge transition">
<title>ES_FSM_ECNT_READ&#45;&gt;ES_FSM_ECNT_RRDY</title>
<path fill="none" stroke="#000000" d="M103,-343.8015C103,-333.3976 103,-320.1215 103,-308.3768"/>
<polygon fill="#000000" stroke="#000000" points="106.5001,-308.1476 103,-298.1476 99.5001,-308.1476 106.5001,-308.1476"/>
<text text-anchor="middle" x="104.3895" y="-318" font-family="Helvetica,sans-Serif" font-size="10.00" fill="#000000"> </text>
</g>
<!-- ES_FSM_ECNT_RRDY&#45;&gt;ES_FSM_ECNT_RRDY -->
<g id="edge33" class="edge transition">
<title>ES_FSM_ECNT_RRDY&#45;&gt;ES_FSM_ECNT_RRDY</title>
<path fill="none" stroke="#000000" d="M177.8534,-284.551C190.6406,-283.9291 199.5,-282.4121 199.5,-280 199.5,-278.304 195.1201,-277.0505 188.0744,-276.2396"/>
<polygon fill="#000000" stroke="#000000" points="188.0935,-272.7307 177.8534,-275.449 187.5536,-279.7098 188.0935,-272.7307"/>
<text text-anchor="start" x="199.5" y="-277" font-family="Helvetica,sans-Serif" font-size="10.00" fill="#000000">not (up_es_ready == 1&#39;b1) &#160;&#160;</text>
</g>
<!-- ES_FSM_AXI_WRITE -->
<g id="node23" class="node state regular">
<title>ES_FSM_AXI_WRITE</title>
<polygon fill="#ffffff" fill-opacity="0.003922" stroke="transparent" stroke-width="2" points="173.5,-216 32.5,-216 32.5,-180 173.5,-180 173.5,-216"/>
<text text-anchor="start" x="43.8276" y="-194.2" font-family="Helvetica,sans-Serif" font-size="12.00" fill="#000000">ES_FSM_AXI_WRITE</text>
<path fill="none" stroke="#000000" stroke-width="2" d="M44.8333,-181C44.8333,-181 161.1667,-181 161.1667,-181 166.8333,-181 172.5,-186.6667 172.5,-192.3333 172.5,-192.3333 172.5,-203.6667 172.5,-203.6667 172.5,-209.3333 166.8333,-215 161.1667,-215 161.1667,-215 44.8333,-215 44.8333,-215 39.1667,-215 33.5,-209.3333 33.5,-203.6667 33.5,-203.6667 33.5,-192.3333 33.5,-192.3333 33.5,-186.6667 39.1667,-181 44.8333,-181"/>
</g>
<!-- ES_FSM_ECNT_RRDY&#45;&gt;ES_FSM_AXI_WRITE -->
<g id="edge32" class="edge transition">
<title>ES_FSM_ECNT_RRDY&#45;&gt;ES_FSM_AXI_WRITE</title>
<path fill="none" stroke="#000000" d="M103,-261.8015C103,-251.3976 103,-238.1215 103,-226.3768"/>
<polygon fill="#000000" stroke="#000000" points="106.5001,-226.1476 103,-216.1476 99.5001,-226.1476 106.5001,-226.1476"/>
<text text-anchor="start" x="103" y="-236" font-family="Helvetica,sans-Serif" font-size="10.00" fill="#000000">up_es_ready == 1&#39;b1 &#160;&#160;</text>
</g>
<!-- ES_FSM_AXI_READY -->
<g id="node24" class="node state regular">
<title>ES_FSM_AXI_READY</title>
<polygon fill="#ffffff" fill-opacity="0.003922" stroke="transparent" stroke-width="2" points="175,-134 31,-134 31,-98 175,-98 175,-134"/>
<text text-anchor="start" x="41.9896" y="-112.2" font-family="Helvetica,sans-Serif" font-size="12.00" fill="#000000">ES_FSM_AXI_READY</text>
<path fill="none" stroke="#000000" stroke-width="2" d="M43.3333,-99C43.3333,-99 162.6667,-99 162.6667,-99 168.3333,-99 174,-104.6667 174,-110.3333 174,-110.3333 174,-121.6667 174,-121.6667 174,-127.3333 168.3333,-133 162.6667,-133 162.6667,-133 43.3333,-133 43.3333,-133 37.6667,-133 32,-127.3333 32,-121.6667 32,-121.6667 32,-110.3333 32,-110.3333 32,-104.6667 37.6667,-99 43.3333,-99"/>
</g>
<!-- ES_FSM_AXI_WRITE&#45;&gt;ES_FSM_AXI_READY -->
<g id="edge34" class="edge transition">
<title>ES_FSM_AXI_WRITE&#45;&gt;ES_FSM_AXI_READY</title>
<path fill="none" stroke="#000000" d="M103,-179.8015C103,-169.3976 103,-156.1215 103,-144.3768"/>
<polygon fill="#000000" stroke="#000000" points="106.5001,-144.1476 103,-134.1476 99.5001,-144.1476 106.5001,-144.1476"/>
<text text-anchor="middle" x="104.3895" y="-154" font-family="Helvetica,sans-Serif" font-size="10.00" fill="#000000"> </text>
</g>
<!-- ES_FSM_AXI_READY&#45;&gt;ES_FSM_AXI_READY -->
<g id="edge36" class="edge transition">
<title>ES_FSM_AXI_READY&#45;&gt;ES_FSM_AXI_READY</title>
<path fill="none" stroke="#000000" d="M175.1224,-120.5891C188.003,-119.9926 197,-118.4629 197,-116 197,-114.2683 192.552,-112.9979 185.4335,-112.1889"/>
<polygon fill="#000000" stroke="#000000" points="185.3574,-108.6733 175.1224,-111.4109 184.8307,-115.6535 185.3574,-108.6733"/>
<text text-anchor="start" x="197" y="-113" font-family="Helvetica,sans-Serif" font-size="10.00" fill="#000000">not (up_axi_bvalid == 1&#39;b1) &#160;&#160;</text>
</g>
<!-- ES_FSM_UPDATE -->
<g id="node25" class="node state regular">
<title>ES_FSM_UPDATE</title>
<polygon fill="#ffffff" fill-opacity="0.003922" stroke="transparent" stroke-width="2" points="508.5,-52 383.5,-52 383.5,-16 508.5,-16 508.5,-52"/>
<text text-anchor="start" x="394.8298" y="-30.2" font-family="Helvetica,sans-Serif" font-size="12.00" fill="#000000">ES_FSM_UPDATE</text>
<path fill="none" stroke="#000000" stroke-width="2" d="M395.8333,-17C395.8333,-17 496.1667,-17 496.1667,-17 501.8333,-17 507.5,-22.6667 507.5,-28.3333 507.5,-28.3333 507.5,-39.6667 507.5,-39.6667 507.5,-45.3333 501.8333,-51 496.1667,-51 496.1667,-51 395.8333,-51 395.8333,-51 390.1667,-51 384.5,-45.3333 384.5,-39.6667 384.5,-39.6667 384.5,-28.3333 384.5,-28.3333 384.5,-22.6667 390.1667,-17 395.8333,-17"/>
</g>
<!-- ES_FSM_AXI_READY&#45;&gt;ES_FSM_UPDATE -->
<g id="edge35" class="edge transition">
<title>ES_FSM_AXI_READY&#45;&gt;ES_FSM_UPDATE</title>
<path fill="none" stroke="#000000" d="M146.3835,-97.9512C171.2132,-88.2046 203.1552,-76.6389 232.412,-69 278.5949,-56.9417 331.534,-48.2326 373.1537,-42.5179"/>
<polygon fill="#000000" stroke="#000000" points="373.7637,-45.9674 383.2076,-41.1651 372.8302,-39.0299 373.7637,-45.9674"/>
<text text-anchor="start" x="232" y="-72" font-family="Helvetica,sans-Serif" font-size="10.00" fill="#000000">up_axi_bvalid == 1&#39;b1 &#160;&#160;</text>
</g>
<!-- ES_FSM_UPDATE&#45;&gt;ES_FSM_IDLE -->
<g id="edge37" class="edge transition">
<title>ES_FSM_UPDATE&#45;&gt;ES_FSM_IDLE</title>
<path fill="none" stroke="#000000" d="M508.9377,-38.1385C555.1865,-42.9722 610,-53.2821 610,-75 610,-745.5 610,-745.5 610,-745.5 610,-856.0276 575.6119,-890.382 495,-966 466.6536,-992.5904 416,-964.634 416,-1003.5 416,-1891 416,-1891 416,-1891 416,-1898.8861 404.2415,-1906.4852 389.3209,-1912.9534"/>
<polygon fill="#000000" stroke="#000000" points="387.6683,-1909.8457 379.699,-1916.8271 390.2826,-1916.3392 387.6683,-1909.8457"/>
<text text-anchor="start" x="428" y="-986" font-family="Helvetica,sans-Serif" font-size="10.00" fill="#000000">(up_eos_s == 1&#39;b1) || (up_es_req == 1&#39;b0) &#160;&#160;</text>
</g>
<!-- ES_FSM_UPDATE&#45;&gt;ES_FSM_HOFFSET_READ -->
<g id="edge38" class="edge transition">
<title>ES_FSM_UPDATE&#45;&gt;ES_FSM_HOFFSET_READ</title>
<path fill="none" stroke="#000000" d="M508.6294,-41.0954C545.9051,-47.1292 586,-57.6514 586,-75 586,-745.5 586,-745.5 586,-745.5 586,-882.6421 440.8576,-856.0404 389,-983 346.633,-1086.7242 382,-1122.9568 382,-1235 382,-1809 382,-1809 382,-1809 382,-1815.1451 380.1074,-1820.3698 376.9045,-1824.8119"/>
<polygon fill="#000000" stroke="#000000" points="374.3616,-1822.406 369.8497,-1831.9921 379.3548,-1827.312 374.3616,-1822.406"/>
<text text-anchor="start" x="421" y="-945" font-family="Helvetica,sans-Serif" font-size="10.00" fill="#000000">up_ut == 1&#39;b1 &#160;&#160;</text>
</g>
<!-- ES_FSM_UPDATE&#45;&gt;ES_FSM_VOFFSET_READ -->
<g id="edge39" class="edge transition">
<title>ES_FSM_UPDATE&#45;&gt;ES_FSM_VOFFSET_READ</title>
<path fill="none" stroke="#000000" d="M383.4359,-48.8367C362.3223,-55.704 344,-64.6462 344,-75 344,-819 344,-819 344,-819 344,-1010.4345 358,-1058.0655 358,-1249.5 358,-1481 358,-1481 358,-1481 358,-1495.3895 287.3255,-1506.4245 224.3303,-1513.4023"/>
<polygon fill="#000000" stroke="#000000" points="223.8636,-1509.9323 214.2979,-1514.4873 224.6163,-1516.8917 223.8636,-1509.9323"/>
<text text-anchor="start" x="344" y="-775" font-family="Helvetica,sans-Serif" font-size="10.00" fill="#000000">not ((up_eos_s == 1&#39;b1) || (up_es_req == 1&#39;b0)) &#160;&#160;</text>
<text text-anchor="start" x="344" y="-763" font-family="Helvetica,sans-Serif" font-size="10.00" fill="#000000">not (up_ut == 1&#39;b1) &#160;&#160;</text>
</g>
</g>
</svg>
