<?xml version="1.0" encoding="UTF-8" standalone="no"?>
<!DOCTYPE svg PUBLIC "-//W3C//DTD SVG 1.1//EN"
 "http://www.w3.org/Graphics/SVG/1.1/DTD/svg11.dtd">
<!-- Generated by graphviz version 2.40.1 (20161225.0304)
 -->
<!-- Title: state transitions Pages: 1 -->
<svg width="366pt" height="516pt"
 viewBox="0.00 0.00 366.48 516.00" xmlns="http://www.w3.org/2000/svg" xmlns:xlink="http://www.w3.org/1999/xlink">
<g id="graph0" class="graph" transform="scale(1 1) rotate(0) translate(4 512)">
<title>state transitions</title>
<polygon fill="#ffffff" stroke="transparent" points="-4,4 -4,-512 362.48,-512 362.48,4 -4,4"/>
<g id="clust1" class="cluster state regular">
<title>cluster_state</title>
<path fill="none" stroke="#000000" stroke-width="2" d="M20,-8C20,-8 271,-8 271,-8 277,-8 283,-14 283,-20 283,-20 283,-488 283,-488 283,-494 277,-500 271,-500 271,-500 20,-500 20,-500 14,-500 8,-494 8,-488 8,-488 8,-20 8,-20 8,-14 14,-8 20,-8"/>
<text text-anchor="start" x="132.4944" y="-481.2" font-family="Helvetica,sans-Serif" font-size="12.00" fill="#000000">state</text>
</g>
<!-- state -->
<!-- STATE_DO_RESET -->
<g id="node2" class="node state regular">
<title>STATE_DO_RESET</title>
<polygon fill="#ffffff" fill-opacity="0.003922" stroke="transparent" stroke-width="2" points="210,-462 78,-462 78,-426 210,-426 210,-462"/>
<text text-anchor="start" x="88.9944" y="-440.2" font-family="Helvetica,sans-Serif" font-size="12.00" fill="#000000">STATE_DO_RESET</text>
<path fill="none" stroke="#000000" stroke-width="2" d="M90.3333,-427C90.3333,-427 197.6667,-427 197.6667,-427 203.3333,-427 209,-432.6667 209,-438.3333 209,-438.3333 209,-449.6667 209,-449.6667 209,-455.3333 203.3333,-461 197.6667,-461 197.6667,-461 90.3333,-461 90.3333,-461 84.6667,-461 79,-455.3333 79,-449.6667 79,-449.6667 79,-438.3333 79,-438.3333 79,-432.6667 84.6667,-427 90.3333,-427"/>
</g>
<!-- STATE_RESET -->
<g id="node3" class="node state regular">
<title>STATE_RESET</title>
<polygon fill="#ffffff" fill-opacity="0.003922" stroke="transparent" stroke-width="2" points="127.5,-380 20.5,-380 20.5,-344 127.5,-344 127.5,-380"/>
<text text-anchor="start" x="31.8286" y="-358.2" font-family="Helvetica,sans-Serif" font-size="12.00" fill="#000000">STATE_RESET</text>
<path fill="none" stroke="#000000" stroke-width="2" d="M32.8333,-345C32.8333,-345 115.1667,-345 115.1667,-345 120.8333,-345 126.5,-350.6667 126.5,-356.3333 126.5,-356.3333 126.5,-367.6667 126.5,-367.6667 126.5,-373.3333 120.8333,-379 115.1667,-379 115.1667,-379 32.8333,-379 32.8333,-379 27.1667,-379 21.5,-373.3333 21.5,-367.6667 21.5,-367.6667 21.5,-356.3333 21.5,-356.3333 21.5,-350.6667 27.1667,-345 32.8333,-345"/>
</g>
<!-- STATE_DO_RESET&#45;&gt;STATE_RESET -->
<g id="edge1" class="edge transition">
<title>STATE_DO_RESET&#45;&gt;STATE_RESET</title>
<path fill="none" stroke="#000000" d="M128.4647,-425.8015C118.9489,-414.6545 106.6185,-400.2103 96.097,-387.8851"/>
<polygon fill="#000000" stroke="#000000" points="98.6465,-385.4808 89.4918,-380.1476 93.3225,-390.0257 98.6465,-385.4808"/>
<text text-anchor="middle" x="114.3895" y="-400" font-family="Helvetica,sans-Serif" font-size="10.00" fill="#000000"> </text>
</g>
<!-- STATE_DISABLED -->
<g id="node4" class="node state regular">
<title>STATE_DISABLED</title>
<polygon fill="#ffffff" fill-opacity="0.003922" stroke="transparent" stroke-width="2" points="192,-298 66,-298 66,-262 192,-262 192,-298"/>
<text text-anchor="start" x="76.6584" y="-276.2" font-family="Helvetica,sans-Serif" font-size="12.00" fill="#000000">STATE_DISABLED</text>
<path fill="none" stroke="#000000" stroke-width="2" d="M78.3333,-263C78.3333,-263 179.6667,-263 179.6667,-263 185.3333,-263 191,-268.6667 191,-274.3333 191,-274.3333 191,-285.6667 191,-285.6667 191,-291.3333 185.3333,-297 179.6667,-297 179.6667,-297 78.3333,-297 78.3333,-297 72.6667,-297 67,-291.3333 67,-285.6667 67,-285.6667 67,-274.3333 67,-274.3333 67,-268.6667 72.6667,-263 78.3333,-263"/>
</g>
<!-- STATE_RESET&#45;&gt;STATE_DISABLED -->
<g id="edge2" class="edge transition">
<title>STATE_RESET&#45;&gt;STATE_DISABLED</title>
<path fill="none" stroke="#000000" d="M58.7254,-343.8619C53.0286,-334.817 49.1707,-323.9316 54.832,-315 57.3439,-311.0371 60.438,-307.5145 63.9229,-304.3845"/>
<polygon fill="#000000" stroke="#000000" points="66.2768,-306.9909 72.1018,-298.1411 62.0293,-301.4268 66.2768,-306.9909"/>
<text text-anchor="start" x="54" y="-318" font-family="Helvetica,sans-Serif" font-size="10.00" fill="#000000">ctrl_enable == 1&#39;b1 &amp;&amp; req_resetn == 1&#39;b1 &#160;&#160;</text>
</g>
<!-- STATE_DISABLED&#45;&gt;STATE_DO_RESET -->
<g id="edge3" class="edge transition">
<title>STATE_DISABLED&#45;&gt;STATE_DO_RESET</title>
<path fill="none" stroke="#000000" d="M192.1607,-290.7337C218.2578,-296.5741 244.24,-304.7238 252,-315 280.8397,-353.191 228.5234,-395.3379 187.1209,-420.7328"/>
<polygon fill="#000000" stroke="#000000" points="185.2759,-417.758 178.4848,-425.8901 188.8649,-423.7679 185.2759,-417.758"/>
<text text-anchor="start" x="259" y="-359" font-family="Helvetica,sans-Serif" font-size="10.00" fill="#000000">needs_reset == 1&#39;b1 &#160;&#160;</text>
</g>
<!-- STATE_STARTUP -->
<g id="node5" class="node state regular">
<title>STATE_STARTUP</title>
<polygon fill="#ffffff" fill-opacity="0.003922" stroke="transparent" stroke-width="2" points="139.5,-216 16.5,-216 16.5,-180 139.5,-180 139.5,-216"/>
<text text-anchor="start" x="27.8318" y="-194.2" font-family="Helvetica,sans-Serif" font-size="12.00" fill="#000000">STATE_STARTUP</text>
<path fill="none" stroke="#000000" stroke-width="2" d="M28.8333,-181C28.8333,-181 127.1667,-181 127.1667,-181 132.8333,-181 138.5,-186.6667 138.5,-192.3333 138.5,-192.3333 138.5,-203.6667 138.5,-203.6667 138.5,-209.3333 132.8333,-215 127.1667,-215 127.1667,-215 28.8333,-215 28.8333,-215 23.1667,-215 17.5,-209.3333 17.5,-203.6667 17.5,-203.6667 17.5,-192.3333 17.5,-192.3333 17.5,-186.6667 23.1667,-181 28.8333,-181"/>
</g>
<!-- STATE_DISABLED&#45;&gt;STATE_STARTUP -->
<g id="edge4" class="edge transition">
<title>STATE_DISABLED&#45;&gt;STATE_STARTUP</title>
<path fill="none" stroke="#000000" d="M96.1252,-261.7651C90.314,-257.0594 84.9886,-251.4632 81.419,-245 78.3784,-239.4945 76.8556,-233.0573 76.2132,-226.7443"/>
<polygon fill="#000000" stroke="#000000" points="79.6997,-226.2949 75.8509,-216.4239 72.704,-226.5406 79.6997,-226.2949"/>
<text text-anchor="start" x="81" y="-236" font-family="Helvetica,sans-Serif" font-size="10.00" fill="#000000">ctrl_pause == 1&#39;b0 &#160;&#160;</text>
</g>
<!-- STATE_ENABLED -->
<g id="node6" class="node state regular">
<title>STATE_ENABLED</title>
<polygon fill="#ffffff" fill-opacity="0.003922" stroke="transparent" stroke-width="2" points="139.5,-134 16.5,-134 16.5,-98 139.5,-98 139.5,-134"/>
<text text-anchor="start" x="27.8258" y="-112.2" font-family="Helvetica,sans-Serif" font-size="12.00" fill="#000000">STATE_ENABLED</text>
<path fill="none" stroke="#000000" stroke-width="2" d="M28.8333,-99C28.8333,-99 127.1667,-99 127.1667,-99 132.8333,-99 138.5,-104.6667 138.5,-110.3333 138.5,-110.3333 138.5,-121.6667 138.5,-121.6667 138.5,-127.3333 132.8333,-133 127.1667,-133 127.1667,-133 28.8333,-133 28.8333,-133 23.1667,-133 17.5,-127.3333 17.5,-121.6667 17.5,-121.6667 17.5,-110.3333 17.5,-110.3333 17.5,-104.6667 23.1667,-99 28.8333,-99"/>
</g>
<!-- STATE_STARTUP&#45;&gt;STATE_ENABLED -->
<g id="edge5" class="edge transition">
<title>STATE_STARTUP&#45;&gt;STATE_ENABLED</title>
<path fill="none" stroke="#000000" d="M62.1679,-179.7977C56.6551,-171.3028 52.4949,-160.8997 55.412,-151 56.19,-148.3596 57.2361,-145.7306 58.4532,-143.1681"/>
<polygon fill="#000000" stroke="#000000" points="61.6006,-144.7111 63.4372,-134.2767 55.4944,-141.2883 61.6006,-144.7111"/>
<text text-anchor="start" x="55" y="-154" font-family="Helvetica,sans-Serif" font-size="10.00" fill="#000000">enabled_all == 1&#39;b1 &#160;&#160;</text>
</g>
<!-- STATE_SHUTDOWN -->
<g id="node7" class="node state regular">
<title>STATE_SHUTDOWN</title>
<polygon fill="#ffffff" fill-opacity="0.003922" stroke="transparent" stroke-width="2" points="214.5,-52 77.5,-52 77.5,-16 214.5,-16 214.5,-52"/>
<text text-anchor="start" x="88.5064" y="-30.2" font-family="Helvetica,sans-Serif" font-size="12.00" fill="#000000">STATE_SHUTDOWN</text>
<path fill="none" stroke="#000000" stroke-width="2" d="M89.8333,-17C89.8333,-17 202.1667,-17 202.1667,-17 207.8333,-17 213.5,-22.6667 213.5,-28.3333 213.5,-28.3333 213.5,-39.6667 213.5,-39.6667 213.5,-45.3333 207.8333,-51 202.1667,-51 202.1667,-51 89.8333,-51 89.8333,-51 84.1667,-51 78.5,-45.3333 78.5,-39.6667 78.5,-39.6667 78.5,-28.3333 78.5,-28.3333 78.5,-22.6667 84.1667,-17 89.8333,-17"/>
</g>
<!-- STATE_ENABLED&#45;&gt;STATE_SHUTDOWN -->
<g id="edge6" class="edge transition">
<title>STATE_ENABLED&#45;&gt;STATE_SHUTDOWN</title>
<path fill="none" stroke="#000000" d="M59.9075,-97.9343C53.0868,-88.9078 48.3154,-78.0171 54.52,-69 57.6245,-64.4882 64.9585,-60.031 74.1969,-55.8866"/>
<polygon fill="#000000" stroke="#000000" points="75.6562,-59.0707 83.562,-52.0173 72.9832,-52.6011 75.6562,-59.0707"/>
<text text-anchor="start" x="54" y="-72" font-family="Helvetica,sans-Serif" font-size="10.00" fill="#000000">needs_reset == 1&#39;b1 || ctrl_pause == 1&#39;b1 &#160;&#160;</text>
</g>
<!-- STATE_SHUTDOWN&#45;&gt;STATE_DISABLED -->
<g id="edge7" class="edge transition">
<title>STATE_SHUTDOWN&#45;&gt;STATE_DISABLED</title>
<path fill="none" stroke="#000000" d="M214.745,-51.0462C230.1234,-56.278 243.2944,-62.4104 248,-69 280.0586,-113.8939 178,-116.3347 178,-171.5 178,-239 178,-239 178,-239 178,-244.8234 175.9392,-249.9826 172.6629,-254.5051"/>
<polygon fill="#000000" stroke="#000000" points="169.9453,-252.2855 165.6352,-261.9641 175.0402,-257.0858 169.9453,-252.2855"/>
<text text-anchor="start" x="183" y="-154" font-family="Helvetica,sans-Serif" font-size="10.00" fill="#000000">disabled_all == 1&#39;b1 &#160;&#160;</text>
</g>
</g>
</svg>
