<?xml version="1.0" encoding="UTF-8" standalone="no"?>
<!DOCTYPE svg PUBLIC "-//W3C//DTD SVG 1.1//EN"
 "http://www.w3.org/Graphics/SVG/1.1/DTD/svg11.dtd">
<!-- Generated by graphviz version 2.40.1 (20161225.0304)
 -->
<!-- Title: state transitions Pages: 1 -->
<svg width="354pt" height="294pt"
 viewBox="0.00 0.00 354.00 294.00" xmlns="http://www.w3.org/2000/svg" xmlns:xlink="http://www.w3.org/1999/xlink">
<g id="graph0" class="graph" transform="scale(1 1) rotate(0) translate(4 290)">
<title>state transitions</title>
<polygon fill="#ffffff" stroke="transparent" points="-4,4 -4,-290 350,-290 350,4 -4,4"/>
<g id="clust1" class="cluster state regular">
<title>cluster_state</title>
<path fill="none" stroke="#000000" stroke-width="2" d="M20,-8C20,-8 326,-8 326,-8 332,-8 338,-14 338,-20 338,-20 338,-266 338,-266 338,-272 332,-278 326,-278 326,-278 20,-278 20,-278 14,-278 8,-272 8,-266 8,-266 8,-20 8,-20 8,-14 14,-8 20,-8"/>
<text text-anchor="start" x="159.9944" y="-259.2" font-family="Helvetica,sans-Serif" font-size="12.00" fill="#000000">state</text>
</g>
<!-- state -->
<!-- CGS_STATE_INIT -->
<g id="node2" class="node state regular">
<title>CGS_STATE_INIT</title>
<polygon fill="#ffffff" fill-opacity="0.003922" stroke="transparent" stroke-width="2" points="197,-240 75,-240 75,-204 197,-204 197,-240"/>
<text text-anchor="start" x="85.6624" y="-218.2" font-family="Helvetica,sans-Serif" font-size="12.00" fill="#000000">CGS_STATE_INIT</text>
<path fill="none" stroke="#000000" stroke-width="2" d="M87.3333,-205C87.3333,-205 184.6667,-205 184.6667,-205 190.3333,-205 196,-210.6667 196,-216.3333 196,-216.3333 196,-227.6667 196,-227.6667 196,-233.3333 190.3333,-239 184.6667,-239 184.6667,-239 87.3333,-239 87.3333,-239 81.6667,-239 76,-233.3333 76,-227.6667 76,-227.6667 76,-216.3333 76,-216.3333 76,-210.6667 81.6667,-205 87.3333,-205"/>
</g>
<!-- CGS_STATE_CHECK -->
<g id="node3" class="node state regular">
<title>CGS_STATE_CHECK</title>
<polygon fill="#ffffff" fill-opacity="0.003922" stroke="transparent" stroke-width="2" points="212,-134 70,-134 70,-98 212,-98 212,-134"/>
<text text-anchor="start" x="80.997" y="-112.2" font-family="Helvetica,sans-Serif" font-size="12.00" fill="#000000">CGS_STATE_CHECK</text>
<path fill="none" stroke="#000000" stroke-width="2" d="M82.3333,-99C82.3333,-99 199.6667,-99 199.6667,-99 205.3333,-99 211,-104.6667 211,-110.3333 211,-110.3333 211,-121.6667 211,-121.6667 211,-127.3333 205.3333,-133 199.6667,-133 199.6667,-133 82.3333,-133 82.3333,-133 76.6667,-133 71,-127.3333 71,-121.6667 71,-121.6667 71,-110.3333 71,-110.3333 71,-104.6667 76.6667,-99 82.3333,-99"/>
</g>
<!-- CGS_STATE_INIT&#45;&gt;CGS_STATE_CHECK -->
<g id="edge1" class="edge transition">
<title>CGS_STATE_INIT&#45;&gt;CGS_STATE_CHECK</title>
<path fill="none" stroke="#000000" d="M85.9588,-203.9103C79.2816,-199.3984 73.3239,-193.834 69.189,-187 60.9064,-173.3107 60.7084,-164.5676 69.189,-151 71.6539,-147.0565 74.7051,-143.5456 78.1468,-140.4216"/>
<polygon fill="#000000" stroke="#000000" points="80.4514,-143.064 86.2287,-134.1829 76.1741,-137.5229 80.4514,-143.064"/>
<text text-anchor="start" x="69" y="-166" font-family="Helvetica,sans-Serif" font-size="10.00" fill="#000000">beat_is_cgs == 1&#39;b1 &#160;&#160;</text>
</g>
<!-- CGS_STATE_CHECK&#45;&gt;CGS_STATE_INIT -->
<g id="edge2" class="edge transition">
<title>CGS_STATE_CHECK&#45;&gt;CGS_STATE_INIT</title>
<path fill="none" stroke="#000000" d="M158.65,-134.2724C162.4696,-139.3121 165.9695,-145.0436 168,-151 173.1625,-166.1442 173.7907,-172.0846 168,-187 166.8081,-190.0701 165.2074,-193.0352 163.3548,-195.8533"/>
<polygon fill="#000000" stroke="#000000" points="160.541,-193.7706 157.1979,-203.8242 166.0808,-198.0496 160.541,-193.7706"/>
<text text-anchor="start" x="172" y="-178" font-family="Helvetica,sans-Serif" font-size="10.00" fill="#000000">beat_error_count == &#39;h3 || &#160;&#160;</text>
<text text-anchor="start" x="172" y="-166" font-family="Helvetica,sans-Serif" font-size="10.00" fill="#000000">beat_is_all_error == 1&#39;b1 &#160;&#160;</text>
<text text-anchor="start" x="172" y="-154" font-family="Helvetica,sans-Serif" font-size="10.00" fill="#000000">beat_has_error == 1&#39;b1 &#160;&#160;</text>
</g>
<!-- CGS_STATE_DATA -->
<g id="node4" class="node state regular">
<title>CGS_STATE_DATA</title>
<polygon fill="#ffffff" fill-opacity="0.003922" stroke="transparent" stroke-width="2" points="216,-52 84,-52 84,-16 216,-16 216,-52"/>
<text text-anchor="start" x="94.9944" y="-30.2" font-family="Helvetica,sans-Serif" font-size="12.00" fill="#000000">CGS_STATE_DATA</text>
<path fill="none" stroke="#000000" stroke-width="2" d="M96.3333,-17C96.3333,-17 203.6667,-17 203.6667,-17 209.3333,-17 215,-22.6667 215,-28.3333 215,-28.3333 215,-39.6667 215,-39.6667 215,-45.3333 209.3333,-51 203.6667,-51 203.6667,-51 96.3333,-51 96.3333,-51 90.6667,-51 85,-45.3333 85,-39.6667 85,-39.6667 85,-28.3333 85,-28.3333 85,-22.6667 90.6667,-17 96.3333,-17"/>
</g>
<!-- CGS_STATE_CHECK&#45;&gt;CGS_STATE_DATA -->
<g id="edge3" class="edge transition">
<title>CGS_STATE_CHECK&#45;&gt;CGS_STATE_DATA</title>
<path fill="none" stroke="#000000" d="M69.655,-98.606C55.0461,-91.4693 46.4985,-81.7994 55.41,-69 58.5565,-64.4807 65.867,-60.0693 75.1053,-55.9857"/>
<polygon fill="#000000" stroke="#000000" points="76.5324,-59.1838 84.4804,-52.178 73.8983,-52.6983 76.5324,-59.1838"/>
<text text-anchor="start" x="55" y="-72" font-family="Helvetica,sans-Serif" font-size="10.00" fill="#000000">not (beat_has_error == 1&#39;b1) &#160;&#160;</text>
</g>
<!-- CGS_STATE_DATA&#45;&gt;CGS_STATE_CHECK -->
<g id="edge4" class="edge transition">
<title>CGS_STATE_DATA&#45;&gt;CGS_STATE_CHECK</title>
<path fill="none" stroke="#000000" d="M180.873,-52.0315C190.6426,-60.1736 197.6084,-70.349 192,-81 190.0847,-84.6374 187.6017,-87.9696 184.7638,-91.0066"/>
<polygon fill="#000000" stroke="#000000" points="182.1585,-88.6442 177.0993,-97.9531 186.8593,-93.831 182.1585,-88.6442"/>
<text text-anchor="start" x="193" y="-72" font-family="Helvetica,sans-Serif" font-size="10.00" fill="#000000">beat_has_error == 1&#39;b1 &#160;&#160;</text>
</g>
</g>
</svg>
