<?xml version="1.0" encoding="UTF-8" standalone="no"?>
<!DOCTYPE svg PUBLIC "-//W3C//DTD SVG 1.1//EN"
 "http://www.w3.org/Graphics/SVG/1.1/DTD/svg11.dtd">
<!-- Generated by graphviz version 2.40.1 (20161225.0304)
 -->
<!-- Title: state transitions Pages: 1 -->
<svg width="210pt" height="352pt"
 viewBox="0.00 0.00 210.00 352.00" xmlns="http://www.w3.org/2000/svg" xmlns:xlink="http://www.w3.org/1999/xlink">
<g id="graph0" class="graph" transform="scale(1 1) rotate(0) translate(4 348)">
<title>state transitions</title>
<polygon fill="#ffffff" stroke="transparent" points="-4,4 -4,-348 206,-348 206,4 -4,4"/>
<g id="clust1" class="cluster state regular">
<title>cluster_sampst</title>
<path fill="none" stroke="#000000" stroke-width="2" d="M20,-8C20,-8 182,-8 182,-8 188,-8 194,-14 194,-20 194,-20 194,-324 194,-324 194,-330 188,-336 182,-336 182,-336 20,-336 20,-336 14,-336 8,-330 8,-324 8,-324 8,-20 8,-20 8,-14 14,-8 20,-8"/>
<text text-anchor="start" x="81.6644" y="-317.2" font-family="Helvetica,sans-Serif" font-size="12.00" fill="#000000">sampst</text>
</g>
<!-- sampst -->
<!-- IDLE -->
<g id="node2" class="node state regular">
<title>IDLE</title>
<polygon fill="#ffffff" fill-opacity="0.003922" stroke="transparent" stroke-width="2" points="72,-298 16,-298 16,-262 72,-262 72,-298"/>
<text text-anchor="start" x="30.6644" y="-276.2" font-family="Helvetica,sans-Serif" font-size="12.00" fill="#000000">IDLE</text>
<path fill="none" stroke="#000000" stroke-width="2" d="M28.3333,-263C28.3333,-263 59.6667,-263 59.6667,-263 65.3333,-263 71,-268.6667 71,-274.3333 71,-274.3333 71,-285.6667 71,-285.6667 71,-291.3333 65.3333,-297 59.6667,-297 59.6667,-297 28.3333,-297 28.3333,-297 22.6667,-297 17,-291.3333 17,-285.6667 17,-285.6667 17,-274.3333 17,-274.3333 17,-268.6667 22.6667,-263 28.3333,-263"/>
</g>
<!-- CHA_SYNC -->
<g id="node3" class="node state regular">
<title>CHA_SYNC</title>
<polygon fill="#ffffff" fill-opacity="0.003922" stroke="transparent" stroke-width="2" points="103.5,-216 16.5,-216 16.5,-180 103.5,-180 103.5,-216"/>
<text text-anchor="start" x="27.8348" y="-194.2" font-family="Helvetica,sans-Serif" font-size="12.00" fill="#000000">CHA_SYNC</text>
<path fill="none" stroke="#000000" stroke-width="2" d="M28.8333,-181C28.8333,-181 91.1667,-181 91.1667,-181 96.8333,-181 102.5,-186.6667 102.5,-192.3333 102.5,-192.3333 102.5,-203.6667 102.5,-203.6667 102.5,-209.3333 96.8333,-215 91.1667,-215 91.1667,-215 28.8333,-215 28.8333,-215 23.1667,-215 17.5,-209.3333 17.5,-203.6667 17.5,-203.6667 17.5,-192.3333 17.5,-192.3333 17.5,-186.6667 23.1667,-181 28.8333,-181"/>
</g>
<!-- IDLE&#45;&gt;CHA_SYNC -->
<g id="edge1" class="edge transition">
<title>IDLE&#45;&gt;CHA_SYNC</title>
<path fill="none" stroke="#000000" d="M47.5509,-261.8015C49.6017,-251.2915 52.2243,-237.8503 54.5331,-226.0177"/>
<polygon fill="#000000" stroke="#000000" points="57.979,-226.6328 56.459,-216.1476 51.1086,-225.2922 57.979,-226.6328"/>
<text text-anchor="start" x="53" y="-236" font-family="Helvetica,sans-Serif" font-size="10.00" fill="#000000">lock = &#39;1&#39; and conf_sample = &#39;1&#39; &#160;&#160;</text>
</g>
<!-- GET_SAMP -->
<g id="node4" class="node state regular">
<title>GET_SAMP</title>
<polygon fill="#ffffff" fill-opacity="0.003922" stroke="transparent" stroke-width="2" points="112.5,-134 25.5,-134 25.5,-98 112.5,-98 112.5,-134"/>
<text text-anchor="start" x="36.8288" y="-112.2" font-family="Helvetica,sans-Serif" font-size="12.00" fill="#000000">GET_SAMP</text>
<path fill="none" stroke="#000000" stroke-width="2" d="M37.8333,-99C37.8333,-99 100.1667,-99 100.1667,-99 105.8333,-99 111.5,-104.6667 111.5,-110.3333 111.5,-110.3333 111.5,-121.6667 111.5,-121.6667 111.5,-127.3333 105.8333,-133 100.1667,-133 100.1667,-133 37.8333,-133 37.8333,-133 32.1667,-133 26.5,-127.3333 26.5,-121.6667 26.5,-121.6667 26.5,-110.3333 26.5,-110.3333 26.5,-104.6667 32.1667,-99 37.8333,-99"/>
</g>
<!-- CHA_SYNC&#45;&gt;GET_SAMP -->
<g id="edge2" class="edge transition">
<title>CHA_SYNC&#45;&gt;GET_SAMP</title>
<path fill="none" stroke="#000000" d="M61.9974,-179.8015C63.1393,-169.3976 64.5964,-156.1215 65.8855,-144.3768"/>
<polygon fill="#000000" stroke="#000000" points="69.3962,-144.4698 67.0082,-134.1476 62.438,-143.706 69.3962,-144.4698"/>
<text text-anchor="start" x="65" y="-154" font-family="Helvetica,sans-Serif" font-size="10.00" fill="#000000">rx_frame_start = &#39;1&#39; &#160;&#160;</text>
</g>
<!-- PAR_CHK -->
<g id="node5" class="node state regular">
<title>PAR_CHK</title>
<polygon fill="#ffffff" fill-opacity="0.003922" stroke="transparent" stroke-width="2" points="147,-52 69,-52 69,-16 147,-16 147,-52"/>
<text text-anchor="start" x="79.6662" y="-30.2" font-family="Helvetica,sans-Serif" font-size="12.00" fill="#000000">PAR_CHK</text>
<path fill="none" stroke="#000000" stroke-width="2" d="M81.3333,-17C81.3333,-17 134.6667,-17 134.6667,-17 140.3333,-17 146,-22.6667 146,-28.3333 146,-28.3333 146,-39.6667 146,-39.6667 146,-45.3333 140.3333,-51 134.6667,-51 134.6667,-51 81.3333,-51 81.3333,-51 75.6667,-51 70,-45.3333 70,-39.6667 70,-39.6667 70,-28.3333 70,-28.3333 70,-22.6667 75.6667,-17 81.3333,-17"/>
</g>
<!-- GET_SAMP&#45;&gt;PAR_CHK -->
<g id="edge3" class="edge transition">
<title>GET_SAMP&#45;&gt;PAR_CHK</title>
<path fill="none" stroke="#000000" d="M77.6554,-97.8015C82.755,-87.0791 89.3057,-73.306 95.0146,-61.3026"/>
<polygon fill="#000000" stroke="#000000" points="98.2344,-62.6815 99.3688,-52.1476 91.913,-59.6749 98.2344,-62.6815"/>
<text text-anchor="start" x="91" y="-72" font-family="Helvetica,sans-Serif" font-size="10.00" fill="#000000">bit_cnt = 28 &#160;&#160;</text>
</g>
<!-- PAR_CHK&#45;&gt;CHA_SYNC -->
<g id="edge4" class="edge transition">
<title>PAR_CHK&#45;&gt;CHA_SYNC</title>
<path fill="none" stroke="#000000" d="M147.0086,-47.7652C157.5004,-54.0746 166,-62.9153 166,-75 166,-157 166,-157 166,-157 166,-169.5098 139.9942,-179.6858 113.7448,-186.7709"/>
<polygon fill="#000000" stroke="#000000" points="112.547,-183.4645 103.7262,-189.3334 114.2817,-190.2462 112.547,-183.4645"/>
<text text-anchor="middle" x="167.3895" y="-113" font-family="Helvetica,sans-Serif" font-size="10.00" fill="#000000"> </text>
</g>
</g>
</svg>
