<?xml version="1.0" encoding="UTF-8" standalone="no"?>
<!DOCTYPE svg PUBLIC "-//W3C//DTD SVG 1.1//EN"
 "http://www.w3.org/Graphics/SVG/1.1/DTD/svg11.dtd">
<!-- Generated by graphviz version 2.40.1 (20161225.0304)
 -->
<!-- Title: state transitions Pages: 1 -->
<svg width="609pt" height="434pt"
 viewBox="0.00 0.00 609.00 434.00" xmlns="http://www.w3.org/2000/svg" xmlns:xlink="http://www.w3.org/1999/xlink">
<g id="graph0" class="graph" transform="scale(1 1) rotate(0) translate(4 430)">
<title>state transitions</title>
<polygon fill="#ffffff" stroke="transparent" points="-4,4 -4,-430 605,-430 605,4 -4,4"/>
<g id="clust1" class="cluster state regular">
<title>cluster_state</title>
<path fill="none" stroke="#000000" stroke-width="2" d="M20,-8C20,-8 581,-8 581,-8 587,-8 593,-14 593,-20 593,-20 593,-406 593,-406 593,-412 587,-418 581,-418 581,-418 20,-418 20,-418 14,-418 8,-412 8,-406 8,-406 8,-20 8,-20 8,-14 14,-8 20,-8"/>
<text text-anchor="start" x="287.4944" y="-399.2" font-family="Helvetica,sans-Serif" font-size="12.00" fill="#000000">state</text>
</g>
<!-- state -->
<!-- STATE_IDLE -->
<g id="node2" class="node state regular">
<title>STATE_IDLE</title>
<polygon fill="#ffffff" fill-opacity="0.003922" stroke="transparent" stroke-width="2" points="440,-380 346,-380 346,-344 440,-344 440,-380"/>
<text text-anchor="start" x="356.994" y="-358.2" font-family="Helvetica,sans-Serif" font-size="12.00" fill="#000000">STATE_IDLE</text>
<path fill="none" stroke="#000000" stroke-width="2" d="M358.3333,-345C358.3333,-345 427.6667,-345 427.6667,-345 433.3333,-345 439,-350.6667 439,-356.3333 439,-356.3333 439,-367.6667 439,-367.6667 439,-373.3333 433.3333,-379 427.6667,-379 427.6667,-379 358.3333,-379 358.3333,-379 352.6667,-379 347,-373.3333 347,-367.6667 347,-367.6667 347,-356.3333 347,-356.3333 347,-350.6667 352.6667,-345 358.3333,-345"/>
</g>
<!-- STATE_SHIFT_LOAD -->
<g id="node3" class="node state regular">
<title>STATE_SHIFT_LOAD</title>
<polygon fill="#ffffff" fill-opacity="0.003922" stroke="transparent" stroke-width="2" points="330.5,-298 189.5,-298 189.5,-262 330.5,-262 330.5,-298"/>
<text text-anchor="start" x="200.8276" y="-276.2" font-family="Helvetica,sans-Serif" font-size="12.00" fill="#000000">STATE_SHIFT_LOAD</text>
<path fill="none" stroke="#000000" stroke-width="2" d="M201.8333,-263C201.8333,-263 318.1667,-263 318.1667,-263 323.8333,-263 329.5,-268.6667 329.5,-274.3333 329.5,-274.3333 329.5,-285.6667 329.5,-285.6667 329.5,-291.3333 323.8333,-297 318.1667,-297 318.1667,-297 201.8333,-297 201.8333,-297 196.1667,-297 190.5,-291.3333 190.5,-285.6667 190.5,-285.6667 190.5,-274.3333 190.5,-274.3333 190.5,-268.6667 196.1667,-263 201.8333,-263"/>
</g>
<!-- STATE_IDLE&#45;&gt;STATE_SHIFT_LOAD -->
<g id="edge1" class="edge transition">
<title>STATE_IDLE&#45;&gt;STATE_SHIFT_LOAD</title>
<path fill="none" stroke="#000000" d="M363.483,-343.8015C344.1977,-331.9113 318.8277,-316.2697 298.0346,-303.4499"/>
<polygon fill="#000000" stroke="#000000" points="299.7836,-300.4165 289.4345,-298.1476 296.1098,-306.375 299.7836,-300.4165"/>
<text text-anchor="start" x="335" y="-318" font-family="Helvetica,sans-Serif" font-size="10.00" fill="#000000">s_axis_valid == 1&#39;b1 &#160;&#160;</text>
</g>
<!-- STATE_SHIFT -->
<g id="node4" class="node state regular">
<title>STATE_SHIFT</title>
<polygon fill="#ffffff" fill-opacity="0.003922" stroke="transparent" stroke-width="2" points="118,-216 16,-216 16,-180 118,-180 118,-216"/>
<text text-anchor="start" x="26.9986" y="-194.2" font-family="Helvetica,sans-Serif" font-size="12.00" fill="#000000">STATE_SHIFT</text>
<path fill="none" stroke="#000000" stroke-width="2" d="M28.3333,-181C28.3333,-181 105.6667,-181 105.6667,-181 111.3333,-181 117,-186.6667 117,-192.3333 117,-192.3333 117,-203.6667 117,-203.6667 117,-209.3333 111.3333,-215 105.6667,-215 105.6667,-215 28.3333,-215 28.3333,-215 22.6667,-215 17,-209.3333 17,-203.6667 17,-203.6667 17,-192.3333 17,-192.3333 17,-186.6667 22.6667,-181 28.3333,-181"/>
</g>
<!-- STATE_SHIFT_LOAD&#45;&gt;STATE_SHIFT -->
<g id="edge3" class="edge transition">
<title>STATE_SHIFT_LOAD&#45;&gt;STATE_SHIFT</title>
<path fill="none" stroke="#000000" d="M189.4053,-272.414C133.7828,-265.7071 64.1777,-255.3985 55.407,-245 50.8927,-239.6478 50.5444,-232.8014 52.1288,-226.0003"/>
<polygon fill="#000000" stroke="#000000" points="55.5432,-226.8422 55.5727,-216.2474 48.9427,-224.5114 55.5432,-226.8422"/>
<text text-anchor="start" x="55" y="-236" font-family="Helvetica,sans-Serif" font-size="10.00" fill="#000000">not (step_counter == &#39;h00) &#160;&#160;</text>
</g>
<!-- STATE_ADD -->
<g id="node5" class="node state regular">
<title>STATE_ADD</title>
<polygon fill="#ffffff" fill-opacity="0.003922" stroke="transparent" stroke-width="2" points="256,-134 164,-134 164,-98 256,-98 256,-134"/>
<text text-anchor="start" x="174.6654" y="-112.2" font-family="Helvetica,sans-Serif" font-size="12.00" fill="#000000">STATE_ADD</text>
<path fill="none" stroke="#000000" stroke-width="2" d="M176.3333,-99C176.3333,-99 243.6667,-99 243.6667,-99 249.3333,-99 255,-104.6667 255,-110.3333 255,-110.3333 255,-121.6667 255,-121.6667 255,-127.3333 249.3333,-133 243.6667,-133 243.6667,-133 176.3333,-133 176.3333,-133 170.6667,-133 165,-127.3333 165,-121.6667 165,-121.6667 165,-110.3333 165,-110.3333 165,-104.6667 170.6667,-99 176.3333,-99"/>
</g>
<!-- STATE_SHIFT_LOAD&#45;&gt;STATE_ADD -->
<g id="edge2" class="edge transition">
<title>STATE_SHIFT_LOAD&#45;&gt;STATE_ADD</title>
<path fill="none" stroke="#000000" d="M319.4586,-261.9674C326.9199,-256.2594 332,-248.7815 332,-239 332,-239 332,-239 332,-157 332,-141.9139 298.0571,-131.3356 265.9788,-124.7069"/>
<polygon fill="#000000" stroke="#000000" points="266.6094,-121.2639 256.123,-122.7759 265.2634,-128.1333 266.6094,-121.2639"/>
<text text-anchor="start" x="332" y="-195" font-family="Helvetica,sans-Serif" font-size="10.00" fill="#000000">step_counter == &#39;h00 &#160;&#160;</text>
</g>
<!-- STATE_SHIFT&#45;&gt;STATE_ADD -->
<g id="edge4" class="edge transition">
<title>STATE_SHIFT&#45;&gt;STATE_ADD</title>
<path fill="none" stroke="#000000" d="M55.6855,-179.8959C51.3345,-170.4274 48.7933,-159.1458 55.302,-151 67.6095,-135.5969 114.5549,-126.4744 153.535,-121.4258"/>
<polygon fill="#000000" stroke="#000000" points="154.2655,-124.8624 163.7637,-120.1683 153.4113,-117.9147 154.2655,-124.8624"/>
<text text-anchor="start" x="55" y="-154" font-family="Helvetica,sans-Serif" font-size="10.00" fill="#000000">shift_counter == &#39;h01 &#160;&#160;</text>
</g>
<!-- STATE_ADD&#45;&gt;STATE_SHIFT_LOAD -->
<g id="edge6" class="edge transition">
<title>STATE_ADD&#45;&gt;STATE_SHIFT_LOAD</title>
<path fill="none" stroke="#000000" d="M196.4562,-134.3253C183.0565,-154.8702 166.3027,-188.8601 179.407,-216 187.3299,-232.4089 201.7306,-245.901 216.1905,-256.1961"/>
<polygon fill="#000000" stroke="#000000" points="214.4097,-259.2162 224.6627,-261.8862 218.3126,-253.4051 214.4097,-259.2162"/>
<text text-anchor="start" x="179" y="-195" font-family="Helvetica,sans-Serif" font-size="10.00" fill="#000000">not (step_counter == &#39;d30) &#160;&#160;</text>
</g>
<!-- STATE_DONE -->
<g id="node6" class="node state regular">
<title>STATE_DONE</title>
<polygon fill="#ffffff" fill-opacity="0.003922" stroke="transparent" stroke-width="2" points="419,-52 317,-52 317,-16 419,-16 419,-52"/>
<text text-anchor="start" x="327.998" y="-30.2" font-family="Helvetica,sans-Serif" font-size="12.00" fill="#000000">STATE_DONE</text>
<path fill="none" stroke="#000000" stroke-width="2" d="M329.3333,-17C329.3333,-17 406.6667,-17 406.6667,-17 412.3333,-17 418,-22.6667 418,-28.3333 418,-28.3333 418,-39.6667 418,-39.6667 418,-45.3333 412.3333,-51 406.6667,-51 406.6667,-51 329.3333,-51 329.3333,-51 323.6667,-51 318,-45.3333 318,-39.6667 318,-39.6667 318,-28.3333 318,-28.3333 318,-22.6667 323.6667,-17 329.3333,-17"/>
</g>
<!-- STATE_ADD&#45;&gt;STATE_DONE -->
<g id="edge5" class="edge transition">
<title>STATE_ADD&#45;&gt;STATE_DONE</title>
<path fill="none" stroke="#000000" d="M245.0653,-97.8015C268.4658,-85.657 299.4072,-69.5988 324.3937,-56.6311"/>
<polygon fill="#000000" stroke="#000000" points="326.0413,-59.7194 333.3049,-52.0063 322.8167,-53.5063 326.0413,-59.7194"/>
<text text-anchor="start" x="299" y="-72" font-family="Helvetica,sans-Serif" font-size="10.00" fill="#000000">step_counter == &#39;d30 &#160;&#160;</text>
</g>
<!-- STATE_DONE&#45;&gt;STATE_IDLE -->
<g id="edge7" class="edge transition">
<title>STATE_DONE&#45;&gt;STATE_IDLE</title>
<path fill="none" stroke="#000000" d="M419.1356,-43.756C447.8615,-50.7516 478,-61.345 478,-75 478,-321 478,-321 478,-321 478,-329.0806 465.3803,-337.0212 449.8659,-343.73"/>
<polygon fill="#000000" stroke="#000000" points="448.4289,-340.5358 440.4703,-347.5295 451.0532,-347.0252 448.4289,-340.5358"/>
<text text-anchor="start" x="478" y="-195" font-family="Helvetica,sans-Serif" font-size="10.00" fill="#000000">m_axis_ready == 1&#39;b1 &#160;&#160;</text>
</g>
</g>
</svg>
