<?xml version="1.0" encoding="UTF-8" standalone="no"?>
<!DOCTYPE svg PUBLIC "-//W3C//DTD SVG 1.1//EN"
 "http://www.w3.org/Graphics/SVG/1.1/DTD/svg11.dtd">
<!-- Generated by graphviz version 2.40.1 (20161225.0304)
 -->
<!-- Title: state transitions Pages: 1 -->
<svg width="943pt" height="376pt"
 viewBox="0.00 0.00 943.00 376.00" xmlns="http://www.w3.org/2000/svg" xmlns:xlink="http://www.w3.org/1999/xlink">
<g id="graph0" class="graph" transform="scale(1 1) rotate(0) translate(4 372)">
<title>state transitions</title>
<polygon fill="#ffffff" stroke="transparent" points="-4,4 -4,-372 939,-372 939,4 -4,4"/>
<g id="clust1" class="cluster state regular">
<title>cluster_avl_read_state</title>
<path fill="none" stroke="#000000" stroke-width="2" d="M20,-8C20,-8 915,-8 915,-8 921,-8 927,-14 927,-20 927,-20 927,-348 927,-348 927,-354 921,-360 915,-360 915,-360 20,-360 20,-360 14,-360 8,-354 8,-348 8,-348 8,-20 8,-20 8,-14 14,-8 20,-8"/>
<text text-anchor="start" x="428.1532" y="-341.2" font-family="Helvetica,sans-Serif" font-size="12.00" fill="#000000">avl_read_state</text>
</g>
<!-- avl_read_state -->
<!-- IDLE -->
<g id="node2" class="node state regular">
<title>IDLE</title>
<polygon fill="#ffffff" fill-opacity="0.003922" stroke="transparent" stroke-width="2" points="606,-322 550,-322 550,-286 606,-286 606,-322"/>
<text text-anchor="start" x="564.6644" y="-300.2" font-family="Helvetica,sans-Serif" font-size="12.00" fill="#000000">IDLE</text>
<path fill="none" stroke="#000000" stroke-width="2" d="M562.3333,-287C562.3333,-287 593.6667,-287 593.6667,-287 599.3333,-287 605,-292.6667 605,-298.3333 605,-298.3333 605,-309.6667 605,-309.6667 605,-315.3333 599.3333,-321 593.6667,-321 593.6667,-321 562.3333,-321 562.3333,-321 556.6667,-321 551,-315.3333 551,-309.6667 551,-309.6667 551,-298.3333 551,-298.3333 551,-292.6667 556.6667,-287 562.3333,-287"/>
</g>
<!-- IDLE&#45;&gt;IDLE -->
<g id="edge2" class="edge transition">
<title>IDLE&#45;&gt;IDLE</title>
<path fill="none" stroke="#000000" d="M606.0183,-308.8247C617.888,-309.1883 628,-307.5801 628,-304 628,-301.5387 623.2205,-300.0094 616.3762,-299.4121"/>
<polygon fill="#000000" stroke="#000000" points="616.0957,-295.9049 606.0183,-299.1753 615.9356,-302.903 616.0957,-295.9049"/>
<text text-anchor="start" x="628" y="-301" font-family="Helvetica,sans-Serif" font-size="10.00" fill="#000000">not (avl_xfer_req_in == 1&#39;b1) &#160;&#160;</text>
</g>
<!-- XFER_STAGING -->
<g id="node3" class="node state regular">
<title>XFER_STAGING</title>
<polygon fill="#ffffff" fill-opacity="0.003922" stroke="transparent" stroke-width="2" points="478,-240 364,-240 364,-204 478,-204 478,-240"/>
<text text-anchor="start" x="374.6632" y="-218.2" font-family="Helvetica,sans-Serif" font-size="12.00" fill="#000000">XFER_STAGING</text>
<path fill="none" stroke="#000000" stroke-width="2" d="M376.3333,-205C376.3333,-205 465.6667,-205 465.6667,-205 471.3333,-205 477,-210.6667 477,-216.3333 477,-216.3333 477,-227.6667 477,-227.6667 477,-233.3333 471.3333,-239 465.6667,-239 465.6667,-239 376.3333,-239 376.3333,-239 370.6667,-239 365,-233.3333 365,-227.6667 365,-227.6667 365,-216.3333 365,-216.3333 365,-210.6667 370.6667,-205 376.3333,-205"/>
</g>
<!-- IDLE&#45;&gt;XFER_STAGING -->
<g id="edge1" class="edge transition">
<title>IDLE&#45;&gt;XFER_STAGING</title>
<path fill="none" stroke="#000000" d="M549.7559,-300.1036C513.8244,-294.6224 454.4689,-283.6439 438.194,-269 432.7262,-264.0801 428.9944,-257.2744 426.4484,-250.3682"/>
<polygon fill="#000000" stroke="#000000" points="429.6899,-248.9863 423.5026,-240.3858 422.9761,-250.9676 429.6899,-248.9863"/>
<text text-anchor="start" x="438" y="-260" font-family="Helvetica,sans-Serif" font-size="10.00" fill="#000000">avl_xfer_req_in == 1&#39;b1 &#160;&#160;</text>
</g>
<!-- XFER_STAGING&#45;&gt;IDLE -->
<g id="edge5" class="edge transition">
<title>XFER_STAGING&#45;&gt;IDLE</title>
<path fill="none" stroke="#000000" d="M478.2948,-232.6938C507.8888,-239.1103 540.2211,-247.7961 552,-257 558.5097,-262.0867 563.6277,-269.2816 567.5375,-276.5163"/>
<polygon fill="#000000" stroke="#000000" points="564.3845,-278.0358 571.8577,-285.5459 570.699,-275.0146 564.3845,-278.0358"/>
<text text-anchor="start" x="562" y="-260" font-family="Helvetica,sans-Serif" font-size="10.00" fill="#000000">not (avl_xfer_req_in == 1&#39;b1) &#160;&#160;</text>
</g>
<!-- XFER_FULL_BURST -->
<g id="node4" class="node state regular">
<title>XFER_FULL_BURST</title>
<polygon fill="#ffffff" fill-opacity="0.003922" stroke="transparent" stroke-width="2" points="590.5,-134 453.5,-134 453.5,-98 590.5,-98 590.5,-134"/>
<text text-anchor="start" x="464.831" y="-112.2" font-family="Helvetica,sans-Serif" font-size="12.00" fill="#000000">XFER_FULL_BURST</text>
<path fill="none" stroke="#000000" stroke-width="2" d="M465.8333,-99C465.8333,-99 578.1667,-99 578.1667,-99 583.8333,-99 589.5,-104.6667 589.5,-110.3333 589.5,-110.3333 589.5,-121.6667 589.5,-121.6667 589.5,-127.3333 583.8333,-133 578.1667,-133 578.1667,-133 465.8333,-133 465.8333,-133 460.1667,-133 454.5,-127.3333 454.5,-121.6667 454.5,-121.6667 454.5,-110.3333 454.5,-110.3333 454.5,-104.6667 460.1667,-99 465.8333,-99"/>
</g>
<!-- XFER_STAGING&#45;&gt;XFER_FULL_BURST -->
<g id="edge3" class="edge transition">
<title>XFER_STAGING&#45;&gt;XFER_FULL_BURST</title>
<path fill="none" stroke="#000000" d="M478.3335,-215.0975C512.9413,-209.6197 552.352,-200.5912 563,-187 572.8675,-174.4051 569.7003,-165.5295 563,-151 561.5046,-147.7572 559.5441,-144.7035 557.2904,-141.8546"/>
<polygon fill="#000000" stroke="#000000" points="559.6908,-139.2971 550.3054,-134.3811 554.5767,-144.0769 559.6908,-139.2971"/>
<text text-anchor="start" x="569" y="-178" font-family="Helvetica,sans-Serif" font-size="10.00" fill="#000000">avl_address + AVL_BURST_LENGTH &lt;= avl_last_address &#160;&#160;</text>
<text text-anchor="start" x="569" y="-166" font-family="Helvetica,sans-Serif" font-size="10.00" fill="#000000">avl_mem_request_data == 1&#39;b1 &#160;&#160;</text>
<text text-anchor="start" x="569" y="-154" font-family="Helvetica,sans-Serif" font-size="10.00" fill="#000000">avl_xfer_req_in == 1&#39;b1 &#160;&#160;</text>
</g>
<!-- XFER_PARTIAL_BURST -->
<g id="node5" class="node state regular">
<title>XFER_PARTIAL_BURST</title>
<polygon fill="#ffffff" fill-opacity="0.003922" stroke="transparent" stroke-width="2" points="215,-134 57,-134 57,-98 215,-98 215,-134"/>
<text text-anchor="start" x="67.9948" y="-112.2" font-family="Helvetica,sans-Serif" font-size="12.00" fill="#000000">XFER_PARTIAL_BURST</text>
<path fill="none" stroke="#000000" stroke-width="2" d="M69.3333,-99C69.3333,-99 202.6667,-99 202.6667,-99 208.3333,-99 214,-104.6667 214,-110.3333 214,-110.3333 214,-121.6667 214,-121.6667 214,-127.3333 208.3333,-133 202.6667,-133 202.6667,-133 69.3333,-133 69.3333,-133 63.6667,-133 58,-127.3333 58,-121.6667 58,-121.6667 58,-110.3333 58,-110.3333 58,-104.6667 63.6667,-99 69.3333,-99"/>
</g>
<!-- XFER_STAGING&#45;&gt;XFER_PARTIAL_BURST -->
<g id="edge4" class="edge transition">
<title>XFER_STAGING&#45;&gt;XFER_PARTIAL_BURST</title>
<path fill="none" stroke="#000000" d="M363.6247,-220.4034C269.2183,-217.1782 89.5942,-208.2914 70.322,-187 59.5848,-175.1378 62.0878,-164.7185 70.322,-151 72.7054,-147.0292 75.7089,-143.4842 79.1122,-140.3236"/>
<polygon fill="#000000" stroke="#000000" points="81.4374,-142.9472 87.1156,-134.0025 77.0987,-137.4539 81.4374,-142.9472"/>
<text text-anchor="start" x="70" y="-178" font-family="Helvetica,sans-Serif" font-size="10.00" fill="#000000">not (avl_address + AVL_BURST_LENGTH &lt;= avl_last_address) &#160;&#160;</text>
<text text-anchor="start" x="70" y="-166" font-family="Helvetica,sans-Serif" font-size="10.00" fill="#000000">avl_mem_request_data == 1&#39;b1 &#160;&#160;</text>
<text text-anchor="start" x="70" y="-154" font-family="Helvetica,sans-Serif" font-size="10.00" fill="#000000">avl_xfer_req_in == 1&#39;b1 &#160;&#160;</text>
</g>
<!-- XFER_FULL_BURST&#45;&gt;XFER_STAGING -->
<g id="edge7" class="edge transition">
<title>XFER_FULL_BURST&#45;&gt;XFER_STAGING</title>
<path fill="none" stroke="#000000" d="M453.1646,-124.2659C420.2999,-129.7723 385.9722,-138.3621 376.006,-151 366.0985,-163.5635 368.9768,-172.6267 376.006,-187 377.669,-190.4006 379.8396,-193.5663 382.3288,-196.4915"/>
<polygon fill="#000000" stroke="#000000" points="379.9783,-199.0903 389.5328,-203.6687 384.9189,-194.1313 379.9783,-199.0903"/>
<text text-anchor="start" x="376" y="-166" font-family="Helvetica,sans-Serif" font-size="10.00" fill="#000000">not (avl_burstcounter &lt; avl_burstcount) &#160;&#160;</text>
</g>
<!-- XFER_FULL_BURST&#45;&gt;XFER_FULL_BURST -->
<g id="edge6" class="edge transition">
<title>XFER_FULL_BURST&#45;&gt;XFER_FULL_BURST</title>
<path fill="none" stroke="#000000" d="M590.6652,-120.6248C603.4771,-120.0553 612.5,-118.5137 612.5,-116 612.5,-114.2326 608.0392,-112.9457 600.937,-112.1395"/>
<polygon fill="#000000" stroke="#000000" points="600.8974,-108.6269 590.6652,-111.3752 600.3779,-115.6076 600.8974,-108.6269"/>
<text text-anchor="start" x="612.5" y="-113" font-family="Helvetica,sans-Serif" font-size="10.00" fill="#000000">avl_burstcounter &lt; avl_burstcount &#160;&#160;</text>
</g>
<!-- XFER_PARTIAL_BURST&#45;&gt;XFER_PARTIAL_BURST -->
<g id="edge8" class="edge transition">
<title>XFER_PARTIAL_BURST&#45;&gt;XFER_PARTIAL_BURST</title>
<path fill="none" stroke="#000000" d="M215.1837,-120.5105C228.1138,-119.8648 237,-118.3613 237,-116 237,-114.3397 232.6068,-113.1035 225.5036,-112.2914"/>
<polygon fill="#000000" stroke="#000000" points="225.4248,-108.7748 215.1837,-111.4895 224.8825,-115.7537 225.4248,-108.7748"/>
<text text-anchor="start" x="237" y="-113" font-family="Helvetica,sans-Serif" font-size="10.00" fill="#000000">avl_burstcounter &lt; avl_burstcount &#160;&#160;</text>
</g>
<!-- XFER_END -->
<g id="node6" class="node state regular">
<title>XFER_END</title>
<polygon fill="#ffffff" fill-opacity="0.003922" stroke="transparent" stroke-width="2" points="548.5,-52 463.5,-52 463.5,-16 548.5,-16 548.5,-52"/>
<text text-anchor="start" x="474.5008" y="-30.2" font-family="Helvetica,sans-Serif" font-size="12.00" fill="#000000">XFER_END</text>
<path fill="none" stroke="#000000" stroke-width="2" d="M475.8333,-17C475.8333,-17 536.1667,-17 536.1667,-17 541.8333,-17 547.5,-22.6667 547.5,-28.3333 547.5,-28.3333 547.5,-39.6667 547.5,-39.6667 547.5,-45.3333 541.8333,-51 536.1667,-51 536.1667,-51 475.8333,-51 475.8333,-51 470.1667,-51 464.5,-45.3333 464.5,-39.6667 464.5,-39.6667 464.5,-28.3333 464.5,-28.3333 464.5,-22.6667 470.1667,-17 475.8333,-17"/>
</g>
<!-- XFER_PARTIAL_BURST&#45;&gt;XFER_END -->
<g id="edge9" class="edge transition">
<title>XFER_PARTIAL_BURST&#45;&gt;XFER_END</title>
<path fill="none" stroke="#000000" d="M215.3743,-98.4089C287.2827,-82.4725 391.2099,-59.44 453.3418,-45.6702"/>
<polygon fill="#000000" stroke="#000000" points="454.3113,-49.0403 463.3171,-43.4595 452.7967,-42.2062 454.3113,-49.0403"/>
<text text-anchor="start" x="345" y="-72" font-family="Helvetica,sans-Serif" font-size="10.00" fill="#000000">not (avl_burstcounter &lt; avl_burstcount) &#160;&#160;</text>
</g>
<!-- XFER_END&#45;&gt;IDLE -->
<g id="edge10" class="edge transition">
<title>XFER_END&#45;&gt;IDLE</title>
<path fill="none" stroke="#000000" d="M548.7169,-36.0704C653.7281,-41.4422 916,-56.6914 916,-75 916,-263 916,-263 916,-263 916,-292.8919 704.9763,-301.1434 616.4079,-303.2903"/>
<polygon fill="#000000" stroke="#000000" points="616.1537,-299.7951 606.2363,-303.5228 616.3138,-306.7932 616.1537,-299.7951"/>
<text text-anchor="middle" x="917.3895" y="-166" font-family="Helvetica,sans-Serif" font-size="10.00" fill="#000000"> </text>
</g>
</g>
</svg>
