<?xml version="1.0" encoding="UTF-8" standalone="no"?>
<!DOCTYPE svg PUBLIC "-//W3C//DTD SVG 1.1//EN"
 "http://www.w3.org/Graphics/SVG/1.1/DTD/svg11.dtd">
<!-- Generated by graphviz version 2.40.1 (20161225.0304)
 -->
<!-- Title: state transitions Pages: 1 -->
<svg width="352pt" height="188pt"
 viewBox="0.00 0.00 352.00 188.00" xmlns="http://www.w3.org/2000/svg" xmlns:xlink="http://www.w3.org/1999/xlink">
<g id="graph0" class="graph" transform="scale(1 1) rotate(0) translate(4 184)">
<title>state transitions</title>
<polygon fill="#ffffff" stroke="transparent" points="-4,4 -4,-184 348,-184 348,4 -4,4"/>
<g id="clust1" class="cluster state regular">
<title>cluster_rd_state</title>
<path fill="none" stroke="#000000" stroke-width="2" d="M20,-8C20,-8 324,-8 324,-8 330,-8 336,-14 336,-20 336,-20 336,-160 336,-160 336,-166 330,-172 324,-172 324,-172 20,-172 20,-172 14,-172 8,-166 8,-160 8,-160 8,-20 8,-20 8,-14 14,-8 20,-8"/>
<text text-anchor="start" x="150.8262" y="-153.2" font-family="Helvetica,sans-Serif" font-size="12.00" fill="#000000">rd_state</text>
</g>
<!-- rd_state -->
<!-- IDLE -->
<g id="node2" class="node state regular">
<title>IDLE</title>
<polygon fill="#ffffff" fill-opacity="0.003922" stroke="transparent" stroke-width="2" points="135,-134 79,-134 79,-98 135,-98 135,-134"/>
<text text-anchor="start" x="93.6644" y="-112.2" font-family="Helvetica,sans-Serif" font-size="12.00" fill="#000000">IDLE</text>
<path fill="none" stroke="#000000" stroke-width="2" d="M91.3333,-99C91.3333,-99 122.6667,-99 122.6667,-99 128.3333,-99 134,-104.6667 134,-110.3333 134,-110.3333 134,-121.6667 134,-121.6667 134,-127.3333 128.3333,-133 122.6667,-133 122.6667,-133 91.3333,-133 91.3333,-133 85.6667,-133 80,-127.3333 80,-121.6667 80,-121.6667 80,-110.3333 80,-110.3333 80,-104.6667 85.6667,-99 91.3333,-99"/>
</g>
<!-- RESP -->
<g id="node3" class="node state regular">
<title>RESP</title>
<polygon fill="#ffffff" fill-opacity="0.003922" stroke="transparent" stroke-width="2" points="135,-52 79,-52 79,-16 135,-16 135,-52"/>
<text text-anchor="start" x="90.6644" y="-30.2" font-family="Helvetica,sans-Serif" font-size="12.00" fill="#000000">RESP</text>
<path fill="none" stroke="#000000" stroke-width="2" d="M91.3333,-17C91.3333,-17 122.6667,-17 122.6667,-17 128.3333,-17 134,-22.6667 134,-28.3333 134,-28.3333 134,-39.6667 134,-39.6667 134,-45.3333 128.3333,-51 122.6667,-51 122.6667,-51 91.3333,-51 91.3333,-51 85.6667,-51 80,-45.3333 80,-39.6667 80,-39.6667 80,-28.3333 80,-28.3333 80,-22.6667 85.6667,-17 91.3333,-17"/>
</g>
<!-- IDLE&#45;&gt;RESP -->
<g id="edge1" class="edge transition">
<title>IDLE&#45;&gt;RESP</title>
<path fill="none" stroke="#000000" d="M78.8227,-103.8843C69.4945,-98.3512 60.1707,-90.8035 54.949,-81 48.5312,-68.9508 57.7204,-58.4403 70.0764,-50.432"/>
<polygon fill="#000000" stroke="#000000" points="72.0666,-53.3247 78.9835,-45.2994 68.5716,-47.2596 72.0666,-53.3247"/>
<text text-anchor="start" x="54" y="-72" font-family="Helvetica,sans-Serif" font-size="10.00" fill="#000000">s_axi_arvalid = &#39;1&#39; &#160;&#160;</text>
</g>
<!-- RESP&#45;&gt;IDLE -->
<g id="edge2" class="edge transition">
<title>RESP&#45;&gt;IDLE</title>
<path fill="none" stroke="#000000" d="M133.7848,-52.1866C142.3215,-60.3549 148.5176,-70.508 144,-81 142.5936,-84.2663 140.7159,-87.3702 138.5496,-90.2821"/>
<polygon fill="#000000" stroke="#000000" points="135.7857,-88.1256 131.8325,-97.9553 141.0528,-92.7364 135.7857,-88.1256"/>
<text text-anchor="start" x="145" y="-72" font-family="Helvetica,sans-Serif" font-size="10.00" fill="#000000">rd_stb = &#39;1&#39; and s_axi_rready = &#39;1&#39; &#160;&#160;</text>
</g>
</g>
</svg>
