<?xml version="1.0" encoding="UTF-8" standalone="no"?>
<!DOCTYPE svg PUBLIC "-//W3C//DTD SVG 1.1//EN"
 "http://www.w3.org/Graphics/SVG/1.1/DTD/svg11.dtd">
<!-- Generated by graphviz version 2.40.1 (20161225.0304)
 -->
<!-- Title: state transitions Pages: 1 -->
<svg width="429pt" height="270pt"
 viewBox="0.00 0.00 429.17 270.00" xmlns="http://www.w3.org/2000/svg" xmlns:xlink="http://www.w3.org/1999/xlink">
<g id="graph0" class="graph" transform="scale(1 1) rotate(0) translate(4 266)">
<title>state transitions</title>
<polygon fill="#ffffff" stroke="transparent" points="-4,4 -4,-266 425.172,-266 425.172,4 -4,4"/>
<g id="clust1" class="cluster state regular">
<title>cluster_wr_state</title>
<path fill="none" stroke="#000000" stroke-width="2" d="M20,-8C20,-8 325,-8 325,-8 331,-8 337,-14 337,-20 337,-20 337,-242 337,-242 337,-248 331,-254 325,-254 325,-254 20,-254 20,-254 14,-254 8,-248 8,-242 8,-242 8,-20 8,-20 8,-14 14,-8 20,-8"/>
<text text-anchor="start" x="150.3302" y="-235.2" font-family="Helvetica,sans-Serif" font-size="12.00" fill="#000000">wr_state</text>
</g>
<!-- wr_state -->
<!-- IDLE -->
<g id="node2" class="node state regular">
<title>IDLE</title>
<polygon fill="#ffffff" fill-opacity="0.003922" stroke="transparent" stroke-width="2" points="131,-216 75,-216 75,-180 131,-180 131,-216"/>
<text text-anchor="start" x="89.6644" y="-194.2" font-family="Helvetica,sans-Serif" font-size="12.00" fill="#000000">IDLE</text>
<path fill="none" stroke="#000000" stroke-width="2" d="M87.3333,-181C87.3333,-181 118.6667,-181 118.6667,-181 124.3333,-181 130,-186.6667 130,-192.3333 130,-192.3333 130,-203.6667 130,-203.6667 130,-209.3333 124.3333,-215 118.6667,-215 118.6667,-215 87.3333,-215 87.3333,-215 81.6667,-215 76,-209.3333 76,-203.6667 76,-203.6667 76,-192.3333 76,-192.3333 76,-186.6667 81.6667,-181 87.3333,-181"/>
</g>
<!-- ACK -->
<g id="node3" class="node state regular">
<title>ACK</title>
<polygon fill="#ffffff" fill-opacity="0.003922" stroke="transparent" stroke-width="2" points="134,-134 78,-134 78,-98 134,-98 134,-134"/>
<text text-anchor="start" x="93.6658" y="-112.2" font-family="Helvetica,sans-Serif" font-size="12.00" fill="#000000">ACK</text>
<path fill="none" stroke="#000000" stroke-width="2" d="M90.3333,-99C90.3333,-99 121.6667,-99 121.6667,-99 127.3333,-99 133,-104.6667 133,-110.3333 133,-110.3333 133,-121.6667 133,-121.6667 133,-127.3333 127.3333,-133 121.6667,-133 121.6667,-133 90.3333,-133 90.3333,-133 84.6667,-133 79,-127.3333 79,-121.6667 79,-121.6667 79,-110.3333 79,-110.3333 79,-104.6667 84.6667,-99 90.3333,-99"/>
</g>
<!-- IDLE&#45;&gt;ACK -->
<g id="edge1" class="edge transition">
<title>IDLE&#45;&gt;ACK</title>
<path fill="none" stroke="#000000" d="M74.7912,-185.2284C60.3822,-176.7462 47.2624,-164.6778 54.504,-151 58.0161,-144.3663 63.4117,-138.7563 69.4104,-134.1027"/>
<polygon fill="#000000" stroke="#000000" points="71.5599,-136.8731 77.8443,-128.3433 67.6123,-131.0924 71.5599,-136.8731"/>
<text text-anchor="start" x="54" y="-154" font-family="Helvetica,sans-Serif" font-size="10.00" fill="#000000">s_axi_awvalid = &#39;1&#39; and s_axi_wvalid = &#39;1&#39; and wr_ack = &#39;1&#39; &#160;&#160;</text>
</g>
<!-- RESP -->
<g id="node4" class="node state regular">
<title>RESP</title>
<polygon fill="#ffffff" fill-opacity="0.003922" stroke="transparent" stroke-width="2" points="201,-52 145,-52 145,-16 201,-16 201,-52"/>
<text text-anchor="start" x="156.6644" y="-30.2" font-family="Helvetica,sans-Serif" font-size="12.00" fill="#000000">RESP</text>
<path fill="none" stroke="#000000" stroke-width="2" d="M157.3333,-17C157.3333,-17 188.6667,-17 188.6667,-17 194.3333,-17 200,-22.6667 200,-28.3333 200,-28.3333 200,-39.6667 200,-39.6667 200,-45.3333 194.3333,-51 188.6667,-51 188.6667,-51 157.3333,-51 157.3333,-51 151.6667,-51 146,-45.3333 146,-39.6667 146,-39.6667 146,-28.3333 146,-28.3333 146,-22.6667 151.6667,-17 157.3333,-17"/>
</g>
<!-- ACK&#45;&gt;RESP -->
<g id="edge2" class="edge transition">
<title>ACK&#45;&gt;RESP</title>
<path fill="none" stroke="#000000" d="M120.8695,-97.8015C129.8907,-86.7606 141.5549,-72.4851 151.5618,-60.2378"/>
<polygon fill="#000000" stroke="#000000" points="154.5552,-62.1059 158.1721,-52.1476 149.1345,-57.6768 154.5552,-62.1059"/>
<text text-anchor="middle" x="144.3895" y="-72" font-family="Helvetica,sans-Serif" font-size="10.00" fill="#000000"> </text>
</g>
<!-- RESP&#45;&gt;IDLE -->
<g id="edge3" class="edge transition">
<title>RESP&#45;&gt;IDLE</title>
<path fill="none" stroke="#000000" d="M201.059,-43.4984C255.5589,-63.3796 366.7037,-111.7938 323,-163 317.1406,-169.8652 202.8164,-185.3323 141.3492,-193.2033"/>
<polygon fill="#000000" stroke="#000000" points="140.7211,-189.755 131.2433,-194.49 141.6053,-196.6989 140.7211,-189.755"/>
<text text-anchor="start" x="332" y="-113" font-family="Helvetica,sans-Serif" font-size="10.00" fill="#000000">s_axi_bready = &#39;1&#39; &#160;&#160;</text>
</g>
</g>
</svg>
