<?xml version="1.0" encoding="UTF-8" standalone="no"?>
<!DOCTYPE svg PUBLIC "-//W3C//DTD SVG 1.1//EN"
 "http://www.w3.org/Graphics/SVG/1.1/DTD/svg11.dtd">
<!-- Generated by graphviz version 2.40.1 (20161225.0304)
 -->
<!-- Title: state transitions Pages: 1 -->
<svg width="300pt" height="434pt"
 viewBox="0.00 0.00 300.00 434.00" xmlns="http://www.w3.org/2000/svg" xmlns:xlink="http://www.w3.org/1999/xlink">
<g id="graph0" class="graph" transform="scale(1 1) rotate(0) translate(4 430)">
<title>state transitions</title>
<polygon fill="#ffffff" stroke="transparent" points="-4,4 -4,-430 296,-430 296,4 -4,4"/>
<g id="clust1" class="cluster state regular">
<title>cluster_bufctrl</title>
<path fill="none" stroke="#000000" stroke-width="2" d="M20,-8C20,-8 272,-8 272,-8 278,-8 284,-14 284,-20 284,-20 284,-406 284,-406 284,-412 278,-418 272,-418 272,-418 20,-418 20,-418 14,-418 8,-412 8,-406 8,-406 8,-20 8,-20 8,-14 14,-8 20,-8"/>
<text text-anchor="start" x="129.6656" y="-399.2" font-family="Helvetica,sans-Serif" font-size="12.00" fill="#000000">bufctrl</text>
</g>
<!-- bufctrl -->
<!-- IDLE -->
<g id="node2" class="node state regular">
<title>IDLE</title>
<polygon fill="#ffffff" fill-opacity="0.003922" stroke="transparent" stroke-width="2" points="116,-380 60,-380 60,-344 116,-344 116,-380"/>
<text text-anchor="start" x="74.6644" y="-358.2" font-family="Helvetica,sans-Serif" font-size="12.00" fill="#000000">IDLE</text>
<path fill="none" stroke="#000000" stroke-width="2" d="M72.3333,-345C72.3333,-345 103.6667,-345 103.6667,-345 109.3333,-345 115,-350.6667 115,-356.3333 115,-356.3333 115,-367.6667 115,-367.6667 115,-373.3333 109.3333,-379 103.6667,-379 103.6667,-379 72.3333,-379 72.3333,-379 66.6667,-379 61,-373.3333 61,-367.6667 61,-367.6667 61,-356.3333 61,-356.3333 61,-350.6667 66.6667,-345 72.3333,-345"/>
</g>
<!-- READ_CHA -->
<g id="node3" class="node state regular">
<title>READ_CHA</title>
<polygon fill="#ffffff" fill-opacity="0.003922" stroke="transparent" stroke-width="2" points="131.5,-298 44.5,-298 44.5,-262 131.5,-262 131.5,-298"/>
<text text-anchor="start" x="55.8348" y="-276.2" font-family="Helvetica,sans-Serif" font-size="12.00" fill="#000000">READ_CHA</text>
<path fill="none" stroke="#000000" stroke-width="2" d="M56.8333,-263C56.8333,-263 119.1667,-263 119.1667,-263 124.8333,-263 130.5,-268.6667 130.5,-274.3333 130.5,-274.3333 130.5,-285.6667 130.5,-285.6667 130.5,-291.3333 124.8333,-297 119.1667,-297 119.1667,-297 56.8333,-297 56.8333,-297 51.1667,-297 45.5,-291.3333 45.5,-285.6667 45.5,-285.6667 45.5,-274.3333 45.5,-274.3333 45.5,-268.6667 51.1667,-263 56.8333,-263"/>
</g>
<!-- IDLE&#45;&gt;READ_CHA -->
<g id="edge1" class="edge transition">
<title>IDLE&#45;&gt;READ_CHA</title>
<path fill="none" stroke="#000000" d="M88,-343.8015C88,-333.3976 88,-320.1215 88,-308.3768"/>
<polygon fill="#000000" stroke="#000000" points="91.5001,-308.1476 88,-298.1476 84.5001,-308.1476 91.5001,-308.1476"/>
<text text-anchor="start" x="88" y="-318" font-family="Helvetica,sans-Serif" font-size="10.00" fill="#000000">conf_txdata = &#39;1&#39; &#160;&#160;</text>
</g>
<!-- CHA_RDY -->
<g id="node4" class="node state regular">
<title>CHA_RDY</title>
<polygon fill="#ffffff" fill-opacity="0.003922" stroke="transparent" stroke-width="2" points="103.5,-216 24.5,-216 24.5,-180 103.5,-180 103.5,-216"/>
<text text-anchor="start" x="35.8362" y="-194.2" font-family="Helvetica,sans-Serif" font-size="12.00" fill="#000000">CHA_RDY</text>
<path fill="none" stroke="#000000" stroke-width="2" d="M36.8333,-181C36.8333,-181 91.1667,-181 91.1667,-181 96.8333,-181 102.5,-186.6667 102.5,-192.3333 102.5,-192.3333 102.5,-203.6667 102.5,-203.6667 102.5,-209.3333 96.8333,-215 91.1667,-215 91.1667,-215 36.8333,-215 36.8333,-215 31.1667,-215 25.5,-209.3333 25.5,-203.6667 25.5,-203.6667 25.5,-192.3333 25.5,-192.3333 25.5,-186.6667 31.1667,-181 36.8333,-181"/>
</g>
<!-- READ_CHA&#45;&gt;CHA_RDY -->
<g id="edge2" class="edge transition">
<title>READ_CHA&#45;&gt;CHA_RDY</title>
<path fill="none" stroke="#000000" d="M82.6736,-261.8015C79.5975,-251.2915 75.6635,-237.8503 72.2003,-226.0177"/>
<polygon fill="#000000" stroke="#000000" points="75.4796,-224.7618 69.3115,-216.1476 68.7615,-226.7281 75.4796,-224.7618"/>
<text text-anchor="middle" x="78.3895" y="-236" font-family="Helvetica,sans-Serif" font-size="10.00" fill="#000000"> </text>
</g>
<!-- READ_CHB -->
<g id="node5" class="node state regular">
<title>READ_CHB</title>
<polygon fill="#ffffff" fill-opacity="0.003922" stroke="transparent" stroke-width="2" points="129.5,-134 42.5,-134 42.5,-98 129.5,-98 129.5,-134"/>
<text text-anchor="start" x="53.8348" y="-112.2" font-family="Helvetica,sans-Serif" font-size="12.00" fill="#000000">READ_CHB</text>
<path fill="none" stroke="#000000" stroke-width="2" d="M54.8333,-99C54.8333,-99 117.1667,-99 117.1667,-99 122.8333,-99 128.5,-104.6667 128.5,-110.3333 128.5,-110.3333 128.5,-121.6667 128.5,-121.6667 128.5,-127.3333 122.8333,-133 117.1667,-133 117.1667,-133 54.8333,-133 54.8333,-133 49.1667,-133 43.5,-127.3333 43.5,-121.6667 43.5,-121.6667 43.5,-110.3333 43.5,-110.3333 43.5,-104.6667 49.1667,-99 54.8333,-99"/>
</g>
<!-- CHA_RDY&#45;&gt;READ_CHB -->
<g id="edge3" class="edge transition">
<title>CHA_RDY&#45;&gt;READ_CHB</title>
<path fill="none" stroke="#000000" d="M55.9735,-179.7424C53.2062,-170.8681 51.5753,-160.1662 55.047,-151 56.1603,-148.0605 57.6458,-145.2089 59.3653,-142.4861"/>
<polygon fill="#000000" stroke="#000000" points="62.3143,-144.3863 65.4853,-134.2771 56.7022,-140.2024 62.3143,-144.3863"/>
<text text-anchor="start" x="55" y="-154" font-family="Helvetica,sans-Serif" font-size="10.00" fill="#000000">cha_samp_ack = &#39;1&#39; &#160;&#160;</text>
</g>
<!-- CHB_RDY -->
<g id="node6" class="node state regular">
<title>CHB_RDY</title>
<polygon fill="#ffffff" fill-opacity="0.003922" stroke="transparent" stroke-width="2" points="172.5,-52 93.5,-52 93.5,-16 172.5,-16 172.5,-52"/>
<text text-anchor="start" x="104.8362" y="-30.2" font-family="Helvetica,sans-Serif" font-size="12.00" fill="#000000">CHB_RDY</text>
<path fill="none" stroke="#000000" stroke-width="2" d="M105.8333,-17C105.8333,-17 160.1667,-17 160.1667,-17 165.8333,-17 171.5,-22.6667 171.5,-28.3333 171.5,-28.3333 171.5,-39.6667 171.5,-39.6667 171.5,-45.3333 165.8333,-51 160.1667,-51 160.1667,-51 105.8333,-51 105.8333,-51 100.1667,-51 94.5,-45.3333 94.5,-39.6667 94.5,-39.6667 94.5,-28.3333 94.5,-28.3333 94.5,-22.6667 100.1667,-17 105.8333,-17"/>
</g>
<!-- READ_CHB&#45;&gt;CHB_RDY -->
<g id="edge4" class="edge transition">
<title>READ_CHB&#45;&gt;CHB_RDY</title>
<path fill="none" stroke="#000000" d="M96.4308,-97.8015C102.6374,-86.973 110.6274,-73.033 117.555,-60.9466"/>
<polygon fill="#000000" stroke="#000000" points="120.6621,-62.564 122.5983,-52.1476 114.5889,-59.083 120.6621,-62.564"/>
<text text-anchor="middle" x="113.3895" y="-72" font-family="Helvetica,sans-Serif" font-size="10.00" fill="#000000"> </text>
</g>
<!-- CHB_RDY&#45;&gt;READ_CHA -->
<g id="edge5" class="edge transition">
<title>CHB_RDY&#45;&gt;READ_CHA</title>
<path fill="none" stroke="#000000" d="M166.914,-52.0565C173.8087,-58.154 179,-65.7998 179,-75 179,-239 179,-239 179,-239 179,-248.8356 161.1056,-258.0104 141.1871,-265.1764"/>
<polygon fill="#000000" stroke="#000000" points="139.9752,-261.8916 131.6343,-268.4246 142.2287,-268.519 139.9752,-261.8916"/>
<text text-anchor="start" x="179" y="-154" font-family="Helvetica,sans-Serif" font-size="10.00" fill="#000000">chb_samp_ack = &#39;1&#39; &#160;&#160;</text>
</g>
</g>
</svg>
