<?xml version="1.0" encoding="UTF-8" standalone="no"?>
<!DOCTYPE svg PUBLIC "-//W3C//DTD SVG 1.1//EN"
 "http://www.w3.org/Graphics/SVG/1.1/DTD/svg11.dtd">
<!-- Generated by graphviz version 2.40.1 (20161225.0304)
 -->
<!-- Title: state transitions Pages: 1 -->
<svg width="299pt" height="200pt"
 viewBox="0.00 0.00 299.00 200.00" xmlns="http://www.w3.org/2000/svg" xmlns:xlink="http://www.w3.org/1999/xlink">
<g id="graph0" class="graph" transform="scale(1 1) rotate(0) translate(4 196)">
<title>state transitions</title>
<polygon fill="#ffffff" stroke="transparent" points="-4,4 -4,-196 295,-196 295,4 -4,4"/>
<g id="clust1" class="cluster state regular">
<title>cluster_sequencer_state</title>
<path fill="none" stroke="#000000" stroke-width="2" d="M20,-8C20,-8 271,-8 271,-8 277,-8 283,-14 283,-20 283,-20 283,-172 283,-172 283,-178 277,-184 271,-184 271,-184 20,-184 20,-184 14,-184 8,-178 8,-172 8,-172 8,-20 8,-20 8,-14 14,-8 20,-8"/>
<text text-anchor="start" x="101.1492" y="-165.2" font-family="Helvetica,sans-Serif" font-size="12.00" fill="#000000">sequencer_state</text>
</g>
<!-- sequencer_state -->
<!-- IDLE -->
<g id="node2" class="node state regular">
<title>IDLE</title>
<polygon fill="#ffffff" fill-opacity="0.003922" stroke="transparent" stroke-width="2" points="145,-146 89,-146 89,-110 145,-110 145,-146"/>
<text text-anchor="start" x="103.6644" y="-124.2" font-family="Helvetica,sans-Serif" font-size="12.00" fill="#000000">IDLE</text>
<path fill="none" stroke="#000000" stroke-width="2" d="M101.3333,-111C101.3333,-111 132.6667,-111 132.6667,-111 138.3333,-111 144,-116.6667 144,-122.3333 144,-122.3333 144,-133.6667 144,-133.6667 144,-139.3333 138.3333,-145 132.6667,-145 132.6667,-145 101.3333,-145 101.3333,-145 95.6667,-145 90,-139.3333 90,-133.6667 90,-133.6667 90,-122.3333 90,-122.3333 90,-116.6667 95.6667,-111 101.3333,-111"/>
</g>
<!-- ACTIVE -->
<g id="node3" class="node state regular">
<title>ACTIVE</title>
<polygon fill="#ffffff" fill-opacity="0.003922" stroke="transparent" stroke-width="2" points="151.5,-52 86.5,-52 86.5,-16 151.5,-16 151.5,-52"/>
<text text-anchor="start" x="97.8316" y="-30.2" font-family="Helvetica,sans-Serif" font-size="12.00" fill="#000000">ACTIVE</text>
<path fill="none" stroke="#000000" stroke-width="2" d="M98.8333,-17C98.8333,-17 139.1667,-17 139.1667,-17 144.8333,-17 150.5,-22.6667 150.5,-28.3333 150.5,-28.3333 150.5,-39.6667 150.5,-39.6667 150.5,-45.3333 144.8333,-51 139.1667,-51 139.1667,-51 98.8333,-51 98.8333,-51 93.1667,-51 87.5,-45.3333 87.5,-39.6667 87.5,-39.6667 87.5,-28.3333 87.5,-28.3333 87.5,-22.6667 93.1667,-17 98.8333,-17"/>
</g>
<!-- IDLE&#45;&gt;ACTIVE -->
<g id="edge1" class="edge transition">
<title>IDLE&#45;&gt;ACTIVE</title>
<path fill="none" stroke="#000000" d="M88.8035,-119.4295C76.1274,-114.0105 62.3893,-105.5907 55.041,-93 49.6643,-83.7876 49.6023,-78.176 55.041,-69 60.2203,-60.2617 68.4375,-53.5625 77.2791,-48.4827"/>
<polygon fill="#000000" stroke="#000000" points="78.9115,-51.5792 86.2393,-43.9272 75.739,-45.3394 78.9115,-51.5792"/>
<text text-anchor="start" x="55" y="-84" font-family="Helvetica,sans-Serif" font-size="10.00" fill="#000000">ovf_frame_cnt = 0 &#160;&#160;</text>
<text text-anchor="start" x="55" y="-72" font-family="Helvetica,sans-Serif" font-size="10.00" fill="#000000">channel_sync_int = &#39;1&#39; &#160;&#160;</text>
</g>
<!-- ACTIVE&#45;&gt;IDLE -->
<g id="edge2" class="edge transition">
<title>ACTIVE&#45;&gt;IDLE</title>
<path fill="none" stroke="#000000" d="M149.3378,-52.0525C154.8617,-56.825 159.862,-62.4942 163,-69 167.634,-78.6075 167.7372,-83.443 163,-93 160.5488,-97.9451 157.0276,-102.3808 153.0093,-106.2979"/>
<polygon fill="#000000" stroke="#000000" points="150.7233,-103.6473 145.3633,-112.7863 155.2526,-108.9846 150.7233,-103.6473"/>
<text text-anchor="start" x="166" y="-84" font-family="Helvetica,sans-Serif" font-size="10.00" fill="#000000">seq = C_NUM &#45; 1 &#160;&#160;</text>
<text text-anchor="start" x="166" y="-72" font-family="Helvetica,sans-Serif" font-size="10.00" fill="#000000">ack = &#39;1&#39; &#160;&#160;</text>
</g>
</g>
</svg>
