<?xml version="1.0" encoding="UTF-8" standalone="no"?>
<!DOCTYPE svg PUBLIC "-//W3C//DTD SVG 1.1//EN"
 "http://www.w3.org/Graphics/SVG/1.1/DTD/svg11.dtd">
<!-- Generated by graphviz version 2.40.1 (20161225.0304)
 -->
<!-- Title: state transitions Pages: 1 -->
<svg width="294pt" height="400pt"
 viewBox="0.00 0.00 294.00 400.00" xmlns="http://www.w3.org/2000/svg" xmlns:xlink="http://www.w3.org/1999/xlink">
<g id="graph0" class="graph" transform="scale(1 1) rotate(0) translate(4 396)">
<title>state transitions</title>
<polygon fill="#ffffff" stroke="transparent" points="-4,4 -4,-396 290,-396 290,4 -4,4"/>
<g id="clust1" class="cluster state regular">
<title>cluster_framest</title>
<path fill="none" stroke="#000000" stroke-width="2" d="M20,-8C20,-8 266,-8 266,-8 272,-8 278,-14 278,-20 278,-20 278,-372 278,-372 278,-378 272,-384 266,-384 266,-384 20,-384 20,-384 14,-384 8,-378 8,-372 8,-372 8,-20 8,-20 8,-14 14,-8 20,-8"/>
<text text-anchor="start" x="122.9996" y="-365.2" font-family="Helvetica,sans-Serif" font-size="12.00" fill="#000000">framest</text>
</g>
<!-- framest -->
<!-- IDLE -->
<g id="node2" class="node state regular">
<title>IDLE</title>
<polygon fill="#ffffff" fill-opacity="0.003922" stroke="transparent" stroke-width="2" points="135,-346 79,-346 79,-310 135,-310 135,-346"/>
<text text-anchor="start" x="93.6644" y="-324.2" font-family="Helvetica,sans-Serif" font-size="12.00" fill="#000000">IDLE</text>
<path fill="none" stroke="#000000" stroke-width="2" d="M91.3333,-311C91.3333,-311 122.6667,-311 122.6667,-311 128.3333,-311 134,-316.6667 134,-322.3333 134,-322.3333 134,-333.6667 134,-333.6667 134,-339.3333 128.3333,-345 122.6667,-345 122.6667,-345 91.3333,-345 91.3333,-345 85.6667,-345 80,-339.3333 80,-333.6667 80,-333.6667 80,-322.3333 80,-322.3333 80,-316.6667 85.6667,-311 91.3333,-311"/>
</g>
<!-- BLOCK_START -->
<g id="node3" class="node state regular">
<title>BLOCK_START</title>
<polygon fill="#ffffff" fill-opacity="0.003922" stroke="transparent" stroke-width="2" points="161,-264 53,-264 53,-228 161,-228 161,-264"/>
<text text-anchor="start" x="63.6626" y="-242.2" font-family="Helvetica,sans-Serif" font-size="12.00" fill="#000000">BLOCK_START</text>
<path fill="none" stroke="#000000" stroke-width="2" d="M65.3333,-229C65.3333,-229 148.6667,-229 148.6667,-229 154.3333,-229 160,-234.6667 160,-240.3333 160,-240.3333 160,-251.6667 160,-251.6667 160,-257.3333 154.3333,-263 148.6667,-263 148.6667,-263 65.3333,-263 65.3333,-263 59.6667,-263 54,-257.3333 54,-251.6667 54,-251.6667 54,-240.3333 54,-240.3333 54,-234.6667 59.6667,-229 65.3333,-229"/>
</g>
<!-- IDLE&#45;&gt;BLOCK_START -->
<g id="edge1" class="edge transition">
<title>IDLE&#45;&gt;BLOCK_START</title>
<path fill="none" stroke="#000000" d="M107,-309.8015C107,-299.3976 107,-286.1215 107,-274.3768"/>
<polygon fill="#000000" stroke="#000000" points="110.5001,-274.1476 107,-264.1476 103.5001,-274.1476 110.5001,-274.1476"/>
<text text-anchor="middle" x="108.3895" y="-284" font-family="Helvetica,sans-Serif" font-size="10.00" fill="#000000"> </text>
</g>
<!-- CHANNEL_B -->
<g id="node5" class="node state regular">
<title>CHANNEL_B</title>
<polygon fill="#ffffff" fill-opacity="0.003922" stroke="transparent" stroke-width="2" points="162,-158 68,-158 68,-122 162,-122 162,-158"/>
<text text-anchor="start" x="78.9994" y="-136.2" font-family="Helvetica,sans-Serif" font-size="12.00" fill="#000000">CHANNEL_B</text>
<path fill="none" stroke="#000000" stroke-width="2" d="M80.3333,-123C80.3333,-123 149.6667,-123 149.6667,-123 155.3333,-123 161,-128.6667 161,-134.3333 161,-134.3333 161,-145.6667 161,-145.6667 161,-151.3333 155.3333,-157 149.6667,-157 149.6667,-157 80.3333,-157 80.3333,-157 74.6667,-157 69,-151.3333 69,-145.6667 69,-145.6667 69,-134.3333 69,-134.3333 69,-128.6667 74.6667,-123 80.3333,-123"/>
</g>
<!-- BLOCK_START&#45;&gt;CHANNEL_B -->
<g id="edge2" class="edge transition">
<title>BLOCK_START&#45;&gt;CHANNEL_B</title>
<path fill="none" stroke="#000000" d="M70.1964,-227.8258C64.2262,-223.188 58.861,-217.6022 55.36,-211 47.8643,-196.8644 47.4092,-188.8847 55.36,-175 57.5412,-171.1908 60.316,-167.7558 63.4702,-164.6657"/>
<polygon fill="#000000" stroke="#000000" points="65.9593,-167.1482 71.4179,-158.0678 61.4881,-161.7623 65.9593,-167.1482"/>
<text text-anchor="start" x="55" y="-196" font-family="Helvetica,sans-Serif" font-size="10.00" fill="#000000">toggle = &#39;1&#39; &#160;&#160;</text>
<text text-anchor="start" x="55" y="-184" font-family="Helvetica,sans-Serif" font-size="10.00" fill="#000000">not (bit_cnt &lt; 31) &#160;&#160;</text>
</g>
<!-- CHANNEL_A -->
<g id="node4" class="node state regular">
<title>CHANNEL_A</title>
<polygon fill="#ffffff" fill-opacity="0.003922" stroke="transparent" stroke-width="2" points="167,-52 73,-52 73,-16 167,-16 167,-52"/>
<text text-anchor="start" x="83.9994" y="-30.2" font-family="Helvetica,sans-Serif" font-size="12.00" fill="#000000">CHANNEL_A</text>
<path fill="none" stroke="#000000" stroke-width="2" d="M85.3333,-17C85.3333,-17 154.6667,-17 154.6667,-17 160.3333,-17 166,-22.6667 166,-28.3333 166,-28.3333 166,-39.6667 166,-39.6667 166,-45.3333 160.3333,-51 154.6667,-51 154.6667,-51 85.3333,-51 85.3333,-51 79.6667,-51 74,-45.3333 74,-39.6667 74,-39.6667 74,-28.3333 74,-28.3333 74,-22.6667 79.6667,-17 85.3333,-17"/>
</g>
<!-- CHANNEL_A&#45;&gt;CHANNEL_B -->
<g id="edge3" class="edge transition">
<title>CHANNEL_A&#45;&gt;CHANNEL_B</title>
<path fill="none" stroke="#000000" d="M80.8255,-52.0299C74.6147,-56.6595 69.0363,-62.2793 65.36,-69 57.6816,-83.0371 57.9952,-90.7958 65.36,-105 67.2181,-108.5836 69.6305,-111.8781 72.3899,-114.8898"/>
<polygon fill="#000000" stroke="#000000" points="70.1312,-117.5685 79.8456,-121.7972 74.8886,-112.4335 70.1312,-117.5685"/>
<text text-anchor="start" x="65" y="-90" font-family="Helvetica,sans-Serif" font-size="10.00" fill="#000000">toggle = &#39;1&#39; &#160;&#160;</text>
<text text-anchor="start" x="65" y="-78" font-family="Helvetica,sans-Serif" font-size="10.00" fill="#000000">not (bit_cnt &lt; 31) &#160;&#160;</text>
</g>
<!-- CHANNEL_B&#45;&gt;BLOCK_START -->
<g id="edge5" class="edge transition">
<title>CHANNEL_B&#45;&gt;BLOCK_START</title>
<path fill="none" stroke="#000000" d="M131.0991,-158.0787C134.7361,-163.2051 138.0858,-169.0267 140,-175 144.8828,-190.2367 145.905,-196.1295 140,-211 138.7671,-214.1047 137.1139,-217.0937 135.2017,-219.9274"/>
<polygon fill="#000000" stroke="#000000" points="132.3299,-217.9155 128.8499,-227.9225 137.8108,-222.2699 132.3299,-217.9155"/>
<text text-anchor="start" x="144" y="-202" font-family="Helvetica,sans-Serif" font-size="10.00" fill="#000000">toggle = &#39;1&#39; &#160;&#160;</text>
<text text-anchor="start" x="144" y="-190" font-family="Helvetica,sans-Serif" font-size="10.00" fill="#000000">not (bit_cnt &lt; 31) &#160;&#160;</text>
<text text-anchor="start" x="144" y="-178" font-family="Helvetica,sans-Serif" font-size="10.00" fill="#000000">not (frame_cnt &lt; 191) &#160;&#160;</text>
</g>
<!-- CHANNEL_B&#45;&gt;CHANNEL_A -->
<g id="edge4" class="edge transition">
<title>CHANNEL_B&#45;&gt;CHANNEL_A</title>
<path fill="none" stroke="#000000" d="M138.5121,-121.7492C143.1838,-116.8607 147.435,-111.1926 150,-105 156.1229,-90.2179 155.5511,-84.0062 150,-69 148.9241,-66.0914 147.4865,-63.2615 145.8214,-60.553"/>
<polygon fill="#000000" stroke="#000000" points="148.5931,-58.4131 139.8922,-52.3677 142.9241,-62.5195 148.5931,-58.4131"/>
<text text-anchor="start" x="154" y="-96" font-family="Helvetica,sans-Serif" font-size="10.00" fill="#000000">frame_cnt &lt; 191 &#160;&#160;</text>
<text text-anchor="start" x="154" y="-84" font-family="Helvetica,sans-Serif" font-size="10.00" fill="#000000">toggle = &#39;1&#39; &#160;&#160;</text>
<text text-anchor="start" x="154" y="-72" font-family="Helvetica,sans-Serif" font-size="10.00" fill="#000000">not (bit_cnt &lt; 31) &#160;&#160;</text>
</g>
</g>
</svg>
