<?xml version="1.0" encoding="UTF-8" standalone="no"?>
<!DOCTYPE svg PUBLIC "-//W3C//DTD SVG 1.1//EN"
 "http://www.w3.org/Graphics/SVG/1.1/DTD/svg11.dtd">
<!-- Generated by graphviz version 2.40.1 (20161225.0304)
 -->
<!-- Title: state transitions Pages: 1 -->
<svg width="260pt" height="270pt"
 viewBox="0.00 0.00 260.36 270.00" xmlns="http://www.w3.org/2000/svg" xmlns:xlink="http://www.w3.org/1999/xlink">
<g id="graph0" class="graph" transform="scale(1 1) rotate(0) translate(4 266)">
<title>state transitions</title>
<polygon fill="#ffffff" stroke="transparent" points="-4,4 -4,-266 256.362,-266 256.362,4 -4,4"/>
<g id="clust1" class="cluster state regular">
<title>cluster_s_state_reg</title>
<path fill="none" stroke="#000000" stroke-width="2" d="M20,-8C20,-8 210,-8 210,-8 216,-8 222,-14 222,-20 222,-20 222,-242 222,-242 222,-248 216,-254 210,-254 210,-254 20,-254 20,-254 14,-254 8,-248 8,-242 8,-242 8,-20 8,-20 8,-14 14,-8 20,-8"/>
<text text-anchor="start" x="83.6554" y="-235.2" font-family="Helvetica,sans-Serif" font-size="12.00" fill="#000000">s_state_reg</text>
</g>
<!-- s_state_reg -->
<!-- 2&#39;d0 -->
<g id="node2" class="node state regular">
<title>2&#39;d0</title>
<polygon fill="#ffffff" fill-opacity="0.003922" stroke="transparent" stroke-width="2" points="125,-216 69,-216 69,-180 125,-180 125,-216"/>
<text text-anchor="start" x="85.6684" y="-194.2" font-family="Helvetica,sans-Serif" font-size="12.00" fill="#000000">2&#39;d0</text>
<path fill="none" stroke="#000000" stroke-width="2" d="M81.3333,-181C81.3333,-181 112.6667,-181 112.6667,-181 118.3333,-181 124,-186.6667 124,-192.3333 124,-192.3333 124,-203.6667 124,-203.6667 124,-209.3333 118.3333,-215 112.6667,-215 112.6667,-215 81.3333,-215 81.3333,-215 75.6667,-215 70,-209.3333 70,-203.6667 70,-203.6667 70,-192.3333 70,-192.3333 70,-186.6667 75.6667,-181 81.3333,-181"/>
</g>
<!-- 2&#39;d1 -->
<g id="node3" class="node state regular">
<title>2&#39;d1</title>
<polygon fill="#ffffff" fill-opacity="0.003922" stroke="transparent" stroke-width="2" points="72,-134 16,-134 16,-98 72,-98 72,-134"/>
<text text-anchor="start" x="32.6684" y="-112.2" font-family="Helvetica,sans-Serif" font-size="12.00" fill="#000000">2&#39;d1</text>
<path fill="none" stroke="#000000" stroke-width="2" d="M28.3333,-99C28.3333,-99 59.6667,-99 59.6667,-99 65.3333,-99 71,-104.6667 71,-110.3333 71,-110.3333 71,-121.6667 71,-121.6667 71,-127.3333 65.3333,-133 59.6667,-133 59.6667,-133 28.3333,-133 28.3333,-133 22.6667,-133 17,-127.3333 17,-121.6667 17,-121.6667 17,-110.3333 17,-110.3333 17,-104.6667 22.6667,-99 28.3333,-99"/>
</g>
<!-- 2&#39;d0&#45;&gt;2&#39;d1 -->
<g id="edge1" class="edge transition">
<title>2&#39;d0&#45;&gt;2&#39;d1</title>
<path fill="none" stroke="#000000" d="M70.0332,-179.8902C64.3916,-174.996 58.9837,-169.2898 55.098,-163 51.6279,-157.383 49.2425,-150.7742 47.6029,-144.3154"/>
<polygon fill="#000000" stroke="#000000" points="51.0194,-143.5521 45.5915,-134.4533 44.1606,-144.951 51.0194,-143.5521"/>
<text text-anchor="start" x="55" y="-154" font-family="Helvetica,sans-Serif" font-size="10.00" fill="#000000">s_axil_arvalid_reg &#160;&#160;</text>
</g>
<!-- 2&#39;d2 -->
<g id="node4" class="node state regular">
<title>2&#39;d2</title>
<polygon fill="#ffffff" fill-opacity="0.003922" stroke="transparent" stroke-width="2" points="129,-52 73,-52 73,-16 129,-16 129,-52"/>
<text text-anchor="start" x="89.6684" y="-30.2" font-family="Helvetica,sans-Serif" font-size="12.00" fill="#000000">2&#39;d2</text>
<path fill="none" stroke="#000000" stroke-width="2" d="M85.3333,-17C85.3333,-17 116.6667,-17 116.6667,-17 122.3333,-17 128,-22.6667 128,-28.3333 128,-28.3333 128,-39.6667 128,-39.6667 128,-45.3333 122.3333,-51 116.6667,-51 116.6667,-51 85.3333,-51 85.3333,-51 79.6667,-51 74,-45.3333 74,-39.6667 74,-39.6667 74,-28.3333 74,-28.3333 74,-22.6667 79.6667,-17 85.3333,-17"/>
</g>
<!-- 2&#39;d1&#45;&gt;2&#39;d2 -->
<g id="edge2" class="edge transition">
<title>2&#39;d1&#45;&gt;2&#39;d2</title>
<path fill="none" stroke="#000000" d="M45.5151,-97.9054C46.9724,-88.6617 49.8274,-77.585 55.417,-69 58.0675,-64.9291 61.3587,-61.1406 64.9508,-57.6745"/>
<polygon fill="#000000" stroke="#000000" points="67.3646,-60.2143 72.6382,-51.0251 62.7853,-54.92 67.3646,-60.2143"/>
<text text-anchor="start" x="55" y="-72" font-family="Helvetica,sans-Serif" font-size="10.00" fill="#000000">m_flag_sync_reg_2 &#160;&#160;</text>
</g>
<!-- 2&#39;d2&#45;&gt;2&#39;d0 -->
<g id="edge3" class="edge transition">
<title>2&#39;d2&#45;&gt;2&#39;d0</title>
<path fill="none" stroke="#000000" d="M129.16,-46.5654C138.1202,-52.079 146.9967,-59.4981 152,-69 154.4849,-73.7191 152.227,-75.6715 152,-81 150.443,-117.5438 162.9505,-131.1306 145,-163 142.0169,-168.2962 137.8632,-173.0088 133.2361,-177.1259"/>
<polygon fill="#000000" stroke="#000000" points="130.8316,-174.5638 125.1249,-183.4904 135.1528,-180.0708 130.8316,-174.5638"/>
<text text-anchor="start" x="154" y="-113" font-family="Helvetica,sans-Serif" font-size="10.00" fill="#000000">!m_flag_sync_reg_2 &#160;&#160;</text>
</g>
</g>
</svg>
