<?xml version="1.0" encoding="UTF-8" standalone="no"?>
<!DOCTYPE svg PUBLIC "-//W3C//DTD SVG 1.1//EN"
 "http://www.w3.org/Graphics/SVG/1.1/DTD/svg11.dtd">
<!-- Generated by graphviz version 2.40.1 (20161225.0304)
 -->
<!-- Title: state transitions Pages: 1 -->
<svg width="256pt" height="270pt"
 viewBox="0.00 0.00 256.03 270.00" xmlns="http://www.w3.org/2000/svg" xmlns:xlink="http://www.w3.org/1999/xlink">
<g id="graph0" class="graph" transform="scale(1 1) rotate(0) translate(4 266)">
<title>state transitions</title>
<polygon fill="#ffffff" stroke="transparent" points="-4,4 -4,-266 252.033,-266 252.033,4 -4,4"/>
<g id="clust1" class="cluster state regular">
<title>cluster_m_state_reg</title>
<path fill="none" stroke="#000000" stroke-width="2" d="M20,-8C20,-8 207,-8 207,-8 213,-8 219,-14 219,-20 219,-20 219,-242 219,-242 219,-248 213,-254 207,-254 207,-254 20,-254 20,-254 14,-254 8,-248 8,-242 8,-242 8,-20 8,-20 8,-14 14,-8 20,-8"/>
<text text-anchor="start" x="80.158" y="-235.2" font-family="Helvetica,sans-Serif" font-size="12.00" fill="#000000">m_state_reg</text>
</g>
<!-- m_state_reg -->
<!-- 2&#39;d0 -->
<g id="node2" class="node state regular">
<title>2&#39;d0</title>
<polygon fill="#ffffff" fill-opacity="0.003922" stroke="transparent" stroke-width="2" points="127,-216 71,-216 71,-180 127,-180 127,-216"/>
<text text-anchor="start" x="87.6684" y="-194.2" font-family="Helvetica,sans-Serif" font-size="12.00" fill="#000000">2&#39;d0</text>
<path fill="none" stroke="#000000" stroke-width="2" d="M83.3333,-181C83.3333,-181 114.6667,-181 114.6667,-181 120.3333,-181 126,-186.6667 126,-192.3333 126,-192.3333 126,-203.6667 126,-203.6667 126,-209.3333 120.3333,-215 114.6667,-215 114.6667,-215 83.3333,-215 83.3333,-215 77.6667,-215 72,-209.3333 72,-203.6667 72,-203.6667 72,-192.3333 72,-192.3333 72,-186.6667 77.6667,-181 83.3333,-181"/>
</g>
<!-- 2&#39;d1 -->
<g id="node3" class="node state regular">
<title>2&#39;d1</title>
<polygon fill="#ffffff" fill-opacity="0.003922" stroke="transparent" stroke-width="2" points="72,-134 16,-134 16,-98 72,-98 72,-134"/>
<text text-anchor="start" x="32.6684" y="-112.2" font-family="Helvetica,sans-Serif" font-size="12.00" fill="#000000">2&#39;d1</text>
<path fill="none" stroke="#000000" stroke-width="2" d="M28.3333,-99C28.3333,-99 59.6667,-99 59.6667,-99 65.3333,-99 71,-104.6667 71,-110.3333 71,-110.3333 71,-121.6667 71,-121.6667 71,-127.3333 65.3333,-133 59.6667,-133 59.6667,-133 28.3333,-133 28.3333,-133 22.6667,-133 17,-127.3333 17,-121.6667 17,-121.6667 17,-110.3333 17,-110.3333 17,-104.6667 22.6667,-99 28.3333,-99"/>
</g>
<!-- 2&#39;d0&#45;&gt;2&#39;d1 -->
<g id="edge1" class="edge transition">
<title>2&#39;d0&#45;&gt;2&#39;d1</title>
<path fill="none" stroke="#000000" d="M70.9425,-180.5132C64.8204,-175.5287 58.9298,-169.626 54.746,-163 51.1681,-157.3336 48.7771,-150.6144 47.1805,-144.0552"/>
<polygon fill="#000000" stroke="#000000" points="50.5841,-143.2191 45.2692,-134.0539 43.7086,-144.5332 50.5841,-143.2191"/>
<text text-anchor="start" x="54" y="-154" font-family="Helvetica,sans-Serif" font-size="10.00" fill="#000000">s_flag_sync_reg_2 &#160;&#160;</text>
</g>
<!-- 2&#39;d2 -->
<g id="node4" class="node state regular">
<title>2&#39;d2</title>
<polygon fill="#ffffff" fill-opacity="0.003922" stroke="transparent" stroke-width="2" points="125,-52 69,-52 69,-16 125,-16 125,-52"/>
<text text-anchor="start" x="85.6684" y="-30.2" font-family="Helvetica,sans-Serif" font-size="12.00" fill="#000000">2&#39;d2</text>
<path fill="none" stroke="#000000" stroke-width="2" d="M81.3333,-17C81.3333,-17 112.6667,-17 112.6667,-17 118.3333,-17 124,-22.6667 124,-28.3333 124,-28.3333 124,-39.6667 124,-39.6667 124,-45.3333 118.3333,-51 112.6667,-51 112.6667,-51 81.3333,-51 81.3333,-51 75.6667,-51 70,-45.3333 70,-39.6667 70,-39.6667 70,-28.3333 70,-28.3333 70,-22.6667 75.6667,-17 81.3333,-17"/>
</g>
<!-- 2&#39;d1&#45;&gt;2&#39;d2 -->
<g id="edge2" class="edge transition">
<title>2&#39;d1&#45;&gt;2&#39;d2</title>
<path fill="none" stroke="#000000" d="M45.5915,-97.5467C47.0412,-88.4214 49.8102,-77.5593 55.098,-69 57.223,-65.5603 59.8032,-62.2951 62.628,-59.2418"/>
<polygon fill="#000000" stroke="#000000" points="65.2584,-61.5677 70.0332,-52.1098 60.4025,-56.5258 65.2584,-61.5677"/>
<text text-anchor="start" x="55" y="-72" font-family="Helvetica,sans-Serif" font-size="10.00" fill="#000000">m_axil_bvalid_reg &#160;&#160;</text>
</g>
<!-- 2&#39;d2&#45;&gt;2&#39;d0 -->
<g id="edge3" class="edge transition">
<title>2&#39;d2&#45;&gt;2&#39;d0</title>
<path fill="none" stroke="#000000" d="M125.1221,-48.1987C132.9314,-53.5963 140.4973,-60.5311 145,-69 162.1202,-101.2005 147.3332,-114.5373 148,-151 148.0975,-156.3324 150.4404,-158.2578 148,-163 144.9863,-168.8562 140.4884,-173.9497 135.4192,-178.3013"/>
<polygon fill="#000000" stroke="#000000" points="133.0132,-175.7308 127.1145,-184.5317 137.2141,-181.3302 133.0132,-175.7308"/>
<text text-anchor="start" x="153" y="-113" font-family="Helvetica,sans-Serif" font-size="10.00" fill="#000000">!s_flag_sync_reg_2 &#160;&#160;</text>
</g>
</g>
</svg>
