<?xml version="1.0" encoding="UTF-8" standalone="no"?>
<!DOCTYPE svg PUBLIC "-//W3C//DTD SVG 1.1//EN"
 "http://www.w3.org/Graphics/SVG/1.1/DTD/svg11.dtd">
<!-- Generated by graphviz version 2.40.1 (20161225.0304)
 -->
<!-- Title: state transitions Pages: 1 -->
<svg width="287pt" height="294pt"
 viewBox="0.00 0.00 287.14 294.00" xmlns="http://www.w3.org/2000/svg" xmlns:xlink="http://www.w3.org/1999/xlink">
<g id="graph0" class="graph" transform="scale(1 1) rotate(0) translate(4 290)">
<title>state transitions</title>
<polygon fill="#ffffff" stroke="transparent" points="-4,4 -4,-290 283.139,-290 283.139,4 -4,4"/>
<g id="clust1" class="cluster state regular">
<title>cluster_read_state</title>
<path fill="none" stroke="#000000" stroke-width="2" d="M20,-8C20,-8 238,-8 238,-8 244,-8 250,-14 250,-20 250,-20 250,-266 250,-266 250,-272 244,-278 238,-278 238,-278 20,-278 20,-278 14,-278 8,-272 8,-266 8,-266 8,-20 8,-20 8,-14 14,-8 20,-8"/>
<text text-anchor="start" x="100.6554" y="-259.2" font-family="Helvetica,sans-Serif" font-size="12.00" fill="#000000">read_state</text>
</g>
<!-- read_state -->
<!-- ST_EMPTY -->
<g id="node2" class="node state regular">
<title>ST_EMPTY</title>
<polygon fill="#ffffff" fill-opacity="0.003922" stroke="transparent" stroke-width="2" points="153.5,-240 68.5,-240 68.5,-204 153.5,-204 153.5,-240"/>
<text text-anchor="start" x="79.8308" y="-218.2" font-family="Helvetica,sans-Serif" font-size="12.00" fill="#000000">ST_EMPTY</text>
<path fill="none" stroke="#000000" stroke-width="2" d="M80.8333,-205C80.8333,-205 141.1667,-205 141.1667,-205 146.8333,-205 152.5,-210.6667 152.5,-216.3333 152.5,-216.3333 152.5,-227.6667 152.5,-227.6667 152.5,-233.3333 146.8333,-239 141.1667,-239 141.1667,-239 80.8333,-239 80.8333,-239 75.1667,-239 69.5,-233.3333 69.5,-227.6667 69.5,-227.6667 69.5,-216.3333 69.5,-216.3333 69.5,-210.6667 75.1667,-205 80.8333,-205"/>
</g>
<!-- PRE_READ -->
<g id="node3" class="node state regular">
<title>PRE_READ</title>
<polygon fill="#ffffff" fill-opacity="0.003922" stroke="transparent" stroke-width="2" points="102,-158 16,-158 16,-122 102,-122 102,-158"/>
<text text-anchor="start" x="26.6648" y="-136.2" font-family="Helvetica,sans-Serif" font-size="12.00" fill="#000000">PRE_READ</text>
<path fill="none" stroke="#000000" stroke-width="2" d="M28.3333,-123C28.3333,-123 89.6667,-123 89.6667,-123 95.3333,-123 101,-128.6667 101,-134.3333 101,-134.3333 101,-145.6667 101,-145.6667 101,-151.3333 95.3333,-157 89.6667,-157 89.6667,-157 28.3333,-157 28.3333,-157 22.6667,-157 17,-151.3333 17,-145.6667 17,-145.6667 17,-134.3333 17,-134.3333 17,-128.6667 22.6667,-123 28.3333,-123"/>
</g>
<!-- ST_EMPTY&#45;&gt;PRE_READ -->
<g id="edge1" class="edge transition">
<title>ST_EMPTY&#45;&gt;PRE_READ</title>
<path fill="none" stroke="#000000" d="M99.4595,-203.8015C92.5926,-192.973 83.7526,-179.033 76.0881,-166.9466"/>
<polygon fill="#000000" stroke="#000000" points="78.8195,-164.7183 70.5082,-158.1476 72.9079,-168.4671 78.8195,-164.7183"/>
<text text-anchor="start" x="88" y="-178" font-family="Helvetica,sans-Serif" font-size="10.00" fill="#000000">write &#160;&#160;</text>
</g>
<!-- READING -->
<g id="node4" class="node state regular">
<title>READING</title>
<polygon fill="#ffffff" fill-opacity="0.003922" stroke="transparent" stroke-width="2" points="123,-52 47,-52 47,-16 123,-16 123,-52"/>
<text text-anchor="start" x="57.6682" y="-30.2" font-family="Helvetica,sans-Serif" font-size="12.00" fill="#000000">READING</text>
<path fill="none" stroke="#000000" stroke-width="2" d="M59.3333,-17C59.3333,-17 110.6667,-17 110.6667,-17 116.3333,-17 122,-22.6667 122,-28.3333 122,-28.3333 122,-39.6667 122,-39.6667 122,-45.3333 116.3333,-51 110.6667,-51 110.6667,-51 59.3333,-51 59.3333,-51 53.6667,-51 48,-45.3333 48,-39.6667 48,-39.6667 48,-28.3333 48,-28.3333 48,-22.6667 53.6667,-17 59.3333,-17"/>
</g>
<!-- PRE_READ&#45;&gt;READING -->
<g id="edge2" class="edge transition">
<title>PRE_READ&#45;&gt;READING</title>
<path fill="none" stroke="#000000" d="M54.1822,-121.9073C51.1625,-107.1969 48.914,-86.1457 55.221,-69 56.3503,-65.9301 57.8817,-62.9457 59.6574,-60.0983"/>
<polygon fill="#000000" stroke="#000000" points="62.4874,-62.1577 65.5598,-52.0181 56.8349,-58.0286 62.4874,-62.1577"/>
<text text-anchor="middle" x="56.3895" y="-84" font-family="Helvetica,sans-Serif" font-size="10.00" fill="#000000"> </text>
</g>
<!-- READING&#45;&gt;ST_EMPTY -->
<g id="edge4" class="edge transition">
<title>READING&#45;&gt;ST_EMPTY</title>
<path fill="none" stroke="#000000" d="M123.3398,-43.848C145.5986,-50.4261 170.5007,-59.5738 177,-69 205.1568,-109.8374 165.9851,-164.6097 137.046,-196.3287"/>
<polygon fill="#000000" stroke="#000000" points="134.2535,-194.1894 129.9563,-203.8737 139.3548,-198.9829 134.2535,-194.1894"/>
<text text-anchor="start" x="183" y="-149" font-family="Helvetica,sans-Serif" font-size="10.00" fill="#000000">not (write) &#160;&#160;</text>
<text text-anchor="start" x="183" y="-137" font-family="Helvetica,sans-Serif" font-size="10.00" fill="#000000">rd_addr == wr_addr &#160;&#160;</text>
<text text-anchor="start" x="183" y="-125" font-family="Helvetica,sans-Serif" font-size="10.00" fill="#000000">read_int &#160;&#160;</text>
</g>
<!-- READING&#45;&gt;PRE_READ -->
<g id="edge3" class="edge transition">
<title>READING&#45;&gt;PRE_READ</title>
<path fill="none" stroke="#000000" d="M80.523,-52.2522C76.5132,-68.6002 70.5689,-92.8345 65.9427,-111.6951"/>
<polygon fill="#000000" stroke="#000000" points="62.5119,-110.9903 63.5289,-121.5362 69.3104,-112.6579 62.5119,-110.9903"/>
<text text-anchor="start" x="76" y="-96" font-family="Helvetica,sans-Serif" font-size="10.00" fill="#000000">write &#160;&#160;</text>
<text text-anchor="start" x="76" y="-84" font-family="Helvetica,sans-Serif" font-size="10.00" fill="#000000">rd_addr == wr_addr &#160;&#160;</text>
<text text-anchor="start" x="76" y="-72" font-family="Helvetica,sans-Serif" font-size="10.00" fill="#000000">read_int &#160;&#160;</text>
</g>
</g>
</svg>
