<?xml version="1.0" encoding="UTF-8" standalone="no"?>
<!DOCTYPE svg PUBLIC "-//W3C//DTD SVG 1.1//EN"
 "http://www.w3.org/Graphics/SVG/1.1/DTD/svg11.dtd">
<!-- Generated by graphviz version 2.40.1 (20161225.0304)
 -->
<!-- Title: state transitions Pages: 1 -->
<svg width="1388pt" height="608pt"
 viewBox="0.00 0.00 1388.05 608.00" xmlns="http://www.w3.org/2000/svg" xmlns:xlink="http://www.w3.org/1999/xlink">
<g id="graph0" class="graph" transform="scale(1 1) rotate(0) translate(4 604)">
<title>state transitions</title>
<polygon fill="#ffffff" stroke="transparent" points="-4,4 -4,-604 1384.045,-604 1384.045,4 -4,4"/>
<g id="clust1" class="cluster state regular">
<title>cluster_rx_state</title>
<path fill="none" stroke="#000000" stroke-width="2" d="M20,-8C20,-8 1010,-8 1010,-8 1016,-8 1022,-14 1022,-20 1022,-20 1022,-580 1022,-580 1022,-586 1016,-592 1010,-592 1010,-592 20,-592 20,-592 14,-592 8,-586 8,-580 8,-580 8,-20 8,-20 8,-14 14,-8 20,-8"/>
<text text-anchor="start" x="493.6616" y="-573.2" font-family="Helvetica,sans-Serif" font-size="12.00" fill="#000000">rx_state</text>
</g>
<!-- rx_state -->
<!-- WAIT_FOR_PKT -->
<g id="node2" class="node state regular">
<title>WAIT_FOR_PKT</title>
<polygon fill="#ffffff" fill-opacity="0.003922" stroke="transparent" stroke-width="2" points="854,-472 740,-472 740,-436 854,-436 854,-472"/>
<text text-anchor="start" x="750.9992" y="-450.2" font-family="Helvetica,sans-Serif" font-size="12.00" fill="#000000">WAIT_FOR_PKT</text>
<path fill="none" stroke="#000000" stroke-width="2" d="M752.3333,-437C752.3333,-437 841.6667,-437 841.6667,-437 847.3333,-437 853,-442.6667 853,-448.3333 853,-448.3333 853,-459.6667 853,-459.6667 853,-465.3333 847.3333,-471 841.6667,-471 841.6667,-471 752.3333,-471 752.3333,-471 746.6667,-471 741,-465.3333 741,-459.6667 741,-459.6667 741,-448.3333 741,-448.3333 741,-442.6667 746.6667,-437 752.3333,-437"/>
</g>
<!-- DMA_HEADER0_INSERT -->
<g id="node3" class="node state regular">
<title>DMA_HEADER0_INSERT</title>
<polygon fill="#ffffff" fill-opacity="0.003922" stroke="transparent" stroke-width="2" points="990,-390 828,-390 828,-354 990,-354 990,-390"/>
<text text-anchor="start" x="838.6668" y="-368.2" font-family="Helvetica,sans-Serif" font-size="12.00" fill="#000000">DMA_HEADER0_INSERT</text>
<path fill="none" stroke="#000000" stroke-width="2" d="M840.3333,-355C840.3333,-355 977.6667,-355 977.6667,-355 983.3333,-355 989,-360.6667 989,-366.3333 989,-366.3333 989,-377.6667 989,-377.6667 989,-383.3333 983.3333,-389 977.6667,-389 977.6667,-389 840.3333,-389 840.3333,-389 834.6667,-389 829,-383.3333 829,-377.6667 829,-377.6667 829,-366.3333 829,-366.3333 829,-360.6667 834.6667,-355 840.3333,-355"/>
</g>
<!-- WAIT_FOR_PKT&#45;&gt;DMA_HEADER0_INSERT -->
<g id="edge1" class="edge transition">
<title>WAIT_FOR_PKT&#45;&gt;DMA_HEADER0_INSERT</title>
<path fill="none" stroke="#000000" d="M811.8631,-435.634C820.0052,-426.316 830.653,-415.2548 841.62,-407 847.3401,-402.6945 853.666,-398.6405 860.083,-394.925"/>
<polygon fill="#000000" stroke="#000000" points="861.7879,-397.9818 868.8418,-390.0766 858.3977,-391.8575 861.7879,-397.9818"/>
<text text-anchor="start" x="841" y="-410" font-family="Helvetica,sans-Serif" font-size="10.00" fill="#000000">sig_valid &amp;&amp; (ht_unsupport==0) &#160;&#160;</text>
</g>
<!-- DMA_HEADER1_INSERT_AND_START -->
<g id="node4" class="node state regular">
<title>DMA_HEADER1_INSERT_AND_START</title>
<polygon fill="#ffffff" fill-opacity="0.003922" stroke="transparent" stroke-width="2" points="583,-308 343,-308 343,-272 583,-272 583,-308"/>
<text text-anchor="start" x="353.6668" y="-286.2" font-family="Helvetica,sans-Serif" font-size="12.00" fill="#000000">DMA_HEADER1_INSERT_AND_START</text>
<path fill="none" stroke="#000000" stroke-width="2" d="M355.3333,-273C355.3333,-273 570.6667,-273 570.6667,-273 576.3333,-273 582,-278.6667 582,-284.3333 582,-284.3333 582,-295.6667 582,-295.6667 582,-301.3333 576.3333,-307 570.6667,-307 570.6667,-307 355.3333,-307 355.3333,-307 349.6667,-307 344,-301.3333 344,-295.6667 344,-295.6667 344,-284.3333 344,-284.3333 344,-278.6667 349.6667,-273 355.3333,-273"/>
</g>
<!-- DMA_HEADER0_INSERT&#45;&gt;DMA_HEADER1_INSERT_AND_START -->
<g id="edge2" class="edge transition">
<title>DMA_HEADER0_INSERT&#45;&gt;DMA_HEADER1_INSERT_AND_START</title>
<path fill="none" stroke="#000000" d="M827.8319,-356.3116C822.1473,-355.4532 816.4949,-354.6697 811,-354 749.3899,-346.4913 590.9643,-357.0353 532.221,-337 517.6178,-332.0193 503.216,-323.0805 491.3625,-314.3255"/>
<polygon fill="#000000" stroke="#000000" points="493.2714,-311.3777 483.2153,-308.0422 488.9965,-316.9208 493.2714,-311.3777"/>
<text text-anchor="middle" x="533.3895" y="-328" font-family="Helvetica,sans-Serif" font-size="10.00" fill="#000000"> </text>
</g>
<!-- WAIT_FILTER_FLAG -->
<g id="node5" class="node state regular">
<title>WAIT_FILTER_FLAG</title>
<polygon fill="#ffffff" fill-opacity="0.003922" stroke="transparent" stroke-width="2" points="385,-226 247,-226 247,-190 385,-190 385,-226"/>
<text text-anchor="start" x="257.9956" y="-204.2" font-family="Helvetica,sans-Serif" font-size="12.00" fill="#000000">WAIT_FILTER_FLAG</text>
<path fill="none" stroke="#000000" stroke-width="2" d="M259.3333,-191C259.3333,-191 372.6667,-191 372.6667,-191 378.3333,-191 384,-196.6667 384,-202.3333 384,-202.3333 384,-213.6667 384,-213.6667 384,-219.3333 378.3333,-225 372.6667,-225 372.6667,-225 259.3333,-225 259.3333,-225 253.6667,-225 248,-219.3333 248,-213.6667 248,-213.6667 248,-202.3333 248,-202.3333 248,-196.6667 253.6667,-191 259.3333,-191"/>
</g>
<!-- DMA_HEADER1_INSERT_AND_START&#45;&gt;WAIT_FILTER_FLAG -->
<g id="edge3" class="edge transition">
<title>DMA_HEADER1_INSERT_AND_START&#45;&gt;WAIT_FILTER_FLAG</title>
<path fill="none" stroke="#000000" d="M430.3759,-271.8015C408.7956,-259.7635 380.3219,-243.8802 357.1835,-230.9731"/>
<polygon fill="#000000" stroke="#000000" points="358.7179,-227.8213 348.2797,-226.0063 355.3078,-233.9346 358.7179,-227.8213"/>
<text text-anchor="middle" x="400.3895" y="-246" font-family="Helvetica,sans-Serif" font-size="10.00" fill="#000000"> </text>
</g>
<!-- WAIT_DMA_TLAST -->
<g id="node6" class="node state regular">
<title>WAIT_DMA_TLAST</title>
<polygon fill="#ffffff" fill-opacity="0.003922" stroke="transparent" stroke-width="2" points="439.5,-144 310.5,-144 310.5,-108 439.5,-108 439.5,-144"/>
<text text-anchor="start" x="321.8324" y="-122.2" font-family="Helvetica,sans-Serif" font-size="12.00" fill="#000000">WAIT_DMA_TLAST</text>
<path fill="none" stroke="#000000" stroke-width="2" d="M322.8333,-109C322.8333,-109 427.1667,-109 427.1667,-109 432.8333,-109 438.5,-114.6667 438.5,-120.3333 438.5,-120.3333 438.5,-131.6667 438.5,-131.6667 438.5,-137.3333 432.8333,-143 427.1667,-143 427.1667,-143 322.8333,-143 322.8333,-143 317.1667,-143 311.5,-137.3333 311.5,-131.6667 311.5,-131.6667 311.5,-120.3333 311.5,-120.3333 311.5,-114.6667 317.1667,-109 322.8333,-109"/>
</g>
<!-- WAIT_FILTER_FLAG&#45;&gt;WAIT_DMA_TLAST -->
<g id="edge5" class="edge transition">
<title>WAIT_FILTER_FLAG&#45;&gt;WAIT_DMA_TLAST</title>
<path fill="none" stroke="#000000" d="M317.5709,-189.8607C319.0681,-180.6047 321.9891,-169.5306 327.686,-161 330.048,-157.4632 332.8927,-154.1511 336.0008,-151.0844"/>
<polygon fill="#000000" stroke="#000000" points="338.4256,-153.613 343.6277,-144.3832 333.8052,-148.3544 338.4256,-153.613"/>
<text text-anchor="start" x="327" y="-164" font-family="Helvetica,sans-Serif" font-size="10.00" fill="#000000">block_rx_dma_to_ps_valid==1 &amp;&amp; block_rx_dma_to_ps==0 &#160;&#160;</text>
</g>
<!-- WAIT_RST_DONE -->
<g id="node7" class="node state regular">
<title>WAIT_RST_DONE</title>
<polygon fill="#ffffff" fill-opacity="0.003922" stroke="transparent" stroke-width="2" points="850.5,-554 727.5,-554 727.5,-518 850.5,-518 850.5,-554"/>
<text text-anchor="start" x="738.5018" y="-532.2" font-family="Helvetica,sans-Serif" font-size="12.00" fill="#000000">WAIT_RST_DONE</text>
<path fill="none" stroke="#000000" stroke-width="2" d="M739.8333,-519C739.8333,-519 838.1667,-519 838.1667,-519 843.8333,-519 849.5,-524.6667 849.5,-530.3333 849.5,-530.3333 849.5,-541.6667 849.5,-541.6667 849.5,-547.3333 843.8333,-553 838.1667,-553 838.1667,-553 739.8333,-553 739.8333,-553 734.1667,-553 728.5,-547.3333 728.5,-541.6667 728.5,-541.6667 728.5,-530.3333 728.5,-530.3333 728.5,-524.6667 734.1667,-519 739.8333,-519"/>
</g>
<!-- WAIT_FILTER_FLAG&#45;&gt;WAIT_RST_DONE -->
<g id="edge4" class="edge transition">
<title>WAIT_FILTER_FLAG&#45;&gt;WAIT_RST_DONE</title>
<path fill="none" stroke="#000000" d="M318.4586,-226.1432C321.2849,-246.2388 326.2775,-279.5598 332,-308 340.1653,-348.5803 354,-357.1064 354,-398.5 354,-495 354,-495 354,-495 354,-513.0073 593.3923,-526.8609 716.9952,-532.8137"/>
<polygon fill="#000000" stroke="#000000" points="716.9818,-536.3169 727.1371,-533.2969 717.315,-529.3249 716.9818,-536.3169"/>
<text text-anchor="start" x="353" y="-369" font-family="Helvetica,sans-Serif" font-size="10.00" fill="#000000">(timeout_timer_1M&gt;m_axis_tlast_auto_recover_timeout_top) &amp;&amp; m_axis_tlast_auto_recover_enable &#160;&#160;</text>
</g>
<!-- WAIT_FILTER_FLAG&#45;&gt;WAIT_RST_DONE -->
<g id="edge6" class="edge transition">
<title>WAIT_FILTER_FLAG&#45;&gt;WAIT_RST_DONE</title>
<path fill="none" stroke="#000000" d="M246.9237,-211.5031C164.5905,-216.6268 38,-227.9306 38,-249 38,-495 38,-495 38,-495 38,-511.8986 529.3313,-528.2841 717.1686,-533.9308"/>
<polygon fill="#000000" stroke="#000000" points="717.1232,-537.4309 727.2234,-534.2315 717.3325,-530.4341 717.1232,-537.4309"/>
<text text-anchor="start" x="38" y="-369" font-family="Helvetica,sans-Serif" font-size="10.00" fill="#000000">block_rx_dma_to_ps_valid==1 &amp;&amp; block_rx_dma_to_ps==1 &#160;&#160;</text>
</g>
<!-- WAIT_DMA_TLAST&#45;&gt;WAIT_RST_DONE -->
<g id="edge7" class="edge transition">
<title>WAIT_DMA_TLAST&#45;&gt;WAIT_RST_DONE</title>
<path fill="none" stroke="#000000" d="M439.6535,-131.2839C507.9915,-137.7652 606,-150.0203 606,-167 606,-263.5 606,-263.5 606,-263.5 606,-269.1283 997.4927,-349.5982 1001,-354 1019.2144,-376.8595 1012.8454,-399.581 991,-419 964.4821,-442.5725 942.7816,-416.7147 913,-436 882.8561,-455.5199 892.8531,-478.331 865,-501 859.4231,-505.5389 853.1614,-509.6312 846.6882,-513.2797"/>
<polygon fill="#000000" stroke="#000000" points="844.9874,-510.2198 837.7746,-517.9803 848.2526,-516.4116 844.9874,-510.2198"/>
<text text-anchor="start" x="928" y="-328" font-family="Helvetica,sans-Serif" font-size="10.00" fill="#000000">(timeout_timer_1M&gt;m_axis_tlast_auto_recover_timeout_top) &amp;&amp; m_axis_tlast_auto_recover_enable &#160;&#160;</text>
</g>
<!-- (m_axis_tlast?WAIT_FOR_PKT -->
<g id="node8" class="node state regular">
<title>(m_axis_tlast?WAIT_FOR_PKT</title>
<polygon fill="#ffffff" fill-opacity="0.003922" stroke="transparent" stroke-width="2" points="465.5,-62 284.5,-62 284.5,-16 465.5,-16 465.5,-62"/>
<text text-anchor="start" x="290.8298" y="-45.2" font-family="Helvetica,sans-Serif" font-size="12.00" fill="#000000">(m_axis_tlast?WAIT_FOR_PKT</text>
<text text-anchor="start" x="291" y="-25.2" font-family="Helvetica,sans-Serif" font-size="12.00" fill="#000000">rx_state) [color=&quot;red&quot;]</text>
<polygon fill="#000000" stroke="#000000" points="285,-39 285,-39 466,-39 466,-39 285,-39"/>
<path fill="none" stroke="#000000" stroke-width="2" d="M297.5,-17C297.5,-17 452.5,-17 452.5,-17 458.5,-17 464.5,-23 464.5,-29 464.5,-29 464.5,-49 464.5,-49 464.5,-55 458.5,-61 452.5,-61 452.5,-61 297.5,-61 297.5,-61 291.5,-61 285.5,-55 285.5,-49 285.5,-49 285.5,-29 285.5,-29 285.5,-23 291.5,-17 297.5,-17"/>
</g>
<!-- WAIT_DMA_TLAST&#45;&gt;(m_axis_tlast?WAIT_FOR_PKT -->
<g id="edge8" class="edge transition">
<title>WAIT_DMA_TLAST&#45;&gt;(m_axis_tlast?WAIT_FOR_PKT</title>
<path fill="none" stroke="#000000" d="M375,-107.9735C375,-97.7339 375,-84.5867 375,-72.5218"/>
<polygon fill="#000000" stroke="#000000" points="378.5001,-72.2983 375,-62.2983 371.5001,-72.2984 378.5001,-72.2983"/>
<text text-anchor="start" x="375" y="-82" font-family="Helvetica,sans-Serif" font-size="10.00" fill="#000000">rx_state) [color=&quot;red&quot;] : not ((timeout_timer_1M&gt;m_axis_tlast_auto_recover_timeout_top) &amp;&amp; m_axis_tlast_auto_recover_enable) &#160;&#160;</text>
</g>
<!-- WAIT_RST_DONE&#45;&gt;rx_state -->
<g id="edge10" class="edge transition">
<title>WAIT_RST_DONE&#45;&gt;rx_state</title>
<path fill="none" stroke="#ff0000" d="M850.736,-526.1058C862.7937,-522.3455 874.8347,-517.1575 885,-510 902.0797,-497.974 914.1322,-475.9503 919.9807,-463.4045"/>
<polygon fill="#ff0000" stroke="#ff0000" points="923.2411,-464.6816 923.9585,-454.1111 916.8059,-461.9271 923.2411,-464.6816"/>
<text text-anchor="start" x="904" y="-492" font-family="Helvetica,sans-Serif" font-size="10.00" fill="#ff0000">not (rst_count==7) &#160;&#160;</text>
</g>
<!-- WAIT_RST_DONE&#45;&gt;WAIT_FOR_PKT -->
<g id="edge9" class="edge transition">
<title>WAIT_RST_DONE&#45;&gt;WAIT_FOR_PKT</title>
<path fill="none" stroke="#000000" d="M790.7755,-517.8015C791.7905,-507.3976 793.0857,-494.1215 794.2315,-482.3768"/>
<polygon fill="#000000" stroke="#000000" points="797.7419,-482.4402 795.2295,-472.1476 790.775,-481.7605 797.7419,-482.4402"/>
<text text-anchor="start" x="793" y="-492" font-family="Helvetica,sans-Serif" font-size="10.00" fill="#000000">rst_count==7 &#160;&#160;</text>
</g>
</g>
</svg>
