<?xml version="1.0" encoding="UTF-8" standalone="no"?>
<!DOCTYPE svg PUBLIC "-//W3C//DTD SVG 1.1//EN"
 "http://www.w3.org/Graphics/SVG/1.1/DTD/svg11.dtd">
<!-- Generated by graphviz version 2.40.1 (20161225.0304)
 -->
<!-- Title: state transitions Pages: 1 -->
<svg width="238pt" height="270pt"
 viewBox="0.00 0.00 238.00 270.00" xmlns="http://www.w3.org/2000/svg" xmlns:xlink="http://www.w3.org/1999/xlink">
<g id="graph0" class="graph" transform="scale(1 1) rotate(0) translate(4 266)">
<title>state transitions</title>
<polygon fill="#ffffff" stroke="transparent" points="-4,4 -4,-266 234,-266 234,4 -4,4"/>
<g id="clust1" class="cluster state regular">
<title>cluster_mst_exec_state</title>
<path fill="none" stroke="#000000" stroke-width="2" d="M20,-8C20,-8 210,-8 210,-8 216,-8 222,-14 222,-20 222,-20 222,-242 222,-242 222,-248 216,-254 210,-254 210,-254 20,-254 20,-254 14,-254 8,-248 8,-242 8,-242 8,-20 8,-20 8,-14 14,-8 20,-8"/>
<text text-anchor="start" x="72.988" y="-235.2" font-family="Helvetica,sans-Serif" font-size="12.00" fill="#000000">mst_exec_state</text>
</g>
<!-- mst_exec_state -->
<!-- IDLE -->
<g id="node2" class="node state regular">
<title>IDLE</title>
<polygon fill="#ffffff" fill-opacity="0.003922" stroke="transparent" stroke-width="2" points="82,-216 26,-216 26,-180 82,-180 82,-216"/>
<text text-anchor="start" x="40.6644" y="-194.2" font-family="Helvetica,sans-Serif" font-size="12.00" fill="#000000">IDLE</text>
<path fill="none" stroke="#000000" stroke-width="2" d="M38.3333,-181C38.3333,-181 69.6667,-181 69.6667,-181 75.3333,-181 81,-186.6667 81,-192.3333 81,-192.3333 81,-203.6667 81,-203.6667 81,-209.3333 75.3333,-215 69.6667,-215 69.6667,-215 38.3333,-215 38.3333,-215 32.6667,-215 27,-209.3333 27,-203.6667 27,-203.6667 27,-192.3333 27,-192.3333 27,-186.6667 32.6667,-181 38.3333,-181"/>
</g>
<!-- IDLE&#45;&gt;IDLE -->
<g id="edge2" class="edge transition">
<title>IDLE&#45;&gt;IDLE</title>
<path fill="none" stroke="#000000" d="M82.0183,-202.8247C93.888,-203.1883 104,-201.5801 104,-198 104,-195.5387 99.2205,-194.0094 92.3762,-193.4121"/>
<polygon fill="#000000" stroke="#000000" points="92.0957,-189.9049 82.0183,-193.1753 91.9356,-196.903 92.0957,-189.9049"/>
<text text-anchor="start" x="104" y="-195" font-family="Helvetica,sans-Serif" font-size="10.00" fill="#000000">not (init_txn_pulse) &#160;&#160;</text>
</g>
<!-- INIT_COUNTER -->
<g id="node3" class="node state regular">
<title>INIT_COUNTER</title>
<polygon fill="#ffffff" fill-opacity="0.003922" stroke="transparent" stroke-width="2" points="126,-134 16,-134 16,-98 126,-98 126,-134"/>
<text text-anchor="start" x="26.6732" y="-112.2" font-family="Helvetica,sans-Serif" font-size="12.00" fill="#000000">INIT_COUNTER</text>
<path fill="none" stroke="#000000" stroke-width="2" d="M28.3333,-99C28.3333,-99 113.6667,-99 113.6667,-99 119.3333,-99 125,-104.6667 125,-110.3333 125,-110.3333 125,-121.6667 125,-121.6667 125,-127.3333 119.3333,-133 113.6667,-133 113.6667,-133 28.3333,-133 28.3333,-133 22.6667,-133 17,-127.3333 17,-121.6667 17,-121.6667 17,-110.3333 17,-110.3333 17,-104.6667 22.6667,-99 28.3333,-99"/>
</g>
<!-- IDLE&#45;&gt;INIT_COUNTER -->
<g id="edge1" class="edge transition">
<title>IDLE&#45;&gt;INIT_COUNTER</title>
<path fill="none" stroke="#000000" d="M57.7729,-179.8015C59.9518,-169.2915 62.7384,-155.8503 65.1915,-144.0177"/>
<polygon fill="#000000" stroke="#000000" points="68.6347,-144.6499 67.2377,-134.1476 61.7805,-143.2288 68.6347,-144.6499"/>
<text text-anchor="start" x="63" y="-154" font-family="Helvetica,sans-Serif" font-size="10.00" fill="#000000">init_txn_pulse &#160;&#160;</text>
</g>
<!-- SEND_STREAM -->
<g id="node4" class="node state regular">
<title>SEND_STREAM</title>
<polygon fill="#ffffff" fill-opacity="0.003922" stroke="transparent" stroke-width="2" points="127.5,-52 16.5,-52 16.5,-16 127.5,-16 127.5,-52"/>
<text text-anchor="start" x="27.5006" y="-30.2" font-family="Helvetica,sans-Serif" font-size="12.00" fill="#000000">SEND_STREAM</text>
<path fill="none" stroke="#000000" stroke-width="2" d="M28.8333,-17C28.8333,-17 115.1667,-17 115.1667,-17 120.8333,-17 126.5,-22.6667 126.5,-28.3333 126.5,-28.3333 126.5,-39.6667 126.5,-39.6667 126.5,-45.3333 120.8333,-51 115.1667,-51 115.1667,-51 28.8333,-51 28.8333,-51 23.1667,-51 17.5,-45.3333 17.5,-39.6667 17.5,-39.6667 17.5,-28.3333 17.5,-28.3333 17.5,-22.6667 23.1667,-17 28.8333,-17"/>
</g>
<!-- INIT_COUNTER&#45;&gt;SEND_STREAM -->
<g id="edge3" class="edge transition">
<title>INIT_COUNTER&#45;&gt;SEND_STREAM</title>
<path fill="none" stroke="#000000" d="M71.2219,-97.8015C71.3488,-87.3976 71.5107,-74.1215 71.6539,-62.3768"/>
<polygon fill="#000000" stroke="#000000" points="75.1564,-62.1896 71.7787,-52.1476 68.1569,-62.1041 75.1564,-62.1896"/>
<text text-anchor="middle" x="72.3895" y="-72" font-family="Helvetica,sans-Serif" font-size="10.00" fill="#000000"> </text>
</g>
<!-- SEND_STREAM&#45;&gt;IDLE -->
<g id="edge4" class="edge transition">
<title>SEND_STREAM&#45;&gt;IDLE</title>
<path fill="none" stroke="#000000" d="M127.5857,-47.6852C149.7046,-54.8009 170,-64.257 170,-75 170,-157 170,-157 170,-157 170,-165.4567 125.6076,-179.1408 91.747,-188.3485"/>
<polygon fill="#000000" stroke="#000000" points="90.8358,-184.9691 82.0804,-190.935 92.6452,-191.7312 90.8358,-184.9691"/>
<text text-anchor="start" x="170" y="-113" font-family="Helvetica,sans-Serif" font-size="10.00" fill="#000000">tx_done &#160;&#160;</text>
</g>
<!-- SEND_STREAM&#45;&gt;SEND_STREAM -->
<g id="edge5" class="edge transition">
<title>SEND_STREAM&#45;&gt;SEND_STREAM</title>
<path fill="none" stroke="#000000" d="M127.7324,-38.756C140.3044,-38.3275 149.5,-36.7422 149.5,-34 149.5,-32.0719 144.9539,-30.7157 137.8844,-29.9315"/>
<polygon fill="#000000" stroke="#000000" points="137.946,-26.4278 127.7324,-29.244 137.473,-33.4118 137.946,-26.4278"/>
<text text-anchor="start" x="149.5" y="-31" font-family="Helvetica,sans-Serif" font-size="10.00" fill="#000000">not (tx_done) &#160;&#160;</text>
</g>
</g>
</svg>
