<?xml version="1.0" encoding="UTF-8" standalone="no"?>
<!DOCTYPE svg PUBLIC "-//W3C//DTD SVG 1.1//EN"
 "http://www.w3.org/Graphics/SVG/1.1/DTD/svg11.dtd">
<!-- Generated by graphviz version 2.40.1 (20161225.0304)
 -->
<!-- Title: state transitions Pages: 1 -->
<svg width="252pt" height="188pt"
 viewBox="0.00 0.00 252.00 188.00" xmlns="http://www.w3.org/2000/svg" xmlns:xlink="http://www.w3.org/1999/xlink">
<g id="graph0" class="graph" transform="scale(1 1) rotate(0) translate(4 184)">
<title>state transitions</title>
<polygon fill="#ffffff" stroke="transparent" points="-4,4 -4,-184 248,-184 248,4 -4,4"/>
<g id="clust1" class="cluster state regular">
<title>cluster_mst_exec_state</title>
<path fill="none" stroke="#000000" stroke-width="2" d="M20,-8C20,-8 224,-8 224,-8 230,-8 236,-14 236,-20 236,-20 236,-160 236,-160 236,-166 230,-172 224,-172 224,-172 20,-172 20,-172 14,-172 8,-166 8,-160 8,-160 8,-20 8,-20 8,-14 14,-8 20,-8"/>
<text text-anchor="start" x="79.988" y="-153.2" font-family="Helvetica,sans-Serif" font-size="12.00" fill="#000000">mst_exec_state</text>
</g>
<!-- mst_exec_state -->
<!-- IDLE -->
<g id="node2" class="node state regular">
<title>IDLE</title>
<polygon fill="#ffffff" fill-opacity="0.003922" stroke="transparent" stroke-width="2" points="75,-134 19,-134 19,-98 75,-98 75,-134"/>
<text text-anchor="start" x="33.6644" y="-112.2" font-family="Helvetica,sans-Serif" font-size="12.00" fill="#000000">IDLE</text>
<path fill="none" stroke="#000000" stroke-width="2" d="M31.3333,-99C31.3333,-99 62.6667,-99 62.6667,-99 68.3333,-99 74,-104.6667 74,-110.3333 74,-110.3333 74,-121.6667 74,-121.6667 74,-127.3333 68.3333,-133 62.6667,-133 62.6667,-133 31.3333,-133 31.3333,-133 25.6667,-133 20,-127.3333 20,-121.6667 20,-121.6667 20,-110.3333 20,-110.3333 20,-104.6667 25.6667,-99 31.3333,-99"/>
</g>
<!-- IDLE&#45;&gt;IDLE -->
<g id="edge2" class="edge transition">
<title>IDLE&#45;&gt;IDLE</title>
<path fill="none" stroke="#000000" d="M75.0183,-120.8247C86.888,-121.1883 97,-119.5801 97,-116 97,-113.5387 92.2205,-112.0094 85.3762,-111.4121"/>
<polygon fill="#000000" stroke="#000000" points="85.0957,-107.9049 75.0183,-111.1753 84.9356,-114.903 85.0957,-107.9049"/>
<text text-anchor="start" x="97" y="-113" font-family="Helvetica,sans-Serif" font-size="10.00" fill="#000000">not (S_AXIS_TVALID) &#160;&#160;</text>
</g>
<!-- WRITE_FIFO -->
<g id="node3" class="node state regular">
<title>WRITE_FIFO</title>
<polygon fill="#ffffff" fill-opacity="0.003922" stroke="transparent" stroke-width="2" points="118,-52 24,-52 24,-16 118,-16 118,-52"/>
<text text-anchor="start" x="34.67" y="-30.2" font-family="Helvetica,sans-Serif" font-size="12.00" fill="#000000">WRITE_FIFO</text>
<path fill="none" stroke="#000000" stroke-width="2" d="M36.3333,-17C36.3333,-17 105.6667,-17 105.6667,-17 111.3333,-17 117,-22.6667 117,-28.3333 117,-28.3333 117,-39.6667 117,-39.6667 117,-45.3333 111.3333,-51 105.6667,-51 105.6667,-51 36.3333,-51 36.3333,-51 30.6667,-51 25,-45.3333 25,-39.6667 25,-39.6667 25,-28.3333 25,-28.3333 25,-22.6667 30.6667,-17 36.3333,-17"/>
</g>
<!-- IDLE&#45;&gt;WRITE_FIFO -->
<g id="edge1" class="edge transition">
<title>IDLE&#45;&gt;WRITE_FIFO</title>
<path fill="none" stroke="#000000" d="M49.0106,-97.892C50.2697,-89.053 52.2122,-78.3377 55.086,-69 55.8419,-66.5438 56.7304,-64.0348 57.6945,-61.5444"/>
<polygon fill="#000000" stroke="#000000" points="60.9826,-62.7554 61.6669,-52.1827 54.5387,-60.021 60.9826,-62.7554"/>
<text text-anchor="start" x="55" y="-72" font-family="Helvetica,sans-Serif" font-size="10.00" fill="#000000">S_AXIS_TVALID &#160;&#160;</text>
</g>
<!-- WRITE_FIFO&#45;&gt;IDLE -->
<g id="edge3" class="edge transition">
<title>WRITE_FIFO&#45;&gt;IDLE</title>
<path fill="none" stroke="#000000" d="M118.0201,-47.9885C135.834,-55.8523 149.7336,-66.9368 140,-81 133.3719,-90.5764 107.8654,-99.7872 85.238,-106.3542"/>
<polygon fill="#000000" stroke="#000000" points="84.1414,-103.0265 75.4522,-109.0886 86.0252,-109.7682 84.1414,-103.0265"/>
<text text-anchor="start" x="143" y="-72" font-family="Helvetica,sans-Serif" font-size="10.00" fill="#000000">writes_done &#160;&#160;</text>
</g>
<!-- WRITE_FIFO&#45;&gt;WRITE_FIFO -->
<g id="edge4" class="edge transition">
<title>WRITE_FIFO&#45;&gt;WRITE_FIFO</title>
<path fill="none" stroke="#000000" d="M118.0851,-38.8322C130.5552,-38.556 140,-36.9453 140,-34 140,-31.9291 135.3306,-30.518 128.2234,-29.7666"/>
<polygon fill="#000000" stroke="#000000" points="128.2741,-26.2636 118.0851,-29.1678 127.8613,-33.2514 128.2741,-26.2636"/>
<text text-anchor="start" x="140" y="-31" font-family="Helvetica,sans-Serif" font-size="10.00" fill="#000000">not (writes_done) &#160;&#160;</text>
</g>
</g>
</svg>
