<?xml version="1.0" encoding="UTF-8" standalone="no"?>
<!DOCTYPE svg PUBLIC "-//W3C//DTD SVG 1.1//EN"
 "http://www.w3.org/Graphics/SVG/1.1/DTD/svg11.dtd">
<!-- Generated by graphviz version 2.40.1 (20161225.0304)
 -->
<!-- Title: state transitions Pages: 1 -->
<svg width="464pt" height="364pt"
 viewBox="0.00 0.00 464.28 364.00" xmlns="http://www.w3.org/2000/svg" xmlns:xlink="http://www.w3.org/1999/xlink">
<g id="graph0" class="graph" transform="scale(1 1) rotate(0) translate(4 360)">
<title>state transitions</title>
<polygon fill="#ffffff" stroke="transparent" points="-4,4 -4,-360 460.277,-360 460.277,4 -4,4"/>
<g id="clust1" class="cluster state regular">
<title>cluster_state1</title>
<path fill="none" stroke="#000000" stroke-width="2" d="M20,-8C20,-8 359,-8 359,-8 365,-8 371,-14 371,-20 371,-20 371,-336 371,-336 371,-342 365,-348 359,-348 359,-348 20,-348 20,-348 14,-348 8,-342 8,-336 8,-336 8,-20 8,-20 8,-14 14,-8 20,-8"/>
<text text-anchor="start" x="173.159" y="-329.2" font-family="Helvetica,sans-Serif" font-size="12.00" fill="#000000">state1</text>
</g>
<!-- state1 -->
<!-- S1_WAIT_PKT -->
<g id="node2" class="node state regular">
<title>S1_WAIT_PKT</title>
<polygon fill="#ffffff" fill-opacity="0.003922" stroke="transparent" stroke-width="2" points="212.5,-310 109.5,-310 109.5,-274 212.5,-274 212.5,-310"/>
<text text-anchor="start" x="120.8266" y="-288.2" font-family="Helvetica,sans-Serif" font-size="12.00" fill="#000000">S1_WAIT_PKT</text>
<path fill="none" stroke="#000000" stroke-width="2" d="M121.8333,-275C121.8333,-275 200.1667,-275 200.1667,-275 205.8333,-275 211.5,-280.6667 211.5,-286.3333 211.5,-286.3333 211.5,-297.6667 211.5,-297.6667 211.5,-303.3333 205.8333,-309 200.1667,-309 200.1667,-309 121.8333,-309 121.8333,-309 116.1667,-309 110.5,-303.3333 110.5,-297.6667 110.5,-297.6667 110.5,-286.3333 110.5,-286.3333 110.5,-280.6667 116.1667,-275 121.8333,-275"/>
</g>
<!-- S1_L_SIG -->
<g id="node3" class="node state regular">
<title>S1_L_SIG</title>
<polygon fill="#ffffff" fill-opacity="0.003922" stroke="transparent" stroke-width="2" points="199.5,-228 122.5,-228 122.5,-192 199.5,-192 199.5,-228"/>
<text text-anchor="start" x="133.8208" y="-206.2" font-family="Helvetica,sans-Serif" font-size="12.00" fill="#000000">S1_L_SIG</text>
<path fill="none" stroke="#000000" stroke-width="2" d="M134.8333,-193C134.8333,-193 187.1667,-193 187.1667,-193 192.8333,-193 198.5,-198.6667 198.5,-204.3333 198.5,-204.3333 198.5,-215.6667 198.5,-215.6667 198.5,-221.3333 192.8333,-227 187.1667,-227 187.1667,-227 134.8333,-227 134.8333,-227 129.1667,-227 123.5,-221.3333 123.5,-215.6667 123.5,-215.6667 123.5,-204.3333 123.5,-204.3333 123.5,-198.6667 129.1667,-193 134.8333,-193"/>
</g>
<!-- S1_WAIT_PKT&#45;&gt;S1_L_SIG -->
<g id="edge1" class="edge transition">
<title>S1_WAIT_PKT&#45;&gt;S1_L_SIG</title>
<path fill="none" stroke="#000000" d="M161,-273.8015C161,-263.3976 161,-250.1215 161,-238.3768"/>
<polygon fill="#000000" stroke="#000000" points="164.5001,-238.1476 161,-228.1476 157.5001,-238.1476 164.5001,-238.1476"/>
<text text-anchor="start" x="161" y="-248" font-family="Helvetica,sans-Serif" font-size="10.00" fill="#000000">phy_tx_start &#160;&#160;</text>
</g>
<!-- S1_HT_SIG -->
<g id="node4" class="node state regular">
<title>S1_HT_SIG</title>
<polygon fill="#ffffff" fill-opacity="0.003922" stroke="transparent" stroke-width="2" points="102,-134 16,-134 16,-98 102,-98 102,-134"/>
<text text-anchor="start" x="26.6594" y="-112.2" font-family="Helvetica,sans-Serif" font-size="12.00" fill="#000000">S1_HT_SIG</text>
<path fill="none" stroke="#000000" stroke-width="2" d="M28.3333,-99C28.3333,-99 89.6667,-99 89.6667,-99 95.3333,-99 101,-104.6667 101,-110.3333 101,-110.3333 101,-121.6667 101,-121.6667 101,-127.3333 95.3333,-133 89.6667,-133 89.6667,-133 28.3333,-133 28.3333,-133 22.6667,-133 17,-127.3333 17,-121.6667 17,-121.6667 17,-110.3333 17,-110.3333 17,-104.6667 22.6667,-99 28.3333,-99"/>
</g>
<!-- S1_L_SIG&#45;&gt;S1_HT_SIG -->
<g id="edge2" class="edge transition">
<title>S1_L_SIG&#45;&gt;S1_HT_SIG</title>
<path fill="none" stroke="#000000" d="M122.3201,-202.1891C95.5014,-195.8975 63.1986,-186.2641 55.057,-175 48.7426,-166.2639 48.2713,-154.7687 49.9122,-144.2473"/>
<polygon fill="#000000" stroke="#000000" points="53.3946,-144.7066 52.119,-134.1888 46.5572,-143.2065 53.3946,-144.7066"/>
<text text-anchor="start" x="55" y="-166" font-family="Helvetica,sans-Serif" font-size="10.00" fill="#000000">RATE == 5&#39;b01011 &amp;&amp; PKT_TYPE == HT &#160;&#160;</text>
<text text-anchor="start" x="55" y="-154" font-family="Helvetica,sans-Serif" font-size="10.00" fill="#000000">plcp_bit_cnt == 23 &#160;&#160;</text>
</g>
<!-- S1_DATA -->
<g id="node5" class="node state regular">
<title>S1_DATA</title>
<polygon fill="#ffffff" fill-opacity="0.003922" stroke="transparent" stroke-width="2" points="139.5,-52 64.5,-52 64.5,-16 139.5,-16 139.5,-52"/>
<text text-anchor="start" x="75.8282" y="-30.2" font-family="Helvetica,sans-Serif" font-size="12.00" fill="#000000">S1_DATA</text>
<path fill="none" stroke="#000000" stroke-width="2" d="M76.8333,-17C76.8333,-17 127.1667,-17 127.1667,-17 132.8333,-17 138.5,-22.6667 138.5,-28.3333 138.5,-28.3333 138.5,-39.6667 138.5,-39.6667 138.5,-45.3333 132.8333,-51 127.1667,-51 127.1667,-51 76.8333,-51 76.8333,-51 71.1667,-51 65.5,-45.3333 65.5,-39.6667 65.5,-39.6667 65.5,-28.3333 65.5,-28.3333 65.5,-22.6667 71.1667,-17 76.8333,-17"/>
</g>
<!-- S1_L_SIG&#45;&gt;S1_DATA -->
<g id="edge3" class="edge transition">
<title>S1_L_SIG&#45;&gt;S1_DATA</title>
<path fill="none" stroke="#000000" d="M199.5562,-199.5435C220.7152,-192.9419 243.8769,-183.9875 250,-175 256.0057,-166.1847 254.6485,-160.6005 250,-151 229.1006,-107.8369 183.6948,-75.7749 148.6514,-56.2348"/>
<polygon fill="#000000" stroke="#000000" points="149.9903,-52.9797 139.5299,-51.2974 146.6581,-59.1357 149.9903,-52.9797"/>
<text text-anchor="start" x="239" y="-119" font-family="Helvetica,sans-Serif" font-size="10.00" fill="#000000">not (RATE == 5&#39;b01011 &amp;&amp; PKT_TYPE == HT) &#160;&#160;</text>
<text text-anchor="start" x="239" y="-107" font-family="Helvetica,sans-Serif" font-size="10.00" fill="#000000">plcp_bit_cnt == 23 &#160;&#160;</text>
</g>
<!-- S1_HT_SIG&#45;&gt;S1_DATA -->
<g id="edge4" class="edge transition">
<title>S1_HT_SIG&#45;&gt;S1_DATA</title>
<path fill="none" stroke="#000000" d="M53.0548,-97.7351C51.1592,-88.6578 50.5471,-77.7818 54.959,-69 56.7584,-65.4185 59.117,-62.1107 61.8205,-59.0771"/>
<polygon fill="#000000" stroke="#000000" points="64.3111,-61.5383 69.1282,-52.1018 59.4779,-56.4747 64.3111,-61.5383"/>
<text text-anchor="start" x="54" y="-72" font-family="Helvetica,sans-Serif" font-size="10.00" fill="#000000">plcp_bit_cnt == 47 &#160;&#160;</text>
</g>
</g>
</svg>
