<?xml version="1.0" encoding="UTF-8" standalone="no"?>
<!DOCTYPE svg PUBLIC "-//W3C//DTD SVG 1.1//EN"
 "http://www.w3.org/Graphics/SVG/1.1/DTD/svg11.dtd">
<!-- Generated by graphviz version 2.40.1 (20161225.0304)
 -->
<!-- Title: state transitions Pages: 1 -->
<svg width="436pt" height="270pt"
 viewBox="0.00 0.00 436.00 270.00" xmlns="http://www.w3.org/2000/svg" xmlns:xlink="http://www.w3.org/1999/xlink">
<g id="graph0" class="graph" transform="scale(1 1) rotate(0) translate(4 266)">
<title>state transitions</title>
<polygon fill="#ffffff" stroke="transparent" points="-4,4 -4,-266 432,-266 432,4 -4,4"/>
<g id="clust1" class="cluster state regular">
<title>cluster_mst_exec_state</title>
<path fill="none" stroke="#000000" stroke-width="2" d="M20,-8C20,-8 408,-8 408,-8 414,-8 420,-14 420,-20 420,-20 420,-242 420,-242 420,-248 414,-254 408,-254 408,-254 20,-254 20,-254 14,-254 8,-248 8,-242 8,-242 8,-20 8,-20 8,-14 14,-8 20,-8"/>
<text text-anchor="start" x="171.988" y="-235.2" font-family="Helvetica,sans-Serif" font-size="12.00" fill="#000000">mst_exec_state</text>
</g>
<!-- mst_exec_state -->
<!-- IDLE -->
<g id="node2" class="node state regular">
<title>IDLE</title>
<polygon fill="#ffffff" fill-opacity="0.003922" stroke="transparent" stroke-width="2" points="145,-216 89,-216 89,-180 145,-180 145,-216"/>
<text text-anchor="start" x="103.6644" y="-194.2" font-family="Helvetica,sans-Serif" font-size="12.00" fill="#000000">IDLE</text>
<path fill="none" stroke="#000000" stroke-width="2" d="M101.3333,-181C101.3333,-181 132.6667,-181 132.6667,-181 138.3333,-181 144,-186.6667 144,-192.3333 144,-192.3333 144,-203.6667 144,-203.6667 144,-209.3333 138.3333,-215 132.6667,-215 132.6667,-215 101.3333,-215 101.3333,-215 95.6667,-215 90,-209.3333 90,-203.6667 90,-203.6667 90,-192.3333 90,-192.3333 90,-186.6667 95.6667,-181 101.3333,-181"/>
</g>
<!-- IDLE&#45;&gt;IDLE -->
<g id="edge2" class="edge transition">
<title>IDLE&#45;&gt;IDLE</title>
<path fill="none" stroke="#000000" d="M145.0183,-202.8247C156.888,-203.1883 167,-201.5801 167,-198 167,-195.5387 162.2205,-194.0094 155.3762,-193.4121"/>
<polygon fill="#000000" stroke="#000000" points="155.0957,-189.9049 145.0183,-193.1753 154.9356,-196.903 155.0957,-189.9049"/>
<text text-anchor="start" x="167" y="-195" font-family="Helvetica,sans-Serif" font-size="10.00" fill="#000000">not (init_txn_pulse) &#160;&#160;</text>
</g>
<!-- INIT_COUNTER -->
<g id="node3" class="node state regular">
<title>INIT_COUNTER</title>
<polygon fill="#ffffff" fill-opacity="0.003922" stroke="transparent" stroke-width="2" points="126,-134 16,-134 16,-98 126,-98 126,-134"/>
<text text-anchor="start" x="26.6732" y="-112.2" font-family="Helvetica,sans-Serif" font-size="12.00" fill="#000000">INIT_COUNTER</text>
<path fill="none" stroke="#000000" stroke-width="2" d="M28.3333,-99C28.3333,-99 113.6667,-99 113.6667,-99 119.3333,-99 125,-104.6667 125,-110.3333 125,-110.3333 125,-121.6667 125,-121.6667 125,-127.3333 119.3333,-133 113.6667,-133 113.6667,-133 28.3333,-133 28.3333,-133 22.6667,-133 17,-127.3333 17,-121.6667 17,-121.6667 17,-110.3333 17,-110.3333 17,-104.6667 22.6667,-99 28.3333,-99"/>
</g>
<!-- IDLE&#45;&gt;INIT_COUNTER -->
<g id="edge1" class="edge transition">
<title>IDLE&#45;&gt;INIT_COUNTER</title>
<path fill="none" stroke="#000000" d="M106.7911,-179.8015C100.7165,-168.973 92.8965,-155.033 86.1164,-142.9466"/>
<polygon fill="#000000" stroke="#000000" points="89.1254,-141.1566 81.1804,-134.1476 83.0204,-144.5814 89.1254,-141.1566"/>
<text text-anchor="start" x="97" y="-154" font-family="Helvetica,sans-Serif" font-size="10.00" fill="#000000">init_txn_pulse &#160;&#160;</text>
</g>
<!-- INIT_COUNTER&#45;&gt;INIT_COUNTER -->
<g id="edge4" class="edge transition">
<title>INIT_COUNTER&#45;&gt;INIT_COUNTER</title>
<path fill="none" stroke="#000000" d="M126.025,-120.7676C138.6938,-120.3568 148,-118.7676 148,-116 148,-114.054 143.3992,-112.6907 136.2635,-111.9099"/>
<polygon fill="#000000" stroke="#000000" points="136.2343,-108.4004 126.025,-111.2324 135.7721,-115.3851 136.2343,-108.4004"/>
<text text-anchor="start" x="148" y="-113" font-family="Helvetica,sans-Serif" font-size="10.00" fill="#000000">not ((count == START_COUNT_CFG)) &#160;&#160;</text>
</g>
<!-- SEND_STREAM -->
<g id="node4" class="node state regular">
<title>SEND_STREAM</title>
<polygon fill="#ffffff" fill-opacity="0.003922" stroke="transparent" stroke-width="2" points="226.5,-52 115.5,-52 115.5,-16 226.5,-16 226.5,-52"/>
<text text-anchor="start" x="126.5006" y="-30.2" font-family="Helvetica,sans-Serif" font-size="12.00" fill="#000000">SEND_STREAM</text>
<path fill="none" stroke="#000000" stroke-width="2" d="M127.8333,-17C127.8333,-17 214.1667,-17 214.1667,-17 219.8333,-17 225.5,-22.6667 225.5,-28.3333 225.5,-28.3333 225.5,-39.6667 225.5,-39.6667 225.5,-45.3333 219.8333,-51 214.1667,-51 214.1667,-51 127.8333,-51 127.8333,-51 122.1667,-51 116.5,-45.3333 116.5,-39.6667 116.5,-39.6667 116.5,-28.3333 116.5,-28.3333 116.5,-22.6667 122.1667,-17 127.8333,-17"/>
</g>
<!-- INIT_COUNTER&#45;&gt;SEND_STREAM -->
<g id="edge3" class="edge transition">
<title>INIT_COUNTER&#45;&gt;SEND_STREAM</title>
<path fill="none" stroke="#000000" d="M93.1932,-97.8015C107.1756,-86.336 125.4119,-71.3822 140.7147,-58.8339"/>
<polygon fill="#000000" stroke="#000000" points="143.3554,-61.1949 148.8688,-52.1476 138.9168,-55.782 143.3554,-61.1949"/>
<text text-anchor="start" x="127" y="-72" font-family="Helvetica,sans-Serif" font-size="10.00" fill="#000000">(count == START_COUNT_CFG) &#160;&#160;</text>
</g>
<!-- SEND_STREAM&#45;&gt;IDLE -->
<g id="edge5" class="edge transition">
<title>SEND_STREAM&#45;&gt;IDLE</title>
<path fill="none" stroke="#000000" d="M226.6624,-40.2307C284.9175,-47.528 368,-60.4805 368,-75 368,-157 368,-157 368,-157 368,-178.2615 225.9105,-190.7389 155.5455,-195.6143"/>
<polygon fill="#000000" stroke="#000000" points="155.0467,-192.1399 145.305,-196.3052 155.5179,-199.1241 155.0467,-192.1399"/>
<text text-anchor="start" x="368" y="-113" font-family="Helvetica,sans-Serif" font-size="10.00" fill="#000000">tx_done &#160;&#160;</text>
</g>
<!-- SEND_STREAM&#45;&gt;SEND_STREAM -->
<g id="edge6" class="edge transition">
<title>SEND_STREAM&#45;&gt;SEND_STREAM</title>
<path fill="none" stroke="#000000" d="M226.7324,-38.756C239.3044,-38.3275 248.5,-36.7422 248.5,-34 248.5,-32.0719 243.9539,-30.7157 236.8844,-29.9315"/>
<polygon fill="#000000" stroke="#000000" points="236.946,-26.4278 226.7324,-29.244 236.473,-33.4118 236.946,-26.4278"/>
<text text-anchor="start" x="248.5" y="-31" font-family="Helvetica,sans-Serif" font-size="10.00" fill="#000000">not (tx_done) &#160;&#160;</text>
</g>
</g>
</svg>
