<?xml version="1.0" encoding="UTF-8" standalone="no"?>
<!DOCTYPE svg PUBLIC "-//W3C//DTD SVG 1.1//EN"
 "http://www.w3.org/Graphics/SVG/1.1/DTD/svg11.dtd">
<!-- Generated by graphviz version 2.40.1 (20161225.0304)
 -->
<!-- Title: state transitions Pages: 1 -->
<svg width="417pt" height="376pt"
 viewBox="0.00 0.00 417.00 376.00" xmlns="http://www.w3.org/2000/svg" xmlns:xlink="http://www.w3.org/1999/xlink">
<g id="graph0" class="graph" transform="scale(1 1) rotate(0) translate(4 372)">
<title>state transitions</title>
<polygon fill="#ffffff" stroke="transparent" points="-4,4 -4,-372 413,-372 413,4 -4,4"/>
<g id="clust1" class="cluster state regular">
<title>cluster_state2</title>
<path fill="none" stroke="#000000" stroke-width="2" d="M20,-8C20,-8 389,-8 389,-8 395,-8 401,-14 401,-20 401,-20 401,-348 401,-348 401,-354 395,-360 389,-360 389,-360 20,-360 20,-360 14,-360 8,-354 8,-348 8,-348 8,-20 8,-20 8,-14 14,-8 20,-8"/>
<text text-anchor="start" x="188.159" y="-341.2" font-family="Helvetica,sans-Serif" font-size="12.00" fill="#000000">state2</text>
</g>
<!-- state2 -->
<!-- S2_PUNC_INTERLV -->
<g id="node2" class="node state regular">
<title>S2_PUNC_INTERLV</title>
<polygon fill="#ffffff" fill-opacity="0.003922" stroke="transparent" stroke-width="2" points="206,-322 72,-322 72,-286 206,-286 206,-322"/>
<text text-anchor="start" x="82.663" y="-300.2" font-family="Helvetica,sans-Serif" font-size="12.00" fill="#000000">S2_PUNC_INTERLV</text>
<path fill="none" stroke="#000000" stroke-width="2" d="M84.3333,-287C84.3333,-287 193.6667,-287 193.6667,-287 199.3333,-287 205,-292.6667 205,-298.3333 205,-298.3333 205,-309.6667 205,-309.6667 205,-315.3333 199.3333,-321 193.6667,-321 193.6667,-321 84.3333,-321 84.3333,-321 78.6667,-321 73,-315.3333 73,-309.6667 73,-309.6667 73,-298.3333 73,-298.3333 73,-292.6667 78.6667,-287 84.3333,-287"/>
</g>
<!-- S2_PILOT_DC_SB -->
<g id="node3" class="node state regular">
<title>S2_PILOT_DC_SB</title>
<polygon fill="#ffffff" fill-opacity="0.003922" stroke="transparent" stroke-width="2" points="143,-216 19,-216 19,-180 143,-180 143,-216"/>
<text text-anchor="start" x="29.6544" y="-194.2" font-family="Helvetica,sans-Serif" font-size="12.00" fill="#000000">S2_PILOT_DC_SB</text>
<path fill="none" stroke="#000000" stroke-width="2" d="M31.3333,-181C31.3333,-181 130.6667,-181 130.6667,-181 136.3333,-181 142,-186.6667 142,-192.3333 142,-192.3333 142,-203.6667 142,-203.6667 142,-209.3333 136.3333,-215 130.6667,-215 130.6667,-215 31.3333,-215 31.3333,-215 25.6667,-215 20,-209.3333 20,-203.6667 20,-203.6667 20,-192.3333 20,-192.3333 20,-186.6667 25.6667,-181 31.3333,-181"/>
</g>
<!-- S2_PUNC_INTERLV&#45;&gt;S2_PILOT_DC_SB -->
<g id="edge1" class="edge transition">
<title>S2_PUNC_INTERLV&#45;&gt;S2_PILOT_DC_SB</title>
<path fill="none" stroke="#000000" d="M72.4803,-285.7954C65.5174,-281.3615 59.3269,-275.8502 54.755,-269 45.8729,-255.6918 49.696,-248.1792 54.755,-233 55.678,-230.2305 56.9156,-227.5035 58.3523,-224.8689"/>
<polygon fill="#000000" stroke="#000000" points="61.3726,-226.6431 63.8373,-216.3389 55.4848,-222.8571 61.3726,-226.6431"/>
<text text-anchor="start" x="54" y="-260" font-family="Helvetica,sans-Serif" font-size="10.00" fill="#000000">dbps_cnt_FSM2 == dbps_size&#45;1 &#160;&#160;</text>
<text text-anchor="start" x="54" y="-248" font-family="Helvetica,sans-Serif" font-size="10.00" fill="#000000">enc_pos == 1 || |punc_info == 1 &#160;&#160;</text>
<text text-anchor="start" x="54" y="-236" font-family="Helvetica,sans-Serif" font-size="10.00" fill="#000000">pkt_fifo_space &gt; 63 &amp;&amp; CP_fifo_space &gt; 15 &amp;&amp; bits_enc_fifo_ovalid == 1 &#160;&#160;</text>
</g>
<!-- S2_MOD_IFFT_INPUT -->
<g id="node4" class="node state regular">
<title>S2_MOD_IFFT_INPUT</title>
<polygon fill="#ffffff" fill-opacity="0.003922" stroke="transparent" stroke-width="2" points="178.5,-134 33.5,-134 33.5,-98 178.5,-98 178.5,-134"/>
<text text-anchor="start" x="44.5002" y="-112.2" font-family="Helvetica,sans-Serif" font-size="12.00" fill="#000000">S2_MOD_IFFT_INPUT</text>
<path fill="none" stroke="#000000" stroke-width="2" d="M45.8333,-99C45.8333,-99 166.1667,-99 166.1667,-99 171.8333,-99 177.5,-104.6667 177.5,-110.3333 177.5,-110.3333 177.5,-121.6667 177.5,-121.6667 177.5,-127.3333 171.8333,-133 166.1667,-133 166.1667,-133 45.8333,-133 45.8333,-133 40.1667,-133 34.5,-127.3333 34.5,-121.6667 34.5,-121.6667 34.5,-110.3333 34.5,-110.3333 34.5,-104.6667 40.1667,-99 45.8333,-99"/>
</g>
<!-- S2_PILOT_DC_SB&#45;&gt;S2_MOD_IFFT_INPUT -->
<g id="edge2" class="edge transition">
<title>S2_PILOT_DC_SB&#45;&gt;S2_MOD_IFFT_INPUT</title>
<path fill="none" stroke="#000000" d="M86.5483,-179.8015C89.7526,-169.2915 93.8505,-155.8503 97.458,-144.0177"/>
<polygon fill="#000000" stroke="#000000" points="100.8987,-144.7336 100.4672,-134.1476 94.203,-142.6922 100.8987,-144.7336"/>
<text text-anchor="middle" x="96.3895" y="-154" font-family="Helvetica,sans-Serif" font-size="10.00" fill="#000000"> </text>
</g>
<!-- S2_RESET -->
<g id="node5" class="node state regular">
<title>S2_RESET</title>
<polygon fill="#ffffff" fill-opacity="0.003922" stroke="transparent" stroke-width="2" points="211.5,-52 128.5,-52 128.5,-16 211.5,-16 211.5,-52"/>
<text text-anchor="start" x="139.8268" y="-30.2" font-family="Helvetica,sans-Serif" font-size="12.00" fill="#000000">S2_RESET</text>
<path fill="none" stroke="#000000" stroke-width="2" d="M140.8333,-17C140.8333,-17 199.1667,-17 199.1667,-17 204.8333,-17 210.5,-22.6667 210.5,-28.3333 210.5,-28.3333 210.5,-39.6667 210.5,-39.6667 210.5,-45.3333 204.8333,-51 199.1667,-51 199.1667,-51 140.8333,-51 140.8333,-51 135.1667,-51 129.5,-45.3333 129.5,-39.6667 129.5,-39.6667 129.5,-28.3333 129.5,-28.3333 129.5,-22.6667 135.1667,-17 140.8333,-17"/>
</g>
<!-- S2_MOD_IFFT_INPUT&#45;&gt;S2_RESET -->
<g id="edge3" class="edge transition">
<title>S2_MOD_IFFT_INPUT&#45;&gt;S2_RESET</title>
<path fill="none" stroke="#000000" d="M118.6457,-97.9009C124.9459,-89.0641 132.7745,-78.348 140.139,-69 142.4498,-66.0668 144.9125,-63.0377 147.3945,-60.0455"/>
<polygon fill="#000000" stroke="#000000" points="150.1516,-62.2052 153.9185,-52.3026 144.7984,-57.6947 150.1516,-62.2052"/>
<text text-anchor="start" x="140" y="-72" font-family="Helvetica,sans-Serif" font-size="10.00" fill="#000000">not (iq_cnt &lt; 63) &#160;&#160;</text>
</g>
<!-- S2_RESET&#45;&gt;S2_PUNC_INTERLV -->
<g id="edge4" class="edge transition">
<title>S2_RESET&#45;&gt;S2_PUNC_INTERLV</title>
<path fill="none" stroke="#000000" d="M211.725,-50.1473C220.4169,-56.2625 227,-64.3948 227,-75 227,-142.5 227,-142.5 227,-142.5 227,-224.1983 345.8386,-162.4284 387,-233 395.0612,-246.8209 397.4935,-256.9216 387,-269 386.284,-269.8242 288.7522,-283.404 216.2298,-293.4013"/>
<polygon fill="#000000" stroke="#000000" points="215.604,-289.9544 206.1753,-294.7865 216.5594,-296.8889 215.604,-289.9544"/>
<text text-anchor="start" x="230" y="-154" font-family="Helvetica,sans-Serif" font-size="10.00" fill="#000000">ofdm_cnt_FSM2 &lt; ofdm_cnt_FSM1 &#160;&#160;</text>
</g>
</g>
</svg>
