<?xml version="1.0" encoding="UTF-8" standalone="no"?>
<!DOCTYPE svg PUBLIC "-//W3C//DTD SVG 1.1//EN"
 "http://www.w3.org/Graphics/SVG/1.1/DTD/svg11.dtd">
<!-- Generated by graphviz version 2.40.1 (20161225.0304)
 -->
<!-- Title: state transitions Pages: 1 -->
<svg width="292pt" height="516pt"
 viewBox="0.00 0.00 292.00 516.00" xmlns="http://www.w3.org/2000/svg" xmlns:xlink="http://www.w3.org/1999/xlink">
<g id="graph0" class="graph" transform="scale(1 1) rotate(0) translate(4 512)">
<title>state transitions</title>
<polygon fill="#ffffff" stroke="transparent" points="-4,4 -4,-512 288,-512 288,4 -4,4"/>
<g id="clust1" class="cluster state regular">
<title>cluster_calc_state</title>
<path fill="none" stroke="#000000" stroke-width="2" d="M20,-8C20,-8 264,-8 264,-8 270,-8 276,-14 276,-20 276,-20 276,-488 276,-488 276,-494 270,-500 264,-500 264,-500 20,-500 20,-500 14,-500 8,-494 8,-488 8,-488 8,-20 8,-20 8,-14 14,-8 20,-8"/>
<text text-anchor="start" x="114.9922" y="-481.2" font-family="Helvetica,sans-Serif" font-size="12.00" fill="#000000">calc_state</text>
</g>
<!-- calc_state -->
<!-- WAIT_FOR_VALID -->
<g id="node2" class="node state regular">
<title>WAIT_FOR_VALID</title>
<polygon fill="#ffffff" fill-opacity="0.003922" stroke="transparent" stroke-width="2" points="141.5,-462 16.5,-462 16.5,-426 141.5,-426 141.5,-462"/>
<text text-anchor="start" x="27.8304" y="-440.2" font-family="Helvetica,sans-Serif" font-size="12.00" fill="#000000">WAIT_FOR_VALID</text>
<path fill="none" stroke="#000000" stroke-width="2" d="M28.8333,-427C28.8333,-427 129.1667,-427 129.1667,-427 134.8333,-427 140.5,-432.6667 140.5,-438.3333 140.5,-438.3333 140.5,-449.6667 140.5,-449.6667 140.5,-455.3333 134.8333,-461 129.1667,-461 129.1667,-461 28.8333,-461 28.8333,-461 23.1667,-461 17.5,-455.3333 17.5,-449.6667 17.5,-449.6667 17.5,-438.3333 17.5,-438.3333 17.5,-432.6667 23.1667,-427 28.8333,-427"/>
</g>
<!-- WAIT_FOR_VALID&#45;&gt;WAIT_FOR_VALID -->
<g id="edge2" class="edge transition">
<title>WAIT_FOR_VALID&#45;&gt;WAIT_FOR_VALID</title>
<path fill="none" stroke="#000000" d="M141.6458,-448.689C154.3807,-448.1782 163.5,-446.6152 163.5,-444 163.5,-442.1612 158.9916,-440.8425 151.8879,-440.0441"/>
<polygon fill="#000000" stroke="#000000" points="151.8702,-436.534 141.6458,-439.311 151.3704,-443.5161 151.8702,-436.534"/>
<text text-anchor="start" x="163.5" y="-441" font-family="Helvetica,sans-Serif" font-size="10.00" fill="#000000">not (iq_rssi_valid) &#160;&#160;</text>
</g>
<!-- PREPARE_P1P2P3 -->
<g id="node3" class="node state regular">
<title>PREPARE_P1P2P3</title>
<polygon fill="#ffffff" fill-opacity="0.003922" stroke="transparent" stroke-width="2" points="146,-380 16,-380 16,-344 146,-344 146,-380"/>
<text text-anchor="start" x="26.9844" y="-358.2" font-family="Helvetica,sans-Serif" font-size="12.00" fill="#000000">PREPARE_P1P2P3</text>
<path fill="none" stroke="#000000" stroke-width="2" d="M28.3333,-345C28.3333,-345 133.6667,-345 133.6667,-345 139.3333,-345 145,-350.6667 145,-356.3333 145,-356.3333 145,-367.6667 145,-367.6667 145,-373.3333 139.3333,-379 133.6667,-379 133.6667,-379 28.3333,-379 28.3333,-379 22.6667,-379 17,-373.3333 17,-367.6667 17,-367.6667 17,-356.3333 17,-356.3333 17,-350.6667 22.6667,-345 28.3333,-345"/>
</g>
<!-- WAIT_FOR_VALID&#45;&gt;PREPARE_P1P2P3 -->
<g id="edge1" class="edge transition">
<title>WAIT_FOR_VALID&#45;&gt;PREPARE_P1P2P3</title>
<path fill="none" stroke="#000000" d="M79.4439,-425.8015C79.6976,-415.3976 80.0214,-402.1215 80.3079,-390.3768"/>
<polygon fill="#000000" stroke="#000000" points="83.8124,-390.23 80.5574,-380.1476 76.8145,-390.0592 83.8124,-390.23"/>
<text text-anchor="start" x="80" y="-400" font-family="Helvetica,sans-Serif" font-size="10.00" fill="#000000">iq_rssi_valid &#160;&#160;</text>
</g>
<!-- MULT_P1P2 -->
<g id="node4" class="node state regular">
<title>MULT_P1P2</title>
<polygon fill="#ffffff" fill-opacity="0.003922" stroke="transparent" stroke-width="2" points="136,-298 46,-298 46,-262 136,-262 136,-298"/>
<text text-anchor="start" x="56.6614" y="-276.2" font-family="Helvetica,sans-Serif" font-size="12.00" fill="#000000">MULT_P1P2</text>
<path fill="none" stroke="#000000" stroke-width="2" d="M58.3333,-263C58.3333,-263 123.6667,-263 123.6667,-263 129.3333,-263 135,-268.6667 135,-274.3333 135,-274.3333 135,-285.6667 135,-285.6667 135,-291.3333 129.3333,-297 123.6667,-297 123.6667,-297 58.3333,-297 58.3333,-297 52.6667,-297 47,-291.3333 47,-285.6667 47,-285.6667 47,-274.3333 47,-274.3333 47,-268.6667 52.6667,-263 58.3333,-263"/>
</g>
<!-- PREPARE_P1P2P3&#45;&gt;MULT_P1P2 -->
<g id="edge3" class="edge transition">
<title>PREPARE_P1P2P3&#45;&gt;MULT_P1P2</title>
<path fill="none" stroke="#000000" d="M83.2193,-343.8015C84.4881,-333.3976 86.1071,-320.1215 87.5394,-308.3768"/>
<polygon fill="#000000" stroke="#000000" points="91.0505,-308.4978 88.7869,-298.1476 84.102,-307.6503 91.0505,-308.4978"/>
<text text-anchor="middle" x="87.3895" y="-318" font-family="Helvetica,sans-Serif" font-size="10.00" fill="#000000"> </text>
</g>
<!-- ADD_P1P2 -->
<g id="node5" class="node state regular">
<title>ADD_P1P2</title>
<polygon fill="#ffffff" fill-opacity="0.003922" stroke="transparent" stroke-width="2" points="139.5,-216 56.5,-216 56.5,-180 139.5,-180 139.5,-216"/>
<text text-anchor="start" x="67.8268" y="-194.2" font-family="Helvetica,sans-Serif" font-size="12.00" fill="#000000">ADD_P1P2</text>
<path fill="none" stroke="#000000" stroke-width="2" d="M68.8333,-181C68.8333,-181 127.1667,-181 127.1667,-181 132.8333,-181 138.5,-186.6667 138.5,-192.3333 138.5,-192.3333 138.5,-203.6667 138.5,-203.6667 138.5,-209.3333 132.8333,-215 127.1667,-215 127.1667,-215 68.8333,-215 68.8333,-215 63.1667,-215 57.5,-209.3333 57.5,-203.6667 57.5,-203.6667 57.5,-192.3333 57.5,-192.3333 57.5,-186.6667 63.1667,-181 68.8333,-181"/>
</g>
<!-- MULT_P1P2&#45;&gt;ADD_P1P2 -->
<g id="edge4" class="edge transition">
<title>MULT_P1P2&#45;&gt;ADD_P1P2</title>
<path fill="none" stroke="#000000" d="M92.5535,-261.8015C93.4417,-251.3976 94.575,-238.1215 95.5776,-226.3768"/>
<polygon fill="#000000" stroke="#000000" points="99.0875,-226.4091 96.4508,-216.1476 92.1128,-225.8136 99.0875,-226.4091"/>
<text text-anchor="middle" x="95.3895" y="-236" font-family="Helvetica,sans-Serif" font-size="10.00" fill="#000000"> </text>
</g>
<!-- ADD_P3 -->
<g id="node6" class="node state regular">
<title>ADD_P3</title>
<polygon fill="#ffffff" fill-opacity="0.003922" stroke="transparent" stroke-width="2" points="139,-134 71,-134 71,-98 139,-98 139,-134"/>
<text text-anchor="start" x="81.6636" y="-112.2" font-family="Helvetica,sans-Serif" font-size="12.00" fill="#000000">ADD_P3</text>
<path fill="none" stroke="#000000" stroke-width="2" d="M83.3333,-99C83.3333,-99 126.6667,-99 126.6667,-99 132.3333,-99 138,-104.6667 138,-110.3333 138,-110.3333 138,-121.6667 138,-121.6667 138,-127.3333 132.3333,-133 126.6667,-133 126.6667,-133 83.3333,-133 83.3333,-133 77.6667,-133 72,-127.3333 72,-121.6667 72,-121.6667 72,-110.3333 72,-110.3333 72,-104.6667 77.6667,-99 83.3333,-99"/>
</g>
<!-- ADD_P1P2&#45;&gt;ADD_P3 -->
<g id="edge5" class="edge transition">
<title>ADD_P1P2&#45;&gt;ADD_P3</title>
<path fill="none" stroke="#000000" d="M99.5535,-179.8015C100.4417,-169.3976 101.575,-156.1215 102.5776,-144.3768"/>
<polygon fill="#000000" stroke="#000000" points="106.0875,-144.4091 103.4508,-134.1476 99.1128,-143.8136 106.0875,-144.4091"/>
<text text-anchor="middle" x="102.3895" y="-154" font-family="Helvetica,sans-Serif" font-size="10.00" fill="#000000"> </text>
</g>
<!-- GEN_FINAL -->
<g id="node7" class="node state regular">
<title>GEN_FINAL</title>
<polygon fill="#ffffff" fill-opacity="0.003922" stroke="transparent" stroke-width="2" points="181,-52 93,-52 93,-16 181,-16 181,-52"/>
<text text-anchor="start" x="103.6634" y="-30.2" font-family="Helvetica,sans-Serif" font-size="12.00" fill="#000000">GEN_FINAL</text>
<path fill="none" stroke="#000000" stroke-width="2" d="M105.3333,-17C105.3333,-17 168.6667,-17 168.6667,-17 174.3333,-17 180,-22.6667 180,-28.3333 180,-28.3333 180,-39.6667 180,-39.6667 180,-45.3333 174.3333,-51 168.6667,-51 168.6667,-51 105.3333,-51 105.3333,-51 99.6667,-51 94,-45.3333 94,-39.6667 94,-39.6667 94,-28.3333 94,-28.3333 94,-22.6667 99.6667,-17 105.3333,-17"/>
</g>
<!-- ADD_P3&#45;&gt;GEN_FINAL -->
<g id="edge6" class="edge transition">
<title>ADD_P3&#45;&gt;GEN_FINAL</title>
<path fill="none" stroke="#000000" d="M112.1018,-97.8015C116.2448,-87.1853 121.5548,-73.5784 126.206,-61.6596"/>
<polygon fill="#000000" stroke="#000000" points="129.5431,-62.7358 129.918,-52.1476 123.022,-60.1909 129.5431,-62.7358"/>
<text text-anchor="middle" x="124.3895" y="-72" font-family="Helvetica,sans-Serif" font-size="10.00" fill="#000000"> </text>
</g>
<!-- GEN_FINAL&#45;&gt;WAIT_FOR_VALID -->
<g id="edge7" class="edge transition">
<title>GEN_FINAL&#45;&gt;WAIT_FOR_VALID</title>
<path fill="none" stroke="#000000" d="M159.2251,-52.2792C164.6855,-58.7299 169,-66.5123 169,-75 169,-403 169,-403 169,-403 169,-409.6359 160.7949,-416.0024 149.3395,-421.6572"/>
<polygon fill="#000000" stroke="#000000" points="147.7187,-418.5482 140.028,-425.8354 150.5845,-424.9347 147.7187,-418.5482"/>
<text text-anchor="middle" x="170.3895" y="-236" font-family="Helvetica,sans-Serif" font-size="10.00" fill="#000000"> </text>
</g>
</g>
</svg>
