<?xml version="1.0" encoding="UTF-8" standalone="no"?>
<!DOCTYPE svg PUBLIC "-//W3C//DTD SVG 1.1//EN"
 "http://www.w3.org/Graphics/SVG/1.1/DTD/svg11.dtd">
<!-- Generated by graphviz version 2.40.1 (20161225.0304)
 -->
<!-- Title: state transitions Pages: 1 -->
<svg width="347pt" height="316pt"
 viewBox="0.00 0.00 347.03 316.00" xmlns="http://www.w3.org/2000/svg" xmlns:xlink="http://www.w3.org/1999/xlink">
<g id="graph0" class="graph" transform="scale(1 1) rotate(0) translate(4 312)">
<title>state transitions</title>
<polygon fill="#ffffff" stroke="transparent" points="-4,4 -4,-312 343.031,-312 343.031,4 -4,4"/>
<g id="clust1" class="cluster state regular">
<title>cluster_rw_state</title>
<path fill="none" stroke="#000000" stroke-width="2" d="M20,-8C20,-8 318,-8 318,-8 324,-8 330,-14 330,-20 330,-20 330,-288 330,-288 330,-294 324,-300 318,-300 318,-300 20,-300 20,-300 14,-300 8,-294 8,-288 8,-288 8,-20 8,-20 8,-14 14,-8 20,-8"/>
<text text-anchor="start" x="146.8302" y="-281.2" font-family="Helvetica,sans-Serif" font-size="12.00" fill="#000000">rw_state</text>
</g>
<!-- rw_state -->
<!-- IDLE -->
<g id="node2" class="node state regular">
<title>IDLE</title>
<polygon fill="#ffffff" fill-opacity="0.003922" stroke="transparent" stroke-width="2" points="215,-262 159,-262 159,-226 215,-226 215,-262"/>
<text text-anchor="start" x="173.6644" y="-240.2" font-family="Helvetica,sans-Serif" font-size="12.00" fill="#000000">IDLE</text>
<path fill="none" stroke="#000000" stroke-width="2" d="M171.3333,-227C171.3333,-227 202.6667,-227 202.6667,-227 208.3333,-227 214,-232.6667 214,-238.3333 214,-238.3333 214,-249.6667 214,-249.6667 214,-255.3333 208.3333,-261 202.6667,-261 202.6667,-261 171.3333,-261 171.3333,-261 165.6667,-261 160,-255.3333 160,-249.6667 160,-249.6667 160,-238.3333 160,-238.3333 160,-232.6667 165.6667,-227 171.3333,-227"/>
</g>
<!-- IDLE&#45;&gt;rw_state -->
<g id="edge2" class="edge transition">
<title>IDLE&#45;&gt;rw_state</title>
<path fill="none" stroke="#ff0000" d="M215.2437,-229.8057C224.2849,-223.1579 232,-214.203 232,-203 232,-203 232,-203 232,-135.5 232,-94.6153 293.7498,-132.2999 316,-98 324.7075,-84.5769 325.5811,-74.8142 316,-62 298.0243,-37.9585 202.2935,-22.1205 170.3695,-17.4436"/>
<polygon fill="#ff0000" stroke="#ff0000" points="170.4848,-13.926 160.0975,-16.0125 169.5188,-20.859 170.4848,-13.926"/>
<text text-anchor="start" x="249" y="-118" font-family="Helvetica,sans-Serif" font-size="10.00" fill="#ff0000">not (rst_count==7) &#160;&#160;</text>
</g>
<!-- WAIT_FILL -->
<g id="node3" class="node state regular">
<title>WAIT_FILL</title>
<polygon fill="#ffffff" fill-opacity="0.003922" stroke="transparent" stroke-width="2" points="183,-180 101,-180 101,-144 183,-144 183,-180"/>
<text text-anchor="start" x="111.6634" y="-158.2" font-family="Helvetica,sans-Serif" font-size="12.00" fill="#000000">WAIT_FILL</text>
<path fill="none" stroke="#000000" stroke-width="2" d="M113.3333,-145C113.3333,-145 170.6667,-145 170.6667,-145 176.3333,-145 182,-150.6667 182,-156.3333 182,-156.3333 182,-167.6667 182,-167.6667 182,-173.3333 176.3333,-179 170.6667,-179 170.6667,-179 113.3333,-179 113.3333,-179 107.6667,-179 102,-173.3333 102,-167.6667 102,-167.6667 102,-156.3333 102,-156.3333 102,-150.6667 107.6667,-145 113.3333,-145"/>
</g>
<!-- IDLE&#45;&gt;WAIT_FILL -->
<g id="edge1" class="edge transition">
<title>IDLE&#45;&gt;WAIT_FILL</title>
<path fill="none" stroke="#000000" d="M170.8923,-225.8853C166.7578,-220.6695 162.5626,-214.8124 159.303,-209 156.0095,-203.1272 153.1253,-196.5068 150.7041,-190.1284"/>
<polygon fill="#000000" stroke="#000000" points="153.9161,-188.7125 147.2882,-180.4468 147.3149,-191.0416 153.9161,-188.7125"/>
<text text-anchor="start" x="159" y="-200" font-family="Helvetica,sans-Serif" font-size="10.00" fill="#000000">rst_count==7 &#160;&#160;</text>
</g>
<!-- WAIT_FILL&#45;&gt;rw_state -->
<g id="edge4" class="edge transition">
<title>WAIT_FILL&#45;&gt;rw_state</title>
<path fill="none" stroke="#ff0000" d="M160.2947,-143.8174C164.256,-138.7761 167.8879,-133.0212 170,-127 182.546,-91.234 170.0364,-45.2106 163.4701,-25.5696"/>
<polygon fill="#ff0000" stroke="#ff0000" points="166.7169,-24.2559 160.0191,-16.0468 160.1357,-26.641 166.7169,-24.2559"/>
<text text-anchor="start" x="175" y="-77" font-family="Helvetica,sans-Serif" font-size="10.00" fill="#ff0000">not (data_count == delay_ctl) &#160;&#160;</text>
</g>
<!-- NORMAL_RW -->
<g id="node4" class="node state regular">
<title>NORMAL_RW</title>
<polygon fill="#ffffff" fill-opacity="0.003922" stroke="transparent" stroke-width="2" points="115.5,-98 16.5,-98 16.5,-62 115.5,-62 115.5,-98"/>
<text text-anchor="start" x="27.5054" y="-76.2" font-family="Helvetica,sans-Serif" font-size="12.00" fill="#000000">NORMAL_RW</text>
<path fill="none" stroke="#000000" stroke-width="2" d="M28.8333,-63C28.8333,-63 103.1667,-63 103.1667,-63 108.8333,-63 114.5,-68.6667 114.5,-74.3333 114.5,-74.3333 114.5,-85.6667 114.5,-85.6667 114.5,-91.3333 108.8333,-97 103.1667,-97 103.1667,-97 28.8333,-97 28.8333,-97 23.1667,-97 17.5,-91.3333 17.5,-85.6667 17.5,-85.6667 17.5,-74.3333 17.5,-74.3333 17.5,-68.6667 23.1667,-63 28.8333,-63"/>
</g>
<!-- WAIT_FILL&#45;&gt;NORMAL_RW -->
<g id="edge3" class="edge transition">
<title>WAIT_FILL&#45;&gt;NORMAL_RW</title>
<path fill="none" stroke="#000000" d="M100.7542,-155.8962C83.4539,-151.0744 64.9593,-142.4445 54.503,-127 50.6428,-121.2982 50.4332,-114.4292 51.9323,-107.725"/>
<polygon fill="#000000" stroke="#000000" points="55.2735,-108.7695 55.125,-98.1757 48.6347,-106.5498 55.2735,-108.7695"/>
<text text-anchor="start" x="54" y="-118" font-family="Helvetica,sans-Serif" font-size="10.00" fill="#000000">data_count == delay_ctl &#160;&#160;</text>
</g>
<!-- NORMAL_RW&#45;&gt;rw_state -->
<g id="edge5" class="edge transition">
<title>NORMAL_RW&#45;&gt;rw_state</title>
<path fill="none" stroke="#ff0000" d="M92.6852,-61.8314C112.4561,-48.3703 138.1657,-30.8659 151.3576,-21.8842"/>
<polygon fill="#ff0000" stroke="#ff0000" points="153.5895,-24.5988 159.8858,-16.0778 149.65,-18.8126 153.5895,-24.5988"/>
<text text-anchor="middle" x="134.3895" y="-36" font-family="Helvetica,sans-Serif" font-size="10.00" fill="#ff0000"> </text>
</g>
</g>
</svg>
