<?xml version="1.0" encoding="UTF-8" standalone="no"?>
<!DOCTYPE svg PUBLIC "-//W3C//DTD SVG 1.1//EN"
 "http://www.w3.org/Graphics/SVG/1.1/DTD/svg11.dtd">
<!-- Generated by graphviz version 2.40.1 (20161225.0304)
 -->
<!-- Title: state transitions Pages: 1 -->
<svg width="422pt" height="692pt"
 viewBox="0.00 0.00 422.31 692.00" xmlns="http://www.w3.org/2000/svg" xmlns:xlink="http://www.w3.org/1999/xlink">
<g id="graph0" class="graph" transform="scale(1 1) rotate(0) translate(4 688)">
<title>state transitions</title>
<polygon fill="#ffffff" stroke="transparent" points="-4,4 -4,-688 418.312,-688 418.312,4 -4,4"/>
<g id="clust1" class="cluster state regular">
<title>cluster_state3</title>
<path fill="none" stroke="#000000" stroke-width="2" d="M20,-8C20,-8 336,-8 336,-8 342,-8 348,-14 348,-20 348,-20 348,-664 348,-664 348,-670 342,-676 336,-676 336,-676 20,-676 20,-676 14,-676 8,-670 8,-664 8,-664 8,-20 8,-20 8,-14 14,-8 20,-8"/>
<text text-anchor="start" x="161.659" y="-657.2" font-family="Helvetica,sans-Serif" font-size="12.00" fill="#000000">state3</text>
</g>
<!-- state3 -->
<!-- S3_WAIT_PKT -->
<g id="node2" class="node state regular">
<title>S3_WAIT_PKT</title>
<polygon fill="#ffffff" fill-opacity="0.003922" stroke="transparent" stroke-width="2" points="126.5,-638 23.5,-638 23.5,-602 126.5,-602 126.5,-638"/>
<text text-anchor="start" x="34.8266" y="-616.2" font-family="Helvetica,sans-Serif" font-size="12.00" fill="#000000">S3_WAIT_PKT</text>
<path fill="none" stroke="#000000" stroke-width="2" d="M35.8333,-603C35.8333,-603 114.1667,-603 114.1667,-603 119.8333,-603 125.5,-608.6667 125.5,-614.3333 125.5,-614.3333 125.5,-625.6667 125.5,-625.6667 125.5,-631.3333 119.8333,-637 114.1667,-637 114.1667,-637 35.8333,-637 35.8333,-637 30.1667,-637 24.5,-631.3333 24.5,-625.6667 24.5,-625.6667 24.5,-614.3333 24.5,-614.3333 24.5,-608.6667 30.1667,-603 35.8333,-603"/>
</g>
<!-- S3_L_STF -->
<g id="node3" class="node state regular">
<title>S3_L_STF</title>
<polygon fill="#ffffff" fill-opacity="0.003922" stroke="transparent" stroke-width="2" points="114.5,-556 35.5,-556 35.5,-520 114.5,-520 114.5,-556"/>
<text text-anchor="start" x="46.8248" y="-534.2" font-family="Helvetica,sans-Serif" font-size="12.00" fill="#000000">S3_L_STF</text>
<path fill="none" stroke="#000000" stroke-width="2" d="M47.8333,-521C47.8333,-521 102.1667,-521 102.1667,-521 107.8333,-521 113.5,-526.6667 113.5,-532.3333 113.5,-532.3333 113.5,-543.6667 113.5,-543.6667 113.5,-549.3333 107.8333,-555 102.1667,-555 102.1667,-555 47.8333,-555 47.8333,-555 42.1667,-555 36.5,-549.3333 36.5,-543.6667 36.5,-543.6667 36.5,-532.3333 36.5,-532.3333 36.5,-526.6667 42.1667,-521 47.8333,-521"/>
</g>
<!-- S3_WAIT_PKT&#45;&gt;S3_L_STF -->
<g id="edge1" class="edge transition">
<title>S3_WAIT_PKT&#45;&gt;S3_L_STF</title>
<path fill="none" stroke="#000000" d="M75,-601.8015C75,-591.3976 75,-578.1215 75,-566.3768"/>
<polygon fill="#000000" stroke="#000000" points="78.5001,-566.1476 75,-556.1476 71.5001,-566.1476 78.5001,-566.1476"/>
<text text-anchor="start" x="75" y="-576" font-family="Helvetica,sans-Serif" font-size="10.00" fill="#000000">phy_tx_start &#160;&#160;</text>
</g>
<!-- S3_L_LTF -->
<g id="node4" class="node state regular">
<title>S3_L_LTF</title>
<polygon fill="#ffffff" fill-opacity="0.003922" stroke="transparent" stroke-width="2" points="114,-474 36,-474 36,-438 114,-438 114,-474"/>
<text text-anchor="start" x="46.9908" y="-452.2" font-family="Helvetica,sans-Serif" font-size="12.00" fill="#000000">S3_L_LTF</text>
<path fill="none" stroke="#000000" stroke-width="2" d="M48.3333,-439C48.3333,-439 101.6667,-439 101.6667,-439 107.3333,-439 113,-444.6667 113,-450.3333 113,-450.3333 113,-461.6667 113,-461.6667 113,-467.3333 107.3333,-473 101.6667,-473 101.6667,-473 48.3333,-473 48.3333,-473 42.6667,-473 37,-467.3333 37,-461.6667 37,-461.6667 37,-450.3333 37,-450.3333 37,-444.6667 42.6667,-439 48.3333,-439"/>
</g>
<!-- S3_L_STF&#45;&gt;S3_L_LTF -->
<g id="edge2" class="edge transition">
<title>S3_L_STF&#45;&gt;S3_L_LTF</title>
<path fill="none" stroke="#000000" d="M75,-519.8015C75,-509.3976 75,-496.1215 75,-484.3768"/>
<polygon fill="#000000" stroke="#000000" points="78.5001,-484.1476 75,-474.1476 71.5001,-484.1476 78.5001,-484.1476"/>
<text text-anchor="start" x="75" y="-494" font-family="Helvetica,sans-Serif" font-size="10.00" fill="#000000">not (preamble_addr &lt; 159) &#160;&#160;</text>
</g>
<!-- S3_L_SIG -->
<g id="node5" class="node state regular">
<title>S3_L_SIG</title>
<polygon fill="#ffffff" fill-opacity="0.003922" stroke="transparent" stroke-width="2" points="113.5,-392 36.5,-392 36.5,-356 113.5,-356 113.5,-392"/>
<text text-anchor="start" x="47.8208" y="-370.2" font-family="Helvetica,sans-Serif" font-size="12.00" fill="#000000">S3_L_SIG</text>
<path fill="none" stroke="#000000" stroke-width="2" d="M48.8333,-357C48.8333,-357 101.1667,-357 101.1667,-357 106.8333,-357 112.5,-362.6667 112.5,-368.3333 112.5,-368.3333 112.5,-379.6667 112.5,-379.6667 112.5,-385.3333 106.8333,-391 101.1667,-391 101.1667,-391 48.8333,-391 48.8333,-391 43.1667,-391 37.5,-385.3333 37.5,-379.6667 37.5,-379.6667 37.5,-368.3333 37.5,-368.3333 37.5,-362.6667 43.1667,-357 48.8333,-357"/>
</g>
<!-- S3_L_LTF&#45;&gt;S3_L_SIG -->
<g id="edge3" class="edge transition">
<title>S3_L_LTF&#45;&gt;S3_L_SIG</title>
<path fill="none" stroke="#000000" d="M75,-437.8015C75,-427.3976 75,-414.1215 75,-402.3768"/>
<polygon fill="#000000" stroke="#000000" points="78.5001,-402.1476 75,-392.1476 71.5001,-402.1476 78.5001,-402.1476"/>
<text text-anchor="start" x="75" y="-412" font-family="Helvetica,sans-Serif" font-size="10.00" fill="#000000">not (preamble_addr &lt; 159) &#160;&#160;</text>
</g>
<!-- S3_HT_SIG -->
<g id="node6" class="node state regular">
<title>S3_HT_SIG</title>
<polygon fill="#ffffff" fill-opacity="0.003922" stroke="transparent" stroke-width="2" points="169,-298 83,-298 83,-262 169,-262 169,-298"/>
<text text-anchor="start" x="93.6594" y="-276.2" font-family="Helvetica,sans-Serif" font-size="12.00" fill="#000000">S3_HT_SIG</text>
<path fill="none" stroke="#000000" stroke-width="2" d="M95.3333,-263C95.3333,-263 156.6667,-263 156.6667,-263 162.3333,-263 168,-268.6667 168,-274.3333 168,-274.3333 168,-285.6667 168,-285.6667 168,-291.3333 162.3333,-297 156.6667,-297 156.6667,-297 95.3333,-297 95.3333,-297 89.6667,-297 84,-291.3333 84,-285.6667 84,-285.6667 84,-274.3333 84,-274.3333 84,-268.6667 89.6667,-263 95.3333,-263"/>
</g>
<!-- S3_L_SIG&#45;&gt;S3_HT_SIG -->
<g id="edge5" class="edge transition">
<title>S3_L_SIG&#45;&gt;S3_HT_SIG</title>
<path fill="none" stroke="#000000" d="M84.8333,-355.8759C92.3121,-342.0915 102.7262,-322.8968 111.2086,-307.2627"/>
<polygon fill="#000000" stroke="#000000" points="114.5044,-308.5273 116.1969,-298.0685 108.3516,-305.1891 114.5044,-308.5273"/>
<text text-anchor="start" x="106" y="-330" font-family="Helvetica,sans-Serif" font-size="10.00" fill="#000000">not (PKT_TYPE == LEGACY) &#160;&#160;</text>
<text text-anchor="start" x="106" y="-318" font-family="Helvetica,sans-Serif" font-size="10.00" fill="#000000">pkt_iq_sent == 383 &amp;&amp; CP_iq_sent == 16 &#160;&#160;</text>
</g>
<!-- S3_DATA -->
<g id="node9" class="node state regular">
<title>S3_DATA</title>
<polygon fill="#ffffff" fill-opacity="0.003922" stroke="transparent" stroke-width="2" points="125.5,-52 50.5,-52 50.5,-16 125.5,-16 125.5,-52"/>
<text text-anchor="start" x="61.8282" y="-30.2" font-family="Helvetica,sans-Serif" font-size="12.00" fill="#000000">S3_DATA</text>
<path fill="none" stroke="#000000" stroke-width="2" d="M62.8333,-17C62.8333,-17 113.1667,-17 113.1667,-17 118.8333,-17 124.5,-22.6667 124.5,-28.3333 124.5,-28.3333 124.5,-39.6667 124.5,-39.6667 124.5,-45.3333 118.8333,-51 113.1667,-51 113.1667,-51 62.8333,-51 62.8333,-51 57.1667,-51 51.5,-45.3333 51.5,-39.6667 51.5,-39.6667 51.5,-28.3333 51.5,-28.3333 51.5,-22.6667 57.1667,-17 62.8333,-17"/>
</g>
<!-- S3_L_SIG&#45;&gt;S3_DATA -->
<g id="edge4" class="edge transition">
<title>S3_L_SIG&#45;&gt;S3_DATA</title>
<path fill="none" stroke="#000000" d="M51.7774,-355.8388C44.3436,-347.9579 38,-338.0079 38,-327 38,-327 38,-327 38,-75 38,-69.1766 40.0531,-64.0298 43.3272,-59.5244"/>
<polygon fill="#000000" stroke="#000000" points="46.0238,-61.767 50.3596,-52.0999 40.9417,-56.9532 46.0238,-61.767"/>
<text text-anchor="start" x="38" y="-201" font-family="Helvetica,sans-Serif" font-size="10.00" fill="#000000">PKT_TYPE == LEGACY &#160;&#160;</text>
<text text-anchor="start" x="38" y="-189" font-family="Helvetica,sans-Serif" font-size="10.00" fill="#000000">pkt_iq_sent == 383 &amp;&amp; CP_iq_sent == 16 &#160;&#160;</text>
</g>
<!-- S3_HT_STF -->
<g id="node7" class="node state regular">
<title>S3_HT_STF</title>
<polygon fill="#ffffff" fill-opacity="0.003922" stroke="transparent" stroke-width="2" points="340,-216 252,-216 252,-180 340,-180 340,-216"/>
<text text-anchor="start" x="262.6634" y="-194.2" font-family="Helvetica,sans-Serif" font-size="12.00" fill="#000000">S3_HT_STF</text>
<path fill="none" stroke="#000000" stroke-width="2" d="M264.3333,-181C264.3333,-181 327.6667,-181 327.6667,-181 333.3333,-181 339,-186.6667 339,-192.3333 339,-192.3333 339,-203.6667 339,-203.6667 339,-209.3333 333.3333,-215 327.6667,-215 327.6667,-215 264.3333,-215 264.3333,-215 258.6667,-215 253,-209.3333 253,-203.6667 253,-203.6667 253,-192.3333 253,-192.3333 253,-186.6667 258.6667,-181 264.3333,-181"/>
</g>
<!-- S3_HT_SIG&#45;&gt;S3_HT_STF -->
<g id="edge6" class="edge transition">
<title>S3_HT_SIG&#45;&gt;S3_HT_STF</title>
<path fill="none" stroke="#000000" d="M163.7285,-261.8015C189.0167,-249.6037 222.4898,-233.4579 249.4352,-220.4607"/>
<polygon fill="#000000" stroke="#000000" points="251.1834,-223.5034 258.6698,-216.0063 248.1422,-217.1985 251.1834,-223.5034"/>
<text text-anchor="start" x="222" y="-236" font-family="Helvetica,sans-Serif" font-size="10.00" fill="#000000">pkt_iq_sent == 511 &amp;&amp; CP_iq_sent == 48 &#160;&#160;</text>
</g>
<!-- S3_HT_LTF -->
<g id="node8" class="node state regular">
<title>S3_HT_LTF</title>
<polygon fill="#ffffff" fill-opacity="0.003922" stroke="transparent" stroke-width="2" points="205.5,-134 118.5,-134 118.5,-98 205.5,-98 205.5,-134"/>
<text text-anchor="start" x="129.8294" y="-112.2" font-family="Helvetica,sans-Serif" font-size="12.00" fill="#000000">S3_HT_LTF</text>
<path fill="none" stroke="#000000" stroke-width="2" d="M130.8333,-99C130.8333,-99 193.1667,-99 193.1667,-99 198.8333,-99 204.5,-104.6667 204.5,-110.3333 204.5,-110.3333 204.5,-121.6667 204.5,-121.6667 204.5,-127.3333 198.8333,-133 193.1667,-133 193.1667,-133 130.8333,-133 130.8333,-133 125.1667,-133 119.5,-127.3333 119.5,-121.6667 119.5,-121.6667 119.5,-110.3333 119.5,-110.3333 119.5,-104.6667 125.1667,-99 130.8333,-99"/>
</g>
<!-- S3_HT_STF&#45;&gt;S3_HT_LTF -->
<g id="edge7" class="edge transition">
<title>S3_HT_STF&#45;&gt;S3_HT_LTF</title>
<path fill="none" stroke="#000000" d="M266.2611,-179.8015C246.8307,-167.9113 221.27,-152.2697 200.3205,-139.4499"/>
<polygon fill="#000000" stroke="#000000" points="202.0124,-136.3819 191.6558,-134.1476 198.3586,-142.3527 202.0124,-136.3819"/>
<text text-anchor="start" x="237" y="-154" font-family="Helvetica,sans-Serif" font-size="10.00" fill="#000000">not (preamble_addr &lt; 79) &#160;&#160;</text>
</g>
<!-- S3_HT_LTF&#45;&gt;S3_DATA -->
<g id="edge8" class="edge transition">
<title>S3_HT_LTF&#45;&gt;S3_DATA</title>
<path fill="none" stroke="#000000" d="M145.577,-97.8015C135.5175,-86.6545 122.4824,-72.2103 111.3597,-59.8851"/>
<polygon fill="#000000" stroke="#000000" points="113.6752,-57.2267 104.3771,-52.1476 108.4784,-61.9164 113.6752,-57.2267"/>
<text text-anchor="start" x="129" y="-72" font-family="Helvetica,sans-Serif" font-size="10.00" fill="#000000">not (preamble_addr &lt; 79) &#160;&#160;</text>
</g>
</g>
</svg>
